<?xml version="1.0" encoding="utf-8"?>
<svg stroke-linecap="round" font-size="12" font-family="Segoe UI" width="1465.6044518241119" height="1258.1093489247053" xmlns:xlink="http://www.w3.org/1999/xlink" xmlns="http://www.w3.org/2000/svg">
  <defs />
  <rect width="1385.6044518241119" height="1178.1093489247053" fill="#FFFFFF" />
  <g transform="translate(-76.4822123265178,21.1798309945214)">
    <rect x="96.482212326517811" y="54.694517930183395" rx="5" ry="5" width="1385.6044518241119" height="1122.2350000000006" fill="#A0F0A0" stroke="#A5A6A9" stroke-width="1" />
    <text x="772.48221232651781" y="72.6445179301834" fill="#000000">Query</text>
    <rect x="101.48221232651781" y="82.6545179301834" width="1375.6044518241119" height="1089.2750000000005" fill="white" stroke="#A5A6A9" stroke-width="1" />
    <path d="M 770.821191783827,120.654517930183 L 733.110316755724,147.16595290802" fill="none" stroke="#A0A0A0" stroke-width="1" />
    <path d="M 725.747684693321,152.342017930183 L 736.228860328064,149.863115488848 C 733.877141203452,148.256713213561 732.343492307996,146.075192602479 731.627913641696,143.3185536556 z" fill="#A0A0A0" stroke="#A0A0A0" stroke-width="1" stroke-linejoin="round" />
    <path d="M 789.284438238574,120.654517930183 L 789.284438238574,200.989517930183" fill="none" stroke="#0080FF" stroke-width="1" />
    <path d="M 789.284438238574,209.989517930183 L 793.284438238574,199.989517930183 C 790.617771571907,200.989517930183 787.951104905241,200.989517930183 785.284438238574,199.989517930183 z" fill="#0080FF" stroke="#0080FF" stroke-width="1" stroke-linejoin="round" />
    <path d="M 710.119905556148,178.302017930183 L 715.121260881403,201.196865534129" fill="none" stroke="#0080FF" stroke-width="1" />
    <path d="M 717.042006528845,209.989517930183 L 718.815690207711,199.366239424594 C 716.423876051189,200.912310623397 713.818645711617,201.481420444862 710.999999188997,201.073568888987 z" fill="#0080FF" stroke="#0080FF" stroke-width="1" stroke-linejoin="round" />
    <rect x="739.12777157190715" y="94.6945179301834" rx="3" ry="3" width="100.31333333333339" height="25.960000000000008" fill="#008000" stroke="#A5A6A9" stroke-width="1" />
    <text x="749.12777157190715" y="112.6445179301834" fill="#FFFFFF">GraphCategory</text>
    <rect x="655.81943823857387" y="152.34201793018343" rx="3" ry="3" width="102.93000000000006" height="25.960000000000008" fill="#008000" stroke="#A5A6A9" stroke-width="1" />
    <text x="665.81943823857387" y="170.29201793018342" fill="#FFFFFF">GraphMetadata</text>
    <rect x="627.51777157190713" y="903.08951793018377" rx="5" ry="5" width="323.53333333333353" height="253.84000000000015" fill="#A0F0A0" stroke="#A5A6A9" stroke-width="1" />
    <text x="756.51777157190713" y="921.03951793018382" fill="#000000">Transactions</text>
    <rect x="632.51777157190713" y="931.04951793018381" width="313.53333333333353" height="220.88000000000014" fill="white" stroke="#A5A6A9" stroke-width="1" />
    <path d="M 770.483848531641,1025.00951793018 L 824.042301245719,1051.07152674653" fill="none" stroke="#0080FF" stroke-width="1" />
    <path d="M 832.135027945508,1055.00951793018 L 824.893327694033,1047.03720474844 C 824.625707347001,1049.87260427249 823.458895144437,1052.27044922057 821.392891086341,1054.2307395927 z" fill="#0080FF" stroke="#0080FF" stroke-width="1" stroke-linejoin="round" />
    <path d="M 737.778701998403,1025.00951793018 L 727.632404478413,1046.8474721309" fill="none" stroke="#0080FF" stroke-width="1" />
    <path d="M 723.840174478746,1055.00951793018 L 731.681339278058,1047.62601370861 C 728.841596448678,1047.4092839827 726.423212508149,1046.2856602791 724.426187456472,1044.25514259779 z" fill="#0080FF" stroke="#0080FF" stroke-width="1" stroke-linejoin="round" />
    <path d="M 832.135027945508,969.049517930184 L 778.576575231429,995.11152674653" fill="none" stroke="#A0A0A0" stroke-width="1" />
    <path d="M 770.483848531641,999.049517930184 L 781.225985390807,998.270739592697 C 779.159981332711,996.310449220573 777.993169130147,993.912604272487 777.725548783115,991.07720474844 z" fill="#A0A0A0" stroke="#A0A0A0" stroke-width="1" stroke-linejoin="round" />
    <path d="M 858.809438238574,969.049517930184 L 858.809438238574,1046.00951793018" fill="none" stroke="#0080FF" stroke-width="1" />
    <path d="M 858.809438238574,1055.00951793018 L 862.809438238574,1045.00951793018 C 860.142771571907,1046.00951793018 857.476104905241,1046.00951793018 854.809438238574,1045.00951793018 z" fill="#0080FF" stroke="#0080FF" stroke-width="1" stroke-linejoin="round" />
    <path d="M 770.821191783827,120.654517930183 L 733.110316755724,147.16595290802" fill="none" stroke="#A0A0A0" stroke-width="1" />
    <path d="M 725.747684693321,152.342017930183 L 736.228860328064,149.863115488848 C 733.877141203452,148.256713213561 732.343492307996,146.075192602479 731.627913641696,143.3185536556 z" fill="#A0A0A0" stroke="#A0A0A0" stroke-width="1" stroke-linejoin="round" />
    <path d="M 789.284438238574,120.654517930183 L 789.284438238574,200.989517930183" fill="none" stroke="#0080FF" stroke-width="1" />
    <path d="M 789.284438238574,209.989517930183 L 793.284438238574,199.989517930183 C 790.617771571907,200.989517930183 787.951104905241,200.989517930183 785.284438238574,199.989517930183 z" fill="#0080FF" stroke="#0080FF" stroke-width="1" stroke-linejoin="round" />
    <path d="M 710.119905556148,178.302017930183 L 715.121260881403,201.196865534129" fill="none" stroke="#0080FF" stroke-width="1" />
    <path d="M 717.042006528845,209.989517930183 L 718.815690207711,199.366239424594 C 716.423876051189,200.912310623397 713.818645711617,201.481420444862 710.999999188997,201.073568888987 z" fill="#0080FF" stroke="#0080FF" stroke-width="1" stroke-linejoin="round" />
    <rect x="660.05443823857377" y="999.04951793018381" rx="3" ry="3" width="167.51" height="25.960000000000036" fill="#008000" stroke="#A5A6A9" stroke-width="1" />
    <text x="670.05443823857377" y="1016.9995179301839" fill="#FFFFFF">GraphTransactionEnlistment</text>
    <rect x="786.56777157190709" y="943.08951793018377" rx="3" ry="3" width="144.48333333333335" height="25.960000000000036" fill="#008000" stroke="#A5A6A9" stroke-width="1" />
    <text x="796.56777157190709" y="961.03951793018382" fill="#FFFFFF">GraphTransactionScope</text>
    <rect x="739.12777157190715" y="94.6945179301834" rx="3" ry="3" width="100.31333333333339" height="25.960000000000008" fill="#008000" stroke="#A5A6A9" stroke-width="1" />
    <text x="749.12777157190715" y="112.6445179301834" fill="#FFFFFF">GraphCategory</text>
    <rect x="647.51777157190725" y="1110.9695179301839" rx="3" ry="3" width="97.656666666666524" height="25.960000000000036" fill="#008000" stroke="#A5A6A9" stroke-width="1" />
    <text x="657.51777157190725" y="1128.9195179301839" fill="#FFFFFF">GraphProperty</text>
    <rect x="655.81943823857387" y="152.34201793018343" rx="3" ry="3" width="102.93000000000006" height="25.960000000000008" fill="#008000" stroke="#A5A6A9" stroke-width="1" />
    <text x="665.81943823857387" y="170.29201793018342" fill="#FFFFFF">GraphMetadata</text>
    <rect x="818.2461049052406" y="1055.0095179301838" rx="3" ry="3" width="81.126666666666551" height="25.960000000000036" fill="#80A0A0" stroke="#A5A6A9" stroke-width="1" />
    <text x="828.2461049052406" y="1072.9595179301839" fill="#000000">IDisposable</text>
    <rect x="647.51777157190713" y="1055.0095179301838" rx="3" ry="3" width="140.58333333333348" height="25.960000000000036" fill="#80A0A0" stroke="#A5A6A9" stroke-width="1" />
    <text x="657.51777157190713" y="1072.9595179301839" fill="#000000">IEnlistmentNotification</text>
    <rect x="116.48221232651781" y="209.98951793018347" rx="5" ry="5" width="1345.6044518241119" height="661.41250000000036" fill="#A0F0A0" stroke="#A5A6A9" stroke-width="1" />
    <text x="776.48221232651781" y="227.93951793018346" fill="#000000">Core</text>
    <rect x="121.48221232651781" y="237.94951793018348" width="1335.6044518241119" height="628.45250000000033" fill="white" stroke="#A5A6A9" stroke-width="1" />
    <path d="M 958.46166415063,275.949517930183 L 958.46166415063,298.637017930183" fill="none" stroke="#A0A0A0" stroke-width="1" />
    <path d="M 958.46166415063,307.637017930183 L 962.46166415063,297.637017930183 C 959.794997483963,298.637017930183 957.128330817296,298.637017930183 954.46166415063,297.637017930183 z" fill="#A0A0A0" stroke="#A0A0A0" stroke-width="1" stroke-linejoin="round" />
    <path d="M 1031.11499748396,267.406258431596 L 1194.46166415063,277.381392930183 C 1351.79499748396,286.98930959685 1419.79499748396,330.22493459685 1398.46166415063,407.088267930183 C 1377.1283308173,483.951601263517 1285.96166415063,541.654517930184 1124.96166415063,580.197017930183 L 993.524351279109,611.662375888882" fill="none" stroke="#A0A0A0" stroke-width="1" />
    <path d="M 984.771664150629,613.757720259375 L 995.428136235825,615.31964301593 C 993.83477266733,612.959070278287 993.213929890887,610.365681499478 993.565607906498,607.539476679504 z" fill="#A0A0A0" stroke="#A0A0A0" stroke-width="1" stroke-linejoin="round" />
    <path d="M 850.918448920134,448.892017930184 L 868.70518370798,473.305370160716" fill="none" stroke="#A0A0A0" stroke-width="1" />
    <path d="M 874.004879381125,480.579517930184 L 871.349283197394,470.141711220489 C 869.782835229383,472.520230060991 867.627532186578,474.090510260441 864.883374068979,474.85255181884 z" fill="#A0A0A0" stroke="#A0A0A0" stroke-width="1" stroke-linejoin="round" />
    <path d="M 568.519997483963,779.500071192358 L 375.46166415063,768.050142930183 C 213.46166415063,758.442226263517 137.482212326518,697.920267372751 147.523308678293,586.484266257886 L 161.643600422978,429.777389690108 C 162.271168944964,422.812639620429 163.781585611631,418.602248995429 166.174850422978,417.146217815108 L 220.023308678293,384.385516257887 C 258.315545659851,361.089017372751 390.961664150629,344.63680959685 617.96166415063,335.028892930183 L 923.291381565017,322.105622089768" fill="none" stroke="#A0A0A0" stroke-width="1" />
    <path d="M 932.283330817296,321.725032225949 L 922.123125041956,318.151487962513 C 923.234997881489,320.773481459801 923.347765248546,323.437762719735 922.461427143128,326.144331742316 z" fill="#A0A0A0" stroke="#A0A0A0" stroke-width="1" stroke-linejoin="round" />
    <path d="M 600.899063864407,769.482017930184 L 598.96166415063,768.050142930183 C 585.96166415063,758.442226263517 598.853772840322,752.247642930184 637.637990219709,749.466392930184 L 652.182071736978,748.423424180184 C 681.270234771518,746.337486680183 719.270234771517,731.884049180184 766.182071736978,705.063111680184 L 774.338492948477,700.399835251713" fill="none" stroke="#A0A0A0" stroke-width="1" />
    <path d="M 782.15166415063,695.932805392191 L 771.485016210673,697.423651368481 C 773.676710747067,699.24232840695 775.000275149888,701.557342096476 775.455709419137,704.368692437061 z" fill="#A0A0A0" stroke="#A0A0A0" stroke-width="1" stroke-linejoin="round" />
    <path d="M 960.134997483963,484.234568598257 L 1001.96166415063,479.147642930183 C 1080.96166415063,469.539726263517 1115.58740629064,456.226157209552 1105.83889057068,439.206935768289 L 1102.18319717569,432.824727727815 C 1094.87181038571,420.060311646867 1074.62181038571,412.854374146867 1041.43319717569,411.206915227815 L 1024.83889057068,410.383185768289 C 980.587406290645,408.186573876219 958.46166415063,392.676392930183 958.46166415063,363.852642930183 L 958.46166415063,342.597017930184" fill="none" stroke="#A0A0A0" stroke-width="1" />
    <path d="M 958.46166415063,333.597017930184 L 954.46166415063,343.597017930184 C 957.128330817296,342.597017930184 959.794997483963,342.597017930184 962.46166415063,343.597017930184 z" fill="#A0A0A0" stroke="#A0A0A0" stroke-width="1" stroke-linejoin="round" />
    <path d="M 883.461664150629,506.539517930183 L 883.461664150629,529.227017930183" fill="none" stroke="#A0A0A0" stroke-width="1" />
    <path d="M 883.461664150629,538.227017930183 L 887.461664150629,528.227017930183 C 884.794997483963,529.227017930183 882.128330817296,529.227017930183 879.461664150629,528.227017930183 z" fill="#A0A0A0" stroke="#A0A0A0" stroke-width="1" stroke-linejoin="round" />
    <path d="M 1095.4333308173,777.528338030846 L 1202.96166415063,768.050142930183 C 1311.96166415063,758.442226263517 1366.46166415063,686.272017930183 1366.46166415063,551.539517930183 L 1366.46166415063,425.227799180183 C 1366.46166415063,374.703111680183 1340.96166415063,347.639283555184 1289.96166415063,344.036314805183 L 993.617622063126,323.100661415184" fill="none" stroke="#A0A0A0" stroke-width="1" />
    <path d="M 984.639997483963,322.46642414444 L 994.333252673814,327.161187591562 C 993.523660985979,324.430679871356 993.711583140273,321.770642959012 994.897019136698,319.181076854528 z" fill="#A0A0A0" stroke="#A0A0A0" stroke-width="1" stroke-linejoin="round" />
    <path d="M 1004.33646357819,769.482017930184 L 1000.46166415063,768.050142930183 C 987.904432956534,763.40980328107 975.347201762438,755.394816858795 962.789970568342,744.005183663357" fill="none" stroke="#A0A0A0" stroke-width="1" />
    <path d="M 956.276320965334,737.794517930183 L 960.753413531711,747.590213012825 C 961.869871941206,744.970168789729 963.710069195479,743.040198536986 966.274005294532,741.800302254595 z" fill="#A0A0A0" stroke="#A0A0A0" stroke-width="1" stroke-linejoin="round" />
    <path d="M 984.639997483963,322.331921874312 L 1288.46166415063,342.234830430183 C 1361.79499748396,347.038788763516 1398.46166415063,385.52587209685 1398.46166415063,457.696080430183 L 1398.46166415063,760.482017930183" fill="none" stroke="#0080FF" stroke-width="1" />
    <path d="M 1398.46166415063,769.482017930183 L 1402.46166415063,759.482017930183 C 1399.79499748396,760.482017930183 1397.1283308173,760.482017930183 1394.46166415063,759.482017930183 z" fill="#0080FF" stroke="#0080FF" stroke-width="1" stroke-linejoin="round" />
    <path d="M 984.632372511957,330.810774080586 L 1064.75147502015,362.017976525459" fill="none" stroke="#A0A0A0" stroke-width="1" />
    <path d="M 1073.13775591523,365.284517930184 L 1065.27146221169,357.92779152712 C 1065.23540708011,360.775564541002 1064.26754296019,363.260388509915 1062.36786985193,365.382263433859 z" fill="#A0A0A0" stroke="#A0A0A0" stroke-width="1" stroke-linejoin="round" />
    <path d="M 932.283330817296,325.581213557925 L 882.461664150629,335.028892930183 C 831.794997483963,344.63680959685 762.794997483963,354.244726263517 675.46166415063,363.852642930183 L 578.407689436675,374.529969280036" fill="none" stroke="#A0A0A0" stroke-width="1" />
    <path d="M 569.46166415063,375.514160105756 L 579.839110391,378.396625982087 C 578.55349548493,375.85530635945 578.261883388421,373.204632200622 578.964274101471,370.444603505602 z" fill="#A0A0A0" stroke="#A0A0A0" stroke-width="1" stroke-linejoin="round" />
    <path d="M 942.700356201456,333.597017930184 L 940.96166415063,335.028892930183 C 929.294997483963,344.63680959685 910.46166415063,354.244726263517 884.46166415063,363.852642930183 L 881.124323691294,365.085907892553" fill="none" stroke="#A0A0A0" stroke-width="1" />
    <path d="M 872.682290962562,368.205536621588 L 883.448828985168,368.491297024318 C 881.58649091041,366.33657940792 880.662156472177,363.835236377185 880.67582567047,360.987267932112 z" fill="#A0A0A0" stroke="#A0A0A0" stroke-width="1" stroke-linejoin="round" />
    <path d="M 984.639997483963,323.174840762104 L 1105.96166415063,335.028892930183 C 1193.88111126786,343.619293485591 1247.95896208387,352.209694040998 1268.19521659868,360.800094596406" fill="none" stroke="#0080FF" stroke-width="1" />
    <path d="M 1275.99841769588,365.284517930184 L 1269.32127129178,356.83373596056 C 1268.85957561109,359.644064804227 1267.53085758626,361.956124388585 1265.33511721731,363.769914713634 z" fill="#0080FF" stroke="#0080FF" stroke-width="1" stroke-linejoin="round" />
    <path d="M 984.639997483963,323.475191170398 L 1090.46166415063,335.028892930183 C 1178.46166415063,344.63680959685 1227.25927185468,357.541920777447 1236.85448726278,373.744226471975 L 1240.45269304082,379.820091107423 C 1247.6491045969,391.971820378319 1261.6491045969,399.177757878319 1282.45269304082,401.437903607423 L 1292.85448726278,402.567976471975 C 1320.59260518801,405.581504110781 1334.46166415063,421.500142930183 1334.46166415063,450.323892930183 C 1334.46166415063,479.147642930183 1259.29499748396,517.634726263517 1108.96166415063,565.785142930183 L 993.342757124804,602.816840587643" fill="none" stroke="#A0A0A0" stroke-width="1.5" />
    <path d="M 984.771664150629,605.562084698476 L 995.515209282304,606.321188119406 C 993.749459956038,604.086632139373 992.936054293569,601.547049035914 993.074992294897,598.702438809029 z" fill="#A0A0A0" stroke="#A0A0A0" stroke-width="1" stroke-linejoin="round" />
    <path d="M 845.461664150629,365.284517930184 L 845.461664150629,363.852642930183 C 845.461664150629,354.244726263517 864.294997483963,344.63680959685 901.96166415063,335.028892930183 L 923.562566385094,329.51899022416" fill="none" stroke="#A0A0A0" stroke-width="1" />
    <path d="M 932.283330817296,327.294520013517 L 921.604939132341,325.890258277697 C 923.233015242776,328.227025123093 923.892117527411,330.810955325227 923.582245986246,333.642048884099 z" fill="#A0A0A0" stroke="#A0A0A0" stroke-width="1" stroke-linejoin="round" />
    <path d="M 818.239997483963,383.392821947068 L 768.96166415063,392.676392930183 C 717.961664150629,402.28430959685 706.523089219988,467.140966947421 734.645939358704,587.246364981896 C 758.237353295242,687.999174425748 779.865776456886,748.258739039213 799.531208843634,768.025058822291" fill="none" stroke="#A0A0A0" stroke-width="1" />
    <path d="M 806.69166415063,773.477386746812 L 801.158859553755,764.236820027568 C 800.338961128748,766.964250628662 798.72345655852,769.08586701592 796.312345843069,770.601669189342 z" fill="#A0A0A0" stroke="#A0A0A0" stroke-width="1" stroke-linejoin="round" />
    <path d="M 844.561017982105,391.244517930184 L 842.985297423876,413.953605650312" fill="none" stroke="#A0A0A0" stroke-width="1" />
    <path d="M 842.362310319154,422.932017930184 L 847.04492367101,413.232887443536 C 844.31543257645,414.045900036197 841.655162271303,413.861311264427 839.064112755569,412.679121128227 z" fill="#A0A0A0" stroke="#A0A0A0" stroke-width="1" stroke-linejoin="round" />
    <path d="M 872.683330817296,387.951314406521 L 885.961664150629,392.676392930183 C 911.898390826492,401.905945097139 940.295890399139,411.135497264094 971.154162868571,420.36504943105" fill="none" stroke="#0080FF" stroke-width="1" />
    <path d="M 979.780324977205,422.932017930184 L 971.336575300559,416.245980882863 C 971.534454498072,419.08709948903 970.773871239069,421.64299937307 969.054825523551,423.913680534984 z" fill="#0080FF" stroke="#0080FF" stroke-width="1" stroke-linejoin="round" />
    <path d="M 818.239997483963,382.505763954958 L 752.96166415063,392.676392930183 C 698.211653834441,401.206666496947 662.248419224727,409.73694006371 645.071960321487,418.267213630474" fill="none" stroke="#0080FF" stroke-width="1" />
    <path d="M 637.375233689638,422.932017930184 L 648.000398524896,421.16966943355 C 645.763042439962,419.407469427785 644.380878203011,417.126957833163 643.853905814044,414.328134649684 z" fill="#0080FF" stroke="#0080FF" stroke-width="1" stroke-linejoin="round" />
    <path d="M 818.239997483963,384.749067637484 L 784.96166415063,392.676392930183 C 744.628330817297,402.28430959685 724.461664150629,426.304101263517 724.461664150629,464.735767930183 C 724.461664150629,495.497104990748 741.439324967785,526.293945650192 775.394646602094,557.126289908513" fill="none" stroke="#A0A0A0" stroke-width="1" />
    <path d="M 782.15166415063,563.071263739304 L 777.286077465941,553.462618350187 C 776.275383465915,556.125250271693 774.513909738273,558.127329545334 772.001656283016,559.468856171108 z" fill="#A0A0A0" stroke="#A0A0A0" stroke-width="1" stroke-linejoin="round" />
    <path d="M 770.821191783827,120.654517930183 L 733.110316755724,147.16595290802" fill="none" stroke="#A0A0A0" stroke-width="1" />
    <path d="M 725.747684693321,152.342017930183 L 736.228860328064,149.863115488848 C 733.877141203452,148.256713213561 732.343492307996,146.075192602479 731.627913641696,143.3185536556 z" fill="#A0A0A0" stroke="#A0A0A0" stroke-width="1" stroke-linejoin="round" />
    <path d="M 789.284438238574,120.654517930183 L 789.284438238574,200.989517930183" fill="none" stroke="#0080FF" stroke-width="1" />
    <path d="M 789.284438238574,209.989517930183 L 793.284438238574,199.989517930183 C 790.617771571907,200.989517930183 787.951104905241,200.989517930183 785.284438238574,199.989517930183 z" fill="#0080FF" stroke="#0080FF" stroke-width="1" stroke-linejoin="round" />
    <path d="M 735.706817886698,769.482017930184 L 734.961664150629,768.050142930183 C 731.06771571954,760.567596524143 744.45939848619,744.310444217046 775.136712450579,719.278686008891" fill="none" stroke="#A0A0A0" stroke-width="1" />
    <path d="M 782.15166415063,713.640383724874 L 771.851361246566,716.787407729315 C 774.301408408503,718.23943390518 775.972016492656,720.317938112603 776.863185499026,723.022920351583 z" fill="#A0A0A0" stroke="#A0A0A0" stroke-width="1" stroke-linejoin="round" />
    <path d="M 1151.83166415063,426.677407669697 C 1122.31841942158,423.079430246483 1090.27896982432,419.185816376226 1055.71331535883,414.996566058927 C 1012.21221455336,409.724367306431 990.46166415063,397.480351263517 990.46166415063,378.264517930183 C 990.46166415063,362.127910696499 986.700651985695,349.379005787471 979.178627655828,340.0178032031" fill="none" stroke="#A0A0A0" stroke-width="1" />
    <path d="M 972.872002847017,333.597017930183 L 977.025681402177,343.53416814845 C 978.227400207988,340.95211798959 980.129855103667,339.083488416609 982.733046089214,337.928279429508 z" fill="#A0A0A0" stroke="#A0A0A0" stroke-width="1" stroke-linejoin="round" />
    <path d="M 1227.46166415063,448.892017930184 L 1227.46166415063,479.147642930183 C 1227.46166415063,507.971392930183 1170.1283308173,541.654517930184 1055.46166415063,580.197017930183 L 993.302638490183,601.090310777722" fill="none" stroke="#A0A0A0" stroke-width="1.5" />
    <path d="M 984.771664150629,603.957796927277 L 995.524962816602,604.563245356462 C 993.72745125308,602.354158828026 992.877825727286,599.826462727418 992.97608623922,596.980157054637 z" fill="#A0A0A0" stroke="#A0A0A0" stroke-width="1" stroke-linejoin="round" />
    <path d="M 844.46166415063,769.482017930184 L 844.46166415063,768.050142930183 C 844.46166415063,763.753466865491 845.761594629446,756.563487203348 848.361455587079,746.480203943754" fill="none" stroke="#A0A0A0" stroke-width="1" />
    <path d="M 850.719178741663,737.794517930183 L 844.239181452761,746.397403209892 C 847.074687288772,746.130911624557 849.648223885386,746.829496262952 851.959791242601,748.493157125077 z" fill="#A0A0A0" stroke="#A0A0A0" stroke-width="1" stroke-linejoin="round" />
    <path d="M 1133.70621074849,391.244517930183 L 1192.09211464811,419.061058385169" fill="none" stroke="#A0A0A0" stroke-width="1" />
    <path d="M 1200.21711755277,422.932017930183 L 1192.90976301204,415.019839366981 C 1192.66559013626,417.857354251144 1191.51863915995,420.264762519193 1189.46891008313,422.24206417113 z" fill="#A0A0A0" stroke="#A0A0A0" stroke-width="1" stroke-linejoin="round" />
    <path d="M 770.483848531641,1025.00951793018 L 824.042301245719,1051.07152674653" fill="none" stroke="#0080FF" stroke-width="1" />
    <path d="M 832.135027945508,1055.00951793018 L 824.893327694033,1047.03720474844 C 824.625707347001,1049.87260427249 823.458895144437,1052.27044922057 821.392891086341,1054.2307395927 z" fill="#0080FF" stroke="#0080FF" stroke-width="1" stroke-linejoin="round" />
    <path d="M 737.778701998403,1025.00951793018 L 727.632404478413,1046.8474721309" fill="none" stroke="#0080FF" stroke-width="1" />
    <path d="M 723.840174478746,1055.00951793018 L 731.681339278058,1047.62601370861 C 728.841596448678,1047.4092839827 726.423212508149,1046.2856602791 724.426187456472,1044.25514259779 z" fill="#0080FF" stroke="#0080FF" stroke-width="1" stroke-linejoin="round" />
    <path d="M 710.119905556148,178.302017930183 L 715.121260881403,201.196865534129" fill="none" stroke="#0080FF" stroke-width="1" />
    <path d="M 717.042006528845,209.989517930183 L 718.815690207711,199.366239424594 C 716.423876051189,200.912310623397 713.818645711617,201.481420444862 710.999999188997,201.073568888987 z" fill="#0080FF" stroke="#0080FF" stroke-width="1" stroke-linejoin="round" />
    <path d="M 245.46166415063,422.932017930183 L 245.461664150629,363.852642930183 C 245.461664150629,315.81305959685 364.294997483963,286.98930959685 601.96166415063,277.381392930183 L 876.815675998319,266.270140021355" fill="none" stroke="#A0A0A0" stroke-width="1" />
    <path d="M 885.808330817296,265.906602806294 L 875.654920033961,262.31379757015 C 876.761818633125,264.937894862988 876.869533363514,267.602385179722 875.978064225127,270.307268520351 z" fill="#A0A0A0" stroke="#A0A0A0" stroke-width="1" stroke-linejoin="round" />
    <path d="M 569.46166415063,374.348247549749 L 636.46166415063,363.852642930183 C 697.794997483963,354.244726263517 766.794997483963,344.63680959685 843.461664150629,335.028892930183 L 923.353182799174,325.016835709984" fill="none" stroke="#A0A0A0" stroke-width="1" />
    <path d="M 932.283330817296,323.897703736343 L 921.863552142209,321.172229032334 C 923.187385469746,323.69385081841 923.518980128602,326.339820601557 922.858336118778,329.110138381776 z" fill="#A0A0A0" stroke="#A0A0A0" stroke-width="1" stroke-linejoin="round" />
    <path d="M 519.46166415063,382.13867787642 L 428.21166415063,396.279361680183 C 381.71166415063,403.485299180184 358.46166415063,435.953580430184 358.46166415063,493.684205430183 L 358.46166415063,522.549517930184 C 358.46166415063,599.52368459685 422.461664150629,662.085976263517 550.461664150629,710.236392930184 L 701.371700361987,767.004995451735" fill="none" stroke="#A0A0A0" stroke-width="1" />
    <path d="M 709.795404042428,770.173783280562 L 701.844083432527,762.909039612781 C 701.841150410702,765.757039350929 700.902250313272,768.252951552542 699.027383140237,770.396776217617 z" fill="#A0A0A0" stroke="#A0A0A0" stroke-width="1" stroke-linejoin="round" />
    <path d="M 519.46166415063,381.569993847615 L 435.46166415063,392.676392930183 C 366.639109865147,401.776044760854 318.297992065581,410.875696591525 290.438310751932,419.975348422195" fill="none" stroke="#A0A0A0" stroke-width="1" />
    <path d="M 281.937833975861,422.932017930183 L 292.696883508379,423.424819266228 C 290.876335864226,421.234678314947 290.000285639637,418.716018529444 290.068732834612,415.86883990972 z" fill="#A0A0A0" stroke="#A0A0A0" stroke-width="1" stroke-linejoin="round" />
    <path d="M 523.521640732441,391.244517930184 L 480.05127222147,418.190303615519" fill="none" stroke="#0080FF" stroke-width="1" />
    <path d="M 472.401687568817,422.932017930183 L 483.008654656061,421.063261870624 C 480.753748416236,419.323575415912 479.348796026705,417.057031815126 478.79379748747,414.263631068266 z" fill="#0080FF" stroke="#0080FF" stroke-width="1" stroke-linejoin="round" />
    <path d="M 561.123618268328,391.244517930184 L 594.699817268245,417.401057549747" fill="none" stroke="#0080FF" stroke-width="1" />
    <path d="M 601.799710032932,422.932017930184 L 596.369144907918,413.630998500949 C 595.519218806088,416.349221584609 593.880415730403,418.452893514886 591.452735680864,419.942014291782 z" fill="#0080FF" stroke="#0080FF" stroke-width="1" stroke-linejoin="round" />
    <path d="M 544.461664150629,391.244517930184 L 544.461664150629,435.912017930184 C 544.461664150629,474.34368459685 569.638019239125,499.754101263517 619.990729416116,512.143267930183 C 666.235891528673,523.52178199478 717.666314380267,544.757513596467 774.281997970899,575.850462735242" fill="none" stroke="#A0A0A0" stroke-width="1.5" />
    <path d="M 782.151664150629,580.217195406198 L 775.348360693576,571.867640803033 C 774.928921329559,574.684586264171 773.635074612239,577.016339206313 771.466820541614,578.86289962946 z" fill="#A0A0A0" stroke="#A0A0A0" stroke-width="1" stroke-linejoin="round" />
    <path d="M 984.771664150629,660.75683011465 L 1140.96166415063,695.824517930183 C 1286.63238546916,728.530423423889 1370.49740081839,750.818917170929 1392.55671019831,762.689999171303" fill="none" stroke="#0080FF" stroke-width="1.5" />
    <path d="M 1398.46166415063,769.482017930183 L 1394.91927920756,759.310906441508 C 1393.56293519963,761.815191178367 1391.55048519699,763.564807164239 1388.88192919966,764.559754399125 z" fill="#0080FF" stroke="#0080FF" stroke-width="1" stroke-linejoin="round" />
    <rect x="885.80833081729622" y="249.98951793018352" rx="3" ry="3" width="145.3066666666665" height="25.95999999999998" fill="#008000" stroke="#A5A6A9" stroke-width="1" />
    <text x="895.80833081729622" y="267.93951793018351" fill="#FFFFFF">LinksUpdatedEventArgs</text>
    <rect x="755.90499748396314" y="422.93201793018358" rx="3" ry="3" width="171.11333333333334" height="25.95999999999998" fill="#008000" stroke="#A5A6A9" stroke-width="1" />
    <text x="765.90499748396314" y="440.88201793018357" fill="#FFFFFF">NodesUpdatedEventHandler</text>
    <rect x="568.51999748396315" y="769.4820179301837" rx="3" ry="3" width="99.883333333333326" height="25.960000000000036" fill="#008000" stroke="#A5A6A9" stroke-width="1" />
    <text x="578.51999748396315" y="787.43201793018375" fill="#FFFFFF">GraphSerializer</text>
    <rect x="806.78833081729624" y="480.57951793018356" rx="3" ry="3" width="153.34666666666669" height="25.95999999999998" fill="#008000" stroke="#A5A6A9" stroke-width="1" />
    <text x="816.78833081729624" y="498.52951793018354" fill="#FFFFFF">NodesUpdatedEventArgs</text>
    <rect x="983.48999748396272" y="769.4820179301837" rx="3" ry="3" width="111.94333333333338" height="25.960000000000036" fill="#008000" stroke="#A5A6A9" stroke-width="1" />
    <text x="993.48999748396272" y="787.43201793018375" fill="#FFFFFF">GraphDataObject</text>
    <rect x="932.28333081729636" y="307.63701793018356" rx="3" ry="3" width="52.35666666666657" height="25.95999999999998" fill="#008000" stroke="#A5A6A9" stroke-width="1" />
    <text x="942.28333081729636" y="325.58701793018355" fill="#FFFFFF">Graph</text>
    <rect x="818.239997483963" y="365.28451793018354" rx="3" ry="3" width="54.443333333333385" height="25.95999999999998" fill="#008000" stroke="#A5A6A9" stroke-width="1" />
    <text x="828.239997483963" y="383.23451793018353" fill="#FFFFFF">Nodes</text>
    <rect x="739.12777157190715" y="94.6945179301834" rx="3" ry="3" width="100.31333333333339" height="25.960000000000008" fill="#008000" stroke="#A5A6A9" stroke-width="1" />
    <text x="749.12777157190715" y="112.6445179301834" fill="#FFFFFF">GraphCategory</text>
    <rect x="647.51777157190725" y="1110.9695179301839" rx="3" ry="3" width="97.656666666666524" height="25.960000000000036" fill="#008000" stroke="#A5A6A9" stroke-width="1" />
    <text x="657.51777157190725" y="1128.9195179301839" fill="#FFFFFF">GraphProperty</text>
    <rect x="708.71166415062953" y="769.4820179301837" rx="3" ry="3" width="67.5" height="25.960000000000036" fill="#008000" stroke="#A5A6A9" stroke-width="1" />
    <text x="718.71166415062953" y="787.43201793018375" fill="#FFFFFF">LinkFilter</text>
    <rect x="1151.8316641506294" y="422.93201793018346" rx="3" ry="3" width="151.26" height="25.95999999999998" fill="#008000" stroke="#A5A6A9" stroke-width="1" />
    <text x="1161.8316641506294" y="440.88201793018345" fill="#FFFFFF">GraphUpdatedEventArgs</text>
    <rect x="806.69166415062955" y="769.4820179301837" rx="3" ry="3" width="75.539999999999964" height="25.960000000000036" fill="#008000" stroke="#A5A6A9" stroke-width="1" />
    <text x="816.69166415062955" y="787.43201793018375" fill="#FFFFFF">NodeFilter</text>
    <rect x="1021.9483308172962" y="365.28451793018354" rx="3" ry="3" width="169.02666666666664" height="25.95999999999998" fill="#008000" stroke="#A5A6A9" stroke-width="1" />
    <text x="1031.9483308172962" y="383.23451793018353" fill="#FFFFFF">GraphUpdatedEventHandler</text>
    <rect x="660.05443823857377" y="999.04951793018381" rx="3" ry="3" width="167.51" height="25.960000000000036" fill="#008000" stroke="#A5A6A9" stroke-width="1" />
    <text x="670.05443823857377" y="1016.9995179301839" fill="#FFFFFF">GraphTransactionEnlistment</text>
    <rect x="655.81943823857387" y="152.34201793018343" rx="3" ry="3" width="102.93000000000006" height="25.960000000000008" fill="#008000" stroke="#A5A6A9" stroke-width="1" />
    <text x="665.81943823857387" y="170.29201793018342" fill="#FFFFFF">GraphMetadata</text>
    <rect x="163.9249974839629" y="422.93201793018352" rx="3" ry="3" width="163.07333333333338" height="25.95999999999998" fill="#008000" stroke="#A5A6A9" stroke-width="1" />
    <text x="173.9249974839629" y="440.88201793018351" fill="#FFFFFF">LinksUpdatedEventHandler</text>
    <rect x="519.46166415062964" y="365.28451793018348" rx="3" ry="3" width="50" height="25.95999999999998" fill="#008000" stroke="#A5A6A9" stroke-width="1" />
    <text x="530.46166415062964" y="383.23451793018347" fill="#FFFFFF">Links</text>
    <rect x="1354.8366641506295" y="769.48201793018347" rx="3" ry="3" width="87.25" height="25.960000000000036" fill="#008000" stroke="#A5A6A9" stroke-width="1" />
    <text x="1364.8366641506295" y="787.43201793018352" fill="#FFFFFF">GraphObject</text>
    <rect x="389.60999748396307" y="422.93201793018346" rx="3" ry="3" width="123.70333333333338" height="25.95999999999998" fill="#80A0A0" stroke="#A5A6A9" stroke-width="1" />
    <text x="399.60999748396307" y="440.88201793018345" fill="#000000">IEnumerable&lt;Link&gt;</text>
    <rect x="957.58999748396309" y="422.93201793018358" rx="3" ry="3" width="131.74333333333334" height="25.95999999999998" fill="#80A0A0" stroke="#A5A6A9" stroke-width="1" />
    <text x="967.58999748396309" y="440.88201793018357" fill="#000000">IEnumerable&lt;Node&gt;</text>
    <rect x="575.474997483963" y="422.93201793018358" rx="3" ry="3" width="85.973333333333358" height="25.95999999999998" fill="#80A0A0" stroke="#A5A6A9" stroke-width="1" />
    <text x="585.474997483963" y="440.88201793018357" fill="#000000">IEnumerable</text>
    <rect x="336.19554565985118" y="825.44201793018374" rx="3" ry="3" width="172.36999999999989" height="25.960000000000036" fill="#80A0A0" stroke="#A5A6A9" stroke-width="1" />
    <text x="346.19554565985118" y="843.39201793018378" fill="#000000">IEquatable&lt;GraphCategory&gt;</text>
    <rect x="136.48221232651781" y="825.44201793018374" rx="3" ry="3" width="169.71333333333337" height="25.960000000000036" fill="#80A0A0" stroke="#A5A6A9" stroke-width="1" />
    <text x="146.48221232651781" y="843.39201793018378" fill="#000000">IEquatable&lt;GraphProperty&gt;</text>
    <rect x="1253.1549974839629" y="365.28451793018348" rx="3" ry="3" width="82.61333333333323" height="25.95999999999998" fill="#80A0A0" stroke="#A5A6A9" stroke-width="1" />
    <text x="1263.1549974839629" y="383.23451793018347" fill="#000000">ISerializable</text>
    <rect x="782.1516641506297" y="538.22701793018337" rx="5" ry="5" width="202.61999999999989" height="199.56750000000011" fill="#A0F0A0" stroke="#A5A6A9" stroke-width="1" />
    <text x="851.1516641506297" y="556.17701793018341" fill="#000000">Serialization</text>
    <rect x="787.1516641506297" y="566.1870179301834" width="192.61999999999989" height="166.6075000000001" fill="white" stroke="#A5A6A9" stroke-width="1" />
    <path d="M 852.921058936446,604.187017930184 L 854.858458650224,605.618892930183 C 865.906108398533,613.783885095128 867.565253149818,621.948877260072 859.835892904078,630.113869425017" fill="none" stroke="#A0A0A0" stroke-width="1" />
    <path d="M 852.921058936446,635.874517930184 L 863.164496013889,632.547056910057 C 860.689322312251,631.138289272073 858.982463495905,629.08944957796 858.043919564852,626.400537827717 z" fill="#A0A0A0" stroke="#A0A0A0" stroke-width="1" stroke-linejoin="round" />
    <path d="M 817.795858364002,635.874517930184 L 815.858458650224,634.442642930183 C 804.810808901914,626.277650765239 803.15166415063,618.112658600295 810.881024396369,609.94766643535" fill="none" stroke="#A0A0A0" stroke-width="1" />
    <path d="M 817.795858364001,604.187017930184 L 807.552421286558,607.51447895031 C 810.027594988196,608.923246588294 811.734453804542,610.972086282407 812.672997735595,613.66099803265 z" fill="#A0A0A0" stroke="#A0A0A0" stroke-width="1" stroke-linejoin="round" />
    <path d="M 770.821191783827,120.654517930183 L 733.110316755724,147.16595290802" fill="none" stroke="#A0A0A0" stroke-width="1" />
    <path d="M 725.747684693321,152.342017930183 L 736.228860328064,149.863115488848 C 733.877141203452,148.256713213561 732.343492307996,146.075192602479 731.627913641696,143.3185536556 z" fill="#A0A0A0" stroke="#A0A0A0" stroke-width="1" stroke-linejoin="round" />
    <path d="M 789.284438238574,120.654517930183 L 789.284438238574,200.989517930183" fill="none" stroke="#0080FF" stroke-width="1" />
    <path d="M 789.284438238574,209.989517930183 L 793.284438238574,199.989517930183 C 790.617771571907,200.989517930183 787.951104905241,200.989517930183 785.284438238574,199.989517930183 z" fill="#0080FF" stroke="#0080FF" stroke-width="1" stroke-linejoin="round" />
    <path d="M 710.119905556148,178.302017930183 L 715.121260881403,201.196865534129" fill="none" stroke="#0080FF" stroke-width="1" />
    <path d="M 717.042006528845,209.989517930183 L 718.815690207711,199.366239424594 C 716.423876051189,200.912310623397 713.818645711617,201.481420444862 710.999999188997,201.073568888987 z" fill="#0080FF" stroke="#0080FF" stroke-width="1" stroke-linejoin="round" />
    <path d="M 770.483848531641,1025.00951793018 L 824.042301245719,1051.07152674653" fill="none" stroke="#0080FF" stroke-width="1" />
    <path d="M 832.135027945508,1055.00951793018 L 824.893327694033,1047.03720474844 C 824.625707347001,1049.87260427249 823.458895144437,1052.27044922057 821.392891086341,1054.2307395927 z" fill="#0080FF" stroke="#0080FF" stroke-width="1" stroke-linejoin="round" />
    <path d="M 737.778701998403,1025.00951793018 L 727.632404478413,1046.8474721309" fill="none" stroke="#0080FF" stroke-width="1" />
    <path d="M 723.840174478746,1055.00951793018 L 731.681339278058,1047.62601370861 C 728.841596448678,1047.4092839827 726.423212508149,1046.2856602791 724.426187456472,1044.25514259779 z" fill="#0080FF" stroke="#0080FF" stroke-width="1" stroke-linejoin="round" />
    <rect x="810.35845865022372" y="578.22701793018337" rx="3" ry="3" width="50" height="25.960000000000036" fill="#008000" stroke="#A5A6A9" stroke-width="1" />
    <text x="820.35845865022372" y="596.17701793018341" fill="#FFFFFF">Node</text>
    <rect x="810.35845865022384" y="635.8745179301834" rx="3" ry="3" width="50" height="25.960000000000036" fill="#008000" stroke="#A5A6A9" stroke-width="1" />
    <text x="824.35845865022384" y="653.82451793018345" fill="#FFFFFF">Link</text>
    <rect x="739.12777157190715" y="94.6945179301834" rx="3" ry="3" width="100.31333333333339" height="25.960000000000008" fill="#008000" stroke="#A5A6A9" stroke-width="1" />
    <text x="749.12777157190715" y="112.6445179301834" fill="#FFFFFF">GraphCategory</text>
    <rect x="647.51777157190725" y="1110.9695179301839" rx="3" ry="3" width="97.656666666666524" height="25.960000000000036" fill="#008000" stroke="#A5A6A9" stroke-width="1" />
    <text x="657.51777157190725" y="1128.9195179301839" fill="#FFFFFF">GraphProperty</text>
    <rect x="655.81943823857387" y="152.34201793018343" rx="3" ry="3" width="102.93000000000006" height="25.960000000000008" fill="#008000" stroke="#A5A6A9" stroke-width="1" />
    <text x="665.81943823857387" y="170.29201793018342" fill="#FFFFFF">GraphMetadata</text>
    <rect x="660.05443823857377" y="999.04951793018381" rx="3" ry="3" width="167.51" height="25.960000000000036" fill="#008000" stroke="#A5A6A9" stroke-width="1" />
    <text x="670.05443823857377" y="1016.9995179301839" fill="#FFFFFF">GraphTransactionEnlistment</text>
    <rect x="802.1516641506297" y="691.83451793018344" rx="3" ry="3" width="162.61999999999989" height="25.960000000000036" fill="#008000" stroke="#A5A6A9" stroke-width="1" />
    <text x="812.1516641506297" y="709.78451793018348" fill="#FFFFFF">SerializationErrorEventArgs</text>
    <path d="M 789.284438654555,24.6945179301834 L 789.284438639777,45.6945179301833" fill="none" stroke="#A0A0A0" stroke-width="2.1609640474436809" />
    <path d="M 789.284438633443,54.6945179301833 L 793.28443864048,44.6945179329982 C 790.61777197311,45.6945179311216 787.951105306443,45.694517929245 785.28443864048,44.6945179273685 z" fill="#A0A0A0" stroke="#A0A0A0" stroke-width="1" stroke-linejoin="round" />
    <rect x="736.22110639221614" y="-1.1798309945213958" rx="3" ry="3" width="106.12666666666667" height="25.96" fill="#008000" stroke="#A5A6A9" stroke-width="1" />
    <text x="746.22110639221614" y="16.770169005478607" fill="#FFFFFF">GraphProperties</text>
  </g>
</svg>