<?xml version="1.0" encoding="utf-8"?>
<svg stroke-linecap="round" font-size="12" font-family="Segoe UI" width="1810.7093268839517" height="624.78750000000048" xmlns:xlink="http://www.w3.org/1999/xlink" xmlns="http://www.w3.org/2000/svg">
  <defs />
  <rect width="1730.7093268839517" height="544.78750000000048" fill="#FFFFFF" />
  <g transform="translate(0.312660217285156,20)">
    <path d="M 1231.36166666667,18.4768086101647 L 735.4685773489,67.1769736296638" fill="none" stroke="#A0A0A0" stroke-width="1" />
    <path d="M 726.511666666667,68.0566048197048 L 736.8547368425,71.0600860228742 C 735.598893080758,68.5039233603651 735.338261617042,65.8500238989626 736.072842451352,63.0983876386667 z" fill="#A0A0A0" stroke="#A0A0A0" stroke-width="1" stroke-linejoin="round" />
    <path d="M 1298.14108735562,25.96 L 1299.33333333333,27.391875 C 1307.33333333333,36.9997916666669 1316.66666666667,75.4314583333335 1327.33333333333,142.686875 C 1338,209.942291666667 1327.33333333333,257.981875 1295.33333333333,286.805625 C 1263.33333333333,315.629375 1162,334.845208333334 991.333333333333,344.453125 L 769.319105369541,356.951723834515" fill="none" stroke="#A0A0A0" stroke-width="1" />
    <path d="M 760.333333333333,357.457590332032 L 770.542354039127,360.889192906438 C 769.394048554358,358.28294932136 769.244162184724,355.620498347669 770.092694930223,352.901839985365 z" fill="#A0A0A0" stroke="#A0A0A0" stroke-width="1" stroke-linejoin="round" />
    <path d="M 726.511666666667,71.9307085240358 L 989.833333333333,85.0393750000002 C 1182.83333333333,94.6472916666668 1295.33333333333,123.471041666667 1327.33333333333,171.510625 C 1359.33333333333,219.550208333334 1359.33333333333,253.177916666667 1327.33333333333,272.39375 C 1295.33333333333,291.609583333334 1201.16666666667,320.433333333334 1044.83333333333,358.865 L 862.609774526324,403.66130109308" fill="none" stroke="#0080FF" stroke-width="1" />
    <path d="M 853.869987278625,405.809816595688 L 864.535757777228,407.306927036212 C 862.928073119303,404.956084389035 862.291475933345,402.366517797124 862.625966219354,399.538227260479 z" fill="#0080FF" stroke="#0080FF" stroke-width="1" stroke-linejoin="round" />
    <path d="M 714.743672029721,83.6075000000002 L 716.333333333333,85.0393750000002 C 727,94.6472916666668 734.333333333333,113.863125 738.333333333333,142.686875 L 741.294926545334,164.0279305861" fill="none" stroke="#A0A0A0" stroke-width="1" />
    <path d="M 742.532040996285,172.9425 L 745.119500234739,162.487594228577 C 742.615603495541,163.844654371144 739.974249595126,164.211206801056 737.195438533495,163.587251518311 z" fill="#A0A0A0" stroke="#A0A0A0" stroke-width="1" stroke-linejoin="round" />
    <path d="M 674.155,71.6902573738265 L 345.333333333333,85.0393750000002 C 108.666666666667,94.6472916666669 1,123.471041666667 22.3333333333335,171.510625 C 43.666666666667,219.550208333334 127.166666666667,253.177916666667 272.833333333333,272.39375 L 457.410634692478,296.74253713982" fill="none" stroke="#A0A0A0" stroke-width="1" />
    <path d="M 466.333333333334,297.919588100687 L 456.942357492768,292.646109859344 C 457.585012612607,295.420655859694 457.23625677235,298.064418419947 455.896089971998,300.577397540104 z" fill="#A0A0A0" stroke="#A0A0A0" stroke-width="1" stroke-linejoin="round" />
    <path d="M 674.155,78.2492953072392 L 650.833333333333,85.0393750000002 C 617.833333333333,94.6472916666668 584.333333333333,104.255208333334 550.333333333333,113.863125 L 532.994169890181,118.762926100927" fill="none" stroke="#A0A0A0" stroke-width="1" />
    <path d="M 524.333333333333,121.210355392157 L 535.044231414822,122.340250204945 C 533.3567520074,120.046012998238 532.631587772962,117.479839203617 532.868738711507,114.641728821081 z" fill="#A0A0A0" stroke="#A0A0A0" stroke-width="1" stroke-linejoin="round" />
    <path d="M 726.511666666667,74.5574882052953 L 796.333333333333,85.0393750000002 C 860.333333333333,94.6472916666668 892.333333333333,113.863125 892.333333333333,142.686875 C 892.333333333333,171.510625 871.018990072481,191.852146832682 828.390303550776,203.711440498046 L 780.433031213857,217.053145871581 C 769.775859583431,220.017969287922 763.234192916764,227.223906787922 760.808031213857,238.670958371581 L 739.950463222034,337.080580626353" fill="none" stroke="#A0A0A0" stroke-width="1" />
    <path d="M 738.084397978546,345.885 L 744.07087908182,336.931674137498 C 741.254821647759,337.3570347365 738.646104796308,336.804126516207 736.244728527467,335.272949476621 z" fill="#A0A0A0" stroke="#A0A0A0" stroke-width="1" stroke-linejoin="round" />
    <path d="M 726.511666666667,73.4641832158522 L 833.333333333333,85.0393750000002 C 922,94.6472916666668 972,113.863125 983.333333333333,142.686875 L 991.936354326371,164.566697913065" fill="none" stroke="#A0A0A0" stroke-width="1" />
    <path d="M 995.229671711696,172.9425 L 995.293008877751,162.172356621038 C 993.177213894806,164.078799041165 990.695494757936,165.054596784965 987.847851467141,165.099749852439 z" fill="#A0A0A0" stroke="#A0A0A0" stroke-width="1" stroke-linejoin="round" />
    <path d="M 674.618151625814,82.2088745115958 L 668.333333333333,85.0393750000002 C 649.763473330566,93.4027031602309 634.224431008171,101.766031320462 621.716206366148,110.129359480693" fill="none" stroke="#0080FF" stroke-width="1" />
    <path d="M 614.346256703818,115.295 L 624.830929892766,112.83093260625 C 622.481486443083,111.221203875112 620.950926289214,109.037515086273 620.239249431159,106.279866239734 z" fill="#0080FF" stroke="#0080FF" stroke-width="1" stroke-linejoin="round" />
    <path d="M 709.160472411351,487.14 L 792.993419430592,515.90642746007" fill="none" stroke="#A0A0A0" stroke-width="1" />
    <path d="M 801.506194255316,518.8275 L 793.345810023369,511.798408366867 C 793.426170917989,514.645275634185 792.560667943194,517.167579285955 790.749301098986,519.365319322178 z" fill="#A0A0A0" stroke="#A0A0A0" stroke-width="1" stroke-linejoin="round" />
    <path d="M 671.333333333333,487.14 L 671.333333333333,509.8275" fill="none" stroke="#0080FF" stroke-width="1" />
    <path d="M 671.333333333333,518.8275 L 675.333333333333,508.8275 C 672.666666666667,509.8275 670,509.8275 667.333333333333,508.8275 z" fill="#0080FF" stroke="#0080FF" stroke-width="1" stroke-linejoin="round" />
    <path d="M 826.273963889732,518.8275 L 824.833333333333,517.395625 C 815.166666666667,507.787708333334 810.333333333333,488.571875 810.333333333333,459.748125 L 810.333333333333,438.4925" fill="none" stroke="#0080FF" stroke-width="1" />
    <path d="M 810.333333333333,429.4925 L 806.333333333333,439.4925 C 809,438.4925 811.666666666667,438.4925 814.333333333333,439.4925 z" fill="#0080FF" stroke="#0080FF" stroke-width="1" stroke-linejoin="round" />
    <path d="M 790.969440710063,429.4925 L 788.833333333333,430.924375 C 775.080916046729,440.142892157321 753.196668577658,449.361409314641 723.180590926121,458.579926471961" fill="none" stroke="#A0A0A0" stroke-width="1" />
    <path d="M 714.564349422496,461.18 L 725.293539327875,462.120470081568 C 723.565787004349,459.85640669472 722.795394847893,457.303446249202 722.982362858506,454.461588745012 z" fill="#A0A0A0" stroke="#A0A0A0" stroke-width="1" stroke-linejoin="round" />
    <path d="M 853.958333333333,419.774331630999 L 1523.53005234674,469.838061425844" fill="none" stroke="#A0A0A0" stroke-width="1" />
    <path d="M 1532.505,470.509116282966 L 1522.83108254399,465.774634151382 C 1523.62946788113,468.508439551287 1523.43063681235,471.167683300401 1522.23458933766,473.752365398723 z" fill="#A0A0A0" stroke="#A0A0A0" stroke-width="1" stroke-linejoin="round" />
    <path d="M 1673.9165329517,429.4925 L 1671.33333333333,430.924375 C 1655.36986816273,439.772969792523 1637.71003466204,448.621564585046 1618.35383283126,457.470159377569" fill="none" stroke="#A0A0A0" stroke-width="1" />
    <path d="M 1610.15401072611,461.18 L 1620.91374223069,460.702320244033 C 1618.9034388494,458.684947837591 1617.80422681312,456.255370917546 1617.61610612186,453.413589483897 z" fill="#A0A0A0" stroke="#A0A0A0" stroke-width="1" stroke-linejoin="round" />
    <path d="M 1532.505,477.953573242363 L 899.771293437842,527.111951071261" fill="none" stroke="#A0A0A0" stroke-width="1" />
    <path d="M 890.798333333333,527.809078723046 L 901.078123516915,531.022474711956 C 899.874571608477,528.441278494151 899.668015267208,525.782623648371 900.458454493106,523.046510174614 z" fill="#A0A0A0" stroke="#A0A0A0" stroke-width="1" stroke-linejoin="round" />
    <path d="M 1581.33333333333,487.14 L 1581.33333333333,509.8275" fill="none" stroke="#0080FF" stroke-width="1" />
    <path d="M 1581.33333333333,518.8275 L 1585.33333333333,508.8275 C 1582.66666666667,509.8275 1580,509.8275 1577.33333333333,508.8275 z" fill="#0080FF" stroke="#0080FF" stroke-width="1" stroke-linejoin="round" />
    <path d="M 1386.8571635081,25.96 L 1382.83333333333,27.391875 C 1355.83333333333,36.9997916666669 1235.33333333333,46.6077083333334 1021.33333333333,56.2156250000002 L 735.502609602076,69.0485117961821" fill="none" stroke="#A0A0A0" stroke-width="1" />
    <path d="M 726.511666666667,69.4521764245848 L 736.681009763078,72.9996348087635 C 735.562411769246,70.3805033421686 735.442807434905,67.7165202501956 736.322196760053,65.0076855328446 z" fill="#A0A0A0" stroke="#A0A0A0" stroke-width="1" stroke-linejoin="round" />
    <path d="M 1423.33333333333,25.9600000000002 L 1423.33333333333,48.6475" fill="none" stroke="#A0A0A0" stroke-width="1" />
    <path d="M 1423.33333333333,57.6475 L 1427.33333333333,47.6475 C 1424.66666666667,48.6475 1422,48.6475 1419.33333333333,47.6475 z" fill="#A0A0A0" stroke="#A0A0A0" stroke-width="1" stroke-linejoin="round" />
    <path d="M 1420.2269106784,314.1975 L 1475.39404330299,341.851824156313" fill="none" stroke="#0080FF" stroke-width="1" />
    <path d="M 1483.43975598826,345.885 L 1476.29259782405,337.82782120245 C 1475.99155083539,340.659866721458 1474.7965357706,343.043781591168 1472.70755262966,344.979565811578 z" fill="#0080FF" stroke="#0080FF" stroke-width="1" stroke-linejoin="round" />
    <path d="M 1388.47913323793,314.1975 L 1377.88775248554,337.680831612425" fill="none" stroke="#0080FF" stroke-width="1" />
    <path d="M 1374.18753342874,345.885 L 1381.94518499744,338.413799150162 C 1379.10318483926,338.229012213433 1376.67232013183,337.132651011418 1374.65259087515,335.124715544116 z" fill="#0080FF" stroke="#0080FF" stroke-width="1" stroke-linejoin="round" />
    <path d="M 1459.41976379432,256.55 L 1420.66750486309,283.144891032598" fill="none" stroke="#A0A0A0" stroke-width="1" />
    <path d="M 1413.24690287234,288.2375 L 1423.75539795869,285.877090920998 C 1421.42196545086,284.244239475672 1419.91304427533,282.045542589524 1419.22863443211,279.281000262553 z" fill="#A0A0A0" stroke="#A0A0A0" stroke-width="1" stroke-linejoin="round" />
    <path d="M 1492.29334894546,256.55 L 1493.83333333333,257.981875 C 1504.16666666667,267.589791666667 1509.33333333333,286.805625 1509.33333333333,315.629375 L 1509.33333333333,336.885" fill="none" stroke="#0080FF" stroke-width="1" />
    <path d="M 1509.33333333333,345.885 L 1513.33333333333,335.885 C 1510.66666666667,336.885 1508,336.885 1505.33333333333,335.885 z" fill="#0080FF" stroke="#0080FF" stroke-width="1" stroke-linejoin="round" />
    <path d="M 628.333333333333,230.59 L 628.333333333333,229.158125 C 628.333333333333,219.550208333334 640.333333333333,195.530416666667 664.333333333333,157.09875 C 683.554158595958,126.32006876869 695.078314613242,104.785007127397 698.905801385185,92.493565076119" fill="none" stroke="#A0A0A0" stroke-width="1" />
    <path d="M 700.333333333333,83.6075000000002 L 694.797824468227,92.8464469965108 C 697.589347299835,92.2820788615786 700.222255470536,92.7050512906594 702.696548980333,94.1153642837534 z" fill="#A0A0A0" stroke="#A0A0A0" stroke-width="1" stroke-linejoin="round" />
    <path d="M 703.338846798455,255.38219425199 C 752.50183388294,260.619105244684 853.825820269094,266.389402484042 1007.31080595692,272.693085970063 C 1149.61825157613,278.537703871076 1247.90598411361,283.862724025849 1302.17400356936,288.668146434385" fill="none" stroke="#A0A0A0" stroke-width="1" />
    <path d="M 1311.13589213434,289.495523826379 L 1301.54596145858,284.593154028614 C 1302.2965779978,287.340459239572 1302.05142914091,289.995833629197 1300.81051488792,292.55927719749 z" fill="#A0A0A0" stroke="#A0A0A0" stroke-width="1" stroke-linejoin="round" />
    <path d="M 597.486202061379,256.55 L 524.58335273517,287.226401507538" fill="none" stroke="#A0A0A0" stroke-width="1" />
    <path d="M 516.287839572306,290.71702628897 L 527.05646521168,290.525449048652 C 525.100482332419,288.455366420555 524.066223137921,285.997436594521 523.953687628185,283.15165957055 z" fill="#A0A0A0" stroke="#A0A0A0" stroke-width="1" stroke-linejoin="round" />
    <path d="M 662.107564652992,256.55 L 665.833333333333,257.981875 C 690.833333333333,267.589791666667 708.666666666667,286.805625 719.333333333333,315.629375 L 727.406323148645,337.444422517726" fill="none" stroke="#A0A0A0" stroke-width="1" />
    <path d="M 730.529887101204,345.885 L 730.810628257149,335.118329929669 C 728.656779071944,336.981672302532 726.155867225345,337.90717273292 723.30789271735,337.894831220834 z" fill="#A0A0A0" stroke="#A0A0A0" stroke-width="1" stroke-linejoin="round" />
    <path d="M 718.214594446131,198.9025 L 662.511689698708,226.584682770923" fill="none" stroke="#A0A0A0" stroke-width="1" />
    <path d="M 654.452072220536,230.59 L 665.187343742539,229.721699735769 C 663.105070028942,227.778700175097 661.918309368475,225.39066536675 661.627061761138,222.557595310727 z" fill="#A0A0A0" stroke="#A0A0A0" stroke-width="1" stroke-linejoin="round" />
    <path d="M 491.333333333333,314.1975 L 491.333333333333,373.276875 C 491.333333333333,421.316458333334 521.333333333333,450.140208333334 581.333333333333,459.748125 L 612.289883979885,464.705257648326" fill="none" stroke="#A0A0A0" stroke-width="1" />
    <path d="M 621.176666666667,466.128315439815 L 611.934933810905,460.597458921813 C 612.500707356402,463.388697250284 612.079060603368,466.021818046367 610.669993551803,468.496821310063 z" fill="#A0A0A0" stroke="#A0A0A0" stroke-width="1" stroke-linejoin="round" />
    <path d="M 505.743672029721,314.1975 L 507.333333333333,315.629375 C 518,325.237291666667 571.166666666667,344.453125 666.833333333333,373.276875 L 759.72577633504,401.264769292374" fill="none" stroke="#0080FF" stroke-width="1" />
    <path d="M 768.34313884778,403.861125070004 L 759.922227512571,397.146346422531 C 760.110421635429,399.988122994191 759.34113103465,402.541415590558 757.614355710233,404.806224211633 z" fill="#0080FF" stroke="#0080FF" stroke-width="1" stroke-linejoin="round" />
    <path d="M 516.333333333333,306.187112068966 L 563.833333333333,315.629375 C 612.166666666667,325.237291666667 652.833333333333,334.845208333334 685.833333333333,344.453125 L 701.692131880632,349.070398178058" fill="none" stroke="#A0A0A0" stroke-width="1" />
    <path d="M 710.333333333333,351.586275252526 L 701.85016597454,344.950322301916 C 702.064854410183,347.790220185065 701.319409351081,350.350576171051 699.613830797235,352.631390259873 z" fill="#A0A0A0" stroke="#A0A0A0" stroke-width="1" stroke-linejoin="round" />
    <path d="M 480.419763794325,198.9025 L 478.333333333333,200.334375 C 464.333333333333,209.942291666667 457.333333333333,224.354166666667 457.333333333333,243.57 C 457.333333333333,259.82976199005 461.390637699785,272.649914370319 469.505246432689,282.030457140808" fill="none" stroke="#A0A0A0" stroke-width="1" />
    <path d="M 476.022348468422,288.2375 L 471.539809699471,278.44429591835 C 470.424808337755,281.064960542922 468.585684527624,282.995953738694 466.022438269078,284.237275505668 z" fill="#A0A0A0" stroke="#A0A0A0" stroke-width="1" stroke-linejoin="round" />
    <path d="M 510.141087355624,115.295 L 511.333333333333,113.863125 C 519.333333333333,104.255208333334 552.833333333333,94.6472916666668 611.833333333333,85.0393750000002 L 665.272012553537,76.3370974283994" fill="none" stroke="#A0A0A0" stroke-width="1" />
    <path d="M 674.155,74.8905380532016 L 663.642098670508,72.5498318272154 C 665.057707460915,75.0210992881826 665.486317646158,77.6530955686162 664.92792922624,80.4458206685162 z" fill="#A0A0A0" stroke="#A0A0A0" stroke-width="1" stroke-linejoin="round" />
    <path d="M 474.333333333333,129.894311797753 L 221.208333333333,146.28984375 C 109.958333333333,153.49578125 50.3333333333335,185.9225 42.3333333333335,243.57 L 38.3333333333335,272.39375 C 27.666666666667,349.257083333334 130.5,402.100625 346.833333333333,430.924375 L 612.255503801018,466.288607446925" fill="none" stroke="#A0A0A0" stroke-width="1" />
    <path d="M 621.176666666667,467.477242430663 L 611.792545697607,462.191575619554 C 612.431597872683,464.966953689051 612.079409729353,467.610261204798 610.735981267617,470.121498166798 z" fill="#A0A0A0" stroke="#A0A0A0" stroke-width="1" stroke-linejoin="round" />
    <path d="M 524.238481126596,139.003409179061 L 526.593406424101,140.017842114271 C 544.766788484613,147.846403523785 604.93345515128,152.650361857118 707.093406424101,154.429717114271 C 809.253357696923,156.209072371424 930.166666666667,161.902708333334 1069.83333333333,171.510625 C 1209.5,181.118541666667 1329.94607323555,191.965770647685 1431.17155303998,204.052311943055 L 1507.0906628933,213.117217914583 C 1557.70340279552,219.160488562268 1582.87006946218,243.180280228935 1582.5906628933,285.176592914583 L 1581.47956761769,452.180199181501" fill="none" stroke="#A0A0A0" stroke-width="1" />
    <path d="M 1581.4196908498,461.18 L 1585.48613206679,451.206833209623 C 1582.81287144266,452.189069813782 1580.14626379273,452.171328549219 1577.48630911702,451.153609415934 z" fill="#A0A0A0" stroke="#A0A0A0" stroke-width="1" stroke-linejoin="round" />
    <path d="M 474.333333333333,130.01977905569 L 241.208333333333,146.28984375 C 137.958333333333,153.49578125 86.3333333333335,171.510625 86.3333333333335,200.334375 L 86.3333333333335,214.74625 C 86.3333333333335,253.177916666667 153.833333333333,277.197708333334 288.833333333333,286.805625 L 457.356040211515,298.799344437976" fill="none" stroke="#A0A0A0" stroke-width="1" />
    <path d="M 466.333333333333,299.43825617284 L 456.64252396903,294.738446191071 C 457.450693801865,297.469375086595 457.261386621165,300.129313789356 456.074602426929,302.718262299355 z" fill="#A0A0A0" stroke="#A0A0A0" stroke-width="1" stroke-linejoin="round" />
    <path d="M 499.333333333333,141.255 L 499.333333333333,163.9425" fill="none" stroke="#A0A0A0" stroke-width="1" />
    <path d="M 499.333333333333,172.9425 L 503.333333333333,162.9425 C 500.666666666667,163.9425 498,163.9425 495.333333333333,162.9425 z" fill="#A0A0A0" stroke="#A0A0A0" stroke-width="1" stroke-linejoin="round" />
    <path d="M 474.333333333333,138.146147260274 L 394.578003680048,169.637211412246" fill="none" stroke="#A0A0A0" stroke-width="1" />
    <path d="M 386.206918484468,172.9425 L 396.977141407448,172.990439433864 C 395.067676063419,170.877372181961 394.088331296677,168.39705064253 394.039107107221,165.549474815571 z" fill="#A0A0A0" stroke="#A0A0A0" stroke-width="1" stroke-linejoin="round" />
    <path d="M 524.152483665711,139.280861298352 L 531.833333333333,142.686875 C 553.5,152.294791666667 551.833333333333,176.314583333334 526.833333333333,214.74625 L 517.458333333333,229.158125 C 498.708333333333,257.981875 520.083333333333,283.20265625 581.583333333333,304.82046875 L 701.842611172337,347.092704842829" fill="none" stroke="#A0A0A0" stroke-width="1" />
    <path d="M 710.333333333333,350.077271341464 L 702.225671598286,342.987432049205 C 702.284769172135,345.834820078237 701.40045317254,348.350589607421 699.5727235995,350.534740636757 z" fill="#A0A0A0" stroke="#A0A0A0" stroke-width="1" stroke-linejoin="round" />
    <path d="M 474.333333333333,132.7787109375 L 249.824232623416,173.223674634922" fill="none" stroke="#0080FF" stroke-width="1" />
    <path d="M 240.966812031289,174.819325114874 L 251.517568458075,176.983011511428 C 250.060625287112,174.535885093015 249.587839959719,171.911464176829 250.099212475895,169.109748762871 z" fill="#0080FF" stroke="#0080FF" stroke-width="1" stroke-linejoin="round" />
    <path d="M 524.333333333333,136.713015892768 L 526.595692849243,137.476608914784 C 544.770599193182,143.611014857973 599.98646088439,149.370602228513 692.243277922865,154.755371026402 C 784.500094961341,160.140139824292 835.579308456038,166.680853519364 845.480918406956,174.377512111619 C 855.382528357874,182.074170703873 851.833333333333,195.530416666667 834.833333333333,214.74625 L 826.780008136675,223.849270868125" fill="none" stroke="#0080FF" stroke-width="1" />
    <path d="M 820.816571982017,230.59 L 830.438491768027,225.75071703332 C 827.778634674731,224.732742891037 825.78138159862,222.965798845212 824.446732539693,220.449884895846 z" fill="#0080FF" stroke="#0080FF" stroke-width="1" stroke-linejoin="round" />
    <path d="M 280.68,236.566182218507 L 203.833333333333,229.158125 C 104.166666666667,219.550208333334 49.0000000000002,209.942291666667 38.3333333333335,200.334375 C 27.666666666667,190.726458333334 22.3333333333335,171.510625 22.3333333333335,142.686875 C 22.3333333333333,113.863125 135.333333333333,94.6472916666669 361.333333333333,85.0393750000002 L 665.163122054271,72.122687872205" fill="none" stroke="#A0A0A0" stroke-width="1" />
    <path d="M 674.155,71.7404170138891 L 663.994126345494,68.1687722139162 C 665.106489334521,70.7905578061711 665.219754774022,73.4548179382389 664.333922663997,76.1615526101195 z" fill="#A0A0A0" stroke="#A0A0A0" stroke-width="1" stroke-linejoin="round" />
    <path d="M 384.405626147419,256.55 L 458.062625021407,287.319143786872" fill="none" stroke="#A0A0A0" stroke-width="1" />
    <path d="M 466.367162563312,290.788243989386 L 458.681720940091,283.242782634634 C 458.57656579215,286.088841928812 457.548684250664,288.549445644932 455.598076315633,290.624593782995 z" fill="#A0A0A0" stroke="#A0A0A0" stroke-width="1" stroke-linejoin="round" />
    <path d="M 353.333333333333,198.9025 L 353.333333333333,221.59" fill="none" stroke="#A0A0A0" stroke-width="1" />
    <path d="M 353.333333333333,230.59 L 357.333333333333,220.59 C 354.666666666667,221.59 352,221.59 349.333333333333,220.59 z" fill="#A0A0A0" stroke="#A0A0A0" stroke-width="1" stroke-linejoin="round" />
    <path d="M 735.333333333333,371.845 L 735.333333333333,402.100625 C 735.333333333333,428.616230363468 726.306595019795,447.001071712408 708.253118392718,457.255149046822" fill="none" stroke="#A0A0A0" stroke-width="1" />
    <path d="M 700.154010726108,461.18 L 710.897397445976,460.418657903851 C 708.834577793189,458.455016849283 707.671658992247,456.055281244362 707.408641043151,453.219451089087 z" fill="#A0A0A0" stroke="#A0A0A0" stroke-width="1" stroke-linejoin="round" />
    <path d="M 752.220448993163,371.845 L 786.310542035904,398.047781849087" fill="none" stroke="#0080FF" stroke-width="1" />
    <path d="M 793.446217673504,403.5325 L 787.955341698799,394.266957326718 C 787.123092873077,396.99064471759 785.497991198732,399.104918980583 783.080036675765,400.609780115696 z" fill="#0080FF" stroke="#0080FF" stroke-width="1" stroke-linejoin="round" />
    <path d="M 710.333333333333,351.201985060948 L 707.896014569129,350.454896656894 C 689.604468726326,344.848161094824 660.104468726326,340.044202761491 619.396014569129,336.043021656894 C 578.687560411932,332.041840552298 547.166666666667,325.237291666667 524.833333333333,315.629375 L 524.509127762605,315.489900069862" fill="none" stroke="#A0A0A0" stroke-width="1" />
    <path d="M 516.241720919372,311.933218457957 L 523.846981139895,319.559489957066 C 523.982211968249,316.714701083674 525.036043556961,314.265099056049 527.008475906033,312.210683874192 z" fill="#A0A0A0" stroke="#A0A0A0" stroke-width="1" stroke-linejoin="round" />
    <path d="M 1132.67137921564,314.1975 L 1130.83333333333,315.629375 C 1118.5,325.237291666667 1049.5,334.845208333334 923.833333333333,344.453125 L 769.307143551913,356.267512964754" fill="none" stroke="#A0A0A0" stroke-width="1" />
    <path d="M 760.333333333333,356.953610742706 L 770.609165921956,360.179639975462 C 769.408787667165,357.59696633047 769.205499436661,354.938059599039 769.999301230444,352.202919781169 z" fill="#A0A0A0" stroke="#A0A0A0" stroke-width="1" stroke-linejoin="round" />
    <path d="M 973.202469372344,175.209989861705 L 963.833333333333,171.510625 C 939.5,161.902708333334 927.333333333333,147.490833333334 927.333333333333,128.275 C 927.333333333333,109.059166666667 889.5,94.6472916666668 813.833333333333,85.0393750000002 L 735.439978323984,75.0852319759881" fill="none" stroke="#A0A0A0" stroke-width="1" />
    <path d="M 726.511666666667,73.9515428872983 L 735.928151135379,79.1793359446502 C 735.272024384919,76.4079448141092 735.607932263049,73.762519137867 736.93587476977,71.2430589159238 z" fill="#A0A0A0" stroke="#A0A0A0" stroke-width="1" stroke-linejoin="round" />
    <path d="M 980.519117625801,198.9025 L 978.333333333333,200.334375 C 963.666666666667,209.942291666667 949.239792570027,216.971012227065 935.052711043414,221.420536681196 C 920.865629516802,225.870061135326 903.777176835994,233.522954430473 883.787353000991,244.379216566637 C 863.797529165988,255.235478702802 844.724403262627,262.618633142403 826.56797529091,266.528679885442 C 808.411547319192,270.438726628481 784.235640378258,283.879293347626 754.040254468108,306.850380042876 L 720.070445319189,332.692852575033 C 712.521598841652,338.435624248846 707.188265508318,346.842551332179 704.070445319189,357.913633825033 L 677.428407068645,452.516973773233" fill="none" stroke="#A0A0A0" stroke-width="1" />
    <path d="M 674.98873975642,461.180000000001 L 681.549715093012,452.638711886804 C 678.7118183615,452.878405967637 676.144995775791,452.155541578829 673.849247335885,450.470118720381 z" fill="#A0A0A0" stroke="#A0A0A0" stroke-width="1" stroke-linejoin="round" />
    <path d="M 1027.555,187.575442674615 L 1517.72633568767,217.339421807569 C 1540.72158023676,218.735729443461 1552.82574690342,224.740677360127 1554.03883568767,235.354265557569 L 1578.82776503411,452.238216142322" fill="none" stroke="#A0A0A0" stroke-width="1" />
    <path d="M 1579.84977356762,461.18 L 1582.68833468935,450.790458587687 C 1580.15247375376,452.086807470691 1577.50305631445,452.389624813953 1574.74008237142,451.698910617474 z" fill="#A0A0A0" stroke="#A0A0A0" stroke-width="1" stroke-linejoin="round" />
    <path d="M 1027.555,192.628743714388 L 1058.83333333333,200.334375 C 1097.83333333333,209.942291666667 1111.16666666667,229.158125 1098.83333333333,257.981875 C 1086.5,286.805625 1022.83333333333,310.825416666667 907.833333333333,330.04125 L 769.210262440574,353.204361534175" fill="none" stroke="#A0A0A0" stroke-width="1" />
    <path d="M 760.333333333333,354.687644927537 L 770.85582496065,356.984854093687 C 769.43000812848,354.519462142655 768.990516752669,351.889260925695 769.537350833218,349.094250442806 z" fill="#A0A0A0" stroke="#A0A0A0" stroke-width="1" stroke-linejoin="round" />
    <path d="M 1027.555,191.188476607942 L 1074.83333333333,200.334375 C 1124.5,209.942291666667 1149.33333333333,229.158125 1149.33333333333,257.981875 L 1149.33333333333,279.2375" fill="none" stroke="#A0A0A0" stroke-width="1" />
    <path d="M 1149.33333333333,288.2375 L 1153.33333333333,278.2375 C 1150.66666666667,279.2375 1148,279.2375 1145.33333333333,278.2375 z" fill="#A0A0A0" stroke="#A0A0A0" stroke-width="1" stroke-linejoin="round" />
    <path d="M 1000.33333333333,198.9025 L 1000.33333333333,221.59" fill="none" stroke="#A0A0A0" stroke-width="1" />
    <path d="M 1000.33333333333,230.59 L 1004.33333333333,220.59 C 1001.66666666667,221.59 999,221.59 996.333333333333,220.59 z" fill="#A0A0A0" stroke="#A0A0A0" stroke-width="1" stroke-linejoin="round" />
    <path d="M 1027.555,190.281558414352 L 1090.33333333333,200.334375 C 1146.03948552923,209.254709468647 1185.36776759819,218.175043937294 1208.31817954021,227.095378405941" fill="none" stroke="#0080FF" stroke-width="1" />
    <path d="M 1216.61200977203,230.59 L 1208.9498080007,223.020940348012 C 1208.83590125785,225.866662816041 1207.80045782257,228.324093995841 1205.84347769487,230.393233887412 z" fill="#0080FF" stroke="#0080FF" stroke-width="1" stroke-linejoin="round" />
    <path d="M 973.130642378456,196.239388992246 L 962.333333333333,200.334375 C 937,209.942291666667 905.166666666667,219.550208333334 866.833333333333,229.158125 L 860.949701270233,230.632806214598" fill="none" stroke="#0080FF" stroke-width="1" />
    <path d="M 852.219737667975,232.820895678777 L 862.892181432342,234.269668986249 C 861.273862672334,231.926134155674 860.625539868133,229.339478273523 860.947213019738,226.509701339797 z" fill="#0080FF" stroke="#0080FF" stroke-width="1" stroke-linejoin="round" />
    <path d="M 826.698440233025,288.2375 L 821.333333333333,286.805625 C 785.333333333333,277.197708333334 731.293194320403,271.621910271066 659.212916294543,270.078230813198 L 605.152707775147,268.920471219797 C 569.112568762217,268.148631490863 551.134086914663,264.430394982534 551.217262232485,257.765761694811 L 551.560360418501,230.274149382954 C 551.581154247956,228.607991061023 552.523671624573,227.503481443807 554.38791254835,226.960620531304 L 573.962442248009,221.260580950029 C 588.876369638225,216.91769365001 613.666666666667,190.726458333334 648.333333333333,142.686875 L 685.700052877357,90.9056739203343" fill="none" stroke="#A0A0A0" stroke-width="1" />
    <path d="M 690.966613180682,83.6075000000002 L 681.871246656839,89.3758886655605 C 684.618841926196,90.1254427642862 686.781263828518,91.6859050763824 688.358512363803,94.0572756018491 z" fill="#A0A0A0" stroke="#A0A0A0" stroke-width="1" stroke-linejoin="round" />
    <path d="M 843.810717434986,314.1975 L 768.639607204079,345.15054697883" fill="none" stroke="#A0A0A0" stroke-width="1" />
    <path d="M 760.317513550929,348.57731764933 L 771.08729346354,348.468502972397 C 769.147276933042,346.38344974226 768.131937475116,343.917644215401 768.041275089762,341.071086391819 z" fill="#A0A0A0" stroke="#A0A0A0" stroke-width="1" stroke-linejoin="round" />
    <path d="M 972.188140566951,256.55 L 911.651274886518,284.468391714502" fill="none" stroke="#A0A0A0" stroke-width="1" />
    <path d="M 903.478526099715,288.2375 L 914.234517323051,287.681934699137 C 912.209661299185,285.679169312547 911.092888473852,283.257614116458 910.884198847053,280.417269110868 z" fill="#A0A0A0" stroke="#A0A0A0" stroke-width="1" stroke-linejoin="round" />
    <rect x="1231.3616666666667" rx="3" ry="3" width="111.94333333333338" height="25.96" fill="#FFFFFF" stroke="#A5A6A9" stroke-width="1" />
    <text x="1241.3616666666667" y="17.950000000000003" fill="#000000">GraphDataObject</text>
    <rect x="674.1550000000002" y="57.64750000000015" rx="3" ry="3" width="52.356666666666683" height="25.960000000000008" fill="#FFFFFF" stroke="#A5A6A9" stroke-width="1" />
    <text x="684.1550000000002" y="75.597500000000153" fill="#000000">Graph</text>
    <rect x="621.17666666666673" y="461.1800000000004" rx="3" ry="3" width="100.31333333333328" height="25.95999999999998" fill="#FFFFFF" stroke="#A5A6A9" stroke-width="1" />
    <text x="631.17666666666673" y="479.13000000000039" fill="#000000">GraphCategory</text>
    <rect x="787.86833333333334" y="518.82750000000044" rx="3" ry="3" width="102.93000000000006" height="25.960000000000036" fill="#FFFFFF" stroke="#A5A6A9" stroke-width="1" />
    <text x="797.86833333333334" y="536.77750000000049" fill="#000000">GraphMetadata</text>
    <rect x="766.70833333333337" y="403.53250000000037" rx="3" ry="3" width="87.25" height="25.95999999999998" fill="#FFFFFF" stroke="#A5A6A9" stroke-width="1" />
    <text x="776.70833333333337" y="421.48250000000036" fill="#000000">GraphObject</text>
    <rect x="1644.27" y="403.53250000000025" rx="3" ry="3" width="106.12666666666655" height="25.95999999999998" fill="#FFFFFF" stroke="#A5A6A9" stroke-width="1" />
    <text x="1654.27" y="421.48250000000024" fill="#000000">GraphProperties</text>
    <rect x="1532.505" y="461.18000000000029" rx="3" ry="3" width="97.656666666666752" height="25.95999999999998" fill="#FFFFFF" stroke="#A5A6A9" stroke-width="1" />
    <text x="1542.505" y="479.13000000000028" fill="#000000">GraphProperty</text>
    <rect x="1373.3916666666667" rx="3" ry="3" width="99.883333333333439" height="25.96" fill="#FFFFFF" stroke="#A5A6A9" stroke-width="1" />
    <text x="1383.3916666666667" y="17.950000000000003" fill="#000000">GraphSerializer</text>
    <rect x="1310.5783333333334" y="288.23750000000018" rx="3" ry="3" width="167.51" height="25.95999999999998" fill="#FFFFFF" stroke="#A5A6A9" stroke-width="1" />
    <text x="1320.5783333333334" y="306.18750000000017" fill="#000000">GraphTransactionEnlistment</text>
    <rect x="1406.0916666666667" y="230.59000000000017" rx="3" ry="3" width="144.48333333333335" height="25.960000000000008" fill="#FFFFFF" stroke="#A5A6A9" stroke-width="1" />
    <text x="1416.0916666666667" y="248.54000000000016" fill="#000000">GraphTransactionScope</text>
    <rect x="552.70333333333338" y="230.59000000000029" rx="3" ry="3" width="151.26" height="25.960000000000008" fill="#FFFFFF" stroke="#A5A6A9" stroke-width="1" />
    <text x="562.70333333333338" y="248.54000000000028" fill="#000000">GraphUpdatedEventArgs</text>
    <rect x="659.82000000000016" y="172.94250000000022" rx="3" ry="3" width="169.02666666666664" height="25.960000000000008" fill="#FFFFFF" stroke="#A5A6A9" stroke-width="1" />
    <text x="669.82000000000016" y="190.89250000000021" fill="#000000">GraphUpdatedEventHandler</text>
    <rect x="466.33333333333348" y="288.2375000000003" rx="3" ry="3" width="50" height="25.95999999999998" fill="#FFFFFF" stroke="#A5A6A9" stroke-width="1" />
    <text x="480.33333333333348" y="306.18750000000028" fill="#000000">Link</text>
    <rect x="465.58333333333348" y="172.94250000000022" rx="3" ry="3" width="67.5" height="25.960000000000008" fill="#FFFFFF" stroke="#A5A6A9" stroke-width="1" />
    <text x="475.58333333333348" y="190.89250000000021" fill="#000000">LinkFilter</text>
    <rect x="474.33333333333348" y="115.29500000000019" rx="3" ry="3" width="50" height="25.960000000000008" fill="#FFFFFF" stroke="#A5A6A9" stroke-width="1" />
    <text x="485.33333333333348" y="133.24500000000018" fill="#000000">Links</text>
    <rect x="280.68000000000029" y="230.5900000000004" rx="3" ry="3" width="145.30666666666667" height="25.960000000000008" fill="#FFFFFF" stroke="#A5A6A9" stroke-width="1" />
    <text x="290.68000000000029" y="248.54000000000039" fill="#000000">LinksUpdatedEventArgs</text>
    <rect x="271.79666666666685" y="172.94250000000034" rx="3" ry="3" width="163.07333333333338" height="25.960000000000008" fill="#FFFFFF" stroke="#A5A6A9" stroke-width="1" />
    <text x="281.79666666666685" y="190.89250000000033" fill="#000000">LinksUpdatedEventHandler</text>
    <rect x="710.33333333333337" y="345.88500000000033" rx="3" ry="3" width="50" height="25.95999999999998" fill="#FFFFFF" stroke="#A5A6A9" stroke-width="1" />
    <text x="720.33333333333337" y="363.83500000000032" fill="#000000">Node</text>
    <rect x="1111.5633333333335" y="288.2375000000003" rx="3" ry="3" width="75.539999999999964" height="25.95999999999998" fill="#FFFFFF" stroke="#A5A6A9" stroke-width="1" />
    <text x="1121.5633333333335" y="306.18750000000028" fill="#000000">NodeFilter</text>
    <rect x="973.11166666666668" y="172.94250000000022" rx="3" ry="3" width="54.443333333333385" height="25.960000000000008" fill="#FFFFFF" stroke="#A5A6A9" stroke-width="1" />
    <text x="983.11166666666668" y="190.89250000000021" fill="#000000">Nodes</text>
    <rect x="798.66000000000008" y="288.2375000000003" rx="3" ry="3" width="153.34666666666669" height="25.95999999999998" fill="#FFFFFF" stroke="#A5A6A9" stroke-width="1" />
    <text x="808.66000000000008" y="306.18750000000028" fill="#000000">NodesUpdatedEventArgs</text>
    <rect x="914.77666666666687" y="230.59000000000029" rx="3" ry="3" width="171.11333333333346" height="25.960000000000008" fill="#FFFFFF" stroke="#A5A6A9" stroke-width="1" />
    <text x="924.77666666666687" y="248.54000000000028" fill="#000000">NodesUpdatedEventHandler</text>
    <rect x="1342.0233333333333" y="57.647500000000036" rx="3" ry="3" width="162.62000000000012" height="25.960000000000008" fill="#FFFFFF" stroke="#A5A6A9" stroke-width="1" />
    <text x="1352.0233333333333" y="75.597500000000039" fill="#000000">SerializationErrorEventArgs</text>
    <rect x="117.4816666666668" y="172.94250000000034" rx="3" ry="3" width="123.70333333333332" height="25.960000000000008" fill="#80A0A0" stroke="#A5A6A9" stroke-width="1" />
    <text x="127.4816666666668" y="190.89250000000033" fill="#000000">IEnumerable&lt;Link&gt;</text>
    <rect x="1180.4616666666666" y="230.59000000000017" rx="3" ry="3" width="131.74333333333334" height="25.960000000000008" fill="#80A0A0" stroke="#A5A6A9" stroke-width="1" />
    <text x="1190.4616666666666" y="248.54000000000016" fill="#000000">IEnumerable&lt;Node&gt;</text>
    <rect x="766.34666666666669" y="230.59000000000029" rx="3" ry="3" width="85.973333333333358" height="25.960000000000008" fill="#80A0A0" stroke="#A5A6A9" stroke-width="1" />
    <text x="776.34666666666669" y="248.54000000000028" fill="#000000">IEnumerable</text>
    <rect x="1468.77" y="345.88500000000022" rx="3" ry="3" width="81.126666666666551" height="25.95999999999998" fill="#80A0A0" stroke="#A5A6A9" stroke-width="1" />
    <text x="1478.77" y="363.83500000000021" fill="#000000">IDisposable</text>
    <rect x="585.14833333333354" y="518.82750000000044" rx="3" ry="3" width="172.37" height="25.960000000000036" fill="#80A0A0" stroke="#A5A6A9" stroke-width="1" />
    <text x="595.14833333333354" y="536.77750000000049" fill="#000000">IEquatable&lt;GraphCategory&gt;</text>
    <rect x="1496.4766666666667" y="518.82750000000033" rx="3" ry="3" width="169.71333333333337" height="25.960000000000036" fill="#80A0A0" stroke="#A5A6A9" stroke-width="1" />
    <text x="1506.4766666666667" y="536.77750000000037" fill="#000000">IEquatable&lt;GraphProperty&gt;</text>
    <rect x="555.02666666666687" y="115.29500000000019" rx="3" ry="3" width="82.613333333333344" height="25.960000000000008" fill="#80A0A0" stroke="#A5A6A9" stroke-width="1" />
    <text x="565.02666666666687" y="133.24500000000018" fill="#000000">ISerializable</text>
    <rect x="1298.0416666666667" y="345.88500000000022" rx="3" ry="3" width="140.58333333333326" height="25.95999999999998" fill="#80A0A0" stroke="#A5A6A9" stroke-width="1" />
    <text x="1308.0416666666667" y="363.83500000000021" fill="#000000">IEnlistmentNotification</text>
  </g>
</svg>