<?xml version="1.0" encoding="utf-8"?>
<svg stroke-linecap="round" font-size="12" font-family="Segoe UI" width="1897.1783333333351" height="1169.2000000000007" xmlns:xlink="http://www.w3.org/1999/xlink" xmlns="http://www.w3.org/2000/svg">
  <defs />
  <rect width="1817.1783333333351" height="1089.2000000000007" fill="#FFFFFF" />
  <g transform="translate(20,20)">
    <path d="M 938.790170226786,1033.22593389737 L 987.164337849654,1059.00706170857" fill="none" stroke="#A0A0A0" stroke-width="1" />
    <path d="M 995.106770312128,1063.24 L 988.163151261125,1055.00676524842 C 987.791439818755,1057.83040504746 986.537235880554,1060.18371836968 984.400539446522,1062.06670521507 z" fill="#A0A0A0" stroke="#A0A0A0" stroke-width="1" stroke-linejoin="round" />
    <path d="M 367.945792232547,249.8 L 420.981763998551,275.834148947593" fill="none" stroke="#A0A0A0" stroke-width="1" />
    <path d="M 429.06087443412,279.8 L 421.846685529002,271.802783081517 C 421.569297487796,274.637243697879 420.394230509305,277.031054197307 418.321484593529,278.9842145798 z" fill="#A0A0A0" stroke="#A0A0A0" stroke-width="1" stroke-linejoin="round" />
    <path d="M 1170.34575768406,809.400000000001 L 1241.79886096609,836.235675568206" fill="none" stroke="#A0A0A0" stroke-width="1" />
    <path d="M 1250.22424231594,839.400000000001 L 1242.26907389691,832.139470031408 C 1242.2676497708,834.987470923784 1241.33007216138,837.483880212627 1239.45634106865,839.628697897938 z" fill="#A0A0A0" stroke="#A0A0A0" stroke-width="1" stroke-linejoin="round" />
    <path d="M 882.296666666667,529.6 L 882.296666666667,550.6" fill="none" stroke="#A0A0A0" stroke-width="1" />
    <path d="M 882.296666666667,559.6 L 886.296666666667,549.6 C 883.63,550.6 880.963333333333,550.6 878.296666666667,549.6 z" fill="#A0A0A0" stroke="#A0A0A0" stroke-width="1" stroke-linejoin="round" />
    <path d="M 1019.46166666667,1033.24 L 1019.46166666667,1054.24" fill="none" stroke="#A0A0A0" stroke-width="1" />
    <path d="M 1019.46166666667,1063.24 L 1023.46166666667,1053.24 C 1020.795,1054.24 1018.12833333333,1054.24 1015.46166666667,1053.24 z" fill="#A0A0A0" stroke="#A0A0A0" stroke-width="1" stroke-linejoin="round" />
    <path d="M 615.303333333333,529.6 L 615.303333333333,550.6" fill="none" stroke="#A0A0A0" stroke-width="1" />
    <path d="M 615.303333333333,559.6 L 619.303333333333,549.6 C 616.636666666667,550.6 613.97,550.6 611.303333333333,549.6 z" fill="#A0A0A0" stroke="#A0A0A0" stroke-width="1" stroke-linejoin="round" />
    <path d="M 578.655013104598,529.6 L 502.43527042635,556.595296204271" fill="none" stroke="#A0A0A0" stroke-width="1" />
    <path d="M 493.951653562068,559.6 L 504.713318431594,560.031936611093 C 502.880411729421,557.852128332313 501.990129123279,555.338464076229 502.042470613168,552.490943842843 z" fill="#A0A0A0" stroke="#A0A0A0" stroke-width="1" stroke-linejoin="round" />
    <path d="M 647.312625685013,529.6 L 712.953683340773,556.217924539249" fill="none" stroke="#A0A0A0" stroke-width="1" />
    <path d="M 721.294040981653,559.6 L 713.530121585454,552.135312758775 C 713.454731557181,554.98231599986 712.452635124366,557.453533078639 710.523832287009,559.548963995112 z" fill="#A0A0A0" stroke="#A0A0A0" stroke-width="1" stroke-linejoin="round" />
    <path d="M 466.895812485109,1033.24 L 465.769316495147,1054.25290519942" fill="none" stroke="#A0A0A0" stroke-width="1" />
    <path d="M 465.287520848225,1063.24 L 469.817113700618,1053.4684705091 C 467.100737947085,1054.3242823323 464.437895043209,1054.18152806654 461.828584988992,1053.04020771184 z" fill="#A0A0A0" stroke="#A0A0A0" stroke-width="1" stroke-linejoin="round" />
    <path d="M 500.064861806052,1033.24 L 566.761358201918,1059.89954241652" fill="none" stroke="#A0A0A0" stroke-width="1" />
    <path d="M 575.118471527281,1063.24 L 567.317437869536,1055.81410787375 C 567.256240806878,1058.6614515535 566.266475596958,1061.13763327954 564.348142239775,1063.24265305185 z" fill="#A0A0A0" stroke="#A0A0A0" stroke-width="1" stroke-linejoin="round" />
    <path d="M 1247.12661901358,921.320000000001 L 1354.1026846197,952.337516224449" fill="none" stroke="#A0A0A0" stroke-width="1" />
    <path d="M 1362.74666666667,954.843823143351 L 1354.25615635622,948.217267879253 C 1354.47398934843,951.056926291565 1353.73137989098,953.618106157332 1352.02832798386,955.900807476555 z" fill="#A0A0A0" stroke="#A0A0A0" stroke-width="1" stroke-linejoin="round" />
    <path d="M 467.036666666666,697.48 L 467.036666666666,718.48" fill="none" stroke="#A0A0A0" stroke-width="1" />
    <path d="M 467.036666666666,727.48 L 471.036666666666,717.48 C 468.37,718.48 465.703333333333,718.48 463.036666666666,717.48 z" fill="#A0A0A0" stroke="#A0A0A0" stroke-width="1" stroke-linejoin="round" />
    <path d="M 1243.14,529.6 L 1243.14,550.6" fill="none" stroke="#A0A0A0" stroke-width="1" />
    <path d="M 1243.14,559.6 L 1247.14,549.6 C 1244.47333333333,550.6 1241.80666666667,550.6 1239.14,549.6 z" fill="#A0A0A0" stroke="#A0A0A0" stroke-width="1" stroke-linejoin="round" />
    <path d="M 177.391881105552,1033.24 L 95.3352471730507,1060.41094221812" fill="none" stroke="#A0A0A0" stroke-width="1" />
    <path d="M 86.7914522277819,1063.24 L 97.5419167366926,1063.89384466248 C 95.7543668444399,1061.67668961742 94.9161275016615,1059.14519481882 95.0271987083574,1056.29936026668 z" fill="#A0A0A0" stroke="#A0A0A0" stroke-width="1" stroke-linejoin="round" />
    <path d="M 262.560850249175,1030.63272384386 L 414.20572685254,1064.85065648388" fill="none" stroke="#A0A0A0" stroke-width="1" />
    <path d="M 422.985,1066.83165698925 L 414.110696727431,1060.72864613996 C 414.499208408891,1063.55002342499 413.912245296188,1066.15128954276 412.349807389324,1068.53244449326 z" fill="#A0A0A0" stroke="#A0A0A0" stroke-width="1" stroke-linejoin="round" />
    <path d="M 726.148994519896,361.72 L 899.97768562207,394.694418827382" fill="none" stroke="#A0A0A0" stroke-width="1" />
    <path d="M 908.82,396.371760903955 L 899.74069161411,390.578129984238 C 900.226180744525,393.384446326948 899.729190499614,396.004391327817 898.249720879378,398.437964986843 z" fill="#A0A0A0" stroke="#A0A0A0" stroke-width="1" stroke-linejoin="round" />
    <path d="M 1116.02333333333,697.48 L 1116.02333333333,718.48" fill="none" stroke="#A0A0A0" stroke-width="1" />
    <path d="M 1116.02333333333,727.48 L 1120.02333333333,717.48 C 1117.35666666667,718.48 1114.69,718.48 1112.02333333333,717.48 z" fill="#A0A0A0" stroke="#A0A0A0" stroke-width="1" stroke-linejoin="round" />
    <path d="M 1634.155,529.6 L 1634.155,550.6" fill="none" stroke="#A0A0A0" stroke-width="1" />
    <path d="M 1634.155,559.6 L 1638.155,549.6 C 1635.48833333333,550.6 1632.82166666667,550.6 1630.155,549.6 z" fill="#A0A0A0" stroke="#A0A0A0" stroke-width="1" stroke-linejoin="round" />
    <path d="M 185.005,697.48 L 185.005,718.48" fill="none" stroke="#A0A0A0" stroke-width="1" />
    <path d="M 185.005,727.48 L 189.005,717.48 C 186.338333333333,718.48 183.671666666666,718.48 181.005,717.48 z" fill="#A0A0A0" stroke="#A0A0A0" stroke-width="1" stroke-linejoin="round" />
    <path d="M 1292.02166666667,697.48 L 1292.02166666667,718.48" fill="none" stroke="#A0A0A0" stroke-width="1" />
    <path d="M 1292.02166666667,727.48 L 1296.02166666667,717.48 C 1293.355,718.48 1290.68833333333,718.48 1288.02166666667,717.48 z" fill="#A0A0A0" stroke="#A0A0A0" stroke-width="1" stroke-linejoin="round" />
    <path d="M 1119.07166666667,529.6 L 1119.07166666667,550.6" fill="none" stroke="#A0A0A0" stroke-width="1" />
    <path d="M 1119.07166666667,559.6 L 1123.07166666667,549.6 C 1120.405,550.6 1117.73833333333,550.6 1115.07166666667,549.6 z" fill="#A0A0A0" stroke="#A0A0A0" stroke-width="1" stroke-linejoin="round" />
    <path d="M 323.335,697.48 L 323.335,718.48" fill="none" stroke="#A0A0A0" stroke-width="1" />
    <path d="M 323.335,727.48 L 327.335,717.48 C 324.668333333333,718.48 322.001666666666,718.48 319.335,717.48 z" fill="#A0A0A0" stroke="#A0A0A0" stroke-width="1" stroke-linejoin="round" />
    <path d="M 709.766666666666,809.400000000001 L 709.766666666666,830.400000000001" fill="none" stroke="#A0A0A0" stroke-width="1" />
    <path d="M 709.766666666666,839.400000000001 L 713.766666666666,829.400000000001 C 711.1,830.400000000001 708.433333333333,830.400000000001 705.766666666666,829.400000000001 z" fill="#A0A0A0" stroke="#A0A0A0" stroke-width="1" stroke-linejoin="round" />
    <path d="M 617.956666666666,697.48 L 617.956666666666,718.48" fill="none" stroke="#A0A0A0" stroke-width="1" />
    <path d="M 617.956666666666,727.48 L 621.956666666666,717.48 C 619.289999999999,718.48 616.623333333332,718.48 613.956666666666,717.48 z" fill="#A0A0A0" stroke="#A0A0A0" stroke-width="1" stroke-linejoin="round" />
    <path d="M 489.406666666666,809.400000000001 L 489.406666666666,830.400000000001" fill="none" stroke="#A0A0A0" stroke-width="1" />
    <path d="M 489.406666666666,839.400000000001 L 493.406666666666,829.400000000001 C 490.74,830.400000000001 488.073333333333,830.400000000001 485.406666666666,829.400000000001 z" fill="#A0A0A0" stroke="#A0A0A0" stroke-width="1" stroke-linejoin="round" />
    <path d="M 492.394326900167,193.84 L 539.704131019017,219.54346250962" fill="none" stroke="#A0A0A0" stroke-width="1" />
    <path d="M 547.6123397665,223.84 L 540.735013376132,215.551310011808 C 540.340655091666,218.371876028512 539.067606946368,220.715048990729 536.915868940239,222.580828898459 z" fill="#A0A0A0" stroke="#A0A0A0" stroke-width="1" stroke-linejoin="round" />
    <path d="M 1143.36071598761,193.84 L 1211.64150150831,220.560229075094" fill="none" stroke="#A0A0A0" stroke-width="1" />
    <path d="M 1220.02261734572,223.84 L 1212.16794238189,216.470869711254 C 1212.12739349718,219.318582284366 1211.15560951943,221.801875865822 1209.25259044864,223.920750455621 z" fill="#A0A0A0" stroke="#A0A0A0" stroke-width="1" stroke-linejoin="round" />
    <path d="M 444.085723135573,921.320000000001 L 534.117024042064,948.701258688735" fill="none" stroke="#A0A0A0" stroke-width="1" />
    <path d="M 542.72761019776,951.320000000001 L 534.324177274215,944.583360251619 C 534.504985717807,947.425616295299 533.729062366321,949.976901082172 531.996407219758,952.237214612238 z" fill="#A0A0A0" stroke="#A0A0A0" stroke-width="1" stroke-linejoin="round" />
    <path d="M 339.055569454372,1033.24 L 339.806310787599,1054.24574250368" fill="none" stroke="#A0A0A0" stroke-width="1" />
    <path d="M 340.127763878961,1063.24 L 343.768041553588,1053.10351251904 C 341.138793379646,1054.19811982348 338.473828195552,1054.29336518389 335.773146001307,1053.38924860025 z" fill="#A0A0A0" stroke="#A0A0A0" stroke-width="1" stroke-linejoin="round" />
    <path d="M 304.494811770312,1033.24 L 234.099672345338,1060.03804083144" fill="none" stroke="#A0A0A0" stroke-width="1" />
    <path d="M 225.688521563021,1063.24 L 236.457337618289,1063.42055682707 C 234.574036666606,1061.28413724364 233.62530802407,1058.79194441924 233.61115169068,1055.9439783539 z" fill="#A0A0A0" stroke="#A0A0A0" stroke-width="1" stroke-linejoin="round" />
    <path d="M 367.817542292114,1033.24 L 427.14051828839,1059.58693441866" fill="none" stroke="#A0A0A0" stroke-width="1" />
    <path d="M 435.36579104122,1063.24 L 427.850183796447,1055.52536146392 C 427.681713189328,1058.36837549232 426.599323387451,1060.80549334501 424.603014390814,1062.836715022 z" fill="#A0A0A0" stroke="#A0A0A0" stroke-width="1" stroke-linejoin="round" />
    <path d="M 384.483333333333,1029.8068314746 L 536.385384191581,1061.40697558622" fill="none" stroke="#A0A0A0" stroke-width="1" />
    <path d="M 545.196741720276,1063.24 L 536.221021983404,1057.28714730527 C 536.656943363992,1060.10158928568 536.113825019169,1062.71236188677 534.591666948936,1065.11946510856 z" fill="#A0A0A0" stroke="#A0A0A0" stroke-width="1" stroke-linejoin="round" />
    <path d="M 1538.72684655706,809.400000000001 L 1475.19472259821,835.931773557744" fill="none" stroke="#A0A0A0" stroke-width="1" />
    <path d="M 1466.8898201096,839.400000000001 L 1477.65892351572,839.237482836874 C 1475.70853392299,837.162129481982 1474.68091127343,834.701417633507 1474.57605556705,831.855347291447 z" fill="#A0A0A0" stroke="#A0A0A0" stroke-width="1" stroke-linejoin="round" />
    <path d="M 1569.80833333333,809.400000000001 L 1569.80833333333,830.400000000001" fill="none" stroke="#A0A0A0" stroke-width="1" />
    <path d="M 1569.80833333333,839.400000000001 L 1573.80833333333,829.400000000001 C 1571.14166666667,830.400000000001 1568.475,830.400000000001 1565.80833333333,829.400000000001 z" fill="#A0A0A0" stroke="#A0A0A0" stroke-width="1" stroke-linejoin="round" />
    <path d="M 211.113333333333,193.84 L 211.113333333333,214.84" fill="none" stroke="#A0A0A0" stroke-width="1" />
    <path d="M 211.113333333333,223.84 L 215.113333333333,213.84 C 212.446666666667,214.84 209.78,214.84 207.113333333333,213.84 z" fill="#A0A0A0" stroke="#A0A0A0" stroke-width="1" stroke-linejoin="round" />
    <path d="M 832.49,193.84 L 832.49,214.84" fill="none" stroke="#A0A0A0" stroke-width="1" />
    <path d="M 832.49,223.84 L 836.49,213.84 C 833.823333333333,214.84 831.156666666667,214.84 828.49,213.84 z" fill="#A0A0A0" stroke="#A0A0A0" stroke-width="1" stroke-linejoin="round" />
    <path d="M 197.768874195854,921.320000000001 L 119.427896582993,948.381488316147" fill="none" stroke="#A0A0A0" stroke-width="1" />
    <path d="M 110.921125804146,951.320000000001 L 121.679098529023,951.835774030762 C 119.863231647268,949.641750653754 118.992561518719,947.12122597854 119.067088143375,944.27420000512 z" fill="#A0A0A0" stroke="#A0A0A0" stroke-width="1" stroke-linejoin="round" />
    <path d="M 235.345,921.320000000001 L 235.345,942.320000000001" fill="none" stroke="#A0A0A0" stroke-width="1" />
    <path d="M 235.345,951.320000000001 L 239.345,941.320000000001 C 236.678333333333,942.320000000001 234.011666666667,942.320000000001 231.345,941.320000000001 z" fill="#A0A0A0" stroke="#A0A0A0" stroke-width="1" stroke-linejoin="round" />
    <path d="M 296.303333333333,529.6 L 296.303333333333,550.6" fill="none" stroke="#A0A0A0" stroke-width="1" />
    <path d="M 296.303333333333,559.6 L 300.303333333333,549.6 C 297.636666666667,550.6 294.97,550.6 292.303333333333,549.6 z" fill="#A0A0A0" stroke="#A0A0A0" stroke-width="1" stroke-linejoin="round" />
    <path d="M 370.295827972361,529.6 L 554.325363545753,561.883049563283" fill="none" stroke="#A0A0A0" stroke-width="1" />
    <path d="M 563.19,563.438112434692 L 554.031542993685,557.770426375683 C 554.555743230406,560.569770088579 554.0949838611,563.196329037986 552.649264885766,565.650103223902 z" fill="#A0A0A0" stroke="#A0A0A0" stroke-width="1" stroke-linejoin="round" />
    <path d="M 333.647507743626,529.6 L 411.458032610875,556.645198581188" fill="none" stroke="#A0A0A0" stroke-width="1" />
    <path d="M 419.95915892304,559.6 L 411.826708095662,552.538608951469 C 411.895780969218,555.385772460867 411.020284252533,557.904624701509 409.200217945607,560.095165673394 z" fill="#A0A0A0" stroke="#A0A0A0" stroke-width="1" stroke-linejoin="round" />
    <path d="M 265.917700738623,529.600000000001 L 203.965448342863,556.064488886006" fill="none" stroke="#A0A0A0" stroke-width="1" />
    <path d="M 195.688965928044,559.600000000001 L 206.456395772952,559.350090946593 C 204.489227767159,557.290634428942 203.441668918568,554.83834334307 203.313719227179,551.993217688975 z" fill="#A0A0A0" stroke="#A0A0A0" stroke-width="1" stroke-linejoin="round" />
    <path d="M 238.083533476292,529.600000000001 L 99.3886061081018,560.521785400494" fill="none" stroke="#A0A0A0" stroke-width="1" />
    <path d="M 90.6042751536621,562.480236237986 L 101.235065475258,564.208326842746 C 99.6787469729154,561.823167764115 99.0984652432882,559.220403036874 99.4942202863765,556.400032661022 z" fill="#A0A0A0" stroke="#A0A0A0" stroke-width="1" stroke-linejoin="round" />
    <path d="M 952.723333333334,417.68 L 952.723333333334,438.68" fill="none" stroke="#A0A0A0" stroke-width="1" />
    <path d="M 952.723333333334,447.68 L 956.723333333334,437.68 C 954.056666666667,438.68 951.39,438.68 948.723333333334,437.68 z" fill="#A0A0A0" stroke="#A0A0A0" stroke-width="1" stroke-linejoin="round" />
    <path d="M 775.64,1027.78606985311 L 777.530790830215,1028.32965770053 C 796.243540272581,1033.70942950088 841.243540272581,1043.03609616755 912.530790830215,1056.30965770053 L 966.988737745691,1066.44963229189" fill="none" stroke="#A0A0A0" stroke-width="1" />
    <path d="M 975.836666666667,1068.09710120187 L 966.737842936687,1062.33416733701 C 967.232807213837,1065.1388280073 966.744668277546,1067.76043657648 965.273426127812,1070.19899304455 z" fill="#A0A0A0" stroke="#A0A0A0" stroke-width="1" stroke-linejoin="round" />
    <path d="M 749.461666666667,1033.24 L 749.461666666667,1054.24" fill="none" stroke="#A0A0A0" stroke-width="1" />
    <path d="M 749.461666666667,1063.24 L 753.461666666667,1053.24 C 750.795,1054.24 748.128333333333,1054.24 745.461666666667,1053.24 z" fill="#A0A0A0" stroke="#A0A0A0" stroke-width="1" stroke-linejoin="round" />
    <path d="M 285.898333333333,809.400000000001 L 285.898333333333,830.400000000001" fill="none" stroke="#A0A0A0" stroke-width="1" />
    <path d="M 285.898333333333,839.400000000001 L 289.898333333333,829.400000000001 C 287.231666666666,830.400000000001 284.565,830.400000000001 281.898333333333,829.400000000001 z" fill="#A0A0A0" stroke="#A0A0A0" stroke-width="1" stroke-linejoin="round" />
    <path d="M 1119.30798546581,1033.24 L 1057.88198533122,1059.68153051947" fill="none" stroke="#A0A0A0" stroke-width="1" />
    <path d="M 1049.61534786752,1063.24 L 1060.38204259631,1062.96020611661 C 1058.409165995,1060.90621755113 1057.35480466744,1058.45684348782 1057.21895861362,1055.61208392666 z" fill="#A0A0A0" stroke="#A0A0A0" stroke-width="1" stroke-linejoin="round" />
    <path d="M 84.8566666666666,809.400000000001 L 84.8566666666666,830.400000000001" fill="none" stroke="#A0A0A0" stroke-width="1" />
    <path d="M 84.8566666666666,839.400000000001 L 88.8566666666666,829.400000000001 C 86.19,830.400000000001 83.5233333333333,830.400000000001 80.8566666666666,829.400000000001 z" fill="#A0A0A0" stroke="#A0A0A0" stroke-width="1" stroke-linejoin="round" />
    <path d="M 856.461666666667,1027.7014893617 L 968.666510385914,1061.10033539643" fill="none" stroke="#A0A0A0" stroke-width="1" />
    <path d="M 977.292483509112,1063.66793888566 L 968.849226034103,1056.98128028732 C 969.046896088022,1059.82241345225 968.286124683807,1062.37825734061 966.566911821459,1064.64881195238 z" fill="#A0A0A0" stroke="#A0A0A0" stroke-width="1" stroke-linejoin="round" />
    <path d="M 863.474982518074,918.693298110781 L 793.079123944532,947.873685116524" fill="none" stroke="#A0A0A0" stroke-width="1" />
    <path d="M 784.765104836789,951.320000000001 L 795.53459934916,951.185880844024 C 793.589689112455,949.105391651005 792.56855877661,946.641978582044 792.471208341625,943.795641637141 z" fill="#A0A0A0" stroke="#A0A0A0" stroke-width="1" stroke-linejoin="round" />
    <path d="M 888.451666666667,921.320000000001 L 888.451666666667,942.320000000001" fill="none" stroke="#A0A0A0" stroke-width="1" />
    <path d="M 888.451666666667,951.320000000001 L 892.451666666667,941.320000000001 C 889.785,942.320000000001 887.118333333334,942.320000000001 884.451666666667,941.320000000001 z" fill="#A0A0A0" stroke="#A0A0A0" stroke-width="1" stroke-linejoin="round" />
    <path d="M 1362.46166666667,1029.22297237442 L 1360.32921796677,1029.9874955259 C 1342.24091883351,1036.47249254316 1280.90758550018,1045.79915920983 1176.32921796677,1057.9674955259 L 1072.02635400669,1070.10377530661" fill="none" stroke="#A0A0A0" stroke-width="1" />
    <path d="M 1063.08666666667,1071.14396291595 L 1073.48195820418,1073.96139327891 C 1072.18045587474,1071.42817343106 1071.87225213864,1068.77937718216 1072.55734699587,1066.01500453223 z" fill="#A0A0A0" stroke="#A0A0A0" stroke-width="1" stroke-linejoin="round" />
    <path d="M 984.440944722421,921.320000000001 L 1008.09615433129,944.958313030576" fill="none" stroke="#A0A0A0" stroke-width="1" />
    <path d="M 1014.46238861091,951.320000000001 L 1010.21621139774,941.422021465252 C 1009.03862647491,944.015167211373 1007.15368218767,945.90145884978 1004.56137853603,947.080896380473 z" fill="#A0A0A0" stroke="#A0A0A0" stroke-width="1" stroke-linejoin="round" />
    <path d="M 952.199700976889,921.320000000001 L 915.165979315781,946.288759809104" fill="none" stroke="#A0A0A0" stroke-width="1" />
    <path d="M 907.703632356446,951.320000000001 L 918.231235729439,949.04633176982 C 915.911348232951,947.394292691968 914.420610398611,945.183226926239 913.75902222642,942.413134472633 z" fill="#A0A0A0" stroke="#A0A0A0" stroke-width="1" stroke-linejoin="round" />
    <path d="M 585.406666666667,921.320000000001 L 585.406666666667,942.320000000001" fill="none" stroke="#A0A0A0" stroke-width="1" />
    <path d="M 585.406666666667,951.320000000001 L 589.406666666667,941.320000000001 C 586.74,942.320000000001 584.073333333333,942.320000000001 581.406666666667,941.320000000001 z" fill="#A0A0A0" stroke="#A0A0A0" stroke-width="1" stroke-linejoin="round" />
    <path d="M 777.929999999999,697.48 L 777.929999999999,718.48" fill="none" stroke="#A0A0A0" stroke-width="1" />
    <path d="M 777.929999999999,727.48 L 781.929999999999,717.48 C 779.263333333332,718.48 776.596666666665,718.48 773.929999999999,717.48 z" fill="#A0A0A0" stroke="#A0A0A0" stroke-width="1" stroke-linejoin="round" />
    <path d="M 1253.19166666667,193.84 L 1253.19166666667,214.84" fill="none" stroke="#A0A0A0" stroke-width="1" />
    <path d="M 1253.19166666667,223.84 L 1257.19166666667,213.84 C 1254.525,214.84 1251.85833333333,214.84 1249.19166666667,213.84 z" fill="#A0A0A0" stroke="#A0A0A0" stroke-width="1" stroke-linejoin="round" />
    <path d="M 1765.975,529.6 L 1765.975,550.6" fill="none" stroke="#A0A0A0" stroke-width="1" />
    <path d="M 1765.975,559.6 L 1769.975,549.6 C 1767.30833333334,550.6 1764.64166666667,550.6 1761.975,549.6 z" fill="#A0A0A0" stroke="#A0A0A0" stroke-width="1" stroke-linejoin="round" />
    <path d="M 1284.785,809.400000000001 L 1284.785,830.400000000001" fill="none" stroke="#A0A0A0" stroke-width="1" />
    <path d="M 1284.785,839.400000000001 L 1288.785,829.400000000001 C 1286.11833333333,830.400000000001 1283.45166666667,830.400000000001 1280.785,829.400000000001 z" fill="#A0A0A0" stroke="#A0A0A0" stroke-width="1" stroke-linejoin="round" />
    <path d="M 1361.19166666667,249.8 L 1361.19166666667,270.8" fill="none" stroke="#A0A0A0" stroke-width="1" />
    <path d="M 1361.19166666667,279.8 L 1365.19166666667,269.8 C 1362.525,270.8 1359.85833333333,270.8 1357.19166666667,269.8 z" fill="#A0A0A0" stroke="#A0A0A0" stroke-width="1" stroke-linejoin="round" />
    <path d="M 1350.14,25.96 L 1350.14,46.96" fill="none" stroke="#A0A0A0" stroke-width="1" />
    <path d="M 1350.14,55.96 L 1354.14,45.96 C 1351.47333333333,46.96 1348.80666666667,46.96 1346.14,45.96 z" fill="#A0A0A0" stroke="#A0A0A0" stroke-width="1" stroke-linejoin="round" />
    <path d="M 574.422617345723,1033.24 L 506.141831825023,1059.96022907509" fill="none" stroke="#A0A0A0" stroke-width="1" />
    <path d="M 497.76071598761,1063.24 L 508.530742884695,1063.32075045562 C 506.627723813899,1061.20187586582 505.655939836148,1058.71858228437 505.615390951444,1055.87086971125 z" fill="#A0A0A0" stroke="#A0A0A0" stroke-width="1" stroke-linejoin="round" />
    <path d="M 607.591666666667,1033.24 L 607.591666666667,1054.24" fill="none" stroke="#A0A0A0" stroke-width="1" />
    <path d="M 607.591666666667,1063.24 L 611.591666666667,1053.24 C 608.925,1054.24 606.258333333333,1054.24 603.591666666667,1053.24 z" fill="#A0A0A0" stroke="#A0A0A0" stroke-width="1" stroke-linejoin="round" />
    <path d="M 1231.07692920469,1031.02156453577 L 1071.8881449581,1065.02234456035" fill="none" stroke="#A0A0A0" stroke-width="1" />
    <path d="M 1063.08666666667,1066.90223282443 L 1073.70159288563,1068.72523621609 C 1072.16664692315,1066.32626727019 1071.60964299305,1063.71842185051 1072.03058109534,1060.90169995704 z" fill="#A0A0A0" stroke="#A0A0A0" stroke-width="1" stroke-linejoin="round" />
    <path d="M 544.596971646414,249.8 L 490.515753787539,275.889525442954" fill="none" stroke="#A0A0A0" stroke-width="1" />
    <path d="M 482.409695020253,279.8 L 493.154415675924,279.05772105541 C 491.095083351545,277.090423038108 489.936424223532,274.688627847801 489.678438291883,271.852335484489 z" fill="#A0A0A0" stroke="#A0A0A0" stroke-width="1" stroke-linejoin="round" />
    <path d="M 571.503333333333,193.84 L 571.503333333333,214.84" fill="none" stroke="#A0A0A0" stroke-width="1" />
    <path d="M 571.503333333333,223.84 L 575.503333333333,213.84 C 572.836666666667,214.84 570.17,214.84 567.503333333333,213.84 z" fill="#A0A0A0" stroke="#A0A0A0" stroke-width="1" stroke-linejoin="round" />
    <path d="M 1278.24241720276,249.8 L 1328.14991623937,275.659478204522" fill="none" stroke="#A0A0A0" stroke-width="1" />
    <path d="M 1336.14091613057,279.8 L 1329.10225927167,271.647864720047 C 1328.76332687574,274.475626368789 1327.536505603,276.843330040256 1325.42179545347,278.750975734448 z" fill="#A0A0A0" stroke="#A0A0A0" stroke-width="1" stroke-linejoin="round" />
    <path d="M 1372.57333333333,529.6 L 1372.57333333333,550.6" fill="none" stroke="#A0A0A0" stroke-width="1" />
    <path d="M 1372.57333333333,559.6 L 1376.57333333333,549.6 C 1373.90666666667,550.6 1371.24,550.6 1368.57333333333,549.6 z" fill="#A0A0A0" stroke="#A0A0A0" stroke-width="1" stroke-linejoin="round" />
    <path d="M 944.541666666666,697.48 L 944.541666666666,718.48" fill="none" stroke="#A0A0A0" stroke-width="1" />
    <path d="M 944.541666666666,727.48 L 948.541666666666,717.48 C 945.874999999999,718.48 943.208333333332,718.48 940.541666666666,717.48 z" fill="#A0A0A0" stroke="#A0A0A0" stroke-width="1" stroke-linejoin="round" />
    <path d="M 1362.25456873958,193.84 L 1294.50202570296,220.540227523442" fill="none" stroke="#A0A0A0" stroke-width="1" />
    <path d="M 1286.12876459376,223.84 L 1296.89895359357,223.895035519028 C 1294.99088088468,221.780710650732 1294.01317052125,219.299744396153 1293.96582250329,216.452136755289 z" fill="#A0A0A0" stroke="#A0A0A0" stroke-width="1" stroke-linejoin="round" />
    <path d="M 1586.72666666667,25.96 L 1586.72666666667,46.96" fill="none" stroke="#A0A0A0" stroke-width="1" />
    <path d="M 1586.72666666667,55.96 L 1590.72666666667,45.96 C 1588.06,46.96 1585.39333333333,46.96 1582.72666666667,45.96 z" fill="#A0A0A0" stroke="#A0A0A0" stroke-width="1" stroke-linejoin="round" />
    <path d="M 1655.93833333333,697.48 L 1655.93833333333,718.48" fill="none" stroke="#A0A0A0" stroke-width="1" />
    <path d="M 1655.93833333333,727.48 L 1659.93833333333,717.48 C 1657.27166666667,718.48 1654.605,718.48 1651.93833333333,717.48 z" fill="#A0A0A0" stroke="#A0A0A0" stroke-width="1" stroke-linejoin="round" />
    <path d="M 1105.36,25.96 L 1105.36,46.96" fill="none" stroke="#A0A0A0" stroke-width="1" />
    <path d="M 1105.36,55.96 L 1109.36,45.96 C 1106.69333333333,46.96 1104.02666666667,46.96 1101.36,45.96 z" fill="#A0A0A0" stroke="#A0A0A0" stroke-width="1" stroke-linejoin="round" />
    <path d="M 482.291666666667,25.9600000000002 L 482.291666666667,46.9600000000002" fill="none" stroke="#A0A0A0" stroke-width="1" />
    <path d="M 482.291666666667,55.9600000000002 L 486.291666666667,45.9600000000002 C 483.625,46.9600000000002 480.958333333333,46.9600000000002 478.291666666667,45.9600000000002 z" fill="#A0A0A0" stroke="#A0A0A0" stroke-width="1" stroke-linejoin="round" />
    <path d="M 999.941666666667,529.6 L 999.941666666667,550.6" fill="none" stroke="#A0A0A0" stroke-width="1" />
    <path d="M 999.941666666667,559.6 L 1003.94166666667,549.6 C 1001.275,550.6 998.608333333334,550.6 995.941666666667,549.6 z" fill="#A0A0A0" stroke="#A0A0A0" stroke-width="1" stroke-linejoin="round" />
    <path d="M 455.503333333333,249.8 L 455.503333333333,270.8" fill="none" stroke="#A0A0A0" stroke-width="1" />
    <path d="M 455.503333333333,279.8 L 459.503333333333,269.8 C 456.836666666667,270.8 454.17,270.8 451.503333333333,269.8 z" fill="#A0A0A0" stroke="#A0A0A0" stroke-width="1" stroke-linejoin="round" />
    <path d="M 1503.16666666667,529.6 L 1503.16666666667,550.6" fill="none" stroke="#A0A0A0" stroke-width="1" />
    <path d="M 1503.16666666667,559.6 L 1507.16666666667,549.6 C 1504.5,550.6 1501.83333333333,550.6 1499.16666666667,549.6 z" fill="#A0A0A0" stroke="#A0A0A0" stroke-width="1" stroke-linejoin="round" />
    <path d="M 51.2916666666667,697.48 L 51.2916666666667,718.48" fill="none" stroke="#A0A0A0" stroke-width="1" />
    <path d="M 51.2916666666667,727.48 L 55.2916666666667,717.48 C 52.625,718.48 49.9583333333333,718.48 47.2916666666667,717.48 z" fill="#A0A0A0" stroke="#A0A0A0" stroke-width="1" stroke-linejoin="round" />
    <path d="M 369.61,361.72 L 369.61,382.72" fill="none" stroke="#A0A0A0" stroke-width="1" />
    <path d="M 369.61,391.72 L 373.61,381.72 C 370.943333333333,382.72 368.276666666667,382.72 365.61,381.72 z" fill="#A0A0A0" stroke="#A0A0A0" stroke-width="1" stroke-linejoin="round" />
    <path d="M 844.428479866572,361.72 L 911.652925379764,388.399999793747" fill="none" stroke="#A0A0A0" stroke-width="1" />
    <path d="M 920.018186800095,391.72 L 912.19900753584,384.31321691735 C 912.144777262172,387.16070180555 911.161073497356,389.639297781944 909.247896241393,391.749004846533 z" fill="#A0A0A0" stroke="#A0A0A0" stroke-width="1" stroke-linejoin="round" />
    <path d="M 952.723333333333,361.72 L 952.723333333333,382.72" fill="none" stroke="#A0A0A0" stroke-width="1" />
    <path d="M 952.723333333333,391.72 L 956.723333333333,381.72 C 954.056666666667,382.72 951.39,382.72 948.723333333333,381.72 z" fill="#A0A0A0" stroke="#A0A0A0" stroke-width="1" stroke-linejoin="round" />
    <path d="M 1066.39452704313,361.72 L 995.470468782723,388.536961488191" fill="none" stroke="#A0A0A0" stroke-width="1" />
    <path d="M 987.052139623541,391.72 L 997.820522472325,391.924770168737 C 995.942030043732,389.784121363625 994.998907521714,387.289801612756 994.991154906272,384.441810916131 z" fill="#A0A0A0" stroke="#A0A0A0" stroke-width="1" stroke-linejoin="round" />
    <path d="M 1556.80493685966,81.9200000000001 L 1495.90499543145,108.338300173044" fill="none" stroke="#A0A0A0" stroke-width="1" />
    <path d="M 1487.64839647367,111.92 L 1498.41426190541,111.609933062395 C 1496.43561762804,109.561500018641 1495.37437323486,107.115100327448 1495.23052872589,104.270733988815 z" fill="#A0A0A0" stroke="#A0A0A0" stroke-width="1" stroke-linejoin="round" />
    <path d="M 1586.72666666667,81.9200000000001 L 1586.72666666667,102.92" fill="none" stroke="#A0A0A0" stroke-width="1" />
    <path d="M 1586.72666666667,111.92 L 1590.72666666667,101.92 C 1588.06,102.92 1585.39333333333,102.92 1582.72666666667,101.92 z" fill="#A0A0A0" stroke="#A0A0A0" stroke-width="1" stroke-linejoin="round" />
    <path d="M 1395.36,921.320000000001 L 1395.36,942.320000000001" fill="none" stroke="#A0A0A0" stroke-width="1" />
    <path d="M 1395.36,951.320000000001 L 1399.36,941.320000000001 C 1396.69333333333,942.320000000001 1394.02666666667,942.320000000001 1391.36,941.320000000001 z" fill="#A0A0A0" stroke="#A0A0A0" stroke-width="1" stroke-linejoin="round" />
    <path d="M 1543.59338098642,921.320000000001 L 1436.6173153803,952.337516224449" fill="none" stroke="#A0A0A0" stroke-width="1" />
    <path d="M 1427.97333333333,954.843823143351 L 1438.69167201614,955.900807476555 C 1436.98862010903,953.618106157332 1436.24601065157,951.056926291565 1436.46384364378,948.217267879253 z" fill="#A0A0A0" stroke="#A0A0A0" stroke-width="1" stroke-linejoin="round" />
    <path d="M 972.185548010483,809.400000000001 L 915.486492992175,835.622141477889" fill="none" stroke="#A0A0A0" stroke-width="1" />
    <path d="M 907.317785322849,839.400000000001 L 918.073175409706,838.832916161799 C 916.046175736192,836.832320391863 914.926810248159,834.411962563915 914.715078945607,831.571842677954 z" fill="#A0A0A0" stroke="#A0A0A0" stroke-width="1" stroke-linejoin="round" />
    <path d="M 1000.25166666667,809.400000000001 L 1000.25166666667,830.400000000001" fill="none" stroke="#A0A0A0" stroke-width="1" />
    <path d="M 1000.25166666667,839.400000000001 L 1004.25166666667,829.400000000001 C 1001.585,830.400000000001 998.918333333333,830.400000000001 996.251666666666,829.400000000001 z" fill="#A0A0A0" stroke="#A0A0A0" stroke-width="1" stroke-linejoin="round" />
    <path d="M 1105.36,81.9200000000001 L 1105.36,102.92" fill="none" stroke="#A0A0A0" stroke-width="1" />
    <path d="M 1105.36,111.92 L 1109.36,101.92 C 1106.69333333333,102.92 1104.02666666667,102.92 1101.36,101.92 z" fill="#A0A0A0" stroke="#A0A0A0" stroke-width="1" stroke-linejoin="round" />
    <path d="M 450.605,72.4667858575048 L 308.193043946129,88.3175055887386 C 214.018865713407,98.7992695251983 149.074734535926,106.916464414487 113.360650413689,112.669090256605" fill="none" stroke="#A0A0A0" stroke-width="1" />
    <path d="M 104.484167612907,114.155042169493 L 115.007349352837,116.44908795552 C 113.58079143782,113.984124745609 113.140509389557,111.3540557676 113.686503208048,108.558881021492 z" fill="#A0A0A0" stroke="#A0A0A0" stroke-width="1" stroke-linejoin="round" />
    <path d="M 450.605,74.3328576230589 L 362.865500223811,89.2655305731338 C 296.29105505668,100.596053530859 249.492733973698,108.973393364628 222.470536974865,114.397550074441" fill="none" stroke="#A0A0A0" stroke-width="1" />
    <path d="M 213.655,116.210367727927 L 224.255737818066,118.114142323994 C 222.739102553159,115.703555552199 222.201971396571,113.091544596683 222.6443443483,110.278109457447 z" fill="#A0A0A0" stroke="#A0A0A0" stroke-width="1" stroke-linejoin="round" />
    <path d="M 450.646693209186,79.4184184300628 L 361.03524717305,109.090942218123" fill="none" stroke="#A0A0A0" stroke-width="1" />
    <path d="M 352.491452227782,111.92 L 363.241916736692,112.573844662478 C 361.45436684444,110.356689617422 360.616127501661,107.825194818824 360.727198708357,104.979360266684 z" fill="#A0A0A0" stroke="#A0A0A0" stroke-width="1" stroke-linejoin="round" />
    <path d="M 482.291666666667,81.9200000000002 L 482.291666666667,102.92" fill="none" stroke="#A0A0A0" stroke-width="1" />
    <path d="M 482.291666666667,111.92 L 486.291666666667,101.92 C 483.625,102.92 480.958333333333,102.92 478.291666666667,101.92 z" fill="#A0A0A0" stroke="#A0A0A0" stroke-width="1" stroke-linejoin="round" />
    <path d="M 513.520315253924,80.5132130790922 L 589.827887745475,108.792496235564" fill="none" stroke="#A0A0A0" stroke-width="1" />
    <path d="M 598.267006194901,111.92 L 590.280209590844,104.694276506437 C 590.291221636503,107.542256465279 589.364553854448,110.042736005849 587.500206244679,112.195715128149 z" fill="#A0A0A0" stroke="#A0A0A0" stroke-width="1" stroke-linejoin="round" />
    <path d="M 513.978333333333,74.6784655879181 L 710.762740026511,110.316185324327" fill="none" stroke="#A0A0A0" stroke-width="1" />
    <path d="M 719.618685966166,111.92 L 710.491552555738,106.202007720516 C 711.000342200685,109.004193333267 710.525137852337,111.628177315387 709.065939510695,114.073959666876 z" fill="#A0A0A0" stroke="#A0A0A0" stroke-width="1" stroke-linejoin="round" />
    <path d="M 513.978333333333,72.0723782509747 L 675.622301956993,88.0516561297238 C 779.738149716787,98.3440046602695 851.08258106797,106.408256678924 889.655596010539,112.244412185688" fill="none" stroke="#A0A0A0" stroke-width="1" />
    <path d="M 898.54587756113,113.64544535847 L 889.290468359488,108.13750558845 C 889.863156480581,110.927333437453 889.448035540498,113.561490933924 888.045105539238,116.039978077864 z" fill="#A0A0A0" stroke="#A0A0A0" stroke-width="1" stroke-linejoin="round" />
    <path d="M 1472.64833333333,697.48 L 1472.64833333333,718.48" fill="none" stroke="#A0A0A0" stroke-width="1" />
    <path d="M 1472.64833333333,727.48 L 1476.64833333333,717.48 C 1473.98166666667,718.48 1471.315,718.48 1468.64833333333,717.48 z" fill="#A0A0A0" stroke="#A0A0A0" stroke-width="1" stroke-linejoin="round" />
    <path d="M 186.113333333333,246.741985815603 L 111.183741286902,276.479999793747" fill="none" stroke="#A0A0A0" stroke-width="1" />
    <path d="M 102.818479866571,279.8 L 113.588770425274,279.829004846533 C 111.67559316931,277.719297781944 110.691889404494,275.24070180555 110.637659130827,272.393216917349 z" fill="#A0A0A0" stroke="#A0A0A0" stroke-width="1" stroke-linejoin="round" />
    <path d="M 211.113333333333,249.8 L 211.113333333333,270.8" fill="none" stroke="#A0A0A0" stroke-width="1" />
    <path d="M 211.113333333333,279.8 L 215.113333333333,269.8 C 212.446666666667,270.8 209.78,270.8 207.113333333333,269.8 z" fill="#A0A0A0" stroke="#A0A0A0" stroke-width="1" stroke-linejoin="round" />
    <path d="M 801.176561829879,249.8 L 737.117457277865,276.353685116524" fill="none" stroke="#A0A0A0" stroke-width="1" />
    <path d="M 728.803438170122,279.8 L 739.572932682493,279.665880844023 C 737.628022445788,277.585391651004 736.606892109943,275.121978582043 736.509541674958,272.27564163714 z" fill="#A0A0A0" stroke="#A0A0A0" stroke-width="1" stroke-linejoin="round" />
    <path d="M 832.49,249.8 L 832.49,270.8" fill="none" stroke="#A0A0A0" stroke-width="1" />
    <path d="M 832.49,279.8 L 836.49,269.8 C 833.823333333333,270.8 831.156666666667,270.8 828.49,269.8 z" fill="#A0A0A0" stroke="#A0A0A0" stroke-width="1" stroke-linejoin="round" />
    <path d="M 864.731243745533,249.8 L 930.899942973864,276.438851861996" fill="none" stroke="#A0A0A0" stroke-width="1" />
    <path d="M 939.248756254467,279.8 L 931.466140670687,272.354807277505 C 931.39789084616,275.20199063524 930.401995101567,277.675713088752 928.478453436906,279.775974638042 z" fill="#A0A0A0" stroke="#A0A0A0" stroke-width="1" stroke-linejoin="round" />
    <path d="M 165.303333333333,585.560000000001 L 165.303333333333,606.560000000001" fill="none" stroke="#A0A0A0" stroke-width="1" />
    <path d="M 165.303333333333,615.560000000001 L 169.303333333333,605.560000000001 C 166.636666666667,606.560000000001 163.97,606.560000000001 161.303333333333,605.560000000001 z" fill="#A0A0A0" stroke="#A0A0A0" stroke-width="1" stroke-linejoin="round" />
    <path d="M 204.039216106743,585.560000000001 L 285.033808304417,612.700463349592" fill="none" stroke="#A0A0A0" stroke-width="1" />
    <path d="M 293.567450559924,615.56 L 285.356531009542,608.590007163766 C 285.457443363737,611.43622005248 284.610173245097,613.964706646704 282.814720653624,616.175466946439 z" fill="#A0A0A0" stroke="#A0A0A0" stroke-width="1" stroke-linejoin="round" />
    <path d="M 309.054243489917,415.457778204141 L 118.081256416777,449.384280923547" fill="none" stroke="#A0A0A0" stroke-width="1" />
    <path d="M 109.22,450.958490158731 L 119.765489012056,453.147704971538 C 118.314472599767,450.697059651958 117.848040233786,448.071502195136 118.366191914115,445.27103260107 z" fill="#A0A0A0" stroke="#A0A0A0" stroke-width="1" stroke-linejoin="round" />
    <path d="M 333.889485346676,417.68 L 259.789360881013,444.606253020121" fill="none" stroke="#A0A0A0" stroke-width="1" />
    <path d="M 251.330514653324,447.68 L 262.095342452924,448.024212790218 C 260.244730803958,445.859415424223 259.333990958067,443.353090616019 259.363122915254,440.505238365606 z" fill="#A0A0A0" stroke="#A0A0A0" stroke-width="1" stroke-linejoin="round" />
    <path d="M 369.61,417.68 L 369.61,438.68" fill="none" stroke="#A0A0A0" stroke-width="1" />
    <path d="M 369.61,447.68 L 373.61,437.68 C 370.943333333333,438.68 368.276666666667,438.68 365.61,437.68 z" fill="#A0A0A0" stroke="#A0A0A0" stroke-width="1" stroke-linejoin="round" />
    <path d="M 399.531729807005,417.68 L 460.431671235217,444.098300173045" fill="none" stroke="#A0A0A0" stroke-width="1" />
    <path d="M 468.688270192995,447.68 L 461.106137940777,440.030733988815 C 460.962293431803,442.875100327448 459.901049038631,445.321500018642 457.922404761261,447.369933062396 z" fill="#A0A0A0" stroke="#A0A0A0" stroke-width="1" stroke-linejoin="round" />
    <path d="M 1325.0892494639,81.9200000000001 L 1275.1817504273,107.779478204522" fill="none" stroke="#A0A0A0" stroke-width="1" />
    <path d="M 1267.1907505361,111.92 L 1277.9098712132,110.870975734447 C 1275.79516106367,108.963330040256 1274.56833979093,106.595626368789 1274.229407395,103.767864720047 z" fill="#A0A0A0" stroke="#A0A0A0" stroke-width="1" stroke-linejoin="round" />
    <path d="M 1350.14,81.9200000000001 L 1350.14,102.92" fill="none" stroke="#A0A0A0" stroke-width="1" />
    <path d="M 1350.14,111.92 L 1354.14,101.92 C 1351.47333333333,102.92 1348.80666666667,102.92 1346.14,101.92 z" fill="#A0A0A0" stroke="#A0A0A0" stroke-width="1" stroke-linejoin="round" />
    <rect x="240.78666666666649" y="559.60000000000036" rx="3" ry="3" width="111.03333333333333" height="25.960000000000036" fill="#008B8B" stroke="#A5A6A9" stroke-width="1" />
    <text x="250.78666666666649" y="577.55000000000041" fill="#FFFFFF">IExtensibleObject</text>
    <rect x="563.18999999999983" y="559.60000000000036" rx="3" ry="3" width="104.22666666666669" height="25.960000000000036" fill="#008B8B" stroke="#A5A6A9" stroke-width="1" />
    <text x="573.18999999999983" y="577.55000000000041" fill="#FFFFFF">IOleComponent</text>
    <rect y="111.92000000000017" rx="3" ry="3" width="104.58333333333334" height="25.959999999999994" fill="#008B8B" stroke="#A5A6A9" stroke-width="1" />
    <text x="10" y="129.87000000000018" fill="#FFFFFF">IServiceProvider</text>
    <rect x="887.4233333333334" y="1007.2800000000007" rx="3" ry="3" width="54.076666666666711" height="25.960000000000036" fill="#008000" stroke="#A5A6A9" stroke-width="1" />
    <text x="897.4233333333334" y="1025.2300000000007" fill="#FFFFFF">Action</text>
    <rect x="298.05666666666662" y="223.8400000000002" rx="3" ry="3" width="86.893333333333317" height="25.95999999999998" fill="#008000" stroke="#A5A6A9" stroke-width="1" />
    <text x="308.05666666666662" y="241.79000000000019" fill="#FFFFFF">ActionSetOp</text>
    <rect x="1084.1966666666663" y="783.44000000000051" rx="3" ry="3" width="103.17666666666673" height="25.960000000000036" fill="#008000" stroke="#A5A6A9" stroke-width="1" />
    <text x="1094.1966666666663" y="801.39000000000055" fill="#FFFFFF">AlphaComparer</text>
    <rect x="1362.7466666666671" y="951.32000000000062" rx="3" ry="3" width="65.226666666666688" height="25.960000000000036" fill="#008000" stroke="#A5A6A9" stroke-width="1" />
    <text x="1372.7466666666671" y="969.27000000000066" fill="#FFFFFF">Analyzer</text>
    <rect x="838.92500000000018" y="503.64000000000033" rx="3" ry="3" width="86.743333333333339" height="25.960000000000036" fill="#008000" stroke="#A5A6A9" stroke-width="1" />
    <text x="848.92500000000018" y="521.59000000000037" fill="#FFFFFF">BindableRun</text>
    <rect x="971.67166666666662" y="1007.2800000000007" rx="3" ry="3" width="95.579999999999927" height="25.960000000000036" fill="#008000" stroke="#A5A6A9" stroke-width="1" />
    <text x="981.67166666666662" y="1025.2300000000007" fill="#FFFFFF">BrowserGroup</text>
    <rect x="538.53166666666652" y="503.64000000000033" rx="3" ry="3" width="153.54333333333329" height="25.960000000000036" fill="#008000" stroke="#A5A6A9" stroke-width="1" />
    <text x="548.53166666666652" y="521.59000000000037" fill="#FFFFFF">BrowserToolWindowPane</text>
    <rect x="414.63000000000011" y="1007.2800000000007" rx="3" ry="3" width="105.92333333333329" height="25.960000000000036" fill="#008000" stroke="#A5A6A9" stroke-width="1" />
    <text x="424.63000000000011" y="1025.2300000000007" fill="#FFFFFF">CascadeBrowser</text>
    <rect x="1123.3233333333337" y="895.36000000000058" rx="3" ry="3" width="158.07333333333327" height="25.960000000000036" fill="#008000" stroke="#A5A6A9" stroke-width="1" />
    <text x="1133.3233333333337" y="913.31000000000063" fill="#FFFFFF">CircularReferenceDetector</text>
    <rect x="410.83999999999958" y="671.52000000000044" rx="3" ry="3" width="112.39333333333332" height="25.960000000000036" fill="#008000" stroke="#A5A6A9" stroke-width="1" />
    <text x="420.83999999999958" y="689.47000000000048" fill="#FFFFFF">CommandService</text>
    <rect x="1193.9283333333342" y="503.64000000000033" rx="3" ry="3" width="98.4233333333334" height="25.960000000000036" fill="#008000" stroke="#A5A6A9" stroke-width="1" />
    <text x="1203.9283333333342" y="521.59000000000037" fill="#FFFFFF">ContentHolder</text>
    <rect x="170.59666666666675" y="1007.2800000000007" rx="3" ry="3" width="91.990000000000009" height="25.960000000000036" fill="#008000" stroke="#A5A6A9" stroke-width="1" />
    <text x="180.59666666666675" y="1025.2300000000007" fill="#FFFFFF">DataManager</text>
    <rect x="580.08333333333348" y="335.76000000000028" rx="3" ry="3" width="155.27999999999997" height="25.95999999999998" fill="#008000" stroke="#A5A6A9" stroke-width="1" />
    <text x="590.08333333333348" y="353.71000000000026" fill="#FFFFFF">DependencyMatrixLayout</text>
    <rect x="1056.1866666666654" y="671.52000000000044" rx="3" ry="3" width="119.6733333333334" height="25.960000000000036" fill="#008000" stroke="#A5A6A9" stroke-width="1" />
    <text x="1066.1866666666654" y="689.47000000000048" fill="#FFFFFF">DynamicProperties</text>
    <rect x="1585.1350000000014" y="503.64000000000033" rx="3" ry="3" width="98.039999999999964" height="25.960000000000036" fill="#008000" stroke="#A5A6A9" stroke-width="1" />
    <text x="1595.1350000000014" y="521.59000000000037" fill="#FFFFFF">EditingContext</text>
    <rect x="140.25999999999971" y="671.52000000000044" rx="3" ry="3" width="89.490000000000009" height="25.960000000000036" fill="#008000" stroke="#A5A6A9" stroke-width="1" />
    <text x="150.25999999999971" y="689.47000000000048" fill="#FFFFFF">EditorFactory</text>
    <rect x="1238.1216666666655" y="671.52000000000044" rx="3" ry="3" width="107.79999999999995" height="25.960000000000036" fill="#008000" stroke="#A5A6A9" stroke-width="1" />
    <text x="1248.1216666666655" y="689.47000000000048" fill="#FFFFFF">ErrorInformation</text>
    <rect x="1074.2150000000011" y="503.64000000000033" rx="3" ry="3" width="89.713333333333367" height="25.960000000000036" fill="#008000" stroke="#A5A6A9" stroke-width="1" />
    <text x="1084.2150000000011" y="521.59000000000037" fill="#FFFFFF">ErrorProvider</text>
    <rect x="267.42666666666628" y="671.52000000000044" rx="3" ry="3" width="111.81666666666666" height="25.960000000000036" fill="#008000" stroke="#A5A6A9" stroke-width="1" />
    <text x="277.42666666666628" y="689.47000000000048" fill="#FFFFFF">ErrorTaskProvider</text>
    <rect x="606.72999999999956" y="783.44000000000051" rx="3" ry="3" width="206.07333333333338" height="25.960000000000036" fill="#008000" stroke="#A5A6A9" stroke-width="1" />
    <text x="616.72999999999956" y="801.39000000000055" fill="#FFFFFF">ExecuteActionCompletedEventArgs</text>
    <rect x="554.829999999999" y="671.52000000000044" rx="3" ry="3" width="126.25333333333333" height="25.960000000000036" fill="#008000" stroke="#A5A6A9" stroke-width="1" />
    <text x="564.829999999999" y="689.47000000000048" fill="#FFFFFF">ExecuteQueryVisitor</text>
    <rect x="402.08333333333303" y="783.44000000000051" rx="3" ry="3" width="174.64666666666665" height="25.960000000000036" fill="#008000" stroke="#A5A6A9" stroke-width="1" />
    <text x="412.08333333333303" y="801.39000000000055" fill="#FFFFFF">ExponentialDoubleAnimation</text>
    <rect x="437.35833333333323" y="167.88000000000017" rx="3" ry="3" width="62.29000000000002" height="25.960000000000008" fill="#008000" stroke="#A5A6A9" stroke-width="1" />
    <text x="447.35833333333323" y="185.83000000000015" fill="#FFFFFF">FilterOp</text>
    <rect x="1055.5" y="167.88000000000017" rx="3" ry="3" width="109.38333333333344" height="25.960000000000008" fill="#008000" stroke="#A5A6A9" stroke-width="1" />
    <text x="1065.5" y="185.83000000000015" fill="#FFFFFF">GlassNodeShape</text>
    <rect x="323.88500000000022" y="895.36000000000058" rx="3" ry="3" width="155.04333333333335" height="25.960000000000036" fill="#008000" stroke="#A5A6A9" stroke-width="1" />
    <text x="333.88500000000022" y="913.31000000000063" fill="#FFFFFF">GraphCategoryDescriptor</text>
    <rect x="292.7000000000001" y="1007.2800000000007" rx="3" ry="3" width="91.78333333333336" height="25.960000000000036" fill="#008000" stroke="#A5A6A9" stroke-width="1" />
    <text x="302.7000000000001" y="1025.2300000000007" fill="#FFFFFF">GraphControl</text>
    <rect x="1475.038333333333" y="783.44000000000051" rx="3" ry="3" width="189.53999999999996" height="25.960000000000036" fill="#008000" stroke="#A5A6A9" stroke-width="1" />
    <text x="1485.038333333333" y="801.39000000000055" fill="#FFFFFF">GraphControlAutomationObject</text>
    <rect x="154.17" y="167.88000000000017" rx="3" ry="3" width="113.88666666666668" height="25.960000000000008" fill="#008000" stroke="#A5A6A9" stroke-width="1" />
    <text x="164.17" y="185.83000000000015" fill="#FFFFFF">GraphControlTask</text>
    <rect x="753.5" y="167.88000000000017" rx="3" ry="3" width="157.98000000000002" height="25.960000000000008" fill="#008000" stroke="#A5A6A9" stroke-width="1" />
    <text x="763.5" y="185.83000000000015" fill="#FFFFFF">GraphControlTaskProvider</text>
    <rect x="181.54333333333329" y="895.36000000000058" rx="3" ry="3" width="107.60333333333335" height="25.960000000000036" fill="#008000" stroke="#A5A6A9" stroke-width="1" />
    <text x="191.54333333333329" y="913.31000000000063" fill="#FFFFFF">GraphDocument</text>
    <rect x="207.92166666666651" y="503.64000000000033" rx="3" ry="3" width="176.76333333333332" height="25.960000000000036" fill="#008000" stroke="#A5A6A9" stroke-width="1" />
    <text x="217.92166666666651" y="521.59000000000037" fill="#FFFFFF">GraphDocumentWindowPane</text>
    <rect x="908.82000000000016" y="391.72000000000031" rx="3" ry="3" width="87.806666666666615" height="25.95999999999998" fill="#008000" stroke="#A5A6A9" stroke-width="1" />
    <text x="918.82000000000016" y="409.6700000000003" fill="#FFFFFF">GraphLayout</text>
    <rect x="723.28333333333353" y="1007.2800000000007" rx="3" ry="3" width="52.356666666666683" height="25.960000000000036" fill="#008000" stroke="#A5A6A9" stroke-width="1" />
    <text x="733.28333333333353" y="1025.2300000000007" fill="#FFFFFF">Graph</text>
    <rect x="235.74166666666642" y="783.44000000000051" rx="3" ry="3" width="100.3133333333333" height="25.960000000000036" fill="#008000" stroke="#A5A6A9" stroke-width="1" />
    <text x="245.74166666666642" y="801.39000000000055" fill="#FFFFFF">GraphCategory</text>
    <rect x="1097.9966666666667" y="1007.2800000000007" rx="3" ry="3" width="102.93000000000006" height="25.960000000000036" fill="#008000" stroke="#A5A6A9" stroke-width="1" />
    <text x="1107.9966666666667" y="1025.2300000000007" fill="#FFFFFF">GraphMetadata</text>
    <rect x="975.83666666666682" y="1063.2400000000007" rx="3" ry="3" width="87.25" height="25.960000000000036" fill="#008000" stroke="#A5A6A9" stroke-width="1" />
    <text x="985.83666666666682" y="1081.1900000000007" fill="#FFFFFF">GraphObject</text>
    <rect x="36.028333333333308" y="783.44000000000051" rx="3" ry="3" width="97.656666666666666" height="25.960000000000036" fill="#008000" stroke="#A5A6A9" stroke-width="1" />
    <text x="46.028333333333308" y="801.39000000000055" fill="#FFFFFF">GraphProperty</text>
    <rect x="806.4616666666667" y="1007.2800000000007" rx="3" ry="3" width="50" height="25.960000000000036" fill="#008000" stroke="#A5A6A9" stroke-width="1" />
    <text x="820.4616666666667" y="1025.2300000000007" fill="#FFFFFF">Link</text>
    <rect x="863.451666666667" y="895.36000000000058" rx="3" ry="3" width="50" height="25.960000000000036" fill="#008000" stroke="#A5A6A9" stroke-width="1" />
    <text x="874.451666666667" y="913.31000000000063" fill="#FFFFFF">Links</text>
    <rect x="1362.4616666666666" y="1007.2800000000007" rx="3" ry="3" width="50" height="25.960000000000036" fill="#008000" stroke="#A5A6A9" stroke-width="1" />
    <text x="1372.4616666666666" y="1025.2300000000007" fill="#FFFFFF">Node</text>
    <rect x="944.23000000000047" y="895.36000000000058" rx="3" ry="3" width="54.443333333333385" height="25.960000000000036" fill="#008000" stroke="#A5A6A9" stroke-width="1" />
    <text x="954.23000000000047" y="913.31000000000063" fill="#FFFFFF">Nodes</text>
    <rect x="509.21333333333348" y="895.36000000000058" rx="3" ry="3" width="152.38666666666666" height="25.960000000000036" fill="#008000" stroke="#A5A6A9" stroke-width="1" />
    <text x="519.21333333333348" y="913.31000000000063" fill="#FFFFFF">GraphPropertyDescriptor</text>
    <rect x="711.08333333333212" y="671.52000000000044" rx="3" ry="3" width="133.69333333333338" height="25.960000000000036" fill="#008000" stroke="#A5A6A9" stroke-width="1" />
    <text x="721.08333333333212" y="689.47000000000048" fill="#FFFFFF">GridLengthAnimation</text>
    <rect x="1195.5766666666666" y="167.88000000000017" rx="3" ry="3" width="115.23000000000002" height="25.960000000000008" fill="#008000" stroke="#A5A6A9" stroke-width="1" />
    <text x="1205.5766666666666" y="185.83000000000015" fill="#FFFFFF">GroupNodeShape</text>
    <rect x="1714.7716666666684" y="503.64000000000033" rx="3" ry="3" width="102.40666666666675" height="25.960000000000036" fill="#008000" stroke="#A5A6A9" stroke-width="1" />
    <text x="1724.7716666666684" y="521.59000000000037" fill="#FFFFFF">HashChangeset</text>
    <rect x="1726.4300000000017" y="559.60000000000036" rx="3" ry="3" width="79.089999999999918" height="25.960000000000036" fill="#8FBC8F" stroke="#A5A6A9" stroke-width="1" />
    <text x="1736.4300000000017" y="577.55000000000041" fill="#000000">IChangeset</text>
    <rect x="409.24333333333288" y="727.48000000000047" rx="3" ry="3" width="115.5866666666667" height="25.960000000000036" fill="#8FBC8F" stroke="#A5A6A9" stroke-width="1" />
    <text x="419.24333333333288" y="745.43000000000052" fill="#000000">ICommandService</text>
    <rect y="1063.2400000000007" rx="3" ry="3" width="95.183333333333337" height="25.960000000000036" fill="#8FBC8F" stroke="#A5A6A9" stroke-width="1" />
    <text x="10" y="1081.1900000000007" fill="#000000">IDataManager</text>
    <rect x="576.81833333333236" y="727.48000000000047" rx="3" ry="3" width="82.276666666666642" height="25.960000000000036" fill="#8FBC8F" stroke="#A5A6A9" stroke-width="1" />
    <text x="586.81833333333236" y="745.43000000000052" fill="#000000">IDgqlVisitor</text>
    <rect x="1583.5383333333348" y="559.60000000000036" rx="3" ry="3" width="101.23333333333335" height="25.960000000000036" fill="#8FBC8F" stroke="#A5A6A9" stroke-width="1" />
    <text x="1593.5383333333348" y="577.55000000000041" fill="#000000">IEditingContext</text>
    <rect x="1078.4866666666678" y="559.60000000000036" rx="3" ry="3" width="81.170000000000073" height="25.960000000000036" fill="#8FBC8F" stroke="#A5A6A9" stroke-width="1" />
    <text x="1088.4866666666678" y="577.55000000000041" fill="#000000">IGraphError</text>
    <rect x="907.22333333333358" y="447.68000000000035" rx="3" ry="3" width="91" height="25.95999999999998" fill="#8FBC8F" stroke="#A5A6A9" stroke-width="1" />
    <text x="917.22333333333358" y="465.63000000000034" fill="#000000">IGraphLayout</text>
    <rect x="288.23000000000008" y="1063.2400000000007" rx="3" ry="3" width="104.72333333333336" height="25.960000000000036" fill="#8FBC8F" stroke="#A5A6A9" stroke-width="1" />
    <text x="298.23000000000008" y="1081.1900000000007" fill="#000000">INodeNavigator</text>
    <rect x="1322.3516666666674" y="559.60000000000036" rx="3" ry="3" width="100.44333333333338" height="25.960000000000036" fill="#8FBC8F" stroke="#A5A6A9" stroke-width="1" />
    <text x="1332.3516666666674" y="577.55000000000041" fill="#000000">IPendingAction</text>
    <rect x="874.77666666666573" y="727.48000000000047" rx="3" ry="3" width="139.52999999999997" height="25.960000000000036" fill="#8FBC8F" stroke="#A5A6A9" stroke-width="1" />
    <text x="884.77666666666573" y="745.43000000000052" fill="#000000">IPendingActionIterator</text>
    <rect x="1592.0149999999996" y="727.48000000000047" rx="3" ry="3" width="127.84666666666658" height="25.960000000000036" fill="#8FBC8F" stroke="#A5A6A9" stroke-width="1" />
    <text x="1602.0149999999996" y="745.43000000000052" fill="#000000">IProgressionBrowser</text>
    <rect x="955.668333333334" y="559.60000000000036" rx="3" ry="3" width="88.546666666666624" height="25.960000000000036" fill="#8FBC8F" stroke="#A5A6A9" stroke-width="1" />
    <text x="965.668333333334" y="577.55000000000041" fill="#000000">IPropertyBag</text>
    <rect x="1452.795000000001" y="559.60000000000036" rx="3" ry="3" width="100.74333333333334" height="25.960000000000036" fill="#8FBC8F" stroke="#A5A6A9" stroke-width="1" />
    <text x="1462.795000000001" y="577.55000000000041" fill="#000000">IQueryExecutor</text>
    <rect x="1.4210854715202004E-14" y="727.48000000000047" rx="3" ry="3" width="102.58333333333334" height="25.960000000000036" fill="#8FBC8F" stroke="#A5A6A9" stroke-width="1" />
    <text x="10.000000000000014" y="745.43000000000052" fill="#000000">IQueryManager</text>
    <rect x="1420.2849999999999" y="111.92000000000006" rx="3" ry="3" width="74.883333333333439" height="25.959999999999994" fill="#8FBC8F" stroke="#A5A6A9" stroke-width="1" />
    <text x="1430.2849999999999" y="129.87000000000006" fill="#000000">ITranslator</text>
    <rect x="125.59500000000008" y="1063.2400000000007" rx="3" ry="3" width="131.99333333333334" height="25.960000000000036" fill="#8FBC8F" stroke="#A5A6A9" stroke-width="1" />
    <text x="135.59500000000008" y="1081.1900000000007" fill="#000000">IVirtualChildManager</text>
    <rect x="1381.4066666666663" y="839.40000000000055" rx="3" ry="3" width="108.80333333333328" height="25.960000000000036" fill="#8FBC8F" stroke="#A5A6A9" stroke-width="1" />
    <text x="1391.4066666666663" y="857.35000000000059" fill="#000000">IVSGraphControl</text>
    <rect x="1520.9549999999997" y="839.40000000000055" rx="3" ry="3" width="97.7066666666667" height="25.960000000000036" fill="#8FBC8F" stroke="#A5A6A9" stroke-width="1" />
    <text x="1530.9549999999997" y="857.35000000000059" fill="#000000">IVsProgression</text>
    <rect x="1218.163333333333" y="783.44000000000051" rx="3" ry="3" width="133.24333333333334" height="25.960000000000036" fill="#008000" stroke="#A5A6A9" stroke-width="1" />
    <text x="1228.163333333333" y="801.39000000000055" fill="#FFFFFF">LinkDensityComparer</text>
    <rect x="1324.2366666666667" y="223.8400000000002" rx="3" ry="3" width="73.910000000000082" height="25.95999999999998" fill="#008000" stroke="#A5A6A9" stroke-width="1" />
    <text x="1334.2366666666667" y="241.79000000000019" fill="#FFFFFF">LinkShape</text>
    <rect x="1312.5516666666667" rx="3" ry="3" width="75.176666666666733" height="25.96" fill="#008000" stroke="#A5A6A9" stroke-width="1" />
    <text x="1322.5516666666667" y="17.950000000000003" fill="#FFFFFF">MapZoom</text>
    <rect x="550.9283333333334" y="1007.2800000000007" rx="3" ry="3" width="113.32666666666671" height="25.960000000000036" fill="#008000" stroke="#A5A6A9" stroke-width="1" />
    <text x="560.9283333333334" y="1025.2300000000007" fill="#FFFFFF">NavigationButton</text>
    <rect x="1230.9733333333334" y="1007.2800000000007" rx="3" ry="3" width="100.97666666666669" height="25.960000000000036" fill="#008000" stroke="#A5A6A9" stroke-width="1" />
    <text x="1240.9733333333334" y="1025.2300000000007" fill="#FFFFFF">NavigationPath</text>
    <rect x="526.29166666666663" y="223.8400000000002" rx="3" ry="3" width="90.423333333333289" height="25.95999999999998" fill="#008000" stroke="#A5A6A9" stroke-width="1" />
    <text x="536.29166666666663" y="241.79000000000019" fill="#FFFFFF">NodeSetBase</text>
    <rect x="530.41999999999985" y="167.88000000000017" rx="3" ry="3" width="82.166666666666629" height="25.960000000000008" fill="#008000" stroke="#A5A6A9" stroke-width="1" />
    <text x="540.41999999999985" y="185.83000000000015" fill="#FFFFFF">NodeSetOp</text>
    <rect x="1212.2166666666667" y="223.8400000000002" rx="3" ry="3" width="81.950000000000045" height="25.95999999999998" fill="#008000" stroke="#A5A6A9" stroke-width="1" />
    <text x="1222.2166666666667" y="241.79000000000019" fill="#FFFFFF">NodeShape</text>
    <rect x="1323.9483333333339" y="503.64000000000033" rx="3" ry="3" width="97.25" height="25.960000000000036" fill="#008000" stroke="#A5A6A9" stroke-width="1" />
    <text x="1333.9483333333339" y="521.59000000000037" fill="#FFFFFF">PendingAction</text>
    <rect x="876.37333333333231" y="671.52000000000044" rx="3" ry="3" width="136.33666666666659" height="25.960000000000036" fill="#008000" stroke="#A5A6A9" stroke-width="1" />
    <text x="886.37333333333231" y="689.47000000000048" fill="#FFFFFF">PendingActionIterator</text>
    <rect x="1341.5016666666666" y="167.88000000000017" rx="3" ry="3" width="107.38000000000011" height="25.960000000000008" fill="#008000" stroke="#A5A6A9" stroke-width="1" />
    <text x="1351.5016666666666" y="185.83000000000015" fill="#FFFFFF">PlainNodeShape</text>
    <rect x="1524.3999999999999" rx="3" ry="3" width="124.65333333333342" height="25.96" fill="#008000" stroke="#A5A6A9" stroke-width="1" />
    <text x="1534.3999999999999" y="17.950000000000003" fill="#FFFFFF">ProgressionBrowser</text>
    <rect x="1578.9933333333329" y="671.52000000000044" rx="3" ry="3" width="153.8900000000001" height="25.960000000000036" fill="#008000" stroke="#A5A6A9" stroke-width="1" />
    <text x="1588.9933333333329" y="689.47000000000048" fill="#FFFFFF">ProgressionBrowserProxy</text>
    <rect x="1040.3216666666667" rx="3" ry="3" width="130.0766666666666" height="25.96" fill="#008000" stroke="#A5A6A9" stroke-width="1" />
    <text x="1050.3216666666667" y="17.950000000000003" fill="#FFFFFF">ProgressionErrorTask</text>
    <rect x="419.42833333333328" rx="3" ry="3" width="125.72666666666669" height="25.96" fill="#008000" stroke="#A5A6A9" stroke-width="1" />
    <text x="429.42833333333328" y="17.950000000000003" fill="#FFFFFF">ProgressionPackage</text>
    <rect x="957.26500000000067" y="503.64000000000033" rx="3" ry="3" width="85.353333333333353" height="25.960000000000036" fill="#008000" stroke="#A5A6A9" stroke-width="1" />
    <text x="967.26500000000067" y="521.59000000000037" fill="#FFFFFF">PropertyBag</text>
    <rect x="415.40666666666664" y="223.8400000000002" rx="3" ry="3" width="80.193333333333328" height="25.95999999999998" fill="#008000" stroke="#A5A6A9" stroke-width="1" />
    <text x="425.40666666666664" y="241.79000000000019" fill="#FFFFFF">ProviderOp</text>
    <rect x="1454.3916666666676" y="503.64000000000033" rx="3" ry="3" width="97.549999999999955" height="25.960000000000036" fill="#008000" stroke="#A5A6A9" stroke-width="1" />
    <text x="1464.3916666666676" y="521.59000000000037" fill="#FFFFFF">QueryExecutor</text>
    <rect x="1.5966666666666711" y="671.52000000000044" rx="3" ry="3" width="99.390000000000015" height="25.960000000000036" fill="#008000" stroke="#A5A6A9" stroke-width="1" />
    <text x="11.596666666666671" y="689.47000000000048" fill="#FFFFFF">QueryManager</text>
    <rect x="402.73166666666657" y="279.80000000000024" rx="3" ry="3" width="105.54333333333329" height="25.95999999999998" fill="#008000" stroke="#A5A6A9" stroke-width="1" />
    <text x="412.73166666666657" y="297.75000000000023" fill="#FFFFFF">QueryOperation</text>
    <rect x="308.54000000000008" y="335.76000000000028" rx="3" ry="3" width="122.13999999999999" height="25.95999999999998" fill="#008000" stroke="#A5A6A9" stroke-width="1" />
    <text x="318.54000000000008" y="353.71000000000026" fill="#FFFFFF">SelectionRectVisual</text>
    <rect x="765.60500000000025" y="335.76000000000028" rx="3" ry="3" width="92.236666666666679" height="25.95999999999998" fill="#008000" stroke="#A5A6A9" stroke-width="1" />
    <text x="775.60500000000025" y="353.71000000000026" fill="#FFFFFF">SquareLayout</text>
    <rect x="888.61000000000013" y="335.76000000000028" rx="3" ry="3" width="128.22666666666669" height="25.95999999999998" fill="#008000" stroke="#A5A6A9" stroke-width="1" />
    <text x="898.61000000000013" y="353.71000000000026" fill="#FFFFFF">StackDiagramLayout</text>
    <rect x="1047.2516666666668" y="335.76000000000028" rx="3" ry="3" width="106.94333333333338" height="25.95999999999998" fill="#008000" stroke="#A5A6A9" stroke-width="1" />
    <text x="1057.2516666666668" y="353.71000000000026" fill="#FFFFFF">SugiyamaLayout</text>
    <rect x="1550.8816666666664" y="55.960000000000036" rx="3" ry="3" width="71.690000000000055" height="25.960000000000008" fill="#008000" stroke="#A5A6A9" stroke-width="1" />
    <text x="1560.8816666666664" y="73.910000000000039" fill="#FFFFFF">Translator</text>
    <rect x="1311.9400000000005" y="895.36000000000058" rx="3" ry="3" width="166.83999999999992" height="25.960000000000036" fill="#008000" stroke="#A5A6A9" stroke-width="1" />
    <text x="1321.9400000000005" y="913.31000000000063" fill="#FFFFFF">UnreferencedNodeDetector</text>
    <rect x="1509.2083333333337" y="895.36000000000058" rx="3" ry="3" width="158.30333333333328" height="25.960000000000036" fill="#008000" stroke="#A5A6A9" stroke-width="1" />
    <text x="1519.2083333333337" y="913.31000000000063" fill="#FFFFFF">UnusedReferenceDetector</text>
    <rect x="954.41333333333273" y="783.44000000000051" rx="3" ry="3" width="91.676666666666733" height="25.960000000000036" fill="#008000" stroke="#A5A6A9" stroke-width="1" />
    <text x="964.41333333333273" y="801.39000000000055" fill="#FFFFFF">VirtualCanvas</text>
    <rect x="269.61999999999955" y="727.48000000000047" rx="3" ry="3" width="107.43" height="25.960000000000036" fill="#008000" stroke="#A5A6A9" stroke-width="1" />
    <text x="279.61999999999955" y="745.43000000000052" fill="#FFFFFF">ErrorListProvider</text>
    <rect x="1071.4983333333334" y="55.960000000000036" rx="3" ry="3" width="67.723333333333358" height="25.960000000000008" fill="#008000" stroke="#A5A6A9" stroke-width="1" />
    <text x="1081.4983333333334" y="73.910000000000039" fill="#FFFFFF">ErrorTask</text>
    <rect x="81.226666666666446" y="615.5600000000004" rx="3" ry="3" width="168.15333333333331" height="25.960000000000036" fill="#008B8B" stroke="#A5A6A9" stroke-width="1" />
    <text x="91.226666666666446" y="633.51000000000045" fill="#FFFFFF">IVsBroadcastMessageEvents</text>
    <rect x="132.58333333333303" y="727.48000000000047" rx="3" ry="3" width="104.84333333333333" height="25.960000000000036" fill="#008B8B" stroke="#A5A6A9" stroke-width="1" />
    <text x="142.58333333333303" y="745.43000000000052" fill="#FFFFFF">IVsEditorFactory</text>
    <rect x="1062.9366666666667" y="111.92000000000006" rx="3" ry="3" width="84.846666666666579" height="25.959999999999994" fill="#008B8B" stroke="#A5A6A9" stroke-width="1" />
    <text x="1072.9366666666667" y="129.87000000000006" fill="#FFFFFF">IVsErrorItem</text>
    <rect x="134.92833333333328" y="111.92000000000017" rx="3" ry="3" width="78.726666666666688" height="25.959999999999994" fill="#008B8B" stroke="#A5A6A9" stroke-width="1" />
    <text x="144.92833333333328" y="129.87000000000018" fill="#FFFFFF">IVsPackage</text>
    <rect x="244.0949999999998" y="111.92000000000017" rx="3" ry="3" width="138.39333333333332" height="25.959999999999994" fill="#008B8B" stroke="#A5A6A9" stroke-width="1" />
    <text x="254.0949999999998" y="129.87000000000018" fill="#FFFFFF">IVsPersistSolutionOpts</text>
    <rect y="279.80000000000024" rx="3" ry="3" width="140.22666666666669" height="25.95999999999998" fill="#008B8B" stroke="#A5A6A9" stroke-width="1" />
    <text x="10" y="297.75000000000023" fill="#FFFFFF">IVsProvideUserContext</text>
    <rect x="170.44833333333332" y="279.80000000000024" rx="3" ry="3" width="81.329999999999984" height="25.95999999999998" fill="#008B8B" stroke="#A5A6A9" stroke-width="1" />
    <text x="180.44833333333332" y="297.75000000000023" fill="#FFFFFF">IVsTaskItem</text>
    <rect x="646.71500000000015" y="279.80000000000024" rx="3" ry="3" width="101.54999999999995" height="25.95999999999998" fill="#008B8B" stroke="#A5A6A9" stroke-width="1" />
    <text x="656.71500000000015" y="297.75000000000023" fill="#FFFFFF">IVsTaskProvider</text>
    <rect x="778.48" y="279.80000000000024" rx="3" ry="3" width="108.01999999999998" height="25.95999999999998" fill="#008B8B" stroke="#A5A6A9" stroke-width="1" />
    <text x="788.48" y="297.75000000000023" fill="#FFFFFF">IVsTaskProvider2</text>
    <rect x="917.48" y="279.80000000000024" rx="3" ry="3" width="108.01999999999998" height="25.95999999999998" fill="#008B8B" stroke="#A5A6A9" stroke-width="1" />
    <text x="927.48" y="297.75000000000023" fill="#FFFFFF">IVsTaskProvider3</text>
    <rect x="412.64666666666665" y="111.92000000000006" rx="3" ry="3" width="139.29000000000008" height="25.959999999999994" fill="#008B8B" stroke="#A5A6A9" stroke-width="1" />
    <text x="422.64666666666665" y="129.87000000000006" fill="#FFFFFF">IVsToolWindowFactory</text>
    <rect x="582.40166666666664" y="111.92000000000006" rx="3" ry="3" width="101.77999999999997" height="25.959999999999994" fill="#008B8B" stroke="#A5A6A9" stroke-width="1" />
    <text x="592.40166666666664" y="129.87000000000006" fill="#FFFFFF">IVsUserSettings</text>
    <rect x="714.49" y="111.92000000000006" rx="3" ry="3" width="153.60333333333335" height="25.959999999999994" fill="#008B8B" stroke="#A5A6A9" stroke-width="1" />
    <text x="724.49" y="129.87000000000006" fill="#FFFFFF">IVsUserSettingsMigration</text>
    <rect x="381.905" y="559.60000000000036" rx="3" ry="3" width="150.79666666666662" height="25.960000000000036" fill="#008B8B" stroke="#A5A6A9" stroke-width="1" />
    <text x="391.905" y="577.55000000000041" fill="#FFFFFF">IVsWindowFrameNotify3</text>
    <rect x="280.04666666666657" y="615.5600000000004" rx="3" ry="3" width="104.51333333333332" height="25.960000000000036" fill="#008B8B" stroke="#A5A6A9" stroke-width="1" />
    <text x="290.04666666666657" y="633.51000000000045" fill="#FFFFFF">IVsWindowPane</text>
    <rect x="450.605" y="55.960000000000036" rx="3" ry="3" width="63.373333333333335" height="25.960000000000008" fill="#008000" stroke="#A5A6A9" stroke-width="1" />
    <text x="460.605" y="73.910000000000039" fill="#FFFFFF">Package</text>
    <rect x="1396.3033333333324" y="671.52000000000044" rx="3" ry="3" width="152.69000000000005" height="25.960000000000036" fill="#008000" stroke="#A5A6A9" stroke-width="1" />
    <text x="1406.3033333333324" y="689.47000000000048" fill="#FFFFFF">ProvideXmlViewAttribute</text>
    <rect x="1407.4233333333325" y="727.48000000000047" rx="3" ry="3" width="130.45000000000005" height="25.960000000000036" fill="#008000" stroke="#A5A6A9" stroke-width="1" />
    <text x="1417.4233333333325" y="745.43000000000052" fill="#FFFFFF">RegistrationAttribute</text>
    <rect x="186.11333333333334" y="223.8400000000002" rx="3" ry="3" width="50" height="25.95999999999998" fill="#008000" stroke="#A5A6A9" stroke-width="1" />
    <text x="199.11333333333334" y="241.79000000000019" fill="#FFFFFF">Task</text>
    <rect x="789.39166666666677" y="223.8400000000002" rx="3" ry="3" width="86.196666666666715" height="25.95999999999998" fill="#008000" stroke="#A5A6A9" stroke-width="1" />
    <text x="799.39166666666677" y="241.79000000000019" fill="#FFFFFF">TaskProvider</text>
    <rect x="697.6816666666665" y="559.60000000000036" rx="3" ry="3" width="111.24333333333334" height="25.960000000000036" fill="#008000" stroke="#A5A6A9" stroke-width="1" />
    <text x="707.6816666666665" y="577.55000000000041" fill="#FFFFFF">ToolWindowPane</text>
    <rect x="120.72333333333313" y="559.60000000000059" rx="3" ry="3" width="89.160000000000025" height="25.960000000000036" fill="#008000" stroke="#A5A6A9" stroke-width="1" />
    <text x="130.72333333333313" y="577.55000000000064" fill="#FFFFFF">WindowPane</text>
    <rect y="559.60000000000059" rx="3" ry="3" width="90.606666666666669" height="25.960000000000036" fill="#008B8B" stroke="#A5A6A9" stroke-width="1" />
    <text x="10" y="577.55000000000064" fill="#FFFFFF">IVsFindTarget</text>
    <rect y="951.32000000000062" rx="3" ry="3" width="146.69" height="25.960000000000036" fill="#008B8B" stroke="#A5A6A9" stroke-width="1" />
    <text x="10" y="969.27000000000066" fill="#FFFFFF">IVsTextBufferDataEvents</text>
    <rect x="176.80499999999995" y="951.32000000000062" rx="3" ry="3" width="117.08000000000004" height="25.960000000000036" fill="#008B8B" stroke="#A5A6A9" stroke-width="1" />
    <text x="186.80499999999995" y="969.27000000000066" fill="#FFFFFF">IVsTextLinesEvents</text>
    <rect x="1223.1933333333329" y="839.40000000000055" rx="3" ry="3" width="123.18333333333339" height="25.960000000000036" fill="#008B8B" stroke="#A5A6A9" stroke-width="1" />
    <text x="1233.1933333333329" y="857.35000000000059" fill="#FFFFFF">IComparer&lt;String&gt;</text>
    <rect x="691.60000000000036" y="951.32000000000062" rx="3" ry="3" width="123.70333333333338" height="25.960000000000036" fill="#008B8B" stroke="#A5A6A9" stroke-width="1" />
    <text x="701.60000000000036" y="969.27000000000066" fill="#FFFFFF">IEnumerable&lt;Link&gt;</text>
    <rect x="961.58000000000038" y="951.32000000000062" rx="3" ry="3" width="131.74333333333334" height="25.960000000000036" fill="#008B8B" stroke="#A5A6A9" stroke-width="1" />
    <text x="971.58000000000038" y="969.27000000000066" fill="#FFFFFF">IEnumerable&lt;Node&gt;</text>
    <rect x="845.46500000000037" y="951.32000000000062" rx="3" ry="3" width="85.973333333333358" height="25.960000000000036" fill="#008B8B" stroke="#A5A6A9" stroke-width="1" />
    <text x="855.46500000000037" y="969.27000000000066" fill="#FFFFFF">IEnumerable</text>
    <rect x="628.54666666666628" y="839.40000000000055" rx="3" ry="3" width="162.43999999999994" height="25.960000000000036" fill="#008000" stroke="#A5A6A9" stroke-width="1" />
    <text x="638.54666666666628" y="857.35000000000059" fill="#FFFFFF">AsyncCompletedEventArgs</text>
    <rect x="898.26166666666666" y="111.92000000000006" rx="3" ry="3" width="112.06000000000006" height="25.959999999999994" fill="#008B8B" stroke="#A5A6A9" stroke-width="1" />
    <text x="908.26166666666666" y="129.87000000000006" fill="#FFFFFF">IServiceContainer</text>
    <rect x="1044.3066666666655" y="727.48000000000047" rx="3" ry="3" width="143.43333333333339" height="25.960000000000036" fill="#008B8B" stroke="#A5A6A9" stroke-width="1" />
    <text x="1054.3066666666655" y="745.43000000000052" fill="#FFFFFF">ICustomTypeDescriptor</text>
    <rect x="1217.7399999999989" y="727.48000000000047" rx="3" ry="3" width="148.56333333333328" height="25.960000000000036" fill="#008B8B" stroke="#A5A6A9" stroke-width="1" />
    <text x="1227.7399999999989" y="745.43000000000052" fill="#FFFFFF">INotifyPropertyChanged</text>
    <rect x="5.6843418860808015E-14" y="447.68000000000035" rx="3" ry="3" width="109.22" height="25.95999999999998" fill="#008B8B" stroke="#A5A6A9" stroke-width="1" />
    <text x="10.000000000000057" y="465.63000000000034" fill="#FFFFFF">ISupportInitialize</text>
    <rect x="525.39166666666688" y="951.32000000000062" rx="3" ry="3" width="120.02999999999997" height="25.960000000000036" fill="#008000" stroke="#A5A6A9" stroke-width="1" />
    <text x="535.39166666666688" y="969.27000000000066" fill="#FFFFFF">PropertyDescriptor</text>
    <rect x="199.71333333333314" y="839.40000000000055" rx="3" ry="3" width="172.37" height="25.960000000000036" fill="#008B8B" stroke="#A5A6A9" stroke-width="1" />
    <text x="209.71333333333314" y="857.35000000000059" fill="#FFFFFF">IEquatable&lt;GraphCategory&gt;</text>
    <rect y="839.40000000000055" rx="3" ry="3" width="169.71333333333334" height="25.960000000000036" fill="#008B8B" stroke="#A5A6A9" stroke-width="1" />
    <text x="10" y="857.35000000000059" fill="#FFFFFF">IEquatable&lt;GraphProperty&gt;</text>
    <rect x="708.1550000000002" y="1063.2400000000007" rx="3" ry="3" width="82.613333333333344" height="25.960000000000036" fill="#008B8B" stroke="#A5A6A9" stroke-width="1" />
    <text x="718.1550000000002" y="1081.1900000000007" fill="#FFFFFF">ISerializable</text>
    <rect x="1332.5549999999998" y="279.80000000000024" rx="3" ry="3" width="57.273333333333312" height="25.95999999999998" fill="#008000" stroke="#A5A6A9" stroke-width="1" />
    <text x="1342.5549999999998" y="297.75000000000023" fill="#FFFFFF">Canvas</text>
    <rect x="842.80333333333283" y="839.40000000000055" rx="3" ry="3" width="72.896666666666647" height="25.960000000000036" fill="#008B8B" stroke="#A5A6A9" stroke-width="1" />
    <text x="852.80333333333283" y="857.35000000000059" fill="#FFFFFF">IScrollInfo</text>
    <rect x="422.98500000000007" y="1063.2400000000007" rx="3" ry="3" width="83.21333333333331" height="25.960000000000036" fill="#008000" stroke="#A5A6A9" stroke-width="1" />
    <text x="432.98500000000007" y="1081.1900000000007" fill="#FFFFFF">UserControl</text>
    <rect x="946.30666666666616" y="839.40000000000055" rx="3" ry="3" width="107.8900000000001" height="25.960000000000036" fill="#008000" stroke="#A5A6A9" stroke-width="1" />
    <text x="956.30666666666616" y="857.35000000000059" fill="#FFFFFF">VirtualizingPanel</text>
    <rect x="1526.1333333333332" y="111.92000000000006" rx="3" ry="3" width="121.18666666666672" height="25.959999999999994" fill="#008000" stroke="#A5A6A9" stroke-width="1" />
    <text x="1536.1333333333332" y="129.87000000000006" fill="#FFFFFF">DependencyObject</text>
    <rect x="857.29666666666685" y="559.60000000000036" rx="3" ry="3" width="50" height="25.960000000000036" fill="#008000" stroke="#A5A6A9" stroke-width="1" />
    <text x="871.29666666666685" y="577.55000000000041" fill="#FFFFFF">Run</text>
    <rect x="1199.4233333333341" y="559.60000000000036" rx="3" ry="3" width="87.4333333333334" height="25.960000000000036" fill="#008000" stroke="#A5A6A9" stroke-width="1" />
    <text x="1209.4233333333341" y="577.55000000000041" fill="#FFFFFF">ElementHost</text>
    <rect x="308.95166666666671" y="391.72000000000031" rx="3" ry="3" width="121.31666666666666" height="25.95999999999998" fill="#008000" stroke="#A5A6A9" stroke-width="1" />
    <text x="318.95166666666671" y="409.6700000000003" fill="#FFFFFF">FrameworkElement</text>
    <rect x="139.40833333333342" y="447.68000000000035" rx="3" ry="3" width="152.40333333333331" height="25.95999999999998" fill="#008B8B" stroke="#A5A6A9" stroke-width="1" />
    <text x="149.40833333333342" y="465.63000000000034" fill="#FFFFFF">IFrameworkInputElement</text>
    <rect x="322.70500000000004" y="447.68000000000035" rx="3" ry="3" width="93.81" height="25.95999999999998" fill="#008B8B" stroke="#A5A6A9" stroke-width="1" />
    <text x="332.70500000000004" y="465.63000000000034" fill="#FFFFFF">IInputElement</text>
    <rect x="537.02833333333342" y="1063.2400000000007" rx="3" ry="3" width="141.12666666666667" height="25.960000000000036" fill="#008B8B" stroke="#A5A6A9" stroke-width="1" />
    <text x="547.02833333333342" y="1081.1900000000007" fill="#FFFFFF">IComponentConnector</text>
    <rect x="447.13666666666666" y="447.68000000000035" rx="3" ry="3" width="102.94666666666672" height="25.95999999999998" fill="#008B8B" stroke="#A5A6A9" stroke-width="1" />
    <text x="457.13666666666666" y="465.63000000000034" fill="#FFFFFF">IHaveResources</text>
    <rect x="1309.9949999999997" y="55.960000000000036" rx="3" ry="3" width="80.289999999999964" height="25.960000000000008" fill="#008000" stroke="#A5A6A9" stroke-width="1" />
    <text x="1319.9949999999997" y="73.910000000000039" fill="#FFFFFF">Animatable</text>
    <rect x="718.24999999999875" y="727.48000000000047" rx="3" ry="3" width="119.36000000000001" height="25.960000000000036" fill="#008000" stroke="#A5A6A9" stroke-width="1" />
    <text x="728.24999999999875" y="745.43000000000052" fill="#FFFFFF">AnimationTimeline</text>
    <rect x="432.8349999999997" y="839.40000000000055" rx="3" ry="3" width="113.14333333333332" height="25.960000000000036" fill="#008000" stroke="#A5A6A9" stroke-width="1" />
    <text x="442.8349999999997" y="857.35000000000059" fill="#FFFFFF">DoubleAnimation</text>
    <rect x="1200.3983333333333" y="111.92000000000006" rx="3" ry="3" width="83.483333333333348" height="25.959999999999994" fill="#008B8B" stroke="#A5A6A9" stroke-width="1" />
    <text x="1210.3983333333333" y="129.87000000000006" fill="#FFFFFF">IAnimatable</text>
    <rect x="1314.538333333333" y="111.92000000000006" rx="3" ry="3" width="71.203333333333376" height="25.959999999999994" fill="#008B8B" stroke="#A5A6A9" stroke-width="1" />
    <text x="1324.538333333333" y="129.87000000000006" fill="#FFFFFF">IResource</text>
  </g>
</svg>