<?xml version="1.0" encoding="utf-8"?>
<svg stroke-linecap="round" font-size="12" font-family="Segoe UI" width="913.71000000000015" height="2737.96" xmlns:xlink="http://www.w3.org/1999/xlink" xmlns="http://www.w3.org/2000/svg">
  <defs />
  <rect width="833.71000000000015" height="2657.96" fill="#FFFFFF" />
  <g transform="translate(20,19.9999999999999)">
    <path d="M 247.157706569929,728 L 255.784606781187,722.122254464286 C 274.236566857533,709.550424107143 301.020177968644,662.883757440476 336.13544011452,582.122254464286 L 379.575933983204,482.213572014795" fill="none" stroke="#A0A0A0" stroke-width="1" />
    <path d="M 383.164603513349,473.96 L 375.508938695501,481.535671336374 C 378.353182573605,481.681917269588 380.798685392803,482.745226760002 382.845447153096,484.725599807615 z" fill="#A0A0A0" stroke="#A0A0A0" stroke-width="1" stroke-linejoin="round" />
    <path d="M 573.82029810455,1033.96 L 587.95,1046.66374580179 C 599.376666666667,1056.93724412251 609.402757707369,1090.24165167929 618.028273122106,1146.57696847213 L 622.341030829475,1174.74462686855 C 633.841718049125,1249.85838259234 648.800051382458,1355.00938371186 667.216030829475,1490.19763022712 L 691.857000748056,1671.0823627124" fill="none" stroke="#A0A0A0" stroke-width="1" />
    <path d="M 693.071803286277,1680 L 695.685417038297,1669.55160188568 C 693.17813219807,1670.902391966 690.535869298042,1671.26233345881 687.758628338211,1670.6314263641 z" fill="#A0A0A0" stroke="#A0A0A0" stroke-width="1" stroke-linejoin="round" />
    <path d="M 258.491666666666,1132.98 L 350.886666666666,1132.98" fill="none" stroke="#A0A0A0" stroke-width="1" />
    <path d="M 359.886666666667,1132.98 L 349.886666666667,1128.98 C 350.886666666666,1131.64666666667 350.886666666666,1134.31333333333 349.886666666667,1136.98 z" fill="#A0A0A0" stroke="#A0A0A0" stroke-width="1" stroke-linejoin="round" />
    <path d="M 577.314487929395,2520 L 605.190090186095,2499.8214155506 C 612.237283548058,2494.72009486607 620.703325214725,2442.22009486607 630.588215186095,2342.3214155506 L 692.669425425219,1714.91626170897" fill="none" stroke="#A0A0A0" stroke-width="1" />
    <path d="M 693.555639959331,1705.96 L 688.59039638411,1715.51752877258 C 691.342571838706,1714.78497066688 693.996279011733,1715.04755275106 696.551517903193,1716.30527502513 z" fill="#A0A0A0" stroke="#A0A0A0" stroke-width="1" stroke-linejoin="round" />
    <path d="M 408.576757440476,1008 L 532.09169528482,926.899762341689" fill="none" stroke="#A0A0A0" stroke-width="1" />
    <path d="M 539.61490922619,921.96 L 529.060332695028,924.104974183489 C 531.359878641606,925.785212128152 532.823511928033,928.014312555225 533.451232554307,930.792275464708 z" fill="#A0A0A0" stroke="#A0A0A0" stroke-width="1" stroke-linejoin="round" />
    <path d="M 569.909365329021,2464 L 580.320833333333,2451.16127266653 C 588.695833333333,2440.83378173315 605.627916666667,2342.83378173315 631.117083333333,2157.16127266653 L 691.834060545539,1714.87637377757" fill="none" stroke="#A0A0A0" stroke-width="1" />
    <path d="M 693.058102480564,1705.96 L 687.735223096062,1715.32306333729 C 690.513116282196,1714.69503423164 693.155004808883,1715.0577133235 695.660888676122,1716.41110061286 z" fill="#A0A0A0" stroke="#A0A0A0" stroke-width="1" stroke-linejoin="round" />
    <path d="M 421.940942310735,1290.10252028296 L 518.405506252158,1258.43307528387" fill="none" stroke="#A0A0A0" stroke-width="1" />
    <path d="M 526.956476656092,1255.62578029562 L 516.207711768055,1254.94456565859 C 517.989610698344,1257.16626485366 518.821401805973,1259.69988571408 518.703085090942,1262.54542823987 z" fill="#A0A0A0" stroke="#A0A0A0" stroke-width="1" stroke-linejoin="round" />
    <path d="M 573.006955391177,2352 L 591.732083333333,2334.15950503785 C 598.920694444444,2327.31050615737 610.20875,2271.31050615737 625.59625,2166.15950503785 L 691.637388329078,1714.86515505407" fill="none" stroke="#A0A0A0" stroke-width="1" />
    <path d="M 692.940543524327,1705.96 L 687.534746616684,1715.27543663997 C 690.318106098845,1714.67209502515 692.956670559311,1715.058215083 695.450439998083,1716.43379681353 z" fill="#A0A0A0" stroke="#A0A0A0" stroke-width="1" stroke-linejoin="round" />
    <path d="M 572.015816223974,2184 L 584.072916666667,2171.61121110545 C 593.94875,2161.46369554763 610.880833333333,2098.46369554763 634.869166666667,1982.61121110545 L 690.327544623462,1714.77305911095" fill="none" stroke="#A0A0A0" stroke-width="1" />
    <path d="M 692.152370397874,1705.96 L 686.207871043662,1714.94125422354 C 689.021906236655,1714.50271455177 691.633183010269,1715.04340367012 694.041701364504,1716.56332157857 z" fill="#A0A0A0" stroke="#A0A0A0" stroke-width="1" stroke-linejoin="round" />
    <path d="M 98.2833333333333,404.98 L 190.176666666667,404.98" fill="none" stroke="#A0A0A0" stroke-width="1" />
    <path d="M 199.176666666667,404.98 L 189.176666666667,400.98 C 190.176666666667,403.646666666667 190.176666666667,406.313333333333 189.176666666667,408.98 z" fill="#A0A0A0" stroke="#A0A0A0" stroke-width="1" stroke-linejoin="round" />
    <path d="M 575.041351776001,2296 L 596.438333333333,2278.26258184386 C 604.672777777778,2271.43648892027 615.960833333333,2220.10315558694 630.3025,2124.26258184386 L 691.56572379001,1714.86089556482" fill="none" stroke="#A0A0A0" stroke-width="1" />
    <path d="M 692.897661530362,1705.96 L 687.461777123384,1715.25791163187 C 690.247072595222,1714.66357145514 692.884374984798,1715.0582196745 695.373684292112,1716.44185628996 z" fill="#A0A0A0" stroke="#A0A0A0" stroke-width="1" stroke-linejoin="round" />
    <path d="M 254.339992125315,672 L 260.552223083824,668.926247190104 C 282.182594028595,658.22374531684 308.966205139707,620.890411983506 340.903056417157,556.926247190104 L 378.307145325014,482.01212099575" fill="none" stroke="#A0A0A0" stroke-width="1" />
    <path d="M 382.327511909021,473.96 L 374.281717484235,481.119971513497 C 377.114238510829,481.416511131453 379.500052139199,482.607730860048 381.439158369347,484.693630699281 z" fill="#A0A0A0" stroke="#A0A0A0" stroke-width="1" stroke-linejoin="round" />
    <path d="M 572.964547510413,2240 L 579.796692180932,2233.47030120672 C 593.405598079331,2220.46383534454 615.981709190442,2127.1305020112 647.525025514265,1953.47030120672 L 690.873911239413,1714.81510964736" fill="none" stroke="#A0A0A0" stroke-width="1" />
    <path d="M 692.482336908592,1705.96 L 686.759592988456,1715.08415486632 C 689.562043143508,1714.57682436303 692.185779335318,1715.05339493168 694.630801563885,1716.51386657225 z" fill="#A0A0A0" stroke="#A0A0A0" stroke-width="1" stroke-linejoin="round" />
    <path d="M 571.867169722812,809.96 L 589.298333333333,828.083956178667 C 595.946111111111,834.995946440593 607.234166666667,909.662613107259 623.1625,1052.08395617867 L 692.388004144937,1671.05576376162" fill="none" stroke="#A0A0A0" stroke-width="1" />
    <path d="M 693.388323150112,1680 L 696.252073694751,1669.61737351061 C 693.713076180252,1670.90756835345 691.062932109622,1671.2039591698 688.301641482861,1670.50654595966 z" fill="#A0A0A0" stroke="#A0A0A0" stroke-width="1" stroke-linejoin="round" />
    <path d="M 569.848973412698,1848 L 678.725275328191,1712.96627170951" fill="none" stroke="#A0A0A0" stroke-width="1" />
    <path d="M 684.374359920635,1705.96 L 674.983700724806,1711.23404208059 C 677.687309149005,1712.1293702884 679.763241507377,1713.80317313061 681.211497799922,1716.2554506072 z" fill="#A0A0A0" stroke="#A0A0A0" stroke-width="1" stroke-linejoin="round" />
    <path d="M 569.934825499056,2408 L 580.320833333333,2395.223571835 C 588.695833333333,2384.921000569 605.627916666667,2293.921000569 631.117083333333,2122.223571835 L 691.591465271392,1714.86243606977" fill="none" stroke="#A0A0A0" stroke-width="1" />
    <path d="M 692.913067338441,1705.96 L 687.487982344044,1715.26421693661 C 690.272585853648,1714.66664317095 692.910344689136,1715.05822896859 695.401258850508,1716.43897432955 z" fill="#A0A0A0" stroke="#A0A0A0" stroke-width="1" stroke-linejoin="round" />
    <path d="M 246.730841964286,560 L 362.800484185896,479.106004321754" fill="none" stroke="#A0A0A0" stroke-width="1" />
    <path d="M 370.184158035714,473.96 L 359.69296294847,476.396149757585 C 362.038113175265,478.012126714373 363.562855196526,480.199881929134 364.267189012251,482.959415401868 z" fill="#A0A0A0" stroke="#A0A0A0" stroke-width="1" stroke-linejoin="round" />
    <path d="M 413.808333333333,1748.98 L 525.383333333333,1748.98" fill="none" stroke="#A0A0A0" stroke-width="1" />
    <path d="M 534.383333333333,1748.98 L 524.383333333333,1744.98 C 525.383333333333,1747.64666666667 525.383333333333,1750.31333333333 524.383333333333,1752.98 z" fill="#A0A0A0" stroke="#A0A0A0" stroke-width="1" stroke-linejoin="round" />
    <path d="M 257.197537412133,1087.11734826488 L 351.389495225424,1119.94058990857" fill="none" stroke="#A0A0A0" stroke-width="1" />
    <path d="M 359.888262190153,1122.90217058099 L 351.761445861527,1115.83429562731 C 351.828247917633,1118.6815133212 350.950742533214,1121.19966649594 349.128929708269,1123.38875515151 z" fill="#A0A0A0" stroke="#A0A0A0" stroke-width="1" stroke-linejoin="round" />
    <path d="M 413.808333333333,1244.98 L 517.881666666666,1244.98" fill="none" stroke="#A0A0A0" stroke-width="1" />
    <path d="M 526.881666666667,1244.98 L 516.881666666667,1240.98 C 517.881666666666,1243.64666666667 517.881666666666,1246.31333333333 516.881666666667,1248.98 z" fill="#A0A0A0" stroke="#A0A0A0" stroke-width="1" stroke-linejoin="round" />
    <path d="M 121.571666666666,460.98 L 179.588333333333,460.98" fill="none" stroke="#A0A0A0" stroke-width="1" />
    <path d="M 188.588333333333,460.98 L 178.588333333333,456.98 C 179.588333333333,459.646666666667 179.588333333333,462.313333333333 178.588333333333,464.98 z" fill="#A0A0A0" stroke="#A0A0A0" stroke-width="1" stroke-linejoin="round" />
    <path d="M 570.288914026045,1425.96 L 576.112928027105,1432.89183644813 C 587.265991156286,1446.16639408022 609.842102267397,1492.83306074688 643.841261360438,1572.89183644813 L 685.809683668426,1671.71606027366" fill="none" stroke="#A0A0A0" stroke-width="1" />
    <path d="M 689.327686313434,1680 L 689.100545475133,1669.23206579517 C 687.036933998254,1671.19487469662 684.582433338597,1672.23724585069 681.73704349616,1672.3591792574 z" fill="#A0A0A0" stroke="#A0A0A0" stroke-width="1" stroke-linejoin="round" />
    <path d="M 584.363188239323,1738.65291969337 L 659.35048368636,1707.65194610993" fill="none" stroke="#A0A0A0" stroke-width="1" />
    <path d="M 667.667741846954,1704.21345564316 L 656.898125905509,1704.33744142375 C 658.841077691284,1706.41975971577 659.859889681437,1708.88413250409 659.954561875968,1711.73055978872 z" fill="#A0A0A0" stroke="#A0A0A0" stroke-width="1" stroke-linejoin="round" />
    <path d="M 257.034976100904,415.060700231178 L 343.061215773365,445.038419327585" fill="none" stroke="#A0A0A0" stroke-width="1" />
    <path d="M 351.559982738095,448 L 343.433166409469,440.932125046326 C 343.499968465575,443.779342740218 342.622463081156,446.297495914953 340.800650256211,448.48658457053 z" fill="#A0A0A0" stroke="#A0A0A0" stroke-width="1" stroke-linejoin="round" />
    <path d="M 248.704491764734,193.96 L 255.84645946516,198.46060821034 C 274.339654664155,210.114347017234 293.360487997488,250.216811660367 312.90895946516,318.768002139739 C 332.457430932831,387.319192619111 349.994444444444,428.158989882331 365.52,441.287393929399 L 366.585925004856,442.188739720057" fill="none" stroke="#A0A0A0" stroke-width="1" />
    <path d="M 373.458279329159,448 L 368.405112426575,438.488664433707 C 367.446852453737,441.170613153494 365.724997555976,443.20686628662 363.239547733293,444.597423833086 z" fill="#A0A0A0" stroke="#A0A0A0" stroke-width="1" stroke-linejoin="round" />
    <path d="M 408.576757440476,1145.96 L 532.09169528482,1227.06023765831" fill="none" stroke="#A0A0A0" stroke-width="1" />
    <path d="M 539.61490922619,1232 L 533.451232554307,1223.16772453529 C 532.823511928033,1225.94568744478 531.359878641607,1228.17478787185 529.060332695028,1229.85502581651 z" fill="#A0A0A0" stroke="#A0A0A0" stroke-width="1" stroke-linejoin="round" />
    <path d="M 261.398333333333,796.98 L 328.111666666667,796.98" fill="none" stroke="#A0A0A0" stroke-width="1" />
    <path d="M 337.111666666667,796.98 L 327.111666666667,792.98 C 328.111666666667,795.646666666667 328.111666666667,798.313333333334 327.111666666667,800.98 z" fill="#A0A0A0" stroke="#A0A0A0" stroke-width="1" stroke-linejoin="round" />
    <path d="M 97.055964225505,135.990027259581 L 183.55673424628,165.685917573539" fill="none" stroke="#A0A0A0" stroke-width="1" />
    <path d="M 192.069085237175,168.608224985125 L 183.909720763552,161.577949642965 C 183.989668677626,164.424828537851 183.123799814934,166.947006609227 181.312114175476,169.144483857094 z" fill="#A0A0A0" stroke="#A0A0A0" stroke-width="1" stroke-linejoin="round" />
    <path d="M 262.930354736034,896.844926529172 L 344.047168614815,868.578003905189" fill="none" stroke="#A0A0A0" stroke-width="1" />
    <path d="M 352.545935579545,865.616423232774 L 341.786603097661,865.129838662244 C 343.608415922605,867.318927317822 344.485921307025,869.837080492556 344.419119250918,872.684298186448 z" fill="#A0A0A0" stroke="#A0A0A0" stroke-width="1" stroke-linejoin="round" />
    <path d="M 240.522783531746,616 L 370.171091066769,480.463660410799" fill="none" stroke="#A0A0A0" stroke-width="1" />
    <path d="M 376.392216468254,473.96 L 366.589339172915,478.421344722451 C 369.207585820724,479.542012203172 371.134596312813,481.385308618427 372.370370649181,483.951233968215 z" fill="#A0A0A0" stroke="#A0A0A0" stroke-width="1" stroke-linejoin="round" />
    <path d="M 573.170478419936,753.96 L 592.474583333333,772.133978746287 C 599.828194444444,779.057085134351 611.11625,858.390418467685 626.33875,1010.13397874629 L 692.639535326982,1671.04494703557" fill="none" stroke="#A0A0A0" stroke-width="1" />
    <path d="M 693.537881810357,1680 L 696.519742590799,1669.65067604691 C 693.966209840231,1670.91185866766 691.312860813732,1671.17803540347 688.559695511303,1670.44920625435 z" fill="#A0A0A0" stroke="#A0A0A0" stroke-width="1" stroke-linejoin="round" />
    <path d="M 572.40775838452,2128 L 578.867095950408,2121.56269460834 C 591.856271028458,2108.61782434724 614.432382139569,2033.95115768057 646.595429283741,1897.56269460834 L 689.713350238653,1714.71972753656" fill="none" stroke="#A0A0A0" stroke-width="1" />
    <path d="M 691.779064034249,1705.96 L 685.590614245118,1714.77493557591 C 688.41561282583,1714.41369586313 691.011087651476,1715.02575920998 693.377038722056,1716.61112561644 z" fill="#A0A0A0" stroke="#A0A0A0" stroke-width="1" stroke-linejoin="round" />
    <path d="M 572.188434545202,921.96 L 589.948333333333,939.962472800159 C 596.740555555556,946.84746675575 608.028611111111,1012.18080008908 623.8125,1135.96247280016 L 692.046461405024,1671.07228875702" fill="none" stroke="#A0A0A0" stroke-width="1" />
    <path d="M 693.184869048135,1680 L 695.887843330449,1669.57436188863 C 693.369085292873,1670.90363577285 690.723837517174,1671.24094174118 687.952100003352,1670.58627979362 z" fill="#A0A0A0" stroke="#A0A0A0" stroke-width="1" stroke-linejoin="round" />
    <path d="M 571.587907971178,865.96 L 588.575833333333,884.027263935363 C 595.063055555556,890.926655920999 606.351111111111,960.926655920999 622.44,1094.02726393536 L 692.190971039817,1671.06503945281" fill="none" stroke="#A0A0A0" stroke-width="1" />
    <path d="M 693.271008085589,1680 L 696.042060500147,1669.5922495939 C 693.514668898659,1670.90503396455 690.867273180975,1671.22504494108 688.099873347093,1670.55228252347 z" fill="#A0A0A0" stroke="#A0A0A0" stroke-width="1" stroke-linejoin="round" />
    <path d="M 582.882087957227,1481.96 L 589.405584944076,1485.56338206192 C 609.420419351238,1496.61897010321 631.996530462349,1533.95230343654 657.133918277409,1597.56338206192 L 686.40299509395,1671.62985071679" fill="none" stroke="#A0A0A0" stroke-width="1" />
    <path d="M 689.710653023178,1680 L 689.755543894351,1669.229763939 C 687.643017209981,1671.13982731987 685.162972977919,1672.11987411371 682.315411198165,1672.16990432054 z" fill="#A0A0A0" stroke="#A0A0A0" stroke-width="1" stroke-linejoin="round" />
    <path d="M 249.364594569162,81.9600000000001 L 275.943576838446,98.1890130739797 C 286.574001321064,104.679904868197 295.220183365237,129.136168147065 301.882122970965,171.557802910582 L 311.875032379558,235.190255055859 C 325.198911591014,320.033524582894 333.58932044173,372.118146608395 337.046258931705,391.444121132363 C 340.503197421679,410.770095656331 349.994444444444,427.190902431929 365.52,440.706541459158 L 367.109904446872,442.090619118396" fill="none" stroke="#A0A0A0" stroke-width="1" />
    <path d="M 373.898071916531,448 L 368.982055119845,438.417057922814 C 367.985368281184,441.084964678447 366.23444061256,443.096273558345 363.729272113975,444.450984562511 z" fill="#A0A0A0" stroke="#A0A0A0" stroke-width="1" stroke-linejoin="round" />
    <path d="M 589.041656705138,1649.24123563861 L 659.35048368636,1678.30805389007" fill="none" stroke="#A0A0A0" stroke-width="1" />
    <path d="M 667.667741846954,1681.74654435684 L 659.954561875968,1674.22944021128 C 659.859889681437,1677.07586749591 658.841077691284,1679.54024028423 656.898125905509,1681.62255857625 z" fill="#A0A0A0" stroke="#A0A0A0" stroke-width="1" stroke-linejoin="round" />
    <path d="M 408.576757440476,896 L 532.09169528482,814.899762341689" fill="none" stroke="#A0A0A0" stroke-width="1" />
    <path d="M 539.61490922619,809.96 L 529.060332695028,812.104974183489 C 531.359878641606,813.785212128152 532.823511928033,816.014312555225 533.451232554307,818.792275464708 z" fill="#A0A0A0" stroke="#A0A0A0" stroke-width="1" stroke-linejoin="round" />
    <path d="M 116.801666666667,68.9800000000001 L 180.448333333333,68.9800000000001" fill="none" stroke="#A0A0A0" stroke-width="1" />
    <path d="M 189.448333333333,68.9800000000001 L 179.448333333333,64.9800000000001 C 180.448333333333,67.6466666666668 180.448333333333,70.3133333333334 179.448333333333,72.9800000000001 z" fill="#A0A0A0" stroke="#A0A0A0" stroke-width="1" stroke-linejoin="round" />
    <path d="M 296.243333333333,852.98 L 341.94,852.98" fill="none" stroke="#A0A0A0" stroke-width="1" />
    <path d="M 350.94,852.98 L 340.94,848.98 C 341.94,851.646666666667 341.94,854.313333333334 340.94,856.98 z" fill="#A0A0A0" stroke="#A0A0A0" stroke-width="1" stroke-linejoin="round" />
    <path d="M 587.439471065318,1257.96 L 634.56702020041,1279.76327148438 C 641.727371330608,1283.0759640067 647.371399108385,1301.74263067336 651.499103533743,1335.76327148438 L 692.181129122262,1671.06552120673" fill="none" stroke="#A0A0A0" stroke-width="1" />
    <path d="M 693.265144201758,1680 L 696.031562465994,1669.59101686103 C 693.504755610154,1670.90492638014 690.857502634369,1671.22611603332 688.089803538641,1670.55458582059 z" fill="#A0A0A0" stroke="#A0A0A0" stroke-width="1" stroke-linejoin="round" />
    <path d="M 722.286666666667,1692.98 L 743.286666666667,1692.98" fill="none" stroke="#A0A0A0" stroke-width="1" />
    <path d="M 752.286666666667,1692.98 L 742.286666666667,1688.98 C 743.286666666667,1691.64666666667 743.286666666667,1694.31333333333 742.286666666667,1696.98 z" fill="#A0A0A0" stroke="#A0A0A0" stroke-width="1" stroke-linejoin="round" />
    <path d="M 570.385238669127,2632 L 576.9875,2624.21068083581 C 588.723611111111,2610.36446805968 597.264811374071,2584.62957310382 602.611100788879,2547.00599596823 C 607.957390203688,2509.38241883264 624.665445759243,2357.63885855404 652.735267455546,2091.77531513242 L 692.52460805173,1714.91025358113" fill="none" stroke="#A0A0A0" stroke-width="1" />
    <path d="M 693.469574100575,1705.96 L 688.441721343578,1715.48474129066 C 691.198644558229,1714.77025861093 693.85057154523,1715.05024855133 696.397502304582,1716.32471111185 z" fill="#A0A0A0" stroke="#A0A0A0" stroke-width="1" stroke-linejoin="round" />
    <path d="M 569.934825499056,977.96 L 576.133333333333,985.585142532 C 587.3,999.32190422 601.077527203243,1052.9990980383 617.465914943063,1146.61672398691 C 633.854302682883,1240.23434993552 650.84708046066,1354.69930242485 668.444248276396,1490.01158145491 L 691.991306307306,1671.07515486507" fill="none" stroke="#A0A0A0" stroke-width="1" />
    <path d="M 693.151969616612,1680 L 695.828941555128,1669.56765504595 C 693.313505586554,1670.90320474518 690.669107028057,1671.24710498497 687.895745879638,1670.59935576533 z" fill="#A0A0A0" stroke="#A0A0A0" stroke-width="1" stroke-linejoin="round" />
    <path d="M 571.496806868202,2576 L 578.735,2568.24402921422 C 591.636111111111,2554.42004869037 600.586124490575,2538.06570139539 605.585040138391,2519.18098732927 C 610.583955786207,2500.29627326315 626.709511341762,2357.87493019174 653.961706805057,2091.91695811505 L 692.592555887561,1714.91312018862" fill="none" stroke="#A0A0A0" stroke-width="1" />
    <path d="M 693.509964677684,1705.96 L 688.511457049273,1715.50017408063 C 691.266167711469,1714.77720777526 693.918944063652,1715.04903260197 696.469786105821,1716.31564856074 z" fill="#A0A0A0" stroke="#A0A0A0" stroke-width="1" stroke-linejoin="round" />
    <path d="M 267.625,460.98 L 333.316666666666,460.98" fill="none" stroke="#A0A0A0" stroke-width="1" />
    <path d="M 342.316666666666,460.98 L 332.316666666666,456.98 C 333.316666666666,459.646666666667 333.316666666666,462.313333333333 332.316666666666,464.98 z" fill="#A0A0A0" stroke="#A0A0A0" stroke-width="1" stroke-linejoin="round" />
    <path d="M 420.330578721007,1199.32879520275 L 518.405506252158,1231.52692471613" fill="none" stroke="#A0A0A0" stroke-width="1" />
    <path d="M 526.956476656092,1234.33421970438 L 518.703085090942,1227.41457176013 C 518.821401805973,1230.26011428592 517.989610698344,1232.79373514634 516.207711768055,1235.01543434141 z" fill="#A0A0A0" stroke="#A0A0A0" stroke-width="1" stroke-linejoin="round" />
    <path d="M 575.081793452381,1593.96 L 672.205424547843,1674.26499310499" fill="none" stroke="#A0A0A0" stroke-width="1" />
    <path d="M 679.141539880952,1680 L 673.983637019724,1670.54505219083 C 673.055055198955,1673.23742046305 671.35579389673,1675.29256574693 668.885853113049,1676.71048804248 z" fill="#A0A0A0" stroke="#A0A0A0" stroke-width="1" stroke-linejoin="round" />
    <path d="M 265.355017261905,504 L 343.061215773365,476.921580672415" fill="none" stroke="#A0A0A0" stroke-width="1" />
    <path d="M 351.559982738095,473.96 L 340.800650256211,473.47341542947 C 342.622463081156,475.662504085048 343.499968465575,478.180657259782 343.433166409469,481.027874953674 z" fill="#A0A0A0" stroke="#A0A0A0" stroke-width="1" stroke-linejoin="round" />
    <path d="M 575.081793452381,1792 L 672.205424547843,1711.69500689501" fill="none" stroke="#A0A0A0" stroke-width="1" />
    <path d="M 679.141539880952,1705.96 L 668.885853113049,1709.24951195752 C 671.35579389673,1710.66743425307 673.055055198955,1712.72257953695 673.983637019724,1715.41494780917 z" fill="#A0A0A0" stroke="#A0A0A0" stroke-width="1" stroke-linejoin="round" />
    <path d="M 240.522783531746,305.96 L 370.171091066769,441.496339589201" fill="none" stroke="#A0A0A0" stroke-width="1" />
    <path d="M 376.392216468254,448 L 372.370370649181,438.008766031785 C 371.134596312813,440.574691381573 369.207585820725,442.417987796828 366.589339172915,443.53865527755 z" fill="#A0A0A0" stroke="#A0A0A0" stroke-width="1" stroke-linejoin="round" />
    <path d="M 425.765677268816,840.846854695078 L 515.653801668482,811.336463568704" fill="none" stroke="#A0A0A0" stroke-width="1" />
    <path d="M 524.204772072416,808.529168580456 L 513.456007184379,807.847953943427 C 515.237906114667,810.069653138492 516.069697222296,812.603273998917 515.951380507266,815.448816524702 z" fill="#A0A0A0" stroke="#A0A0A0" stroke-width="1" stroke-linejoin="round" />
    <path d="M 409.613613823134,952 L 418.172051383883,946.660561313125 C 437.747863417583,934.447602188542 466.17703008425,906.447602188542 503.459551383883,862.660561313125 L 542.496892585412,816.812544728589" fill="none" stroke="#A0A0A0" stroke-width="1" />
    <path d="M 548.331498891127,809.96 L 538.803027560959,814.980780229226 C 541.481700773769,815.948158609224 543.512084397054,817.676930847954 544.894178430816,820.167096945417 z" fill="#A0A0A0" stroke="#A0A0A0" stroke-width="1" stroke-linejoin="round" />
    <path d="M 440.505,796.98 L 514.761666666667,796.98" fill="none" stroke="#A0A0A0" stroke-width="1" />
    <path d="M 523.761666666667,796.98 L 513.761666666667,792.98 C 514.761666666667,795.646666666667 514.761666666667,798.313333333333 513.761666666667,800.98 z" fill="#A0A0A0" stroke="#A0A0A0" stroke-width="1" stroke-linejoin="round" />
    <path d="M 393.813398443827,473.96 L 446.803187199151,611.38227980253 C 485.184581530519,710.919546036424 513.480568419424,766.831672816459 531.691147865866,779.118660142637" fill="none" stroke="#A0A0A0" stroke-width="1" />
    <path d="M 539.252399164223,784 L 533.020493213765,775.215732914771 C 532.414309326216,777.998474765102 530.967986405515,780.238845520171 528.681524451664,781.936845179977 z" fill="#A0A0A0" stroke="#A0A0A0" stroke-width="1" stroke-linejoin="round" />
    <path d="M 109.358333333333,180.98 L 181.88,180.98" fill="none" stroke="#A0A0A0" stroke-width="1" />
    <path d="M 190.88,180.98 L 180.88,176.98 C 181.88,179.646666666667 181.88,182.313333333333 180.88,184.98 z" fill="#A0A0A0" stroke="#A0A0A0" stroke-width="1" stroke-linejoin="round" />
    <path d="M 577.96832628131,2072 L 601.723993505113,2055.40873405612 C 611.133029098842,2048.83734162415 622.421084654398,2016.17067495748 635.58816017178,1957.40873405612 L 689.963631949592,1714.74222433091" fill="none" stroke="#A0A0A0" stroke-width="1" />
    <path d="M 691.931507911515,1705.96 L 685.841768251195,1714.84341549572 C 688.662561678346,1714.45068715137 691.264702220839,1715.03376151046 693.648189878673,1716.59263857298 z" fill="#A0A0A0" stroke="#A0A0A0" stroke-width="1" stroke-linejoin="round" />
    <path d="M 571.008750835512,1201.96 L 629.672708333333,1267.45942556291 C 640.486458333333,1279.53318334182 648.9525,1311.03318334182 655.070833333333,1361.95942556291 L 692.207019221929,1671.06425766263" fill="none" stroke="#A0A0A0" stroke-width="1" />
    <path d="M 693.28056888545,1680 L 696.059176964816,1669.59426421913 C 693.53083290154,1670.90521326803 690.883205542318,1671.22330205722 688.116294887149,1670.5485305867 z" fill="#A0A0A0" stroke="#A0A0A0" stroke-width="1" stroke-linejoin="round" />
    <path d="M 575.164974358719,1904 L 582.197510070367,1898.21591750881 C 597.40696122839,1885.70652918135 619.983072339501,1848.37319584801 649.925843403701,1786.21591750881 L 684.681248421835,1714.06824023231" fill="none" stroke="#A0A0A0" stroke-width="1" />
    <path d="M 688.587197773166,1705.96 L 680.643591723994,1713.2331783242 C 683.480027646678,1713.48958106915 685.882469196992,1714.64689939547 687.850916374935,1716.70513330316 z" fill="#A0A0A0" stroke="#A0A0A0" stroke-width="1" stroke-linejoin="round" />
    <path d="M 246.730841964286,952 L 362.800484185896,871.106004321754" fill="none" stroke="#A0A0A0" stroke-width="1" />
    <path d="M 370.184158035714,865.96 L 359.69296294847,868.396149757585 C 362.038113175265,870.012126714373 363.562855196526,872.199881929134 364.267189012251,874.959415401868 z" fill="#A0A0A0" stroke="#A0A0A0" stroke-width="1" stroke-linejoin="round" />
    <path d="M 243.441953758574,25.9600000000001 L 263.475416666667,42.9166012679524 C 271.335138888889,49.5691793274974 280.845555555555,83.5259272311103 292.006666666667,144.786844978791 L 325.49,328.569598221834 C 336.651111111111,389.830515969515 346.113055555556,423.837560273076 353.875833333333,430.590731132517 L 367.097627393281,442.092932652541" fill="none" stroke="#A0A0A0" stroke-width="1" />
    <path d="M 373.887808197397,448 L 368.968526125028,438.418733700994 C 367.972748481793,441.08697994082 366.222506304769,443.098885364262 363.717799593953,444.45444997132 z" fill="#A0A0A0" stroke="#A0A0A0" stroke-width="1" stroke-linejoin="round" />
    <path d="M 407.029516315967,417.96 L 429.612743505113,434.047335778061 C 438.680390209953,440.506743728742 448.937612432175,469.828468249225 460.38441017178,522.012509339511 L 486.13970508589,639.426601792654 C 503.309901695297,717.702663428083 517.831041666667,761.858107465073 529.703125,771.892933903624 L 537.153296405597,778.19015865294" fill="none" stroke="#A0A0A0" stroke-width="1" />
    <path d="M 544.026850327841,784 L 538.971719901818,774.489707871159 C 538.014013642198,777.171854368164 536.292579168995,779.208462937717 533.80741648221,780.59953357982 z" fill="#A0A0A0" stroke="#A0A0A0" stroke-width="1" stroke-linejoin="round" />
    <path d="M 404.017450902957,361.96 L 417.91875,373.823861361687 C 429.562916666667,383.761405906361 444.94875,434.720430888825 464.07625,526.700936309079 L 483.20375,618.681441729332 C 502.33125,710.661947149585 517.831041666667,761.693174877248 529.703125,771.77512491232 L 537.238516470928,778.174291610494" fill="none" stroke="#A0A0A0" stroke-width="1" />
    <path d="M 544.098627385515,784 L 539.065485653533,774.478052494065 C 538.101584380485,777.157978882407 536.375448561372,779.190604338581 533.887078196194,780.575928862587 z" fill="#A0A0A0" stroke="#A0A0A0" stroke-width="1" stroke-linejoin="round" />
    <path d="M 570.408494142479,1369.96 L 576.178387718336,1376.75293662116 C 587.375090641671,1389.9348943686 609.951201752782,1445.9348943686 643.906721051669,1544.75293662116 L 687.455154167668,1671.4884715959" fill="none" stroke="#A0A0A0" stroke-width="1" />
    <path d="M 690.379856584356,1680 L 690.913088745414,1669.24287847692 C 688.716121338646,1671.05518234898 686.19418699669,1671.92176084282 683.347285719547,1671.84261395842 z" fill="#A0A0A0" stroke="#A0A0A0" stroke-width="1" stroke-linejoin="round" />
    <path d="M 573.837753340818,1313.96 L 580.591908120688,1320.02519867261 C 594.730957978925,1332.72199778768 617.307069090036,1398.05533112101 648.320241454022,1516.02519867261 L 689.139415746737,1671.29575688448" fill="none" stroke="#A0A0A0" stroke-width="1" />
    <path d="M 691.427679670756,1680 L 692.75371669541,1669.31161257208 C 690.428933245332,1670.95675482166 687.849898248142,1671.6347589473 685.016611703839,1671.34562494899 z" fill="#A0A0A0" stroke="#A0A0A0" stroke-width="1" stroke-linejoin="round" />
    <path d="M 570.408494142479,2016 L 576.178387718336,2009.20706337884 C 587.375090641671,1996.0251056314 609.951201752782,1940.0251056314 643.906721051669,1841.20706337884 L 687.455154167668,1714.4715284041" fill="none" stroke="#A0A0A0" stroke-width="1" />
    <path d="M 690.379856584356,1705.96 L 683.347285719547,1714.11738604158 C 686.19418699669,1714.03823915718 688.716121338646,1714.90481765102 690.913088745414,1716.71712152308 z" fill="#A0A0A0" stroke="#A0A0A0" stroke-width="1" stroke-linejoin="round" />
    <path d="M 451.373333333333,2028.98 L 501.843333333333,2028.98" fill="none" stroke="#A0A0A0" stroke-width="1" />
    <path d="M 510.843333333333,2028.98 L 500.843333333333,2024.98 C 501.843333333333,2027.64666666667 501.843333333333,2030.31333333333 500.843333333333,2032.98 z" fill="#A0A0A0" stroke="#A0A0A0" stroke-width="1" stroke-linejoin="round" />
    <path d="M 248.795863317734,249.96 L 255.838633994409,254.378497485669 C 274.326612212904,265.977495809448 292.639942416705,297.298659228572 310.778624605813,348.341987743041 C 328.840662121952,399.169633597634 346.308691390746,430.652310802868 363.182712412193,442.790019358741" fill="none" stroke="#A0A0A0" stroke-width="1" />
    <path d="M 370.521384071131,448 L 364.682851401759,438.949500772406 C 363.954561396083,441.702808742602 362.410863428303,443.87722997488 360.051757498418,445.47276446924 z" fill="#A0A0A0" stroke="#A0A0A0" stroke-width="1" stroke-linejoin="round" />
    <path d="M 569.848973412698,1537.96 L 678.725275328191,1672.99372829049" fill="none" stroke="#A0A0A0" stroke-width="1" />
    <path d="M 684.374359920635,1680 L 681.211497799922,1669.7045493928 C 679.763241507377,1672.15682686939 677.687309149005,1673.8306297116 674.983700724806,1674.72595791941 z" fill="#A0A0A0" stroke="#A0A0A0" stroke-width="1" stroke-linejoin="round" />
    <path d="M 572.348685560408,1960 L 578.710777994433,1953.63071991047 C 591.595741101833,1940.73119985078 614.171852212944,1894.06453318412 646.439111327767,1813.63071991047 L 686.281967835975,1714.31292941373" fill="none" stroke="#A0A0A0" stroke-width="1" />
    <path d="M 689.632873714871,1705.96 L 682.197231887772,1713.75174118019 C 685.044496811718,1713.81649891315 687.519438860231,1714.80935991431 689.622058033311,1716.73032418366 z" fill="#A0A0A0" stroke="#A0A0A0" stroke-width="1" stroke-linejoin="round" />
    <path d="M 573.028902367467,1089.96 L 580.911666666667,1097.45827877076 C 595.263888888889,1111.11046461794 609.844670515305,1145.98447187168 624.654011545916,1202.08030053199 C 639.463352576527,1258.1761291923 654.863352576527,1354.01670293538 670.854011545916,1489.60202176123 L 692.255029008177,1671.06194666944" fill="none" stroke="#A0A0A0" stroke-width="1" />
    <path d="M 693.30916498615,1680 L 696.110370935318,1669.60032475361 C 693.579185057149,1670.90577837641 690.930872959205,1671.21811496247 688.165434641487,1670.53733451181 z" fill="#A0A0A0" stroke="#A0A0A0" stroke-width="1" stroke-linejoin="round" />
    <path d="M 570.142820429448,1145.96 L 576.29,1153.37581732596 C 587.561111111111,1166.97302887659 601.979444444445,1192.49595247726 619.545,1229.94458812795 L 626.132083333333,1243.98782649697 C 639.30625,1272.07430323499 652.011666666667,1336.9753489035 664.248333333333,1438.6909635025 L 692.203496844187,1671.06442885707" fill="none" stroke="#A0A0A0" stroke-width="1" />
    <path d="M 693.278470494825,1680 L 696.055420279865,1669.59382155201 C 693.527285161659,1670.90517350142 690.879708526715,1671.22368421272 688.112690375035,1670.54935368591 z" fill="#A0A0A0" stroke="#A0A0A0" stroke-width="1" stroke-linejoin="round" />
    <path d="M 246.730841964286,361.96 L 362.800484185896,442.853995678246" fill="none" stroke="#A0A0A0" stroke-width="1" />
    <path d="M 370.184158035714,448 L 364.267189012251,439.000584598132 C 363.562855196526,441.760118070866 362.038113175265,443.947873285627 359.69296294847,445.563850242415 z" fill="#A0A0A0" stroke="#A0A0A0" stroke-width="1" stroke-linejoin="round" />
    <path d="M 615.268333333333,1692.98 L 658.393333333333,1692.98" fill="none" stroke="#A0A0A0" stroke-width="1" />
    <path d="M 667.393333333333,1692.98 L 657.393333333333,1688.98 C 658.393333333333,1691.64666666667 658.393333333333,1694.31333333333 657.393333333333,1696.98 z" fill="#A0A0A0" stroke="#A0A0A0" stroke-width="1" stroke-linejoin="round" />
    <path d="M 129.97,740.98 L 169.676666666667,740.98" fill="none" stroke="#A0A0A0" stroke-width="1" />
    <path d="M 178.676666666667,740.98 L 168.676666666667,736.98 C 169.676666666667,739.646666666667 169.676666666667,742.313333333334 168.676666666667,744.98 z" fill="#A0A0A0" stroke="#A0A0A0" stroke-width="1" stroke-linejoin="round" />
    <path d="M 247.309391462218,137.96 L 254.483159752381,142.809078107284 C 272.067488476191,154.695130178807 291.088321809524,204.043440002587 311.545659752381,290.854007578626 L 319.217161480952,323.407970419641 C 334.560164938095,388.51589610167 348.05375,426.058626574849 359.697916666667,436.036161839178 L 366.825943781094,442.143953314104" fill="none" stroke="#A0A0A0" stroke-width="1" />
    <path d="M 373.660175062855,448 L 368.669272165741,438.455845334888 C 367.693506253078,441.131474605695 365.958381309109,443.156432022513 363.463897333833,444.530717585343 z" fill="#A0A0A0" stroke="#A0A0A0" stroke-width="1" stroke-linejoin="round" />
    <rect x="178.67666666666673" y="728.00000000000011" rx="3" ry="3" width="98.860000000000014" height="25.960000000000036" fill="#FFFFFF" stroke="#A5A6A9" stroke-width="1" />
    <text x="188.67666666666673" y="745.95000000000016" fill="#000000">ArgumentError</text>
    <rect x="534.38333333333333" y="1008" rx="3" ry="3" width="50" height="25.960000000000036" fill="#FFFFFF" stroke="#A5A6A9" stroke-width="1" />
    <text x="544.38333333333333" y="1025.95" fill="#000000">Array</text>
    <rect x="752.28666666666675" y="1680" rx="3" ry="3" width="81.4233333333334" height="25.960000000000036" fill="#FFFFFF" stroke="#A5A6A9" stroke-width="1" />
    <text x="762.28666666666675" y="1697.95" fill="#000000">BasicObject</text>
    <rect x="197.72166666666635" y="1120" rx="3" ry="3" width="60.769999999999982" height="25.960000000000036" fill="#FFFFFF" stroke="#A5A6A9" stroke-width="1" />
    <text x="207.72166666666635" y="1137.95" fill="#000000">Bignum</text>
    <rect x="529.18" y="2520" rx="3" ry="3" width="60.406666666666752" height="25.960000000000036" fill="#FFFFFF" stroke="#A5A6A9" stroke-width="1" />
    <text x="539.18" y="2537.95" fill="#000000">Binding</text>
    <rect x="363.80833333333328" y="1008" rx="3" ry="3" width="50" height="25.960000000000036" fill="#FFFFFF" stroke="#A5A6A9" stroke-width="1" />
    <text x="374.80833333333328" y="1025.95" fill="#000000">Class</text>
    <rect x="510.91999999999996" y="2464" rx="3" ry="3" width="96.926666666666733" height="25.960000000000036" fill="#FFFFFF" stroke="#A5A6A9" stroke-width="1" />
    <text x="520.92" y="2481.95" fill="#000000">ClassHierarchy</text>
    <rect x="355.5383333333333" y="1288" rx="3" ry="3" width="66.539999999999964" height="25.960000000000036" fill="#FFFFFF" stroke="#A5A6A9" stroke-width="1" />
    <text x="365.5383333333333" y="1305.95" fill="#000000">Complex</text>
    <rect x="534.38333333333333" y="2352" rx="3" ry="3" width="50" height="25.960000000000036" fill="#FFFFFF" stroke="#A5A6A9" stroke-width="1" />
    <text x="546.38333333333333" y="2369.95" fill="#000000">Data</text>
    <rect x="534.38333333333321" y="2184" rx="3" ry="3" width="50" height="25.960000000000036" fill="#FFFFFF" stroke="#A5A6A9" stroke-width="1" />
    <text x="551.38333333333321" y="2201.95" fill="#000000">Dir</text>
    <rect x="31.6866666666667" y="392" rx="3" ry="3" width="66.5966666666667" height="25.96" fill="#FFFFFF" stroke="#A5A6A9" stroke-width="1" />
    <text x="41.686666666666696" y="409.95" fill="#000000">EOFError</text>
    <rect x="524.75166666666655" y="2296" rx="3" ry="3" width="69.263333333333321" height="25.960000000000036" fill="#FFFFFF" stroke="#A5A6A9" stroke-width="1" />
    <text x="534.75166666666655" y="2313.95" fill="#000000">Encoding</text>
    <rect x="180.66499999999996" y="672.00000000000011" rx="3" ry="3" width="94.883333333333326" height="25.960000000000036" fill="#FFFFFF" stroke="#A5A6A9" stroke-width="1" />
    <text x="190.66499999999996" y="689.95000000000016" fill="#000000">EncodingError</text>
    <rect x="518.47666666666657" y="2240" rx="3" ry="3" width="81.813333333333276" height="25.960000000000036" fill="#FFFFFF" stroke="#A5A6A9" stroke-width="1" />
    <text x="528.47666666666657" y="2257.95" fill="#000000">Enumerator</text>
    <rect x="523.76166666666654" y="784" rx="3" ry="3" width="71.243333333333339" height="25.960000000000036" fill="#FFFFFF" stroke="#A5A6A9" stroke-width="1" />
    <text x="533.76166666666654" y="801.95" fill="#000000">Exception</text>
    <rect x="523.15166666666664" y="1848" rx="3" ry="3" width="72.463333333333139" height="25.960000000000036" fill="#FFFFFF" stroke="#A5A6A9" stroke-width="1" />
    <text x="533.15166666666664" y="1865.95" fill="#000000">FalseClass</text>
    <rect x="534.38333333333321" y="2408" rx="3" ry="3" width="50" height="25.960000000000036" fill="#FFFFFF" stroke="#A5A6A9" stroke-width="1" />
    <text x="545.38333333333321" y="2425.95" fill="#000000">Fiber</text>
    <rect x="192.16166666666663" y="560.00000000000011" rx="3" ry="3" width="71.889999999999986" height="25.960000000000036" fill="#FFFFFF" stroke="#A5A6A9" stroke-width="1" />
    <text x="202.16166666666663" y="577.95000000000016" fill="#000000">FiberError</text>
    <rect x="363.80833333333317" y="1736" rx="3" ry="3" width="50" height="25.960000000000036" fill="#FFFFFF" stroke="#A5A6A9" stroke-width="1" />
    <text x="379.80833333333317" y="1753.95" fill="#000000">File</text>
    <rect x="199.01166666666654" y="1064" rx="3" ry="3" width="58.190000000000111" height="25.960000000000036" fill="#FFFFFF" stroke="#A5A6A9" stroke-width="1" />
    <text x="209.01166666666654" y="1081.95" fill="#000000">Fixnum</text>
    <rect x="363.80833333333317" y="1232" rx="3" ry="3" width="50" height="25.960000000000036" fill="#FFFFFF" stroke="#A5A6A9" stroke-width="1" />
    <text x="375.80833333333317" y="1249.95" fill="#000000">Float</text>
    <rect x="8.39833333333354" y="448" rx="3" ry="3" width="113.173333333333" height="25.96" fill="#FFFFFF" stroke="#A5A6A9" stroke-width="1" />
    <text x="18.398333333333539" y="465.95" fill="#000000">FloatDomainError</text>
    <rect x="534.38333333333333" y="1400" rx="3" ry="3" width="50" height="25.960000000000036" fill="#FFFFFF" stroke="#A5A6A9" stroke-width="1" />
    <text x="545.38333333333333" y="1417.95" fill="#000000">Hash</text>
    <rect x="534.38333333333321" y="1736" rx="3" ry="3" width="50" height="25.960000000000036" fill="#FFFFFF" stroke="#A5A6A9" stroke-width="1" />
    <text x="552.38333333333321" y="1753.95" fill="#000000">IO</text>
    <rect x="199.176666666667" y="392" rx="3" ry="3" width="57.86" height="25.96" fill="#FFFFFF" stroke="#A5A6A9" stroke-width="1" />
    <text x="209.176666666667" y="409.95" fill="#000000">IOError</text>
    <rect x="190.87999999999988" y="168.00000000000006" rx="3" ry="3" width="74.453333333333376" height="25.960000000000036" fill="#FFFFFF" stroke="#A5A6A9" stroke-width="1" />
    <text x="200.87999999999988" y="185.95000000000005" fill="#000000">IndexError</text>
    <rect x="359.88666666666654" y="1120" rx="3" ry="3" width="57.843333333333248" height="25.960000000000036" fill="#FFFFFF" stroke="#A5A6A9" stroke-width="1" />
    <text x="369.88666666666654" y="1137.95" fill="#000000">Integer</text>
    <rect x="194.81500000000005" y="784.00000000000011" rx="3" ry="3" width="66.583333333333428" height="25.960000000000036" fill="#FFFFFF" stroke="#A5A6A9" stroke-width="1" />
    <text x="204.81500000000005" y="801.95000000000016" fill="#000000">Interrupt</text>
    <rect x="32.731666666666804" y="112.00000000000011" rx="3" ry="3" width="64.506666666666717" height="25.960000000000036" fill="#FFFFFF" stroke="#A5A6A9" stroke-width="1" />
    <text x="42.731666666666804" y="129.9500000000001" fill="#000000">KeyError</text>
    <rect x="192.36999999999989" y="896.00000000000011" rx="3" ry="3" width="71.473333333333414" height="25.960000000000036" fill="#FFFFFF" stroke="#A5A6A9" stroke-width="1" />
    <text x="202.36999999999989" y="913.95000000000016" fill="#000000">LoadError</text>
    <rect x="177.44666666666672" y="616.00000000000011" rx="3" ry="3" width="101.32" height="25.960000000000036" fill="#FFFFFF" stroke="#A5A6A9" stroke-width="1" />
    <text x="187.44666666666672" y="633.95000000000016" fill="#000000">LocalJumpError</text>
    <rect x="520.39499999999987" y="728" rx="3" ry="3" width="77.976666666666688" height="25.960000000000036" fill="#FFFFFF" stroke="#A5A6A9" stroke-width="1" />
    <text x="530.39499999999987" y="745.95" fill="#000000">MatchData</text>
    <rect x="528.38" y="2128" rx="3" ry="3" width="62.006666666666661" height="25.960000000000036" fill="#FFFFFF" stroke="#A5A6A9" stroke-width="1" />
    <text x="538.38" y="2145.95" fill="#000000">Method</text>
    <rect x="528.95999999999981" y="896" rx="3" ry="3" width="60.846666666666806" height="25.960000000000036" fill="#FFFFFF" stroke="#A5A6A9" stroke-width="1" />
    <text x="538.95999999999981" y="913.95" fill="#000000">Module</text>
    <rect x="527.99666666666656" y="840" rx="3" ry="3" width="62.773333333333312" height="25.960000000000036" fill="#FFFFFF" stroke="#A5A6A9" stroke-width="1" />
    <text x="537.99666666666656" y="857.95" fill="#000000">Monitor</text>
    <rect x="532.67500000000007" y="1456" rx="3" ry="3" width="53.416666666666515" height="25.960000000000036" fill="#FFFFFF" stroke="#A5A6A9" stroke-width="1" />
    <text x="542.67500000000007" y="1473.95" fill="#000000">Mutex</text>
    <rect x="189.44833333333327" y="56.000000000000057" rx="3" ry="3" width="77.3166666666666" height="25.960000000000036" fill="#FFFFFF" stroke="#A5A6A9" stroke-width="1" />
    <text x="199.44833333333327" y="73.95000000000006" fill="#000000">NameError</text>
    <rect x="528.67333333333329" y="1624" rx="3" ry="3" width="61.420000000000073" height="25.960000000000036" fill="#FFFFFF" stroke="#A5A6A9" stroke-width="1" />
    <text x="538.67333333333329" y="1641.95" fill="#000000">NilClass</text>
    <rect x="335.79499999999962" y="896" rx="3" ry="3" width="106.02666666666698" height="25.960000000000036" fill="#FFFFFF" stroke="#A5A6A9" stroke-width="1" />
    <text x="345.79499999999962" y="913.95" fill="#000000">NoMemoryError</text>
    <rect x="13.168333333333521" y="56.000000000000057" rx="3" ry="3" width="103.63333333333301" height="25.960000000000036" fill="#FFFFFF" stroke="#A5A6A9" stroke-width="1" />
    <text x="23.168333333333521" y="73.95000000000006" fill="#000000">NoMethodError</text>
    <rect x="159.97000000000025" y="840.00000000000011" rx="3" ry="3" width="136.27333333333297" height="25.960000000000036" fill="#FFFFFF" stroke="#A5A6A9" stroke-width="1" />
    <text x="169.97000000000025" y="857.95000000000016" fill="#000000">NotImplementedError</text>
    <rect x="526.88166666666655" y="1232" rx="3" ry="3" width="65.00333333333333" height="25.960000000000036" fill="#FFFFFF" stroke="#A5A6A9" stroke-width="1" />
    <text x="536.88166666666655" y="1249.95" fill="#000000">Numeric</text>
    <rect x="667.39333333333332" y="1680" rx="3" ry="3" width="54.89333333333343" height="25.960000000000036" fill="#FFFFFF" stroke="#A5A6A9" stroke-width="1" />
    <text x="677.39333333333332" y="1697.95" fill="#000000">Object</text>
    <rect x="534.38333333333321" y="2632" rx="3" ry="3" width="50" height="25.960000000000036" fill="#FFFFFF" stroke="#A5A6A9" stroke-width="1" />
    <text x="547.38333333333321" y="2649.95" fill="#000000">Proc</text>
    <rect x="527.13" y="952" rx="3" ry="3" width="64.506666666666661" height="25.960000000000036" fill="#FFFFFF" stroke="#A5A6A9" stroke-width="1" />
    <text x="537.13" y="969.95" fill="#000000">Random</text>
    <rect x="532.67500000000007" y="2576" rx="3" ry="3" width="53.416666666666742" height="25.960000000000036" fill="#FFFFFF" stroke="#A5A6A9" stroke-width="1" />
    <text x="542.67500000000007" y="2593.95" fill="#000000">Range</text>
    <rect x="188.588333333334" y="448" rx="3" ry="3" width="79.0366666666666" height="25.96" fill="#FFFFFF" stroke="#A5A6A9" stroke-width="1" />
    <text x="198.588333333334" y="465.95" fill="#000000">RangeError</text>
    <rect x="357.26333333333332" y="1176" rx="3" ry="3" width="63.090000000000032" height="25.960000000000036" fill="#FFFFFF" stroke="#A5A6A9" stroke-width="1" />
    <text x="367.26333333333332" y="1193.95" fill="#000000">Rational</text>
    <rect x="529.88000000000011" y="1568" rx="3" ry="3" width="59.006666666666661" height="25.960000000000036" fill="#FFFFFF" stroke="#A5A6A9" stroke-width="1" />
    <text x="539.88000000000011" y="1585.95" fill="#000000">Regexp</text>
    <rect x="185.79333333333307" y="504.00000000000011" rx="3" ry="3" width="84.626666666666665" height="25.960000000000036" fill="#FFFFFF" stroke="#A5A6A9" stroke-width="1" />
    <text x="195.79333333333307" y="521.95000000000016" fill="#000000">RegexpError</text>
    <rect x="526.85500000000013" y="1792" rx="3" ry="3" width="65.056666666666615" height="25.960000000000036" fill="#FFFFFF" stroke="#A5A6A9" stroke-width="1" />
    <text x="536.85500000000013" y="1809.95" fill="#000000">RubyVM</text>
    <rect x="183.125" y="280" rx="3" ry="3" width="89.963333333333367" height="25.960000000000036" fill="#FFFFFF" stroke="#A5A6A9" stroke-width="1" />
    <text x="193.125" y="297.95" fill="#000000">RuntimeError</text>
    <rect x="350.93999999999983" y="840" rx="3" ry="3" width="75.736666666666679" height="25.960000000000036" fill="#FFFFFF" stroke="#A5A6A9" stroke-width="1" />
    <text x="360.93999999999983" y="857.95" fill="#000000">ScriptError</text>
    <rect x="345.03000000000009" y="952" rx="3" ry="3" width="87.556666666666729" height="25.960000000000036" fill="#FFFFFF" stroke="#A5A6A9" stroke-width="1" />
    <text x="355.03000000000009" y="969.95" fill="#000000">SecurityError</text>
    <rect x="337.11166666666668" y="784" rx="3" ry="3" width="103.39333333333298" height="25.960000000000036" fill="#FFFFFF" stroke="#A5A6A9" stroke-width="1" />
    <text x="347.11166666666668" y="801.95" fill="#000000">SignalException</text>
    <rect x="342.31666666666638" y="448.00000000000006" rx="3" ry="3" width="92.983333333333348" height="25.960000000000036" fill="#FFFFFF" stroke="#A5A6A9" stroke-width="1" />
    <text x="352.31666666666638" y="465.95000000000005" fill="#000000">StandardError</text>
    <rect x="20.611666666666679" y="168.00000000000011" rx="3" ry="3" width="88.7466666666667" height="25.960000000000036" fill="#FFFFFF" stroke="#A5A6A9" stroke-width="1" />
    <text x="30.611666666666679" y="185.9500000000001" fill="#000000">StopIteration</text>
    <rect x="533.88833333333321" y="2072" rx="3" ry="3" width="50.990000000000009" height="25.960000000000036" fill="#FFFFFF" stroke="#A5A6A9" stroke-width="1" />
    <text x="543.88833333333321" y="2089.95" fill="#000000">String</text>
    <rect x="534.07000000000016" y="1176" rx="3" ry="3" width="50.626666666666551" height="25.960000000000036" fill="#FFFFFF" stroke="#A5A6A9" stroke-width="1" />
    <text x="544.07000000000016" y="1193.95" fill="#000000">Struct</text>
    <rect x="529.805" y="1904" rx="3" ry="3" width="59.156666666666752" height="25.960000000000036" fill="#FFFFFF" stroke="#A5A6A9" stroke-width="1" />
    <text x="539.805" y="1921.95" fill="#000000">Symbol</text>
    <rect x="188.14666666666653" y="952.00000000000011" rx="3" ry="3" width="79.920000000000016" height="25.960000000000036" fill="#FFFFFF" stroke="#A5A6A9" stroke-width="1" />
    <text x="198.14666666666653" y="969.95000000000016" fill="#000000">SyntaxError</text>
    <rect x="176.82000000000016" y="1.1368683772161603E-13" rx="3" ry="3" width="102.57333333333298" height="25.960000000000036" fill="#FFFFFF" stroke="#A5A6A9" stroke-width="1" />
    <text x="186.82000000000016" y="17.950000000000117" fill="#000000">SystemCallError</text>
    <rect x="350.73166666666657" y="392.00000000000006" rx="3" ry="3" width="76.153333333333308" height="25.960000000000036" fill="#FFFFFF" stroke="#A5A6A9" stroke-width="1" />
    <text x="360.73166666666657" y="409.95000000000005" fill="#000000">SystemExit</text>
    <rect x="333.363333333333" y="336.00000000000006" rx="3" ry="3" width="110.88999999999999" height="25.960000000000036" fill="#FFFFFF" stroke="#A5A6A9" stroke-width="1" />
    <text x="343.363333333333" y="353.95000000000005" fill="#000000">SystemStackError</text>
    <rect x="531.03333333333353" y="1344" rx="3" ry="3" width="56.699999999999818" height="25.960000000000036" fill="#FFFFFF" stroke="#A5A6A9" stroke-width="1" />
    <text x="541.03333333333353" y="1361.95" fill="#000000">Thread</text>
    <rect x="481.37333333333322" y="1288" rx="3" ry="3" width="156.01999999999998" height="25.960000000000036" fill="#FFFFFF" stroke="#A5A6A9" stroke-width="1" />
    <text x="491.37333333333322" y="1305.95" fill="#000000">Thread::ConditionVariable</text>
    <rect x="510.84333333333325" y="2016" rx="3" ry="3" width="97.079999999999927" height="25.960000000000036" fill="#FFFFFF" stroke="#A5A6A9" stroke-width="1" />
    <text x="520.84333333333325" y="2033.95" fill="#000000">Thread::Queue</text>
    <rect x="326.24333333333311" y="2016" rx="3" ry="3" width="125.13" height="25.960000000000036" fill="#FFFFFF" stroke="#A5A6A9" stroke-width="1" />
    <text x="336.24333333333311" y="2033.95" fill="#000000">Thread::SizedQueue</text>
    <rect x="186.94666666666649" y="224.00000000000006" rx="3" ry="3" width="82.3200000000001" height="25.960000000000036" fill="#FFFFFF" stroke="#A5A6A9" stroke-width="1" />
    <text x="196.94666666666649" y="241.95000000000005" fill="#000000">ThreadError</text>
    <rect x="514.3933333333332" y="1512" rx="3" ry="3" width="89.980000000000018" height="25.960000000000036" fill="#FFFFFF" stroke="#A5A6A9" stroke-width="1" />
    <text x="524.3933333333332" y="1529.95" fill="#000000">ThreadGroup</text>
    <rect x="534.38333333333333" y="1960" rx="3" ry="3" width="50" height="25.960000000000036" fill="#FFFFFF" stroke="#A5A6A9" stroke-width="1" />
    <text x="546.38333333333333" y="1977.95" fill="#000000">Time</text>
    <rect x="522.17666666666651" y="1064" rx="3" ry="3" width="74.413333333333412" height="25.960000000000036" fill="#FFFFFF" stroke="#A5A6A9" stroke-width="1" />
    <text x="532.17666666666651" y="1081.95" fill="#000000">TracePoint</text>
    <rect x="524.8266666666666" y="1120" rx="3" ry="3" width="69.11333333333323" height="25.960000000000036" fill="#FFFFFF" stroke="#A5A6A9" stroke-width="1" />
    <text x="534.8266666666666" y="1137.95" fill="#000000">TrueClass</text>
    <rect x="192.91499999999996" y="336.00000000000006" rx="3" ry="3" width="70.383333333333326" height="25.960000000000036" fill="#FFFFFF" stroke="#A5A6A9" stroke-width="1" />
    <text x="202.91499999999996" y="353.95000000000005" fill="#000000">TypeError</text>
    <rect x="503.49833333333322" y="1680" rx="3" ry="3" width="111.76999999999998" height="25.960000000000036" fill="#FFFFFF" stroke="#A5A6A9" stroke-width="1" />
    <text x="513.49833333333322" y="1697.95" fill="#000000">UnboundMethod</text>
    <rect y="728.00000000000011" rx="3" ry="3" width="129.97" height="25.960000000000036" fill="#FFFFFF" stroke="#A5A6A9" stroke-width="1" />
    <text x="10" y="745.95000000000016" fill="#000000">UncaughtThrowError</text>
    <rect x="172.23833333333323" y="112.00000000000006" rx="3" ry="3" width="111.73666666666702" height="25.960000000000036" fill="#FFFFFF" stroke="#A5A6A9" stroke-width="1" />
    <text x="182.23833333333323" y="129.95000000000005" fill="#000000">ZeroDivisionError</text>
  </g>
</svg>