<?xml version="1.0" encoding="utf-8"?>
<svg stroke-linecap="round" font-size="12" font-family="Segoe UI" width="1026.254082721337" height="917.82690891014545" xmlns:xlink="http://www.w3.org/1999/xlink" xmlns="http://www.w3.org/2000/svg">
  <defs />
  <rect width="946.25408272133689" height="837.82690891014545" fill="#FFFFFF" />
  <g transform="translate(20,20)">
    <path d="M 181.005884752304,373.952069989172 L 164.551982644199,332.940133942869" fill="none" stroke="#A0A0A0" stroke-width="1" />
    <path d="M 161.200842684249,324.587298438154 L 161.211960193209,335.357622314482 C 163.314525532389,333.436599122121 165.789439756009,332.443668763617 168.636702864067,332.378831238971 z" fill="#A0A0A0" stroke="#A0A0A0" stroke-width="1" stroke-linejoin="round" />
    <path d="M 144.2901,386.306476439597 L 123.288998126469,385.993091199888" fill="none" stroke="#A0A0A0" stroke-width="1" />
    <path d="M 114.29,385.858805237086 L 124.229204157053,390.007566585297 C 123.269103909757,387.326276107513 123.30889234318,384.659906292263 124.348569457322,382.008457139547 z" fill="#A0A0A0" stroke="#A0A0A0" stroke-width="1" stroke-linejoin="round" />
    <path d="M 666.372293085231,111.92 L 695.461223813662,87.6813600113848" fill="none" stroke="#A0A0A0" stroke-width="1" />
    <path d="M 702.375464973704,81.9200000000001 L 692.132370346375,85.2485150526311 C 694.607688997161,86.6570279876749 696.314758630164,88.7056920350947 697.253579245384,91.3945071948906 z" fill="#A0A0A0" stroke="#A0A0A0" stroke-width="1" stroke-linejoin="round" />
    <path d="M 649.577876879886,111.92 L 642.358190688482,34.9206972019963" fill="none" stroke="#A0A0A0" stroke-width="1" />
    <path d="M 641.518008771195,25.96 L 638.469012145071,36.2897444099013 C 641.03067999189,35.04516859715 643.685701385074,34.7962258068427 646.434076324624,35.5429160389794 z" fill="#A0A0A0" stroke="#A0A0A0" stroke-width="1" stroke-linejoin="round" />
    <path d="M 635.071437421349,137.88 L 605.671165268687,162.150419309698" fill="none" stroke="#A0A0A0" stroke-width="1" />
    <path d="M 598.730566943375,167.88 L 608.988823167189,164.598509599803 C 606.51999203762,163.178656098633 604.822338499753,161.122182520763 603.895862553587,158.429088866193 z" fill="#A0A0A0" stroke="#A0A0A0" stroke-width="1" stroke-linejoin="round" />
    <path d="M 651.918639966627,137.88 L 658.584211744074,214.873538672618" fill="none" stroke="#A0A0A0" stroke-width="1" />
    <path d="M 659.360466383071,223.84 L 662.483055151911,213.532263130022 C 659.912576385168,214.758537985359 657.255847102981,214.988539359877 654.51286730535,214.222267253574 z" fill="#A0A0A0" stroke="#A0A0A0" stroke-width="1" stroke-linejoin="round" />
    <path d="M 738.641785871901,279.8 L 760.217471735966,256.414740343042" fill="none" stroke="#A0A0A0" stroke-width="1" />
    <path d="M 766.320357135032,249.8 L 756.599488761384,254.437317981573 C 759.237510203663,255.51060917281 761.197433268268,257.318871513274 762.479257955199,259.862105002965 z" fill="#A0A0A0" stroke="#A0A0A0" stroke-width="1" stroke-linejoin="round" />
    <path d="M 704.15123831429,641.52 L 675.359482974704,670.76825675173" fill="none" stroke="#A0A0A0" stroke-width="1" />
    <path d="M 669.04577161929,677.182073783773 L 678.911591806213,672.861704350576 C 676.309678090562,671.703621396976 674.409287858846,669.832892106483 673.210421111064,667.249516479097 z" fill="#A0A0A0" stroke="#A0A0A0" stroke-width="1" stroke-linejoin="round" />
    <path d="M 726.572584629169,641.52 L 764.615350850017,692.722653920966" fill="none" stroke="#A0A0A0" stroke-width="1" />
    <path d="M 769.982858637745,699.946908910145 L 767.229741091015,689.534399905401 C 765.685610848413,691.927467582044 763.54509085162,693.517840259889 760.808181100634,694.305517938937 z" fill="#A0A0A0" stroke="#A0A0A0" stroke-width="1" stroke-linejoin="round" />
    <path d="M 758.398648861526,628.541679938735 L 779.398748868911,628.542530647234" fill="none" stroke="#A0A0A0" stroke-width="1" />
    <path d="M 788.398748861527,628.542895234854 L 778.398910908674,624.542490140781 C 779.398802881892,627.209197314995 779.39869485593,629.875863979473 778.39858683079,632.542490134216 z" fill="#A0A0A0" stroke="#A0A0A0" stroke-width="1" stroke-linejoin="round" />
    <path d="M 804.573673410483,391.72 L 834.585061078516,367.387998870511" fill="none" stroke="#A0A0A0" stroke-width="1" />
    <path d="M 841.576040180465,361.72 L 831.289175013628,364.910674699701 C 833.745357542144,366.352298262814 835.424764614888,368.423699478207 836.327396231859,371.124878345878 z" fill="#A0A0A0" stroke="#A0A0A0" stroke-width="1" stroke-linejoin="round" />
    <path d="M 836.050649388003,404.700905303542 L 857.050749389639,404.701305657288" fill="none" stroke="#A0A0A0" stroke-width="1" />
    <path d="M 866.050749388004,404.701477236648 L 856.050825647314,400.701286593642 C 857.050774808803,403.367972324197 857.050723970474,406.034638990379 856.050673132327,408.701286592188 z" fill="#A0A0A0" stroke="#A0A0A0" stroke-width="1" stroke-linejoin="round" />
    <path d="M 673.622654398012,223.84 L 697.586459730056,200.165232504815" fill="none" stroke="#A0A0A0" stroke-width="1" />
    <path d="M 703.988915021586,193.84 L 694.063861362191,198.022500431336 C 696.649388247862,199.216720609773 698.523531212251,201.113744399856 699.686290255359,203.713571801585 z" fill="#A0A0A0" stroke="#A0A0A0" stroke-width="1" stroke-linejoin="round" />
    <path d="M 600.703298340397,417.947270562499 L 607.681235367738,409.828907297295 C 631.860665865437,381.697756277023 653.141026624409,359.315271792789 671.522317644654,342.681453844592 L 705.6493137287,311.798843947623" fill="none" stroke="#A0A0A0" stroke-width="1" />
    <path d="M 712.322571087461,305.76 L 702.22391004545,309.503934449021 C 704.754670180904,310.810213227806 706.543957276496,312.787474667439 707.591771332225,315.435718767919 z" fill="#A0A0A0" stroke="#A0A0A0" stroke-width="1" stroke-linejoin="round" />
    <path d="M 579.89870940019,417.947270562499 L 501.87955857777,312.983184628447" fill="none" stroke="#A0A0A0" stroke-width="1" />
    <path d="M 496.510610466327,305.76 L 499.265804088621,316.171959858916 C 500.809457151334,313.778584348661 502.949660004207,312.187784908233 505.68641264724,311.399561537633 z" fill="#A0A0A0" stroke="#A0A0A0" stroke-width="1" stroke-linejoin="round" />
    <path d="M 586.334176009178,417.947270562499 L 567.373651162077,341.337574726359 C 555.548045118138,293.556403613752 552.733120526879,268.944956123011 558.928877388301,267.503232254138 L 574.031034738016,263.989030323759 C 584.850326430346,261.471431356268 588.595654179304,241.074276050888 585.26701798489,202.797564407617" fill="none" stroke="#A0A0A0" stroke-width="1" />
    <path d="M 584.394069026822,193.84 L 581.382872576845,204.180826656494 C 583.939971405984,202.926890179183 586.594064563796,202.668238636051 589.345152050283,203.4048720271 z" fill="#A0A0A0" stroke="#A0A0A0" stroke-width="1" stroke-linejoin="round" />
    <path d="M 594.080794080059,443.907270562499 L 599.139303187189,458.388422459174 C 631.114772162941,549.925595448093 656.800581957861,600.256101117198 676.196732571946,609.379939466489 L 681.190799280998,611.729119892314" fill="none" stroke="#A0A0A0" stroke-width="1" />
    <path d="M 689.334776049171,615.56 L 681.988526354617,607.683921316716 C 681.758337074729,610.522604815547 680.623261487267,612.93563496908 678.583299592229,614.923011777314 z" fill="#A0A0A0" stroke="#A0A0A0" stroke-width="1" stroke-linejoin="round" />
    <path d="M 637.031662494463,424.669513995178 L 732.15446406053,412.133864080427" fill="none" stroke="#A0A0A0" stroke-width="1" />
    <path d="M 741.07731605467,410.957976207086 L 730.640419228586,408.29880629118 C 731.980258449665,410.811960081295 732.328669671395,413.455768079558 731.685652893777,416.230230285971 z" fill="#A0A0A0" stroke="#A0A0A0" stroke-width="1" stroke-linejoin="round" />
    <path d="M 593.952273123941,443.907270562499 L 597.517352779998,454.410861966151 C 624.086320398448,532.689499978326 637.370804207673,573.433972846518 637.370804207673,576.644280570727 L 637.370804207673,579.533557522515 C 637.370804207673,581.895843075799 629.807085654922,591.661086320384 614.679648549419,608.829287256273" fill="none" stroke="#A0A0A0" stroke-width="1" />
    <path d="M 608.704909562532,615.56 L 618.334936322952,610.736869834475 C 615.676791178119,609.714433772849 613.682505920718,607.944140739697 612.35208055075,605.42599073502 z" fill="#A0A0A0" stroke="#A0A0A0" stroke-width="1" stroke-linejoin="round" />
    <path d="M 569.517548104417,417.947270562499 L 490.30734112872,366.614572245318" fill="none" stroke="#A0A0A0" stroke-width="1" />
    <path d="M 482.754648725652,361.72 L 488.971163731142,370.51516578505 C 489.582219314599,367.733489638365 491.032462942841,365.495654852271 493.321894615869,363.801661426768 z" fill="#A0A0A0" stroke="#A0A0A0" stroke-width="1" stroke-linejoin="round" />
    <path d="M 611.7553069101,443.907270562499 L 706.187176079086,499.098647346867" fill="none" stroke="#A0A0A0" stroke-width="1" />
    <path d="M 713.957383031278,503.64 L 707.342198708013,495.140627295545 C 706.859969064736,497.947505576172 705.514383093437,500.249789117562 703.305440794117,502.047477919715 z" fill="#A0A0A0" stroke="#A0A0A0" stroke-width="1" stroke-linejoin="round" />
    <path d="M 597.531422973483,417.947270562499 L 601.340597520042,411.755089125841 C 640.653714271974,347.847817670315 660.334427229458,304.911656672753 660.382736392497,282.946606133155 L 660.435843640395,258.799978232651" fill="none" stroke="#A0A0A0" stroke-width="1" />
    <path d="M 660.455637877381,249.8 L 656.433653955107,259.791178375396 C 659.102513531854,258.797045753097 661.769173748936,258.802910712204 664.433634606352,259.808773252717 z" fill="#A0A0A0" stroke="#A0A0A0" stroke-width="1" stroke-linejoin="round" />
    <path d="M 542.061662494463,422.68807057469 L 486.026813824522,412.965372365188" fill="none" stroke="#A0A0A0" stroke-width="1" />
    <path d="M 477.159307835871,411.426756902756 L 486.328263173291,417.077443411525 C 485.798870793051,414.279076956099 486.254756855994,411.651667774276 487.69592136212,409.195215866057 z" fill="#A0A0A0" stroke="#A0A0A0" stroke-width="1" stroke-linejoin="round" />
    <path d="M 585.267129094039,417.947270562499 L 532.646719888955,258.347415257179" fill="none" stroke="#A0A0A0" stroke-width="1" />
    <path d="M 529.828619035304,249.8 L 529.160990980614,260.549617331821 C 531.38043614715,258.764911679942 533.913003630759,257.929918834416 536.75869343144,258.044638795243 z" fill="#A0A0A0" stroke="#A0A0A0" stroke-width="1" stroke-linejoin="round" />
    <path d="M 590.996062911104,417.947270562499 L 602.524587257676,314.704409376302" fill="none" stroke="#A0A0A0" stroke-width="1" />
    <path d="M 603.523356955412,305.76 L 598.438319790682,315.254334996897 C 601.199489572298,314.556443495156 603.849684943054,314.852375257448 606.38890590295,316.142130283774 z" fill="#A0A0A0" stroke="#A0A0A0" stroke-width="1" stroke-linejoin="round" />
    <path d="M 568.637154259817,443.907270562499 L 480.060065139625,498.893289548591" fill="none" stroke="#A0A0A0" stroke-width="1" />
    <path d="M 472.413579679593,503.64 L 483.019323724699,501.764315258449 C 480.763281502796,500.026102209336 479.356848776453,497.760476887845 478.800025545669,494.967439293976 z" fill="#A0A0A0" stroke="#A0A0A0" stroke-width="1" stroke-linejoin="round" />
    <path d="M 600.066233688145,443.907270562499 L 688.162111402193,552.607945872832" fill="none" stroke="#A0A0A0" stroke-width="1" />
    <path d="M 693.828784066355,559.6 L 690.64006071825,549.312529785742 C 689.197971272885,551.768438811475 687.126251531501,553.44745293419 684.4249014941,554.349572153885 z" fill="#A0A0A0" stroke="#A0A0A0" stroke-width="1" stroke-linejoin="round" />
    <path d="M 637.031662494463,439.476250605008 L 699.695102623721,450.757886891414" fill="none" stroke="#A0A0A0" stroke-width="1" />
    <path d="M 708.552697895103,452.352567426313 L 699.419672275745,446.643991155811 C 699.931351591854,449.445650554913 699.458853655588,452.070123227915 698.002178466946,454.517409174818 z" fill="#A0A0A0" stroke="#A0A0A0" stroke-width="1" stroke-linejoin="round" />
    <path d="M 610.797897595298,417.947270562499 L 695.174186755418,366.41124321624" fill="none" stroke="#A0A0A0" stroke-width="1" />
    <path d="M 702.854827164009,361.72 L 692.235785280579,363.518874503115 C 694.47918776042,365.273370563115 695.869185750417,367.549115869365 696.40577925057,370.346110421863 z" fill="#A0A0A0" stroke="#A0A0A0" stroke-width="1" stroke-linejoin="round" />
    <path d="M 589.878291502711,443.907270562499 L 592.585091525608,549.851754981351" fill="none" stroke="#A0A0A0" stroke-width="1" />
    <path d="M 592.814959585121,558.848818984414 L 596.558245742579,548.749917621227 C 593.917989896432,549.817700454015 591.252193154784,549.885809508686 588.560855517634,548.954244785239 z" fill="#A0A0A0" stroke="#A0A0A0" stroke-width="1" stroke-linejoin="round" />
    <path d="M 579.878191372577,443.907270562499 L 499.077920799349,552.382281639108" fill="none" stroke="#A0A0A0" stroke-width="1" />
    <path d="M 493.701626381923,559.6 L 502.883161672792,553.969777117865 C 500.14721240837,553.178769700949 498.008629190328,551.585793577267 496.467412018666,549.19084874682 z" fill="#A0A0A0" stroke="#A0A0A0" stroke-width="1" stroke-linejoin="round" />
    <path d="M 585.579720526884,443.907270562499 L 581.153997168039,458.388422459174 C 553.178446079961,549.925595448093 529.810269377441,600.256101117197 511.049467060479,609.379939466489 L 506.435410133278,611.623868528102" fill="none" stroke="#A0A0A0" stroke-width="1" />
    <path d="M 498.341778745827,615.56 L 509.08409427495,614.783690092313 C 507.018540721707,612.822925029946 505.852279544849,610.424812026257 505.585310744373,607.589351081246 z" fill="#A0A0A0" stroke="#A0A0A0" stroke-width="1" stroke-linejoin="round" />
    <path d="M 820.77012773872,712.675605415143 L 841.770395618531,712.547335771276" fill="none" stroke="#A0A0A0" stroke-width="1" />
    <path d="M 850.77022773872,712.492364793405 L 840.745982726122,708.553518270956 C 841.762251769957,711.214027309026 841.778539467104,713.880644233527 840.794845817564,716.553369044457 z" fill="#A0A0A0" stroke="#A0A0A0" stroke-width="1" stroke-linejoin="round" />
    <path d="M 779.231451530111,725.906908910145 L 776.887288439402,802.871080570339" fill="none" stroke="#A0A0A0" stroke-width="1" />
    <path d="M 776.613294861486,811.866908910145 L 780.915878099085,801.993319011657 C 778.220003749003,802.911672211512 775.554573129801,802.830488929166 772.919586241479,801.74976916462 z" fill="#A0A0A0" stroke="#A0A0A0" stroke-width="1" stroke-linejoin="round" />
    <path d="M 791.982816530453,725.906908910145 L 814.335301673015,749.388192304895" fill="none" stroke="#A0A0A0" stroke-width="1" />
    <path d="M 820.540648868817,755.906908910145 L 816.543026031371,745.905958372845 C 815.301037466386,748.468881609221 813.369565879645,750.30750300057 810.748611271149,751.42182254689 z" fill="#A0A0A0" stroke="#A0A0A0" stroke-width="1" stroke-linejoin="round" />
    <path d="M 256.912432397847,447.36105907684 L 208.240845218109,405.759694849886" fill="none" stroke="#A0A0A0" stroke-width="1" />
    <path d="M 201.399406517926,399.912069989172 L 206.402060691145,409.450070367825 C 207.374530423929,406.773241323988 209.107160012289,404.746148375785 211.599949456224,403.368791523218 z" fill="#A0A0A0" stroke="#A0A0A0" stroke-width="1" stroke-linejoin="round" />
    <path d="M 275.660134229053,447.36105907684 L 290.420227737386,393.570882242245" fill="none" stroke="#A0A0A0" stroke-width="1" />
    <path d="M 292.80180468672,384.891706519032 L 286.29819664381,393.476756456231 C 289.13442392654,393.218056027529 291.706031548232,393.923708456961 294.013019508888,395.593713744528 z" fill="#A0A0A0" stroke="#A0A0A0" stroke-width="1" stroke-linejoin="round" />
    <path d="M 227.98840558244,459.975551947877 L 206.987996618541,459.801537003705" fill="none" stroke="#A0A0A0" stroke-width="1" />
    <path d="M 197.98830558244,459.72696318298 L 207.954818368896,463.809685666496 C 206.9769486451,461.134824564608 206.999044591981,458.468249442801 208.02110620954,455.809960301074 z" fill="#A0A0A0" stroke="#A0A0A0" stroke-width="1" stroke-linejoin="round" />
    <path d="M 278.717412031747,473.32105907684 L 302.761318647127,520.471626198636" fill="none" stroke="#A0A0A0" stroke-width="1" />
    <path d="M 306.849864390954,528.489343685591 L 305.870465780904,517.763637258384 C 303.949128645195,519.865915718069 301.57350864906,521.077336679203 298.743605792499,521.397900141786 z" fill="#A0A0A0" stroke="#A0A0A0" stroke-width="1" stroke-linejoin="round" />
    <path d="M 316.208405582441,460.457354676286 L 337.208536862149,460.512721324566" fill="none" stroke="#A0A0A0" stroke-width="1" />
    <path d="M 346.20850558244,460.53644965731 L 336.219086263336,456.510098745243 C 337.212052170703,459.179392625264 337.205021553594,461.846050023869 336.197994412008,464.510070941058 z" fill="#A0A0A0" stroke="#A0A0A0" stroke-width="1" stroke-linejoin="round" />
    <path d="M 439.931838915774,453.568437776701 L 533.162978679895,439.459796838058" fill="none" stroke="#A0A0A0" stroke-width="1" />
    <path d="M 542.061662494463,438.113161635658 L 531.575731499432,435.654452387405 C 532.963477168428,438.141473309974 533.362480191361,440.778120366142 532.772740568232,443.564393555911 z" fill="#A0A0A0" stroke="#A0A0A0" stroke-width="1" stroke-linejoin="round" />
    <path d="M 195.778188079435,552.21094181687 L 181.061867503648,598.288381852265" fill="none" stroke="#A0A0A0" stroke-width="1" />
    <path d="M 178.323689933096,606.861734964795 L 185.176488617056,598.552754871119 C 182.33199389069,598.694037788643 179.791741116607,597.882725915887 177.555730294808,596.118819252849 z" fill="#A0A0A0" stroke="#A0A0A0" stroke-width="1" stroke-linejoin="round" />
    <path d="M 240.613770840261,540.033095076132 L 261.615619177773,540.447120662136" fill="none" stroke="#A0A0A0" stroke-width="1" />
    <path d="M 270.613870840261,540.624510116516 L 260.694653194998,536.428187761654 C 261.64189909694,539.114046341767 261.589339258605,541.780194982504 260.536973679994,544.426633683866 z" fill="#A0A0A0" stroke="#A0A0A0" stroke-width="1" stroke-linejoin="round" />
    <path d="M 159.233770840261,540.668531754317 L 138.228059057633,541.410669869029" fill="none" stroke="#A0A0A0" stroke-width="1" />
    <path d="M 129.233670840261,541.728444309795 L 139.368668611015,545.37286747222 C 138.275136752561,542.743171827158 138.180981362704,540.0781679109 139.086202441444,537.377855723445 z" fill="#A0A0A0" stroke="#A0A0A0" stroke-width="1" stroke-linejoin="round" />
    <path d="M 211.798890011634,526.25094181687 L 254.148220942732,479.961358735397" fill="none" stroke="#A0A0A0" stroke-width="1" />
    <path d="M 260.223286411068,473.32105907684 L 250.52196937578,477.999140711532 C 253.164472845168,479.061349036384 255.131969040296,480.86136843441 256.424457961165,483.399198905608 z" fill="#A0A0A0" stroke="#A0A0A0" stroke-width="1" stroke-linejoin="round" />
    <rect x="144.29009999999971" y="373.95206998917195" rx="3" ry="3" width="83.846666666666664" height="25.95999999999998" fill="#0000FF" stroke="#A5A6A9" stroke-width="1" />
    <text x="154.29009999999971" y="391.90206998917193" fill="#FFFFFF">Adam Riggs</text>
    <rect x="673.60617067745011" y="55.960000000000036" rx="3" ry="3" width="88.693333333333385" height="25.960000000000008" fill="#FFFFFF" stroke="#A5A6A9" stroke-width="1" />
    <text x="683.60617067745011" y="73.910000000000039" fill="#000000">Andy Pettitte</text>
    <rect x="112.68829410321956" y="298.6272984381539" rx="3" ry="3" width="86.610000000000014" height="25.95999999999998" fill="#FFFFFF" stroke="#A5A6A9" stroke-width="1" />
    <text x="122.68829410321956" y="316.57729843815389" fill="#000000">Bart Miadich</text>
    <rect x="7.1054273576010019E-15" y="372.02606905062333" rx="3" ry="3" width="114.29000000000002" height="25.95999999999998" fill="#FFFFFF" stroke="#A5A6A9" stroke-width="1" />
    <text x="10.000000000000007" y="389.97606905062332" fill="#000000">Brendan Donnelly</text>
    <rect x="598.57658738148541" y="111.92000000000012" rx="3" ry="3" width="104.43666666666661" height="25.959999999999994" fill="#0000FF" stroke="#A5A6A9" stroke-width="1" />
    <text x="608.57658738148541" y="129.87000000000012" fill="#FFFFFF">Brian McNamee</text>
    <rect x="850.77022773872022" y="699.23547895687557" rx="3" ry="3" width="90.6633333333333" height="25.960000000000036" fill="#FFFFFF" stroke="#A5A6A9" stroke-width="1" />
    <text x="860.77022773872022" y="717.18547895687561" fill="#000000">Brian Roberts</text>
    <rect x="739.64595230154589" y="223.84000000000003" rx="3" ry="3" width="77.300000000000068" height="25.95999999999998" fill="#FFFFFF" stroke="#A5A6A9" stroke-width="1" />
    <text x="749.64595230154589" y="241.79000000000002" fill="#000000">Chad Allen</text>
    <rect x="680.176190705387" y="279.79999999999995" rx="3" ry="3" width="92.980000000000018" height="25.95999999999998" fill="#008080" stroke="#A5A6A9" stroke-width="1" />
    <text x="690.176190705387" y="297.74999999999994" fill="#FFFFFF">Chris Donnels</text>
    <rect x="584.41429826959575" rx="3" ry="3" width="111.77333333333331" height="25.96" fill="#FFFFFF" stroke="#A5A6A9" stroke-width="1" />
    <text x="594.41429826959575" y="17.950000000000003" fill="#000000">Chuck Knoblauch</text>
    <rect x="443.95599070538697" y="279.79999999999995" rx="3" ry="3" width="85.813333333333276" height="25.95999999999998" fill="#A52A2A" stroke="#A5A6A9" stroke-width="1" />
    <text x="453.95599070538697" y="297.74999999999994" fill="#FFFFFF">Cody McKay</text>
    <rect x="538.76375031657165" y="167.88000000000005" rx="3" ry="3" width="88.486666666666679" height="25.960000000000008" fill="#008080" stroke="#A5A6A9" stroke-width="1" />
    <text x="548.76375031657165" y="185.83000000000004" fill="#FFFFFF">David Justice</text>
    <rect x="675.45864886152651" y="615.56" rx="3" ry="3" width="82.939999999999941" height="25.960000000000036" fill="#008080" stroke="#A5A6A9" stroke-width="1" />
    <text x="685.45864886152651" y="633.51" fill="#FFFFFF">David Segui</text>
    <rect x="741.07731605467029" y="391.72" rx="3" ry="3" width="94.973333333333358" height="25.95999999999998" fill="#008080" stroke="#A5A6A9" stroke-width="1" />
    <text x="751.07731605467029" y="409.67" fill="#FFFFFF">Denny Neagle</text>
    <rect x="258.13686666666638" y="358.93170651903222" rx="3" ry="3" width="76.453333333333376" height="25.95999999999998" fill="#FFFFFF" stroke="#A5A6A9" stroke-width="1" />
    <text x="268.13686666666638" y="376.88170651903221" fill="#000000">Eric Gagné</text>
    <rect x="548.82188219485988" y="615.56" rx="3" ry="3" width="96.636666666666656" height="25.960000000000036" fill="#A52A2A" stroke="#A5A6A9" stroke-width="1" />
    <text x="558.82188219485988" y="633.51" fill="#FFFFFF">Fernando Vina</text>
    <rect x="807.33739753627731" y="335.76" rx="3" ry="3" width="100.49666666666667" height="25.95999999999998" fill="#FFFFFF" stroke="#A5A6A9" stroke-width="1" />
    <text x="817.33739753627731" y="353.71" fill="#000000">Gary Bennett Jr</text>
    <rect x="675.81071711805282" y="167.87999999999988" rx="3" ry="3" width="82.633333333333326" height="25.960000000000008" fill="#FFFFFF" stroke="#A5A6A9" stroke-width="1" />
    <text x="685.81071711805282" y="185.82999999999987" fill="#000000">Gregg Zaun</text>
    <rect x="425.23886766893895" y="335.76000000000005" rx="3" ry="3" width="74.973333333333358" height="25.95999999999998" fill="#A52A2A" stroke="#A5A6A9" stroke-width="1" />
    <text x="435.23886766893895" y="353.71000000000004" fill="#FFFFFF">Hal Morris</text>
    <rect x="734.58128531954367" y="811.86690891014541" rx="3" ry="3" width="83.273333333333312" height="25.960000000000036" fill="#FFFFFF" stroke="#A5A6A9" stroke-width="1" />
    <text x="744.58128531954367" y="829.81690891014546" fill="#000000">Howie Clark</text>
    <rect x="798.6150043272155" y="755.90690891014538" rx="3" ry="3" width="68.563333333333276" height="25.960000000000036" fill="#FFFFFF" stroke="#A5A6A9" stroke-width="1" />
    <text x="808.6150043272155" y="773.85690891014542" fill="#000000">Jack Cust</text>
    <rect x="677.65936078024731" y="503.64" rx="3" ry="3" width="117.01333333333332" height="25.960000000000036" fill="#A52A2A" stroke="#A5A6A9" stroke-width="1" />
    <text x="687.65936078024731" y="521.59" fill="#FFFFFF">Jason Christiansen</text>
    <rect x="611.32251896821265" y="223.84000000000003" rx="3" ry="3" width="98.32333333333338" height="25.95999999999998" fill="#008080" stroke="#A5A6A9" stroke-width="1" />
    <text x="621.32251896821265" y="241.79000000000002" fill="#FFFFFF">Jason Grimsley</text>
    <rect x="131.31144050560334" y="606.86173496479466" rx="3" ry="3" width="85.733333333333348" height="25.960000000000036" fill="#FFFFFF" stroke="#A5A6A9" stroke-width="1" />
    <text x="141.31144050560334" y="624.81173496479471" fill="#000000">Jeff Williams</text>
    <rect x="604.05336107205346" y="677.18207378377258" rx="3" ry="3" width="104.42999999999995" height="25.960000000000036" fill="#0000FF" stroke="#A5A6A9" stroke-width="1" />
    <text x="614.05336107205346" y="695.13207378377263" fill="#FFFFFF">Jerry Hairston Jr</text>
    <rect x="399.62264116920448" y="391.72" rx="3" ry="3" width="77.536666666666633" height="25.95999999999998" fill="#A52A2A" stroke="#A5A6A9" stroke-width="1" />
    <text x="409.62264116920448" y="409.67" fill="#FFFFFF">Jim Parque</text>
    <rect x="469.77575230154594" y="223.84" rx="3" ry="3" width="111.54666666666662" height="25.960000000000008" fill="#A52A2A" stroke="#A5A6A9" stroke-width="1" />
    <text x="479.77575230154594" y="241.79" fill="#FFFFFF">Josias Manzanillo</text>
    <rect x="559.76942403872033" y="279.8" rx="3" ry="3" width="90.406666666666638" height="25.95999999999998" fill="#FFFFFF" stroke="#A5A6A9" stroke-width="1" />
    <text x="569.76942403872033" y="297.75" fill="#000000">Kent Mercker</text>
    <rect x="112.63163891577398" y="446.39331922275386" rx="3" ry="3" width="85.356666666666683" height="25.95999999999998" fill="#FFFFFF" stroke="#A5A6A9" stroke-width="1" />
    <text x="122.63163891577398" y="464.34331922275385" fill="#000000">Kevin Brown</text>
    <rect x="408.97240477827995" y="503.64" rx="3" ry="3" width="85.063333333333333" height="25.960000000000036" fill="#A52A2A" stroke="#A5A6A9" stroke-width="1" />
    <text x="418.97240477827995" y="521.59" fill="#FFFFFF">Kevin Young</text>
    <rect x="542.061662494463" y="417.9472705624986" rx="3" ry="3" width="94.970000000000027" height="25.95999999999998" fill="#FFA500" stroke="#A5A6A9" stroke-width="1" />
    <text x="552.061662494463" y="435.89727056249859" fill="#000000">Kirk Radomski</text>
    <rect x="738.48346107205361" y="699.94690891014534" rx="3" ry="3" width="82.286666666666633" height="25.960000000000036" fill="#0000FF" stroke="#A5A6A9" stroke-width="1" />
    <text x="748.48346107205361" y="717.89690891014538" fill="#FFFFFF">Larry Bigbie</text>
    <rect x="657.23668859336965" y="559.6" rx="3" ry="3" width="94.223333333333358" height="25.960000000000036" fill="#A52A2A" stroke="#A5A6A9" stroke-width="1" />
    <text x="667.23668859336965" y="577.55000000000007" fill="#FFFFFF">Lenny Dykstra</text>
    <rect x="708.55269789510328" y="447.68" rx="3" ry="3" width="92.286666666666633" height="25.95999999999998" fill="#A52A2A" stroke="#A5A6A9" stroke-width="1" />
    <text x="718.55269789510328" y="465.63" fill="#FFFFFF">Mark Carreon</text>
    <rect x="682.20272893151048" y="335.76000000000005" rx="3" ry="3" width="83.806666666666729" height="25.95999999999998" fill="#A52A2A" stroke="#A5A6A9" stroke-width="1" />
    <text x="692.20272893151048" y="353.71000000000004" fill="#FFFFFF">Matt Franco</text>
    <rect x="270.61387084026109" y="528.48934368559139" rx="3" ry="3" width="85.70999999999998" height="25.960000000000036" fill="#FFFFFF" stroke="#A5A6A9" stroke-width="1" />
    <text x="280.61387084026109" y="546.43934368559144" fill="#000000">Matt Herges</text>
    <rect x="559.05658859336972" y="558.84881898441392" rx="3" ry="3" width="68.180000000000064" height="25.960000000000036" fill="#A52A2A" stroke="#A5A6A9" stroke-width="1" />
    <text x="569.05658859336972" y="576.798818984414" fill="#FFFFFF">Mike Bell</text>
    <rect x="54.817004173593887" y="530.06302591680378" rx="3" ry="3" width="74.416666666666686" height="25.960000000000036" fill="#FFFFFF" stroke="#A5A6A9" stroke-width="1" />
    <text x="64.817004173593887" y="548.01302591680383" fill="#000000">Mike Judd</text>
    <rect x="788.39874886152666" y="615.56471034107381" rx="3" ry="3" width="89.613333333333344" height="25.960000000000036" fill="#0000FF" stroke="#A5A6A9" stroke-width="1" />
    <text x="798.39874886152666" y="633.51471034107385" fill="#FFFFFF">Mike Lansing</text>
    <rect x="439.00982192670295" y="559.59999999999991" rx="3" ry="3" width="90.046666666666681" height="25.960000000000036" fill="#A52A2A" stroke="#A5A6A9" stroke-width="1" />
    <text x="449.00982192670295" y="577.55" fill="#FFFFFF">Mike Stanton</text>
    <rect x="227.98840558244041" y="447.36105907683992" rx="3" ry="3" width="88.21999999999997" height="25.95999999999998" fill="#0000FF" stroke="#A5A6A9" stroke-width="1" />
    <text x="237.98840558244041" y="465.31105907683991" fill="#FFFFFF">Paul Lo Duca</text>
    <rect x="866.05074938800351" y="391.722241749793" rx="3" ry="3" width="80.203333333333376" height="25.95999999999998" fill="#0000FF" stroke="#A5A6A9" stroke-width="1" />
    <text x="876.05074938800351" y="409.672241749793" fill="#FFFFFF">Ron Villone</text>
    <rect x="424.4817821948597" y="615.56" rx="3" ry="3" width="94.339999999999975" height="25.960000000000036" fill="#A52A2A" stroke="#A5A6A9" stroke-width="1" />
    <text x="434.4817821948597" y="633.51" fill="#FFFFFF">Rondell White</text>
    <rect x="346.20850558244035" y="447.68" rx="3" ry="3" width="93.723333333333358" height="25.95999999999998" fill="#008080" stroke="#A5A6A9" stroke-width="1" />
    <text x="356.20850558244035" y="465.63" fill="#FFFFFF">Todd Hundley</text>
    <rect x="159.23377084026072" y="526.25094181687" rx="3" ry="3" width="81.38" height="25.960000000000036" fill="#0000FF" stroke="#A5A6A9" stroke-width="1" />
    <text x="169.23377084026072" y="544.20094181687" fill="#FFFFFF">Todd Seyler</text>
  </g>
</svg>