<?xml version="1.0" encoding="utf-8"?>
<svg stroke-linecap="round" font-size="12" font-family="Segoe UI" width="1079" height="636.06916666666666" xmlns:xlink="http://www.w3.org/1999/xlink" xmlns="http://www.w3.org/2000/svg">
  <defs />
  <rect width="999" height="556.06916666666666" fill="#FFFFFF" />
  <g transform="translate(19,20)">
    <path d="M 576.147739939632,362.35 L 512.432028562319,394.4664996433" fill="none" stroke="#A0A0A0" stroke-width="1" />
    <path d="M 504.395275728617,398.5175 L 515.125445702375,397.588278640868 C 513.032176763312,395.657129692737 511.831880361327,393.275869593863 511.52455649642,390.444498344244 z" fill="#A0A0A0" stroke="#A0A0A0" stroke-width="1" stroke-linejoin="round" />
    <path d="M 157.463348139822,294.519166666667 C 147.975565426548,308.782303126768 138.487782713274,330.805428126768 129,360.588541666667 L 119.594367183151,390.113778338339" fill="none" stroke="#A0A0A0" stroke-width="1" />
    <path d="M 116.862570152188,398.689166666667 L 123.70918388807,390.37508942673 C 120.864795083644,390.518489009592 118.323939282658,389.709067667085 116.086616485112,387.946825399208 z" fill="#A0A0A0" stroke="#A0A0A0" stroke-width="1" stroke-linejoin="round" />
    <path d="M 137.346008495243,294.519166666667 C 119.480687957142,306.047291355452 102.579253490321,316.649282177414 86.6417050947816,326.325139132553" fill="none" stroke="#A0A0A0" stroke-width="1" />
    <path d="M 78.9440028502278,330.988333333333 L 89.5695361000788,329.228207441157 C 87.3325486800824,327.46553946508 85.9508615094809,325.184738800027 85.4244745882743,322.385805445998 z" fill="#A0A0A0" stroke="#A0A0A0" stroke-width="1" stroke-linejoin="round" />
    <path d="M 177,294.519166666667 L 177,323.477291666667 C 177,352.904479997187 180.579371596142,374.000138608656 187.738114788426,386.764267501075" fill="none" stroke="#A0A0A0" stroke-width="1" />
    <path d="M 193.039066496995,394.0375 L 190.381667931441,383.600152019608 C 188.815630714193,385.978941322028 186.66059886266,387.549593680122 183.916572376841,388.312109093892 z" fill="#A0A0A0" stroke="#A0A0A0" stroke-width="1" stroke-linejoin="round" />
    <path d="M 196.468155298687,294.519166666666 C 204.822718432896,307.681653246081 209,324.26804213497 209,344.278333333333 C 209,366.888611111111 254.166666666667,383.630486111111 344.5,394.503958333333 L 431.212834059399,404.941629098518" fill="none" stroke="#A0A0A0" stroke-width="1" />
    <path d="M 440.148333333333,406.017199982062 L 430.698032310537,400.850788211932 C 431.372177893999,403.617851428306 431.0534902248,406.265406768731 429.741969302943,408.793454233206 z" fill="#A0A0A0" stroke="#A0A0A0" stroke-width="1" stroke-linejoin="round" />
    <path d="M 216.712073613567,294.519166666667 C 233.032433519542,304.891732353928 249.352793425517,314.514526722776 265.673153331493,323.387549773212" fill="none" stroke="#A0A0A0" stroke-width="1" />
    <path d="M 273.604607231419,327.641023533957 L 266.682313458499,319.389850955384 C 266.303297592344,322.212519565815 265.043009070642,324.562579980608 262.901447893392,326.440032199762 z" fill="#A0A0A0" stroke="#A0A0A0" stroke-width="1" stroke-linejoin="round" />
    <path d="M 35.0603134859033,280.8425 L 25,289.561875 C 9,303.429236111111 1,321.668055555556 1,344.278333333333 C 1,366.888611111111 19.6666666666667,383.630486111111 57,394.503958333333 L 71.4144571360096,398.702222599409" fill="none" stroke="#A0A0A0" stroke-width="1" />
    <path d="M 80.055415656581,401.218933914948 L 71.5728889961859,394.58216199965 C 71.7873032568302,397.422080596361 71.0416110151889,399.982364602456 69.3358122712619,402.263014017936 z" fill="#A0A0A0" stroke="#A0A0A0" stroke-width="1" stroke-linejoin="round" />
    <path d="M 49,280.8425 L 49,289.561875 C 49,301.372214659209 49.9671099746886,312.253322817737 51.9013299240662,322.205199475586" fill="none" stroke="#A0A0A0" stroke-width="1" />
    <path d="M 53.8651424499675,330.988333333333 L 55.5867435801873,320.356490146546 C 53.2025349400288,321.914264286563 50.6001249081036,322.496134664608 47.7795134844116,322.102101280681 z" fill="#A0A0A0" stroke="#A0A0A0" stroke-width="1" stroke-linejoin="round" />
    <path d="M 58.2931243427312,280.8425 L 65,289.561875 C 75.6666666666667,303.429236111111 102.5,327.104791666667 145.5,360.588541666667 L 181.354297162506,388.507991029807" fill="none" stroke="#A0A0A0" stroke-width="1" />
    <path d="M 188.455320366845,394.0375 L 183.022854126554,384.737590831191 C 182.173483676608,387.455987592128 180.535110648403,389.559994467487 178.107735041938,391.04961145727 z" fill="#A0A0A0" stroke="#A0A0A0" stroke-width="1" stroke-linejoin="round" />
    <path d="M 81,490.568333333333 L 81,513.255833333333" fill="none" stroke="#A0A0A0" stroke-width="1" />
    <path d="M 81,522.255833333333 L 85,512.255833333333 C 82.3333333333333,513.255833333333 79.6666666666667,513.255833333333 77,512.255833333333 z" fill="#A0A0A0" stroke="#A0A0A0" stroke-width="1" stroke-linejoin="round" />
    <path d="M 106.947823374192,422.939166666667 L 92.8286162235507,451.225748054844" fill="none" stroke="#A0A0A0" stroke-width="1" />
    <path d="M 88.8091796544956,459.278333333333 L 96.8541470772188,452.117432610148 C 94.021591820364,451.821220139149 91.6356406267375,450.63027597054 89.6962934963394,448.544600104321 z" fill="#A0A0A0" stroke="#A0A0A0" stroke-width="1" stroke-linejoin="round" />
    <path d="M 53.8651424499674,357.568333333333 L 53,361.236041666667 C 50.3333333333333,372.541180555556 49,389.067222222222 49,410.814166666667 C 49,428.299702811878 52.447943530701,442.148511539064 59.3438305921027,452.360592848223" fill="none" stroke="#A0A0A0" stroke-width="1" />
    <path d="M 65.1009884482553,459.278333333333 L 61.7786977125794,449.033218191587 C 60.3686810343413,451.507680573237 58.3189801498641,453.213505123208 55.6295950591476,454.1506918415 z" fill="#A0A0A0" stroke="#A0A0A0" stroke-width="1" stroke-linejoin="round" />
    <path d="M 66.4045726500976,357.568333333333 L 69,361.236041666667 C 76.4488181899217,371.76228219106 85.0535716387288,382.101405695421 94.8142603464216,392.25341217975" fill="none" stroke="#A0A0A0" stroke-width="1" />
    <path d="M 101.105608706204,398.689166666667 L 96.9755569672977,388.742173521301 C 95.7677054555945,391.321360570893 93.8608152372488,393.185463788607 91.2548863122608,394.33448317444 z" fill="#A0A0A0" stroke="#A0A0A0" stroke-width="1" stroke-linejoin="round" />
    <path d="M 602.169513585322,193.161666666666 L 662.341284975373,242.164272918504" fill="none" stroke="#A0A0A0" stroke-width="1" />
    <path d="M 669.319890132577,247.8475 L 664.091763105237,238.431200950692 C 663.183244543002,241.130405487807 661.499325407744,243.198140349201 659.040005699463,244.634405534873 z" fill="#A0A0A0" stroke="#A0A0A0" stroke-width="1" stroke-linejoin="round" />
    <path d="M 859.08905185491,188.003333333333 L 854.949536540687,242.904640787108" fill="none" stroke="#A0A0A0" stroke-width="1" />
    <path d="M 854.272864362203,251.879166666666 L 859.013400506989,242.208214435372 C 856.279095930251,243.004888517254 853.619977151123,242.804393056962 851.036044169603,241.606728054498 z" fill="#A0A0A0" stroke="#A0A0A0" stroke-width="1" stroke-linejoin="round" />
    <path d="M 723.743516345811,329.11 L 721,327.320625 C 707.503981266781,318.518257717725 699.262073734929,308.939225023249 696.274277404445,298.58352691657" fill="none" stroke="#A0A0A0" stroke-width="1" />
    <path d="M 695.000189519943,289.674166666667 L 692.456127058321,300.139717115227 C 694.954372182237,298.772280677237 697.594182626652,298.394773155903 700.375558391569,299.007194551225 z" fill="#A0A0A0" stroke="#A0A0A0" stroke-width="1" stroke-linejoin="round" />
    <path d="M 734.210209816801,289.674166666667 C 755.481537015826,301.054751076809 765.067104143406,311.571637963723 762.966911199539,321.224827327407" fill="none" stroke="#A0A0A0" stroke-width="1" />
    <path d="M 758.628241827094,329.11 L 766.953506762074,322.276994529316 C 764.135084928812,321.867593160361 761.798737470266,320.582061494452 759.944464386436,318.420399531588 z" fill="#A0A0A0" stroke="#A0A0A0" stroke-width="1" stroke-linejoin="round" />
    <path d="M 762.360896084325,289.674166666666 C 806.786965361442,303.527644120659 829,321.729033009548 829,344.278333333333 C 829,366.888611111111 770.833333333333,383.630486111111 654.5,394.503958333333 L 528.812608990523,406.251737887704" fill="none" stroke="#A0A0A0" stroke-width="1" />
    <path d="M 519.851666666667,407.089301418736 L 530.180519706966,410.14131630597 C 528.936692476602,407.579284898646 528.688525504445,404.924190876762 529.436018790493,402.17603424032 z" fill="#A0A0A0" stroke="#A0A0A0" stroke-width="1" stroke-linejoin="round" />
    <path d="M 718.145700000898,194.663333333333 L 704.216102648552,239.25685782278" fill="none" stroke="#A0A0A0" stroke-width="1" />
    <path d="M 701.532659527678,247.8475 L 708.332326185192,239.494983412366 C 705.488790378511,239.654404951798 702.943414918594,238.859310693761 700.69619980544,237.109700638256 z" fill="#A0A0A0" stroke="#A0A0A0" stroke-width="1" stroke-linejoin="round" />
    <path d="M 750.041541375318,194.663333333333 L 822.238022825045,246.621947085722" fill="none" stroke="#A0A0A0" stroke-width="1" />
    <path d="M 829.542928182251,251.879166666666 L 823.76290871022,242.791186973526 C 823.01687017037,245.539738884654 821.45917547972,247.704155286789 819.089824638269,249.284436179931 z" fill="#A0A0A0" stroke="#A0A0A0" stroke-width="1" stroke-linejoin="round" />
    <path d="M 244.751965048366,45.3616666666666 L 274.951868953916,97.8878640548425 C 281.406002639133,109.113432883793 294.401636153482,115.79577077643 313.93876949696,117.934877732755 L 401.855869542613,127.560859036219 C 427.905380667251,130.413001644652 442.935958210439,139.782379369796 446.947602172177,155.668992211652 L 452.965068114785,179.498911474434 C 460.988356038262,211.272137158145 503.333333333333,234.092430555556 580,247.959791666666 L 610.670376642578,253.507407166446" fill="none" stroke="#A0A0A0" stroke-width="1" />
    <path d="M 619.526666666667,255.10932071256 L 610.39830599373,249.393287872838 C 610.907697167928,252.195364199914 610.433056117228,254.819450132978 608.974382841628,257.265545672028 z" fill="#A0A0A0" stroke="#A0A0A0" stroke-width="1" stroke-linejoin="round" />
    <path d="M 260.07589244716,45.3616666666666 C 276.41322297274,57.6946676679123 290.82697210905,68.4796436463639 303.317139856089,77.7165946020212" fill="none" stroke="#A0A0A0" stroke-width="1" />
    <path d="M 310.558625365482,83.0608333333333 L 304.887747568962,73.9043522943677 C 304.108878927394,76.6437819339631 302.525400784783,78.7894072700794 300.137313141129,80.3412283027167 z" fill="#A0A0A0" stroke="#A0A0A0" stroke-width="1" stroke-linejoin="round" />
    <path d="M 235.011817899093,45.3616666666667 L 251,207.801041666667 C 255,248.440902777778 275.583333333333,280.598611111111 312.75,304.274166666667 L 453.105559084489,393.68212639678" fill="none" stroke="#A0A0A0" stroke-width="1" />
    <path d="M 460.696287779238,398.5175 L 454.411199719837,389.771205465423 C 453.821910729411,392.557573997558 452.389207439568,394.806678796002 450.113089850308,396.518519860755 z" fill="#A0A0A0" stroke="#A0A0A0" stroke-width="1" stroke-linejoin="round" />
    <path d="M 290.016829346395,45.3616666666667 L 389.325288007963,80.9628201911879" fill="none" stroke="#A0A0A0" stroke-width="1" />
    <path d="M 397.797342429471,83.9999724558917 L 389.733794078774,76.8600013077725 C 389.775236491622,79.7077010176311 388.875339524303,82.2179393647448 387.034103176815,84.3907163491135 z" fill="#A0A0A0" stroke="#A0A0A0" stroke-width="1" stroke-linejoin="round" />
    <path d="M 210.018726947116,45.3616666666667 L 174.308671896604,77.1228978026801" fill="none" stroke="#A0A0A0" stroke-width="1" />
    <path d="M 167.583761281829,83.1041666666666 L 177.714225904462,79.4471615354702 C 175.194785802379,78.1191808567207 173.422557990828,76.1266147486394 172.397542469807,73.4694632112263 z" fill="#A0A0A0" stroke="#A0A0A0" stroke-width="1" stroke-linejoin="round" />
    <path d="M 519.693228963502,46.0283333333335 C 504.564409654501,60.0661407666028 497,93.5310018777138 497,146.422916666667 C 497,200.246805555556 530,234.092430555556 596,247.959791666666 L 610.718982825394,251.052419697393" fill="none" stroke="#A0A0A0" stroke-width="1" />
    <path d="M 619.526666666667,252.903015642536 L 610.562838374205,246.932271774034 C 610.993145187637,249.747577646834 610.44482046315,252.357261747952 608.917864200744,254.761324077388 z" fill="#A0A0A0" stroke="#A0A0A0" stroke-width="1" stroke-linejoin="round" />
    <path d="M 601.566666666667,32.8498056963213 L 692,45.3043749999999 C 790.666666666667,58.8928472222221 861.333333333333,84.0595138888889 904,120.804375 C 946.666666666667,157.549236111111 968,209.633680555555 968,277.057708333333 C 968,344.481736111111 886.666666666667,383.630486111111 724,394.503958333333 L 528.831626587102,407.550010917113" fill="none" stroke="#A0A0A0" stroke-width="1" />
    <path d="M 519.851666666667,408.150277380749 L 530.096185006545,411.474407941347 C 528.920554952086,408.88037534977 528.742698222119,406.219646484456 529.562614816646,403.492221345404 z" fill="#A0A0A0" stroke="#A0A0A0" stroke-width="1" stroke-linejoin="round" />
    <path d="M 487.817066976954,45.5557199411237 C 459.67096928558,55.9366652386711 441.968411143565,65.2179481163795 434.709392550909,73.3995685742486" fill="none" stroke="#A0A0A0" stroke-width="1" />
    <path d="M 430.85160388152,81.5308333333334 L 438.751931184879,74.2106674540788 C 435.91402436707,73.9710928215655 433.504760734749,72.8280443269317 431.524140287915,70.7815219701774 z" fill="#A0A0A0" stroke="#A0A0A0" stroke-width="1" stroke-linejoin="round" />
    <path d="M 870.474097137154,49.8433333333334 C 861.557834024341,64.1687842840547 813.566468311957,87.8224648396102 726.5,120.804375 L 634.926946565177,155.4934381957" fill="none" stroke="#A0A0A0" stroke-width="1" />
    <path d="M 626.510581600602,158.681666666667 L 637.279088659448,158.879797238737 C 635.399276709024,156.740307079341 634.45461642133,154.24656931206 634.445107796367,151.398583936893 z" fill="#A0A0A0" stroke="#A0A0A0" stroke-width="1" stroke-linejoin="round" />
    <path d="M 936.028333333333,45.3134062525789 C 978.676111111111,58.9189184099224 1000,117.794588547952 1000,221.940416666667 C 1000,326.109305555555 913.333333333333,383.630486111111 740,394.503958333333 L 528.834010137028,407.750732516332" fill="none" stroke="#A0A0A0" stroke-width="1" />
    <path d="M 519.851666666667,408.314209029113 L 530.082482306082,411.680276668406 C 528.917488138922,409.081450067497 528.750532135135,406.420014965167 529.581614294721,403.695971361418 z" fill="#A0A0A0" stroke="#A0A0A0" stroke-width="1" stroke-linejoin="round" />
    <path d="M 807.971666666667,31.3347912042725 L 668.5,45.3043749999999 C 548.195131451861,57.354198325291 476.513375431345,67.9274167957451 453.454731938452,77.0240304113621" fill="none" stroke="#A0A0A0" stroke-width="1" />
    <path d="M 445.664434933684,81.5308333333334 L 456.323344015414,79.9856287554848 C 454.122406445411,78.1781484861427 452.787057431494,75.8699123365815 452.317296973662,73.0609203068013 z" fill="#A0A0A0" stroke="#A0A0A0" stroke-width="1" stroke-linejoin="round" />
    <path d="M 909.469180699274,49.8433333333335 C 926.288661206805,67.5418124550724 930.390733026974,111.816067188816 921.77539615978,182.666097534564 L 910.217905539601,277.711546573064 C 908.439830059574,292.333923348218 890.669937843291,300.103393944437 856.908228890753,301.019958361721 L 637.457120699258,306.977627074071 C 477.947418948536,311.308003745522 380.932608898905,317.639890500177 346.412690550367,325.973287338036" fill="none" stroke="#A0A0A0" stroke-width="1" />
    <path d="M 337.800203687916,328.585770839247 L 348.5307373134,329.510783332324 C 346.799725143139,327.249211317658 346.025655957595,324.697363358413 346.208529756767,321.855239454589 z" fill="#A0A0A0" stroke="#A0A0A0" stroke-width="1" stroke-linejoin="round" />
    <path d="M 283.725780174824,211.315 C 266.330711801728,221.341927123714 249.368846118415,230.772581687991 232.840183124884,239.606963692834" fill="none" stroke="#A0A0A0" stroke-width="1" />
    <path d="M 224.891058605685,243.827321423911 L 235.599133729718,242.670979286803 C 233.465421307266,240.784611769752 232.214944942502,238.429315615915 231.847704635427,235.605090825292 z" fill="#A0A0A0" stroke="#A0A0A0" stroke-width="1" stroke-linejoin="round" />
    <path d="M 409.061516927493,211.315 C 441.991670413051,224.57229317194 493.63783143722,236.787223727496 564,247.959791666666 L 610.638024568809,255.365283974352" fill="none" stroke="#A0A0A0" stroke-width="1" />
    <path d="M 619.526666666667,256.776681032655 L 610.277685250514,251.257954479937 C 610.847120429298,254.048448108003 610.428928708319,256.682119840701 609.023110087579,259.158969678033 z" fill="#A0A0A0" stroke="#A0A0A0" stroke-width="1" stroke-linejoin="round" />
    <path d="M 307.488857362525,211.315 C 290.992623085562,231.572481997846 271.66300396472,267.462968108957 249.5,318.986458333333 L 220.77286002524,385.769937595437" fill="none" stroke="#A0A0A0" stroke-width="1" />
    <path d="M 217.216540033078,394.0375 L 224.842478870842,386.431906213668 C 221.997684085176,386.296799816498 219.548035965305,385.243075374376 217.49353451123,383.270732887302 z" fill="#A0A0A0" stroke="#A0A0A0" stroke-width="1" stroke-linejoin="round" />
    <path d="M 381.451409509899,211.315 C 394.483803169966,228.584543052842 401,253.385723608397 401,285.718541666667 C 401,324.758402777778 414.166666666667,355.367638888889 440.5,377.54625 L 458.516004950538,392.719793072424" fill="none" stroke="#A0A0A0" stroke-width="1" />
    <path d="M 465.399797101812,398.5175 L 460.32789779043,389.016140235461 C 459.374924495364,391.699972012976 457.657085405712,393.739614131872 455.174380521474,395.135066592149 z" fill="#A0A0A0" stroke="#A0A0A0" stroke-width="1" stroke-linejoin="round" />
    <path d="M 338.928460971493,211.315 C 335.810288380133,228.584543052842 329.834134722969,253.385723608397 321,285.718541666667 L 311.955883539308,318.819890150868" fill="none" stroke="#A0A0A0" stroke-width="1" />
    <path d="M 309.583805014106,327.501666666667 L 316.078015160241,318.909505438091 C 313.242072652759,319.171309191638 310.669694425856,318.468471110097 308.36088047953,316.800991193467 z" fill="#A0A0A0" stroke="#A0A0A0" stroke-width="1" stroke-linejoin="round" />
    <path d="M 429,108.840833333333 L 429,109.935208333333 C 429,116.673915189734 422.346409216631,125.114245273339 409.039227649892,135.256198584151" fill="none" stroke="#A0A0A0" stroke-width="1" />
    <path d="M 401.745079640257,140.528333333333 L 412.192859539488,137.912249394079 C 409.820284649771,136.336813104097 408.258170650013,134.175584064205 407.506517540215,131.428562274404 z" fill="#A0A0A0" stroke="#A0A0A0" stroke-width="1" stroke-linejoin="round" />
    <path d="M 401,41.4050000000001 L 401,45.3043750000001 C 401,56.3286233234786 404.071591758219,66.1169216299598 410.214775274656,74.6692699194437" fill="none" stroke="#A0A0A0" stroke-width="1" />
    <path d="M 416.038772829357,81.5308333333334 L 412.617248174751,71.3184306269218 C 411.231303187825,73.8064554668953 409.198247361487,75.532084371992 406.518080695738,76.4953173422121 z" fill="#A0A0A0" stroke="#A0A0A0" stroke-width="1" stroke-linejoin="round" />
    <path d="M 289.170817106282,361.055 L 289,361.236041666667 C 279.800283380407,370.98642361569 266.757287909781,380.57625569013 249.871013588122,390.005537889987" fill="none" stroke="#A0A0A0" stroke-width="1" />
    <path d="M 241.946669302295,394.272242430926 L 252.647809415854,393.053390401361 C 250.503117964558,391.17951482122 249.238909211687,388.831560958753 248.855183157241,386.009528813959 z" fill="#A0A0A0" stroke="#A0A0A0" stroke-width="1" stroke-linejoin="round" />
    <path d="M 320.829182893718,361.055 L 321,361.236041666667 C 331.666666666667,372.541180555556 360.833333333333,383.630486111111 408.5,394.503958333333 L 431.373737251227,399.721796374304" fill="none" stroke="#A0A0A0" stroke-width="1" />
    <path d="M 440.148333333333,401.723411621018 L 431.28838890731,395.599574199289 C 431.670272843332,398.421856213992 431.077201659121,401.021736534616 429.509175354675,403.399215161161 z" fill="#A0A0A0" stroke="#A0A0A0" stroke-width="1" stroke-linejoin="round" />
    <path d="M 480,360.153333333333 L 480,389.5175" fill="none" stroke="#A0A0A0" stroke-width="1" />
    <path d="M 480,398.5175 L 484,388.5175 C 481.333333333333,389.5175 478.666666666667,389.5175 476,388.5175 z" fill="#A0A0A0" stroke="#A0A0A0" stroke-width="1" stroke-linejoin="round" />
    <rect x="558.19166666666661" y="326.20666666666648" rx="3" ry="3" width="107.61666666666667" height="36.143333333333317" fill="#008000" stroke="#A5A6A9" stroke-width="1" />
    <text x="568.19166666666661" y="348.6866666666665" fill="#FFFFFF" font-size="16.61324772583615" font-family="Papyrus">AboutForm</text>
    <rect x="128.17499999999984" y="243.00249999999994" rx="3" ry="3" width="97.65" height="51.516666666666652" fill="#008000" stroke="#A5A6A9" stroke-width="1" />
    <text x="138.17499999999984" y="275.76249999999993" fill="#FFFFFF" font-size="26.381811916545839" font-family="Papyrus">Board</text>
    <rect x="15.158333333333303" y="256.67916666666656" rx="3" ry="3" width="67.683333333333337" height="24.163333333333355" fill="#008000" stroke="#A5A6A9" stroke-width="1" />
    <text x="25.158333333333303" y="271.14916666666659" fill="#FFFFFF" font-size="9" font-family="Papyrus">BoardData</text>
    <rect x="54.69500000000005" y="459.27833333333331" rx="3" ry="3" width="52.61" height="31.29000000000002" fill="#008000" stroke="#A5A6A9" stroke-width="1" />
    <text x="64.69500000000005" y="478.51166666666666" fill="#FFFFFF" font-size="13.527749258468683" font-family="Papyrus">Card</text>
    <rect x="80.018333333333317" y="398.68916666666667" rx="3" ry="3" width="65.963333333333338" height="24.25" fill="#008000" stroke="#A5A6A9" stroke-width="1" />
    <text x="90.018333333333317" y="413.21916666666664" fill="#FFFFFF" font-size="9.0553851381374173" font-family="Papyrus">CardArray</text>
    <rect x="21.911666666666633" y="522.25583333333327" rx="3" ry="3" width="118.17666666666668" height="33.813333333333389" fill="#008000" stroke="#A5A6A9" stroke-width="1" />
    <text x="31.911666666666633" y="543.17916666666656" fill="#FFFFFF" font-size="15.132745950421556" font-family="Papyrus">CardGraphics</text>
    <rect x="32" y="330.98833333333346" rx="3" ry="3" width="50" height="26.579999999999984" fill="#008000" stroke="#A5A6A9" stroke-width="1" />
    <text x="44" y="347.0750000000001" fill="#FFFFFF" font-size="10.535653752852738" font-family="Papyrus">Deck</text>
    <rect x="528.4516666666666" y="158.68166666666662" rx="3" ry="3" width="105.09666666666669" height="34.480000000000018" fill="#008000" stroke="#A5A6A9" stroke-width="1" />
    <text x="538.4516666666666" y="180.05166666666662" fill="#FFFFFF" font-size="15.556349186104045" font-family="Papyrus">GameClient</text>
    <rect x="815.25" y="163.83999999999969" rx="3" ry="3" width="89.5" height="24.163333333333327" fill="#008000" stroke="#A5A6A9" stroke-width="1" />
    <text x="825.25" y="178.30999999999969" fill="#FFFFFF" font-size="9" font-family="Papyrus">GameEventArgs</text>
    <rect x="696.21333333333337" y="329.1099999999999" rx="3" ry="3" width="101.57333333333338" height="30.336666666666645" fill="#008000" stroke="#A5A6A9" stroke-width="1" />
    <text x="706.21333333333337" y="347.70666666666659" fill="#FFFFFF" font-size="12.922847983320086" font-family="Papyrus">GameListener</text>
    <rect x="619.52666666666664" y="247.84749999999985" rx="3" ry="3" width="150.94666666666672" height="41.826666666666654" fill="#008000" stroke="#A5A6A9" stroke-width="1" />
    <text x="629.52666666666664" y="274.12749999999983" fill="#FFFFFF" font-size="20.223748416156685" font-family="Papyrus">GameNetwork</text>
    <rect x="663.70333333333338" y="157.17999999999984" rx="3" ry="3" width="120.59333333333336" height="37.483333333333348" fill="#008000" stroke="#A5A6A9" stroke-width="1" />
    <text x="673.70333333333338" y="180.5566666666665" fill="#FFFFFF" font-size="17.464249196572979" font-family="Papyrus">GameServer</text>
    <rect x="150.31333333333316" y="4.4816666666665661" rx="3" ry="3" width="165.37333333333333" height="40.879999999999995" fill="#008000" stroke="#A5A6A9" stroke-width="1" />
    <text x="160.31333333333316" y="30.128333333333234" fill="#FFFFFF" font-size="19.621416870348583" font-family="Papyrus">GameZoneForm</text>
    <rect x="486.43333333333345" y="3.8150000000000546" rx="3" ry="3" width="115.13333333333338" height="42.213333333333338" fill="#008000" stroke="#A5A6A9" stroke-width="1" />
    <text x="496.43333333333345" y="30.355000000000057" fill="#FFFFFF" font-size="20.46948949045872" font-family="Papyrus">HostForm</text>
    <rect x="286.38" y="83.060833333333335" rx="3" ry="3" width="81.240000000000009" height="24.25" fill="#008000" stroke="#A5A6A9" stroke-width="1" />
    <text x="296.38" y="97.590833333333336" fill="#FFFFFF" font-size="9.0553851381374173" font-family="Papyrus">InfiniteProgress</text>
    <rect x="807.97166666666669" rx="3" ry="3" width="128.05666666666673" height="49.843333333333334" fill="#008000" stroke="#A5A6A9" stroke-width="1" />
    <text x="817.97166666666669" y="31.64" fill="#FFFFFF" font-size="25.317977802344327" font-family="Papyrus">JoinForm</text>
    <rect x="176.2166666666667" y="394.0375" rx="3" ry="3" width="67.566666666666663" height="33.553333333333342" fill="#008000" stroke="#A5A6A9" stroke-width="1" />
    <text x="186.2166666666667" y="414.7875" fill="#FFFFFF" font-size="14.966629547095765" font-family="Papyrus">Players</text>
    <rect x="254.30499999999995" y="140.52833333333331" rx="3" ry="3" width="179.39" height="70.786666666666662" fill="#008000" stroke="#A5A6A9" stroke-width="1" />
    <text x="264.30499999999995" y="186.17166666666665" fill="#FFFFFF" font-size="38.626415831655933" font-family="Papyrus">SetForm</text>
    <rect x="440.14833333333331" y="398.51750000000015" rx="3" ry="3" width="79.703333333333376" height="24.593333333333362" fill="#008000" stroke="#A5A6A9" stroke-width="1" />
    <text x="450.14833333333331" y="413.27416666666682" fill="#FFFFFF" font-size="9.2736184954957039" font-family="Papyrus">SetResources</text>
    <rect x="397.75" y="81.530833333333362" rx="3" ry="3" width="62.5" height="27.310000000000002" fill="#008000" stroke="#A5A6A9" stroke-width="1" />
    <text x="407.75" y="98.1041666666667" fill="#FFFFFF" font-size="11" font-family="Papyrus">Settings</text>
    <rect x="346.03666666666663" y="8.4383333333332757" rx="3" ry="3" width="109.92666666666668" height="32.966666666666669" fill="#008000" stroke="#A5A6A9" stroke-width="1" />
    <text x="356.03666666666663" y="28.794999999999945" fill="#FFFFFF" font-size="14.594519519326424" font-family="Papyrus">SettingsForm</text>
    <rect x="271.50833333333333" y="327.50166666666667" rx="3" ry="3" width="66.983333333333348" height="33.553333333333342" fill="#008000" stroke="#A5A6A9" stroke-width="1" />
    <text x="281.50833333333333" y="348.25166666666667" fill="#FFFFFF" font-size="14.966629547095765" font-family="Papyrus">Status</text>
    <rect x="115.74333333333334" y="83.104166666666515" rx="3" ry="3" width="76.513333333333321" height="24.163333333333327" fill="#008000" stroke="#A5A6A9" stroke-width="1" />
    <text x="125.74333333333334" y="97.574166666666514" fill="#FFFFFF" font-size="9" font-family="Papyrus">UDDIQuery</text>
    <rect x="432.3366666666667" y="328.40333333333331" rx="3" ry="3" width="95.326666666666711" height="31.75" fill="#008000" stroke="#A5A6A9" stroke-width="1" />
    <text x="442.3366666666667" y="347.94666666666666" fill="#FFFFFF" font-size="13.820274961085254" font-family="Papyrus">WinnerForm</text>
    <rect x="800.82333333333327" y="251.87916666666649" rx="3" ry="3" width="104.35333333333335" height="33.763333333333321" fill="#008000" stroke="#A5A6A9" stroke-width="1" />
    <text x="810.82333333333327" y="272.76916666666648" fill="#FFFFFF" font-size="15.0996688705415" font-family="Papyrus">XmlMessage</text>
  </g>
</svg>