<?xml version="1.0" encoding="utf-8"?>
<svg stroke-linecap="round" font-size="12" font-family="Segoe UI" width="3071.4983333333325" height="630.1875" xmlns:xlink="http://www.w3.org/1999/xlink" xmlns="http://www.w3.org/2000/svg">
  <defs />
  <rect width="3071.4983333333325" height="630.1875" fill="#FFFFFF" />
  <g transform="translate(20,20)">
    <g id="G:Namespace:Microsoft.Windows.Themes-&gt;G:Namespace:System.Windows">
      <path d="M 925.573318632854,138.375 L 931,140.046875 C 961.666666666667,149.494791666667 1011.66666666667,158.942708333333 1081,168.390625 L 1111.75849320715,172.582024239617" fill="none" stroke="#A0A0A0" stroke-width="2.7297158093186491" />
      <path d="M 1120.67607881987,173.797206053128 L 1111.3077311673,168.483632654686 C 1111.93852014249,171.26090044514 1111.57846627182,173.903148034093 1110.22756955529,176.410375421544 z" fill="#A0A0A0" stroke="#A0A0A0" stroke-width="1" stroke-linejoin="round" />
    </g>
    <g id="G:Namespace:Microsoft.Windows.Themes-&gt;G:Namespace:System.Windows.Media">
      <path d="M 840.016538037488,138.375 L 834,140.046875 C 800,149.494791666667 758.333333333333,168.390625 709,196.734375 L 664.560429825333,222.266484469018" fill="none" stroke="#A0A0A0" stroke-width="2" />
      <path d="M 656.75670709298,226.75 L 667.420183698253,225.236637291066 C 665.224654348442,223.422591540478 663.896205302225,221.110377397558 663.434836559603,218.299994862308 z" fill="#A0A0A0" stroke="#A0A0A0" stroke-width="1" stroke-linejoin="round" />
    </g>
    <g id="G:Namespace:System.Collections.ObjectModel-&gt;G:Namespace:System.Collections.Specialized">
      <path d="M 1727.20617420066,195.0625 L 1632.39891103306,224.113239085477" fill="none" stroke="#A0A0A0" stroke-width="1.792481250360578" />
      <path d="M 1623.79382579934,226.75 L 1634.52692535437,227.64474797663 C 1632.78954227966,225.388066527511 1632.00827978647,222.838411643444 1632.1831378748,219.995783324431 z" fill="#A0A0A0" stroke="#A0A0A0" stroke-width="1" stroke-linejoin="round" />
    </g>
    <g id="G:Namespace:System.Collections.Specialized-&gt;G:Namespace:System.Windows">
      <path d="M 1540.66262403528,226.75 L 1535,225.078125 C 1503,215.630208333334 1436.66666666667,206.182291666667 1336,196.734375 L 1258.44728848484,189.455783387392" fill="none" stroke="#A0A0A0" stroke-width="1.5" />
      <path d="M 1249.48666666666,188.614797875276 L 1259.06914179259,193.531724807928 C 1258.3226980386,190.783282916011 1258.57187893108,188.128283858773 1259.81668447002,185.566727636214 z" fill="#A0A0A0" stroke="#A0A0A0" stroke-width="1" stroke-linejoin="round" />
    </g>
    <g id="G:Namespace:System.ComponentModel-&gt;G:Namespace:System.Windows">
      <path d="M 2084.1237273004,138.19081089913 C 2019.24283149873,144.32756684353 1863.6725879253,152.796341276162 1617.41299658012,163.597134197026 L 1258.47802273222,179.339799501595" fill="none" stroke="#A0A0A0" stroke-width="2.5" />
      <path d="M 1249.48666666666,179.734154801266 L 1259.65233131714,183.292140497434 C 1258.53644573958,180.671852252048 1258.41959972486,178.007746751142 1259.30179327298,175.299823994717 z" fill="#A0A0A0" stroke="#A0A0A0" stroke-width="1" stroke-linejoin="round" />
    </g>
    <g id="G:Namespace:System.ComponentModel-&gt;G:Namespace:System.Collections.Specialized">
      <path d="M 2083.54987181447,137.992304993243 C 2039.05033299281,142.49953741377 1967.67042973336,146.171839461015 1869.4101620361,149.009211134978 C 1749.1367206787,152.482237044993 1674.16666666667,158.942708333333 1644.5,168.390625 C 1614.83333333333,177.838541666667 1597.16666666667,192.010416666667 1591.5,210.90625 L 1589.3338808028,218.12930188183" fill="none" stroke="#A0A0A0" stroke-width="1.5" />
      <path d="M 1586.74862183021,226.75 L 1593.45255318561,218.320450523186 C 1590.61102126475,218.512303211103 1588.05674034085,217.746300552557 1585.7897104139,216.022442547547 z" fill="#A0A0A0" stroke="#A0A0A0" stroke-width="1" stroke-linejoin="round" />
    </g>
    <g id="G:Namespace:System.Diagnostics-&gt;G:Namespace:System.Windows">
      <path d="M 1298.80595369349,138.375000000001 L 1225.58383957115,166.804990371991" fill="none" stroke="#A0A0A0" stroke-width="1" />
      <path d="M 1217.1940463065,170.0625 L 1227.96382087967,170.171841864275 C 1226.06643359011,168.047922707493 1225.10124555218,165.562058036488 1225.06825676588,162.71424785126 z" fill="#A0A0A0" stroke="#A0A0A0" stroke-width="1" stroke-linejoin="round" />
    </g>
    <g id="G:Namespace:System.IO.Packaging-&gt;G:Namespace:System.Security.RightsManagement">
      <path d="M 2574,251.75 L 2574,274.4375" fill="none" stroke="#A0A0A0" stroke-width="2.292481250360578" />
      <path d="M 2574,283.4375 L 2578,273.4375 C 2575.33333333333,274.4375 2572.66666666667,274.4375 2570,273.4375 z" fill="#A0A0A0" stroke="#A0A0A0" stroke-width="1" stroke-linejoin="round" />
    </g>
    <g id="G:Namespace:System.Printing-&gt;G:Namespace:System.Windows.Xps">
      <path d="M 2641.46029628325,115.043072666872 C 2583.73627004101,109.645061331015 2387.60585930922,104.4221767278 2053.06906408791,99.3744188572267 C 1725.86984571296,94.4373761958811 1529.24161391793,88.8555257006919 1463.18436870282,82.6288673716598" fill="none" stroke="#A0A0A0" stroke-width="1" />
      <path d="M 1454.23373590555,81.6875000000006 L 1463.76049795956,86.7115227672978 C 1463.04490686998,83.9548870453295 1463.32383053566,81.3028476979901 1464.59726895659,78.7554047252795 z" fill="#A0A0A0" stroke="#A0A0A0" stroke-width="1" stroke-linejoin="round" />
    </g>
    <g id="G:Namespace:System.Printing-&gt;G:Namespace:System.Windows.Xps.Packaging">
      <path d="M 2701,138.375 L 2701,140.046875 C 2701,149.39815148012 2680.26413495761,158.74942796024 2638.79240487282,168.10070444036" fill="none" stroke="#A0A0A0" stroke-width="1" />
      <path d="M 2630.00882028666,170.0625 L 2640.64026785334,171.786542527581 C 2639.08304125202,169.401976230902 2638.50176849361,166.799432649818 2638.8964495781,163.97891178433 z" fill="#A0A0A0" stroke="#A0A0A0" stroke-width="1" stroke-linejoin="round" />
    </g>
    <g id="G:Namespace:System.Printing-&gt;G:Namespace:System.Printing.IndexedProperties">
      <path d="M 2752.598676957,138.375 L 2759.5,140.046875 C 2789.26757010388,147.258196069503 2807.6747782861,154.469517139006 2814.72162454666,161.680838208508" fill="none" stroke="#A0A0A0" stroke-width="1.5" />
      <path d="M 2818,170.0625 L 2818.08254362584,159.292486696859 C 2815.96335221948,161.195152956162 2813.47989687385,162.166523460855 2810.63217758896,162.206598210937 z" fill="#A0A0A0" stroke="#A0A0A0" stroke-width="1" stroke-linejoin="round" />
    </g>
    <g id="G:Namespace:System.Printing.IndexedProperties-&gt;G:Namespace:System.Printing">
      <path d="M 2783.60088202867,170.0625 L 2779,168.390625 C 2756.19094050326,160.102236793451 2738.38431557503,151.813848586902 2725.58012521533,143.525460380353" fill="none" stroke="#A0A0A0" stroke-width="2.292481250360578" />
      <path d="M 2718.19955898567,138.375 L 2724.11109462736,147.377985413575 C 2724.81709404787,144.618877599562 2726.34315638279,142.432043161144 2728.68928163211,140.817482098321 z" fill="#A0A0A0" stroke="#A0A0A0" stroke-width="1" stroke-linejoin="round" />
    </g>
    <g id="G:Namespace:System.Printing.Interop-&gt;G:Namespace:System.Printing">
      <path d="M 2701,81.6875 L 2701,104.375" fill="none" stroke="#A0A0A0" stroke-width="1" />
      <path d="M 2701,113.375 L 2705,103.375 C 2702.33333333333,104.375 2699.66666666667,104.375 2697,103.375 z" fill="#A0A0A0" stroke="#A0A0A0" stroke-width="1" stroke-linejoin="round" />
    </g>
    <g id="G:Namespace:System.Windows-&gt;G:Namespace:System.Windows.Media.Imaging">
      <path d="M 1164.61943144151,195.0625 L 1047.12115274389,267.127637903563 C 991.969613841445,300.953693064989 930.844613841445,318.668536814989 863.746152743889,320.272169153563 L 763.098461097556,322.677617661426 C 718.366153699185,323.746705887142 686.833333333333,336.091145833334 668.5,359.7109375 L 601.220723339455,446.390346493062" fill="none" stroke="#A0A0A0" stroke-width="1.5" />
      <path d="M 595.702315325248,453.500000000001 L 604.993725788562,448.053010776383 C 602.274005340483,447.207888421092 600.167441338427,445.572804565031 598.674033782393,443.147759208199 z" fill="#A0A0A0" stroke="#A0A0A0" stroke-width="1" stroke-linejoin="round" />
    </g>
    <g id="G:Namespace:System.Windows-&gt;G:Namespace:System.Windows.Input">
      <path d="M 1120.51333333333,186.745094870329 L 802.625,207.36328125 C 766.208333333333,209.725260416667 732.839537734601,211.321762764244 702.518613203801,212.152788292732 L 566.074452815205,215.892403170926 C 471.614586027695,218.481326890526 402.803265790382,221.919378737514 359.640492103266,226.206558711891" fill="none" stroke="#A0A0A0" stroke-width="3.8502198590705463" />
      <path d="M 350.689944018701,227.148731193909 L 361.053740771338,230.079894251473 C 359.780073211713,227.53256583553 359.500910994819,224.880551588251 360.216254120655,222.123851509637 z" fill="#A0A0A0" stroke="#A0A0A0" stroke-width="1" stroke-linejoin="round" />
    </g>
    <g id="G:Namespace:System.Windows-&gt;G:Namespace:System.Windows.Media.Animation">
      <path d="M 1185,195.0625 L 1185,225.078125 C 1185,250.487839483148 1178.57053347148,268.30442096972 1165.71160041443,278.527869459716" fill="none" stroke="#A0A0A0" stroke-width="2.5849625007211561" />
      <path d="M 1158.16868798236,283.4375 L 1168.73175981368,281.334760480605 C 1166.43895308707,279.645337968171 1164.9842477418,277.410400951261 1164.36764377787,274.629949429875 z" fill="#A0A0A0" stroke="#A0A0A0" stroke-width="1" stroke-linejoin="round" />
    </g>
    <g id="G:Namespace:System.Windows-&gt;G:Namespace:System.Windows.Threading">
      <path d="M 1249.48666666666,189.40817025593 L 1318.5,196.734375 C 1407.5,206.182291666667 1437.83333333333,258.145833333333 1409.5,352.625 L 1377.625,458.9140625 C 1370.54166666667,482.533854166667 1326.08333333333,495.524739583334 1244.25,497.88671875 L 486.5145867715,519.757455123417" fill="none" stroke="#A0A0A0" stroke-width="1.792481250360578" />
      <path d="M 477.518333333333,520.017116588171 L 487.629575582298,523.726938710963 C 486.553055136649,521.090233410553 486.476118406351,518.424676836281 487.398765391406,515.730268988148 z" fill="#A0A0A0" stroke="#A0A0A0" stroke-width="1" stroke-linejoin="round" />
    </g>
    <g id="G:Namespace:System.Windows-&gt;G:Namespace:System.Collections.Specialized">
      <path d="M 1249.48666666666,187.372484100877 L 1470,203.8203125 C 1533.33333333333,208.544270833334 1566.5,213.268229166667 1569.5,217.9921875 L 1570.23691072426,219.152566018926" fill="none" stroke="#A0A0A0" stroke-width="1" />
      <path d="M 1575.06174200662,226.75 L 1573.07745568447,216.16403722887 C 1571.36245649923,218.437776199317 1569.11136494928,219.867355838534 1566.32418103463,220.452776146521 z" fill="#A0A0A0" stroke="#A0A0A0" stroke-width="1" stroke-linejoin="round" />
    </g>
    <g id="G:Namespace:System.Windows-&gt;G:Namespace:System.Windows.Media">
      <path d="M 1120.51333333333,188.887046568628 L 1040.5,196.734375 C 944.166666666667,206.182291666667 852.5,215.630208333334 765.5,225.078125 L 726.094578351052,229.357425459243" fill="none" stroke="#A0A0A0" stroke-width="2.6609640474436813" />
      <path d="M 717.147183156271,230.32908343837 L 727.520581363418,233.226083548132 C 726.238527681293,230.682965488099 725.950629020811,228.031885430386 726.656885381972,225.272843374993 z" fill="#A0A0A0" stroke="#A0A0A0" stroke-width="1" stroke-linejoin="round" />
    </g>
    <g id="G:Namespace:System.Windows-&gt;G:Namespace:&lt;empty namespace&gt;">
      <path d="M 1249.47899225259,190.339421007061 L 1302.5,196.734375 C 1380.83333333333,206.182291666667 1393.33333333333,253.421875 1340,338.453125 L 1272.62241288205,445.875633524187" fill="none" stroke="#A0A0A0" stroke-width="1" />
      <path d="M 1267.84025480828,453.5 L 1276.54237110172,447.153885281882 C 1273.75194865624,446.584101386967 1271.49287710785,445.167165661407 1269.76515645655,442.9030781052 z" fill="#A0A0A0" stroke="#A0A0A0" stroke-width="1" stroke-linejoin="round" />
    </g>
    <g id="G:Namespace:System.Windows-&gt;G:Namespace:System.Windows.Media.Effects">
      <path d="M 1249.22320283267,191.664132026443 L 1285,196.734375 C 1351.66666666667,206.182291666667 1385,225.078125 1385,253.421875 C 1385,281.765625 1383.33333333333,300.661458333334 1380,310.109375 C 1376.66666666667,319.557291666667 1371.83333333333,329.005208333334 1365.5,338.453125 C 1359.16666666667,347.901041666667 1350.89482621208,355.198858276576 1340.68447863625,360.346574829727 C 1330.47413106042,365.494291382878 1314.47413106042,370.218249716212 1292.68447863625,374.518449829727 C 1270.89482621208,378.818649943242 1220.16666666667,385.692708333334 1140.5,395.140625 L 1128.58665748474,396.553465175385" fill="none" stroke="#A0A0A0" stroke-width="1.5" />
      <path d="M 1119.64928707272,397.61337560474 L 1130.05076994357,400.407861977467 C 1128.74368125205,397.87752005124 1128.42963371743,395.229410299529 1129.1086273397,392.463532722334 z" fill="#A0A0A0" stroke="#A0A0A0" stroke-width="1" stroke-linejoin="round" />
    </g>
    <g id="G:Namespace:System.Windows-&gt;G:Namespace:System.Windows.Media.Media3D">
      <path d="M 1227.77839029768,195.0625 L 1233.5,196.734375 C 1265.83333333333,206.182291666667 1286.83333333333,215.630208333334 1296.5,225.078125 C 1306.16666666667,234.526041666667 1311,253.421875 1311,281.765625 C 1311,310.109375 1284.66666666667,329.005208333334 1232,338.453125 L 1231.53885385878,338.535850385698" fill="none" stroke="#A0A0A0" stroke-width="1" />
      <path d="M 1222.6802646086,340.125 L 1233.22943027071,342.296428984188 C 1231.77428343127,339.848233978317 1231.30342428629,337.223466793079 1231.81685283577,334.422127428474 z" fill="#A0A0A0" stroke="#A0A0A0" stroke-width="1" stroke-linejoin="round" />
    </g>
    <g id="G:Namespace:System.Windows.Automation-&gt;G:Namespace:&lt;empty namespace&gt;">
      <path d="M 1928.21833333333,72.8812428088696 L 2204,83.3593750000001 C 2452.66666666667,92.8072916666667 2573.5,106.979166666667 2566.5,125.875 L 2563.875,132.9609375 C 2558.625,147.1328125 2470.5,164.84765625 2299.5,186.10546875 L 2214,196.734375 C 1986,225.078125 1770,277.041666666667 1566,352.625 L 1302.17696098679,450.373160287984" fill="none" stroke="#A0A0A0" stroke-width="3" />
      <path d="M 1293.73759647189,453.5 L 1304.50437469378,453.776562326605 C 1302.64019649968,451.623436512414 1301.71372547389,449.122884063555 1301.72496161643,446.274904980027 z" fill="#A0A0A0" stroke="#A0A0A0" stroke-width="1" stroke-linejoin="round" />
    </g>
    <g id="G:Namespace:System.Windows.Automation-&gt;G:Namespace:System.Windows.Automation.Provider">
      <path d="M 1813.80044101433,81.6875000000001 L 1811.5,83.3593750000001 C 1798.53578946249,92.7812812159636 1768.3335527854,102.203187431927 1720.89328996872,111.625093647891" fill="none" stroke="#A0A0A0" stroke-width="1.5" />
      <path d="M 1712.06504961411,113.375000000001 L 1722.65194172018,115.354321988596 C 1721.15253535422,112.932981107834 1720.63404458323,110.317206187948 1721.09646940719,107.506997228939 z" fill="#A0A0A0" stroke="#A0A0A0" stroke-width="1" stroke-linejoin="round" />
    </g>
    <g id="G:Namespace:System.Windows.Automation-&gt;G:Namespace:System.Windows">
      <path d="M 1924.90020480376,81.3961418803055 L 1940,83.3593750000001 C 2012.66666666667,92.8072916666669 2044.0223444713,106.430930282834 2034.0670334139,124.230290848502 L 2026.60055012085,137.579811272752 C 2021.62289459215,146.479491555586 1986.247508272,151.083090796967 1920.47439116041,151.390608996893 L 1772.48487765932,152.082524946727 C 1673.82520199193,152.543802246617 1569.55844363845,156.497948284491 1459.68460259889,163.944963060351 L 1258.46606534123,177.583126666511" fill="none" stroke="#A0A0A0" stroke-width="2.1609640474436809" />
      <path d="M 1249.48666666666,178.191731171233 L 1259.73426719606,181.506347799127 C 1258.55622897156,178.913407951632 1258.3759017109,176.25284538139 1259.19328541409,173.5246600884 z" fill="#A0A0A0" stroke="#A0A0A0" stroke-width="1" stroke-linejoin="round" />
    </g>
    <g id="G:Namespace:System.Windows.Automation-&gt;G:Namespace:System.Windows.Automation.Text">
      <path d="M 1865.39911797133,81.6875000000001 L 1870,83.3593750000001 C 1889.57258465684,90.4716884149647 1901.77812950312,97.5840018299292 1906.61663453884,104.696315244894" fill="none" stroke="#A0A0A0" stroke-width="1" />
      <path d="M 1909,113.375000000001 L 1910.20900937875,102.672743400475 C 1907.90236561367,104.343224065462 1905.330903464,105.049406424325 1902.49462292977,104.791290477066 z" fill="#A0A0A0" stroke="#A0A0A0" stroke-width="1" stroke-linejoin="round" />
    </g>
    <g id="G:Namespace:System.Windows.Automation.Peers-&gt;G:Namespace:System.Windows.Automation">
      <path d="M 1570.64939360529,25.0000000000001 L 1748.47749807671,55.181528958753" fill="none" stroke="#A0A0A0" stroke-width="1.5" />
      <path d="M 1757.35060639471,56.6875000000001 L 1748.16091761526,51.0705951461709 C 1748.70060489764,53.8669943931237 1748.25439125578,56.4960635243823 1746.82227668971,58.9578025399469 z" fill="#A0A0A0" stroke="#A0A0A0" stroke-width="1" stroke-linejoin="round" />
    </g>
    <g id="G:Namespace:System.Windows.Automation.Peers-&gt;G:Namespace:System.Windows">
      <path d="M 1497,25.0000000000001 L 1497,83.3593750000001 C 1497,130.598958333333 1445,158.942708333333 1341,168.390625 L 1258.44975701695,175.889930928048" fill="none" stroke="#A0A0A0" stroke-width="2.292481250360578" />
      <path d="M 1249.48666666666,176.704186030983 L 1259.80754710162,179.78305385007 C 1258.57038740257,177.217796165127 1258.32912663133,174.562065690969 1259.0837647879,171.815862427596 z" fill="#A0A0A0" stroke="#A0A0A0" stroke-width="1" stroke-linejoin="round" />
    </g>
    <g id="G:Namespace:System.Windows.Automation.Peers-&gt;G:Namespace:System.Windows.Threading">
      <path d="M 1384.43333333333,14.6327282475493 L 281.5,35.5292968750003 C 94.5,39.0722656250003 1,69.1875000000003 1,125.875 L 1,267.59375 C 1,418.760416666667 65,499.067708333334 193,508.515625 L 283.506083790721,515.196046386571" fill="none" stroke="#A0A0A0" stroke-width="1" />
      <path d="M 292.481666666667,515.858550754124 L 282.803243190083,511.133286845312 C 283.604232585914,513.86633040495 283.407934995528,516.525762368193 282.214350418926,519.111582735041 z" fill="#A0A0A0" stroke="#A0A0A0" stroke-width="1" stroke-linejoin="round" />
    </g>
    <g id="G:Namespace:System.Windows.Automation.Peers-&gt;G:Namespace:System.Windows.Forms.Integration">
      <path d="M 1384.43333333333,18.9455787037039 L 628.551948612813,62.227423144456" fill="none" stroke="#A0A0A0" stroke-width="1" />
      <path d="M 619.566666666666,62.7419212962966 L 629.778979118758,66.1637153258723 C 628.628170561234,63.5585760253666 628.475726664392,60.8962702635454 629.321647428233,58.1767980404085 z" fill="#A0A0A0" stroke="#A0A0A0" stroke-width="1" stroke-linejoin="round" />
    </g>
    <g id="G:Namespace:System.Windows.Automation.Provider-&gt;G:Namespace:System.Windows.Automation">
      <path d="M 1677.66593164278,113.375000000001 L 1681.5,111.703125 C 1702.82373698218,102.404745460176 1732.54196797454,93.1063659203526 1770.65469297708,83.8079863805286" fill="none" stroke="#A0A0A0" stroke-width="2" />
      <path d="M 1779.401323043,81.6875000000001 L 1768.74040680063,80.1562048379579 C 1770.34054684663,82.5121893337262 1770.96883910753,85.1037834273311 1770.62528358333,87.9309871187725 z" fill="#A0A0A0" stroke="#A0A0A0" stroke-width="1" stroke-linejoin="round" />
    </g>
    <g id="G:Namespace:System.Windows.Automation.Provider-&gt;G:Namespace:System.Windows">
      <path d="M 1596.0782800441,138.375000000001 L 1589,140.046875 C 1549,149.494791666667 1471.66666666667,158.942708333333 1357,168.390625 L 1258.4562714097,176.510098276835" fill="none" stroke="#A0A0A0" stroke-width="1.5" />
      <path d="M 1249.48666666666,177.249145469962 L 1259.7813595781,180.414472918949 C 1258.56575988276,177.838928609137 1258.34678293665,175.181267944533 1259.12442873976,172.441490925138 z" fill="#A0A0A0" stroke="#A0A0A0" stroke-width="1" stroke-linejoin="round" />
    </g>
    <g id="G:Namespace:System.Windows.Automation.Text-&gt;G:Namespace:System.Windows.Automation">
      <path d="M 1874.60088202867,113.375000000001 L 1870,111.703125 C 1850.42741534316,104.590811585036 1838.22187049688,97.4784981700714 1833.38336546117,90.3661847551072" fill="none" stroke="#A0A0A0" stroke-width="1.792481250360578" />
      <path d="M 1831,81.6875000000001 L 1829.79099062125,92.3897565995256 C 1832.09763438633,90.719275934539 1834.669096536,90.0130935756753 1837.50537707023,90.2712095229344 z" fill="#A0A0A0" stroke="#A0A0A0" stroke-width="1" stroke-linejoin="round" />
    </g>
    <g id="G:Namespace:System.Windows.Automation.Text-&gt;G:Namespace:System.Windows">
      <path d="M 1802.06039241881,137.420800685001 C 1741.07946712229,142.949531467719 1632.91856368665,151.159306150353 1477.57768211189,162.050124732902 L 1258.46462905063,177.411956632962" fill="none" stroke="#A0A0A0" stroke-width="1" />
      <path d="M 1249.48666666666,178.04139402622 L 1259.74193037919,181.332224648809 C 1258.55787903482,178.742025134291 1258.37137906645,176.081888131633 1259.18243047407,173.351813640836 z" fill="#A0A0A0" stroke="#A0A0A0" stroke-width="1" stroke-linejoin="round" />
    </g>
    <g id="G:Namespace:System.Windows.Converters-&gt;G:Namespace:System.Windows.Markup">
      <path d="M 1654.11669819576,477.002459454995 C 1602.70389668575,482.442306422494 1513.95663285428,490.741568078265 1387.87490670133,501.900244422309 L 1248.18158846687,514.263594553739" fill="none" stroke="#A0A0A0" stroke-width="2.6609640474436813" />
      <path d="M 1239.2166306672,515.057024859438 L 1249.53033058048,518.159861319629 C 1248.29913369735,515.591736449987 1248.0640432364,512.93545265749 1248.82505919764,510.191009942138 z" fill="#A0A0A0" stroke="#A0A0A0" stroke-width="1" stroke-linejoin="round" />
    </g>
    <g id="G:Namespace:System.Windows.Documents-&gt;G:Namespace:System.Windows.Media">
      <path d="M 652.32855567806,138.375 L 650.5,140.046875 C 640.166666666667,149.494791666667 635,168.390625 635,196.734375 L 635,217.75" fill="none" stroke="#A0A0A0" stroke-width="1" />
      <path d="M 635,226.75 L 639,216.75 C 636.333333333333,217.75 633.666666666667,217.75 631,216.75 z" fill="#A0A0A0" stroke="#A0A0A0" stroke-width="1" stroke-linejoin="round" />
    </g>
    <g id="G:Namespace:System.Windows.Documents-&gt;G:Namespace:System.Windows">
      <path d="M 761.04318132627,136.256041120295 L 1111.56654264606,174.541769530344" fill="none" stroke="#A0A0A0" stroke-width="1.792481250360578" />
      <path d="M 1120.51333333333,175.518978002569 L 1111.00676966846,170.456839394644 C 1111.71131427157,173.216319058156 1111.42177102054,175.867220002532 1110.13813991537,178.409542227772 z" fill="#A0A0A0" stroke="#A0A0A0" stroke-width="1" stroke-linejoin="round" />
    </g>
    <g id="G:Namespace:System.Windows.Forms.Integration-&gt;G:Namespace:System.Windows">
      <path d="M 619.566666666666,72.6330307325417 L 970,83.3593750000002 C 1278.66666666667,92.807291666667 1433,106.979166666667 1433,125.875 C 1433,144.770833333333 1391.66666666667,158.942708333333 1309,168.390625 L 1258.42845708881,174.170411973344" fill="none" stroke="#A0A0A0" stroke-width="2.1609640474436809" />
      <path d="M 1249.48666666666,175.192363071237 L 1259.87618984589,178.030990927863 C 1258.57985725146,175.495121665513 1258.27705692616,172.845702281174 1258.96778886998,170.082732774848 z" fill="#A0A0A0" stroke="#A0A0A0" stroke-width="1" stroke-linejoin="round" />
    </g>
    <g id="G:Namespace:System.Windows.Forms.Integration-&gt;G:Namespace:System.Windows.Input">
      <path d="M 398.540490243988,81.6071373055144 C 354.705684385434,85.6114898437047 298.742431919635,89.0456820158134 230.65073284659,91.9097138218407 C 141.550244282197,95.6574046072805 97,111.703125 97,140.046875 C 97,168.390625 126.5,192.010416666667 185.5,210.90625 L 226.399082144464,224.004932028612" fill="none" stroke="#A0A0A0" stroke-width="1" />
      <path d="M 234.970231532525,226.75 L 226.666762421963,219.890524748209 C 226.805758880966,222.73513211927 225.992405407962,225.274731937954 224.226702002951,227.509324204263 z" fill="#A0A0A0" stroke="#A0A0A0" stroke-width="1" stroke-linejoin="round" />
    </g>
    <g id="G:Namespace:System.Windows.Forms.Integration-&gt;G:Namespace:System.Windows.Interop">
      <path d="M 413.06394707828,81.6875000000003 L 400.5,83.3593750000003 C 332.656251141599,92.3872916981475 284.899991611021,101.415208396294 257.231221408268,110.443125094441" fill="none" stroke="#A0A0A0" stroke-width="1" />
      <path d="M 248.722160970231,113.375 L 259.479728081631,113.899165855173 C 257.665573246128,111.703726640817 256.796869570407,109.182523548066 256.873617054468,106.335556576919 z" fill="#A0A0A0" stroke="#A0A0A0" stroke-width="1" stroke-linejoin="round" />
    </g>
    <g id="G:Namespace:System.Windows.Forms.Integration-&gt;G:Namespace:System.Windows.Media">
      <path d="M 507,81.6875000000002 L 507,140.046875 C 507,186.828237473898 527.921476691767,215.0785654171 569.7644300753,224.797858829606" fill="none" stroke="#A0A0A0" stroke-width="1.5" />
      <path d="M 578.550165380375,226.75 L 569.655855561577,220.676183008417 C 570.053636174617,223.496268414039 569.475223975982,226.099449245173 567.920618965671,228.485725501818 z" fill="#A0A0A0" stroke="#A0A0A0" stroke-width="1" stroke-linejoin="round" />
    </g>
    <g id="G:Namespace:System.Windows.Ink-&gt;G:Namespace:System.Windows.Media">
      <path d="M 420.081587651599,138.375 L 422.5,140.046875 C 436.166666666667,149.494791666667 475,168.390625 539,196.734375 L 598.545980689167,223.105568596228" fill="none" stroke="#A0A0A0" stroke-width="2.4036774610288019" />
      <path d="M 606.775082690187,226.75 L 599.251383312952,219.043253106466 C 599.085896452689,221.886442373854 598.006064925645,224.324694818601 596.011888731822,226.358010440707 z" fill="#A0A0A0" stroke="#A0A0A0" stroke-width="1" stroke-linejoin="round" />
    </g>
    <g id="G:Namespace:System.Windows.Ink-&gt;G:Namespace:System.Windows">
      <path d="M 474.914602046355,136.156956476375 L 502.5,140.046875 C 569.5,149.494791666667 700,158.942708333333 894,168.390625 L 1111.52398725434,178.984173992681" fill="none" stroke="#A0A0A0" stroke-width="2.292481250360578" />
      <path d="M 1120.51333333333,179.421960552692 L 1110.71974282779,174.940266117572 C 1111.58884452249,177.652419018016 1111.45912998619,180.315928967346 1110.33059921889,182.930795965565 z" fill="#A0A0A0" stroke="#A0A0A0" stroke-width="1" stroke-linejoin="round" />
    </g>
    <g id="G:Namespace:System.Windows.Ink-&gt;G:Namespace:System.Windows.Input">
      <path d="M 402,138.375 L 402,154.21875 C 402,173.114583333334 396.666666666667,187.286458333334 386,196.734375 C 375.666413055307,205.887268905114 355.321918065908,215.040162810228 324.966515031802,224.193056715342" fill="none" stroke="#A0A0A0" stroke-width="1.792481250360578" />
      <path d="M 316.337375964719,226.75 L 327.061727499103,227.744124824639 C 325.345321444344,225.471447688243 324.58770861926,222.914665742441 324.788889023851,220.073778987233 z" fill="#A0A0A0" stroke="#A0A0A0" stroke-width="1" stroke-linejoin="round" />
    </g>
    <g id="G:Namespace:System.Windows.Ink-&gt;G:Namespace:System.Collections.Specialized">
      <path d="M 434.194046306505,138.375 L 438.5,140.046875 C 462.833333333333,149.494791666667 614.833333333333,163.666666666667 894.5,182.5625 C 1174.16666666667,201.458333333334 1358.83333333333,215.630208333334 1448.5,225.078125 L 1475.1760202448,227.888899902653" fill="none" stroke="#A0A0A0" stroke-width="1" />
      <path d="M 1484.1264724173,228.831983095085 L 1474.60067364449,223.806134137939 C 1475.31573627331,226.562906988209 1475.03630421629,229.214892817097 1473.76237747344,231.762091624603 z" fill="#A0A0A0" stroke="#A0A0A0" stroke-width="1" stroke-linejoin="round" />
    </g>
    <g id="G:Namespace:System.Windows.Input-&gt;G:Namespace:System.Windows">
      <path d="M 351.723197528745,227.742418173887 C 390.479124825664,223.36026418951 448.933571833347,219.627574964816 527.086538551793,216.544350499805 C 622.362179517264,212.785616833268 755.833333333333,206.182291666667 927.5,196.734375 L 1111.52693297388,186.606193676741" fill="none" stroke="#A0A0A0" stroke-width="3.9164450070823711" />
      <path d="M 1120.51333333333,186.111614482201 L 1110.3086310697,182.667191205268 C 1111.45366198209,185.274875104971 1111.60020396566,187.937512248512 1110.7482570204,190.65510263589 z" fill="#A0A0A0" stroke="#A0A0A0" stroke-width="1" stroke-linejoin="round" />
    </g>
    <g id="G:Namespace:System.Windows.Input-&gt;G:Namespace:System.Windows.Threading">
      <path d="M 294.727673649394,251.75 L 297.5,253.421875 C 313.166666666667,262.869791666667 331.666666666667,310.109375 353,395.140625 L 379.673781178959,501.45804480656" fill="none" stroke="#A0A0A0" stroke-width="2.292481250360578" />
      <path d="M 381.863898076688,510.1875 L 383.31019272074,499.514720052743 C 380.967033800209,501.133583043934 378.380528557708,501.782506569187 375.550676993237,501.461490628502 z" fill="#A0A0A0" stroke="#A0A0A0" stroke-width="1" stroke-linejoin="round" />
    </g>
    <g id="G:Namespace:System.Windows.Input-&gt;G:Namespace:System.Windows.Markup">
      <path d="M 308.8401323043,251.75 L 313.5,253.421875 C 339.833333333333,262.869791666667 363.666666666667,305.385416666667 385,380.96875 L 401,437.65625 C 411.666666666667,475.447916666667 478.333333333333,496.705729166667 601,501.4296875 L 1057.78833302672,519.020848253025" fill="none" stroke="#A0A0A0" stroke-width="2.792481250360578" />
      <path d="M 1066.78166666667,519.367186296988 L 1056.94300175294,514.985329074833 C 1057.83964236657,517.688502528589 1057.73702368688,520.353193977461 1056.63514571386,522.979403421448 z" fill="#A0A0A0" stroke="#A0A0A0" stroke-width="1" stroke-linejoin="round" />
    </g>
    <g id="G:Namespace:System.Windows.Input.StylusPlugIns-&gt;G:Namespace:System.Windows.Ink">
      <path d="M 281.958103638367,81.6874999999999 L 359.595930809077,110.266034595712" fill="none" stroke="#A0A0A0" stroke-width="1" />
      <path d="M 368.041896361632,113.375 L 360.039252594033,106.166831527433 C 360.056518276379,109.014780439778 359.135343341775,111.517288751646 357.275727790221,113.674356463037 z" fill="#A0A0A0" stroke="#A0A0A0" stroke-width="1" stroke-linejoin="round" />
    </g>
    <g id="G:Namespace:System.Windows.Input.StylusPlugIns-&gt;G:Namespace:System.Windows.Input">
      <path d="M 153.181918412352,81.6874999999999 L 140.5,83.3593750000003 C 68.8333333333335,92.8072916666671 33,116.427083333334 33,154.21875 C 33,192.010416666667 73.166666666667,215.630208333334 153.5,225.078125 L 185.677664133875,228.862505364293" fill="none" stroke="#A0A0A0" stroke-width="1.792481250360578" />
      <path d="M 194.616059123598,229.913740355953 L 185.151724686866,224.773081480898 C 185.833402651158,227.538298699149 185.521925616592,230.186712029437 184.217293583168,232.718321471763 z" fill="#A0A0A0" stroke="#A0A0A0" stroke-width="1" stroke-linejoin="round" />
    </g>
    <g id="G:Namespace:System.Windows.Input.StylusPlugIns-&gt;G:Namespace:System.Windows.Media">
      <path d="M 167.294377067258,81.6874999999999 L 156.5,83.3593750000003 C 95.5,92.8072916666671 84.3333333333335,111.703125 123,140.046875 C 161.666666666667,168.390625 256.666666666667,192.010416666667 408,210.90625 L 544.498207148456,227.949734840811" fill="none" stroke="#A0A0A0" stroke-width="1" />
      <path d="M 553.428859272527,229.064836916325 L 544.001513390454,223.856655888389 C 544.663407455939,226.626675266874 544.333006840972,229.272794414747 543.010311545552,231.795013332008 z" fill="#A0A0A0" stroke="#A0A0A0" stroke-width="1" stroke-linejoin="round" />
    </g>
    <g id="G:Namespace:System.Windows.Input.StylusPlugIns-&gt;G:Namespace:System.Windows">
      <path d="M 334.453830634927,81.6874999999999 C 390.855851899586,87.907533311999 513.157788925451,92.0565402847459 701.359641712524,94.1345209182409 C 906.453213904174,96.3990069727472 1009,106.979166666667 1009,125.875 C 1009,144.770833333333 1038.33333333333,158.942708333333 1097,168.390625 L 1112.4534641835,170.879313212791" fill="none" stroke="#A0A0A0" stroke-width="1.5" />
      <path d="M 1121.33897803213,172.310272207945 L 1112.10216664261,166.771200502827 C 1112.66545810871,169.562940790772 1112.24147025829,172.19568563481 1110.83020309136,174.669435034942 z" fill="#A0A0A0" stroke="#A0A0A0" stroke-width="1" stroke-linejoin="round" />
    </g>
    <g id="G:Namespace:System.Windows.Interop-&gt;G:Namespace:System.Windows.Input">
      <path d="M 213,138.375 L 213,168.390625 C 213,194.576577919449 221.677622087313,212.698388181939 239.032866261938,222.756055787468" fill="none" stroke="#A0A0A0" stroke-width="1.792481250360578" />
      <path d="M 247.098125689085,226.75 L 239.911812642269,218.727724462899 C 239.624561700831,221.561202539002 238.441170823044,223.950909035934 236.361640008907,225.896843953697 z" fill="#A0A0A0" stroke="#A0A0A0" stroke-width="1" stroke-linejoin="round" />
    </g>
    <g id="G:Namespace:System.Windows.Interop-&gt;G:Namespace:System.Windows">
      <path d="M 295.562847601279,137.714030865569 C 359.453151572659,143.670732133071 513.012017834977,152.152553943454 756.239446388233,163.159496296718 L 1111.52253474334,179.237372446933" fill="none" stroke="#A0A0A0" stroke-width="1.792481250360578" />
      <path d="M 1120.51333333333,179.644239396021 L 1110.70438687738,175.196254523706 C 1111.58281132839,177.905402285453 1111.46225815829,180.569342608413 1110.34272736708,183.188075492585 z" fill="#A0A0A0" stroke="#A0A0A0" stroke-width="1" stroke-linejoin="round" />
    </g>
    <g id="G:Namespace:System.Windows.Interop-&gt;G:Namespace:System.Windows.Media">
      <path d="M 282.239250275634,138.375 L 291.5,140.046875 C 343.833333333333,149.494791666667 375.333333333333,163.666666666667 386,182.5625 C 396.666666666667,201.458333333334 440.833333333333,215.630208333334 518.5,225.078125 L 544.348673116132,228.22253842762" fill="none" stroke="#A0A0A0" stroke-width="2.292481250360578" />
      <path d="M 553.28281221609,229.309349608369 L 543.839018185358,224.131053140889 C 544.509682179946,226.898962264663 544.187664052317,229.546114590577 542.87296380247,232.072510118629 z" fill="#A0A0A0" stroke="#A0A0A0" stroke-width="1" stroke-linejoin="round" />
    </g>
    <g id="G:Namespace:System.Windows.Interop-&gt;G:Namespace:System.Windows.Media.Imaging">
      <path d="M 268.126791620728,138.375 L 275.5,140.046875 C 317.166666666667,149.494791666667 351.166666666667,192.010416666667 377.5,267.59375 C 403.833333333333,343.177083333334 445.166666666667,395.140625 501.5,423.484375 L 553.116482350691,449.45487212948" fill="none" stroke="#A0A0A0" stroke-width="1.792481250360578" />
      <path d="M 561.156192576261,453.500000000001 L 554.021015823637,445.432208932503 C 553.715760553731,448.263803947915 552.517204147651,450.645940311046 550.425346605396,452.578618021898 z" fill="#A0A0A0" stroke="#A0A0A0" stroke-width="1" stroke-linejoin="round" />
    </g>
    <g id="G:Namespace:System.Windows.Markup.Primitives-&gt;G:Namespace:System.Windows.Markup">
      <path d="M 2413.55861815509,138.375 L 2102.375,338.453125 C 1970.125,423.484375 1904,469.54296875 1904,476.62890625 L 1904,480.171875 C 1904,489.619791666667 1778.83333333333,499.067708333333 1528.5,508.515625 L 1248.21193033189,519.094073701273" fill="none" stroke="#A0A0A0" stroke-width="1" />
      <path d="M 1239.21833333333,519.433504147248 L 1249.36207686327,523.053513428854 C 1248.26221632388,520.426458441799 1248.16164433989,517.761688960747 1249.06036091129,515.059204985697 z" fill="#A0A0A0" stroke="#A0A0A0" stroke-width="1" stroke-linejoin="round" />
    </g>
    <g id="G:Namespace:System.Windows.Markup.Primitives-&gt;G:Namespace:System.Windows">
      <path d="M 2325.37137234215,138.375 C 2241.74184163559,144.426704134281 2045.74657618924,152.786209051569 1737.3855760031,163.453514751862 L 1258.48128627956,180.020520490524" fill="none" stroke="#A0A0A0" stroke-width="1" />
      <path d="M 1249.48666666666,180.33167643116 L 1259.61897998794,183.983556325071 C 1258.52738345595,181.353056729471 1258.43518910316,178.687984251577 1259.34239692959,175.98833889139 z" fill="#A0A0A0" stroke="#A0A0A0" stroke-width="1" stroke-linejoin="round" />
    </g>
    <g id="G:Namespace:System.Windows.Media-&gt;G:Namespace:System.Windows">
      <path d="M 713.970494706202,227.018743391646 L 726.5,225.078125 C 787.5,215.630208333334 879.166666666667,206.182291666667 1001.5,196.734375 L 1111.54005462786,188.235879636626" fill="none" stroke="#A0A0A0" stroke-width="4.4886399617499588" />
      <path d="M 1120.51333333333,187.542865009083 L 1110.21620412384,184.081162805955 C 1111.43111478228,186.825306817975 1111.64899447344,189.646452455277 1110.86984319733,192.544599717862 z" fill="#A0A0A0" stroke="#A0A0A0" stroke-width="1" stroke-linejoin="round" />
    </g>
    <g id="G:Namespace:System.Windows.Media-&gt;G:Namespace:System.Windows.Media.Animation">
      <path d="M 717.353333333333,244.542975718065 L 965.75,260.5078125 C 1039.25,265.231770833334 1081.08333333333,269.955729166667 1091.25,274.6796875 L 1101.9361861084,279.645041393605" fill="none" stroke="#A0A0A0" stroke-width="3.3219280948873622" />
      <path d="M 1110.09812568909,283.4375 L 1102.71484109116,275.596128401479 C 1102.49803182786,278.43586515943 1101.37434038893,280.854217627781 1099.34376677437,282.851185806533 z" fill="#A0A0A0" stroke="#A0A0A0" stroke-width="1" stroke-linejoin="round" />
    </g>
    <g id="G:Namespace:System.Windows.Media-&gt;G:Namespace:System.Windows.Threading">
      <path d="M 553.700405551608,249.820345780489 L 526,253.421875 C 453.333333333333,262.869791666667 411.666666666667,310.109375 401,395.140625 L 387.68826806916,501.257488038527" fill="none" stroke="#A0A0A0" stroke-width="1.792481250360578" />
      <path d="M 386.568050961656,510.1875 L 391.781630841759,500.763138757254 C 389.011232804193,501.423446128527 386.365303334127,501.091529948526 383.843842431561,499.767390217251 z" fill="#A0A0A0" stroke="#A0A0A0" stroke-width="1" stroke-linejoin="round" />
    </g>
    <g id="G:Namespace:System.Windows.Media-&gt;G:Namespace:System.Windows.Media.Effects">
      <path d="M 630.4796030871,251.75 L 614.5,295.9375 C 600.833333333333,333.729166666667 665.166666666667,362.072916666667 807.5,380.96875 L 917.921717338013,395.628073422948" fill="none" stroke="#A0A0A0" stroke-width="2.5" />
      <path d="M 926.843439911797,396.8125 L 917.456826641838,391.531260437149 C 918.097187942021,394.30633674535 917.746246734005,396.949810100545 916.404003017792,399.461680502735 z" fill="#A0A0A0" stroke="#A0A0A0" stroke-width="1" stroke-linejoin="round" />
    </g>
    <g id="G:Namespace:System.Windows.Media-&gt;G:Namespace:&lt;empty namespace&gt;">
      <path d="M 581.19625137817,251.75 L 574,253.421875 C 533.333333333333,262.869791666667 575.666666666667,295.9375 701,352.625 C 826.333333333333,409.3125 933.138572646858,439.573830755057 1021.41571794057,443.40899226517 C 1088.24970502228,446.312565256462 1139.92637836729,449.725587200043 1176.44573797558,453.648058095911" fill="none" stroke="#A0A0A0" stroke-width="2.8502198590705463" />
      <path d="M 1185.38928004837,454.654564525208 L 1175.89934726941,449.561316460305 C 1176.59485003918,452.323088899942 1176.29662591198,454.973027291881 1175.00467488781,457.511131636119 z" fill="#A0A0A0" stroke="#A0A0A0" stroke-width="1" stroke-linejoin="round" />
    </g>
    <g id="G:Namespace:System.Windows.Media-&gt;G:Namespace:System.Windows.Markup">
      <path d="M 567.083792723263,251.75 L 558,253.421875 C 506.666666666667,262.869791666667 593,310.109375 817,395.140625 L 1111.65677111187,506.993453431278" fill="none" stroke="#A0A0A0" stroke-width="2.5849625007211561" />
      <path d="M 1120.07092980522,510.1875 L 1112.14144084315,502.898933282155 C 1112.12996319613,505.746911402634 1111.18357902762,508.239995459922 1109.30228833762,510.378185454019 z" fill="#A0A0A0" stroke="#A0A0A0" stroke-width="1" stroke-linejoin="round" />
    </g>
    <g id="G:Namespace:System.Windows.Media-&gt;G:Namespace:System.Windows.Media.TextFormatting">
      <path d="M 706.885336273429,251.75 L 716.5,253.421875 C 760.436480886593,261.061903405702 787.807247127729,268.701931811403 798.61229872341,276.341960217105" fill="none" stroke="#A0A0A0" stroke-width="1" />
      <path d="M 804.148842337376,283.4375 L 801.150700447589,273.092880857243 C 799.663489802357,275.521731533555 797.561107644462,277.162188900656 794.843553973904,278.014252958546 z" fill="#A0A0A0" stroke="#A0A0A0" stroke-width="1" stroke-linejoin="round" />
    </g>
    <g id="G:Namespace:System.Windows.Media-&gt;G:Namespace:System.Windows.Media.Media3D">
      <path d="M 643.721364592393,251.75 L 683.260592043542,308.420070136778 C 684.298454238026,309.907598526817 688.253806360445,310.925220944251 695.126648410797,311.472937389081 L 849.765594543714,323.796557397767 C 929.513521997794,330.151897879585 992.465926041909,335.577473288804 1038.62280667606,340.073283625424" fill="none" stroke="#A0A0A0" stroke-width="2.1609640474436809" />
      <path d="M 1047.57951241802,340.954999141816 L 1038.01949071202,335.994557127174 C 1038.75343119701,338.746364256244 1038.49218215511,341.400202994604 1037.23574358633,343.956073342254 z" fill="#A0A0A0" stroke="#A0A0A0" stroke-width="1" stroke-linejoin="round" />
    </g>
    <g id="G:Namespace:System.Windows.Media.Animation-&gt;G:Namespace:System.Windows">
      <path d="M 1138.3230429989,283.4375 L 1141.5,253.421875 C 1144.1222714146,228.646873197439 1150.56471359135,211.090402397503 1160.82732653023,200.75246260019" fill="none" stroke="#A0A0A0" stroke-width="4.6286939213463256" />
      <path d="M 1167.80044101433,195.0625 L 1157.3249279375,198.041965635664 C 1159.91812383206,199.638224256452 1161.73652922839,201.866700943928 1162.78014412649,204.727395698092 z" fill="#A0A0A0" stroke="#A0A0A0" stroke-width="1" stroke-linejoin="round" />
    </g>
    <g id="G:Namespace:System.Windows.Media.Animation-&gt;G:Namespace:System.Windows.Markup">
      <path d="M 1027.52178290161,307.019725771009 L 997,310.109375 C 903.666666666667,319.557291666667 857,352.625 857,409.3125 C 857,466 906.333333333333,499.067708333334 1005,508.515625 L 1057.87929099362,513.579129743583" fill="none" stroke="#A0A0A0" stroke-width="3.2297158093186487" />
      <path d="M 1066.83831121672,514.437008897125 L 1057.26512392596,509.502023071811 C 1058.00638420155,512.251867488309 1057.75219778569,514.906391998857 1056.50256467837,517.465596603456 z" fill="#A0A0A0" stroke="#A0A0A0" stroke-width="1" stroke-linejoin="round" />
    </g>
    <g id="G:Namespace:System.Windows.Media.Animation-&gt;G:Namespace:System.Windows.Threading">
      <path d="M 1108.83808473775,308.4375 L 857.625,419.94140625 C 745.875,469.54296875 651.875,497.88671875 575.625,504.97265625 L 486.360211315267,513.268062329616" fill="none" stroke="#A0A0A0" stroke-width="1.5" />
      <path d="M 477.398823607604,514.10084702745 L 487.726047592933,517.158369677707 C 486.483586826057,514.595675323344 486.236835804476,511.940449335889 486.985794528193,509.19269171534 z" fill="#A0A0A0" stroke="#A0A0A0" stroke-width="1" stroke-linejoin="round" />
    </g>
    <g id="G:Namespace:System.Windows.Media.Animation-&gt;G:Namespace:System.Windows.Media">
      <path d="M 1075.69900771775,283.4375 L 1067.5,281.765625 C 1021.16666666667,272.317708333334 937.5,262.869791666667 816.5,253.421875 L 726.326022587742,246.380914470307" fill="none" stroke="#A0A0A0" stroke-width="2.792481250360578" />
      <path d="M 717.353333333333,245.680309343435 L 727.011608004067,250.446621375253 C 726.222229235613,247.710201767257 726.429815939871,245.051627173357 727.634368116842,242.470897593555 z" fill="#A0A0A0" stroke="#A0A0A0" stroke-width="1" stroke-linejoin="round" />
    </g>
    <g id="G:Namespace:System.Windows.Media.Animation-&gt;G:Namespace:System.Windows.Media.Media3D">
      <path d="M 1161.25578831312,308.4375 L 1164.5,310.109375 C 1180.20117556224,318.200833088041 1184.41134455287,326.292291176082 1177.13050697189,334.383749264123" fill="none" stroke="#A0A0A0" stroke-width="3.2924812503605785" />
      <path d="M 1170.19955898567,340.125 L 1180.45227929742,336.826253842904 C 1177.98106263647,335.410556373193 1176.27995130732,333.356942155052 1175.34894530997,330.66541118848 z" fill="#A0A0A0" stroke="#A0A0A0" stroke-width="1" stroke-linejoin="round" />
    </g>
    <g id="G:Namespace:System.Windows.Media.Animation-&gt;G:Namespace:&lt;empty namespace&gt;">
      <path d="M 1199.62403528115,308.4375 L 1208,310.109375 C 1255.33333333333,319.557291666667 1281.16666666667,329.005208333334 1285.5,338.453125 C 1289.83333333333,347.901041666667 1292,366.796875 1292,395.140625 C 1292,419.304767885493 1288.12361503307,436.601955370582 1280.37084509921,447.032187455269" fill="none" stroke="#A0A0A0" stroke-width="1" />
      <path d="M 1274.11245865491,453.5 L 1283.94080472401,449.095046703322 C 1281.32903955028,447.959355817388 1279.41265064814,446.10501909315 1278.19163801758,443.532036530609 z" fill="#A0A0A0" stroke="#A0A0A0" stroke-width="1" stroke-linejoin="round" />
    </g>
    <g id="G:Namespace:System.Windows.Media.Converters-&gt;G:Namespace:System.Windows.Markup">
      <path d="M 1460.60639470783,478.499999999999 L 1454,480.171875 C 1416.66666666667,489.619791666667 1357.16666666667,499.067708333334 1275.5,508.515625 L 1247.54324354838,511.749907921125" fill="none" stroke="#A0A0A0" stroke-width="3.0849625007211561" />
      <path d="M 1238.60287317168,512.784208422613 L 1248.99630714646,515.608483588383 C 1247.69647325231,513.074407236192 1247.39001384446,510.425408606057 1248.07692892291,507.66148769798 z" fill="#A0A0A0" stroke="#A0A0A0" stroke-width="1" stroke-linejoin="round" />
    </g>
    <g id="G:Namespace:System.Windows.Media.Effects-&gt;G:Namespace:System.Windows">
      <path d="M 1098.17750826902,396.8125 L 1108.5,395.140625 C 1166.83333333333,385.692708333334 1217.33333333333,376.244791666667 1260,366.796875 C 1302.66666666667,357.348958333334 1327.16666666667,347.901041666667 1333.5,338.453125 C 1339.83333333333,329.005208333334 1343.5,319.557291666667 1344.5,310.109375 C 1345.5,300.661458333334 1346,281.765625 1346,253.421875 C 1346,225.078125 1319.16666666667,206.182291666667 1265.5,196.734375 L 1256.83475860287,195.208875398448" fill="none" stroke="#A0A0A0" stroke-width="2.5" />
      <path d="M 1247.97106648347,193.648438917025 L 1257.12608595772,199.321675949449 C 1256.60358282784,196.522014971692 1257.06593437789,193.895735825204 1258.51314060788,191.442838509985 z" fill="#A0A0A0" stroke="#A0A0A0" stroke-width="1" stroke-linejoin="round" />
    </g>
    <g id="G:Namespace:System.Windows.Media.Effects-&gt;G:Namespace:System.Windows.Media.Animation">
      <path d="M 1017.91289966924,396.8125 L 1017.5,395.140625 C 1015.16666666667,385.692708333334 1014,371.520833333334 1014,352.625 C 1014,333.963198983397 1033.99534355625,319.9090647873 1073.98603066874,310.46259741171" fill="none" stroke="#A0A0A0" stroke-width="1.792481250360578" />
      <path d="M 1082.7552370452,308.4375 L 1072.11163111059,306.790183179025 C 1073.68601623737,309.163455726307 1074.2860451001,311.761739097113 1073.91171769878,314.585033291441 z" fill="#A0A0A0" stroke="#A0A0A0" stroke-width="1" stroke-linejoin="round" />
    </g>
    <g id="G:Namespace:System.Windows.Media.Effects-&gt;G:Namespace:System.Windows.Media.Imaging">
      <path d="M 925.079382579934,421.8125 L 690.845156912933,452.3369888908" fill="none" stroke="#A0A0A0" stroke-width="1.5" />
      <path d="M 681.920617420059,453.500000000001 L 692.353666238453,456.174227431056 C 691.017454855037,453.659142889745 690.67285897083,451.014834891856 691.31987858583,448.241303437389 z" fill="#A0A0A0" stroke="#A0A0A0" stroke-width="1" stroke-linejoin="round" />
    </g>
    <g id="G:Namespace:System.Windows.Media.Effects-&gt;G:Namespace:&lt;empty namespace&gt;">
      <path d="M 1093.32635060639,421.8125 L 1103,423.484375 C 1154.83122454015,432.442248600974 1193.32795605963,441.400122201949 1218.49019455846,450.357995802923" fill="none" stroke="#A0A0A0" stroke-width="1" />
      <path d="M 1226.92392502756,453.5 L 1218.94955970503,446.260559572533 C 1218.95567666173,449.108554251944 1218.02471245519,451.607437353902 1216.15666708541,453.757208878406 z" fill="#A0A0A0" stroke="#A0A0A0" stroke-width="1" stroke-linejoin="round" />
    </g>
    <g id="G:Namespace:System.Windows.Media.Effects-&gt;G:Namespace:System.Windows.Media">
      <path d="M 923.087639298622,397.22011013669 L 676.75,366.796875 C 600.25,357.348958333334 568.083333333333,343.177083333334 580.25,324.28125 L 622.07918970998,259.317080364808" fill="none" stroke="#A0A0A0" stroke-width="1.5" />
      <path d="M 626.951488423374,251.75 L 618.174676357466,257.992400977167 C 620.958140767046,258.595258333194 623.200238652915,260.038902396422 624.900970015074,262.323333166851 z" fill="#A0A0A0" stroke="#A0A0A0" stroke-width="1" stroke-linejoin="round" />
    </g>
    <g id="G:Namespace:System.Windows.Media.Imaging-&gt;G:Namespace:System.Windows.Media">
      <path d="M 525.581036383687,453.500000000001 L 517.5,451.828125 C 471.833333333333,442.380208333334 449,409.3125 449,352.625 C 449,295.9375 480,262.869791666667 542,253.421875 L 546.765982835,252.69560711839" fill="none" stroke="#A0A0A0" stroke-width="3.1239637567217926" />
      <path d="M 555.663271854663,251.339787034244 L 545.174808462084,248.891903119 C 546.565120600312,251.377490226588 546.966845069688,254.013724010192 546.379981870213,256.800604469812 z" fill="#A0A0A0" stroke="#A0A0A0" stroke-width="1" stroke-linejoin="round" />
    </g>
    <g id="G:Namespace:System.Windows.Media.Imaging-&gt;G:Namespace:System.Windows.Threading">
      <path d="M 497.356119073864,478.500000000001 L 485.5,480.171875 C 432.833910423223,487.598514186278 400.867201378604,495.025153372555 389.599872866142,502.451792558833" fill="none" stroke="#A0A0A0" stroke-width="1.792481250360578" />
      <path d="M 385,510.1875 L 393.549062047343,503.636657450321 C 390.745903598166,503.133255205668 388.453842134117,501.770329911997 386.672877655194,499.547881569307 z" fill="#A0A0A0" stroke="#A0A0A0" stroke-width="1" stroke-linejoin="round" />
    </g>
    <g id="G:Namespace:System.Windows.Media.Imaging-&gt;G:Namespace:System.Windows.Markup">
      <path d="M 645.977949283356,478.500000000001 L 654,480.171875 C 699.333333333333,489.619791666667 793.833333333333,499.067708333334 937.5,508.515625 L 1057.80106510271,516.426955194907" fill="none" stroke="#A0A0A0" stroke-width="1.5" />
      <path d="M 1066.78166666667,517.017544349381 L 1057.06570455314,512.369955704872 C 1057.88855979226,515.09649570395 1057.71357041315,517.757414685864 1056.54073641583,520.352712650615 z" fill="#A0A0A0" stroke="#A0A0A0" stroke-width="1" stroke-linejoin="round" />
    </g>
    <g id="G:Namespace:System.Windows.Media.Imaging-&gt;G:Namespace:System.Windows">
      <path d="M 589.528114663726,453.500000000001 L 618.5,350.853515625 C 623.5,333.138671875 645.229221316431,324.033456163789 683.687663949292,323.537868491367 L 856.750655797167,321.307723965466 C 908.028579307649,320.646940402236 954.611912640982,308.837044568902 996.500655797167,285.878036465466 L 1154.30144850062,199.388220695655" fill="none" stroke="#A0A0A0" stroke-width="2.5849625007211561" />
      <path d="M 1162.19373210318,195.0625 L 1151.50198556893,196.36117472737 C 1153.66060099015,198.218993495277 1154.94229601109,200.557447896034 1155.34707063174,203.376537929642 z" fill="#A0A0A0" stroke="#A0A0A0" stroke-width="1" stroke-linejoin="round" />
    </g>
    <g id="G:Namespace:System.Windows.Media.Media3D-&gt;G:Namespace:System.Windows.Media">
      <path d="M 1048.37178447742,340.527969915554 C 1000.0978156028,336.426243600564 929.933820230055,332.900267964582 837.879798359191,329.950043007609 C 719.959932786397,326.170847669203 652.833333333333,319.557291666667 636.5,310.109375 C 620.166666666667,300.661458333334 615.833333333333,286.489583333334 623.5,267.59375 L 626.54464158997,260.089701298633" fill="none" stroke="#A0A0A0" stroke-width="3.2924812503605785" />
      <path d="M 629.928335170893,251.75 L 622.462141726031,259.512470962516 C 625.309130286469,259.588413360719 627.780152893471,260.590989236548 629.875209547038,262.520198590003 z" fill="#A0A0A0" stroke="#A0A0A0" stroke-width="1" stroke-linejoin="round" />
    </g>
    <g id="G:Namespace:System.Windows.Media.Media3D-&gt;G:Namespace:System.Windows">
      <path d="M 1180.78390297685,340.125 L 1247.5,310.109375 C 1268.5,300.661458333334 1276.58333333333,288.8515625 1271.75,274.6796875 L 1264.5,253.421875 C 1255.49313147147,227.012727083914 1241.27737024702,208.805776520609 1221.85271632664,198.801023310086" fill="none" stroke="#A0A0A0" stroke-width="3.7297158093186487" />
      <path d="M 1213.66593164278,195.0625 L 1221.1007931537,202.854985759591 C 1221.29886102144,200.013880300288 1222.40657163184,197.588166319884 1224.42392498489,195.577843818379 z" fill="#A0A0A0" stroke="#A0A0A0" stroke-width="1" stroke-linejoin="round" />
    </g>
    <g id="G:Namespace:System.Windows.Media.Media3D-&gt;G:Namespace:System.Windows.Media.Animation">
      <path d="M 1135.80044101433,340.125 L 1133.5,338.453125 C 1123.22126932774,330.982925705337 1119.4025414784,323.512726410675 1122.04381645197,316.042527116012" fill="none" stroke="#A0A0A0" stroke-width="2.8502198590705463" />
      <path d="M 1126.85667034179,308.4375 L 1118.1290428571,314.74848395565 C 1120.91714576812,315.329511724928 1123.17048713582,316.755542507096 1124.88906696022,319.026576302154 z" fill="#A0A0A0" stroke="#A0A0A0" stroke-width="1" stroke-linejoin="round" />
    </g>
    <g id="G:Namespace:System.Windows.Media.Media3D-&gt;G:Namespace:&lt;empty namespace&gt;">
      <path d="M 1186.07607497244,365.125 L 1190.5,366.796875 C 1215.5,376.244791666667 1233.33333333333,395.140625 1244,423.484375 L 1252.12590005968,445.076732482803" fill="none" stroke="#A0A0A0" stroke-width="2.4036774610288019" />
      <path d="M 1255.29584711503,453.5 L 1255.51735817228,442.731948511847 C 1253.37379154371,444.607110696825 1250.87800857565,445.546354268781 1248.03000926811,445.549679227715 z" fill="#A0A0A0" stroke="#A0A0A0" stroke-width="1" stroke-linejoin="round" />
    </g>
    <g id="G:Namespace:System.Windows.Media.Media3D-&gt;G:Namespace:System.Windows.Markup">
      <path d="M 1153,365.125 L 1153,501.1875" fill="none" stroke="#A0A0A0" stroke-width="1" />
      <path d="M 1153,510.1875 L 1157,500.1875 C 1154.33333333333,501.1875 1151.66666666667,501.1875 1149,500.1875 z" fill="#A0A0A0" stroke="#A0A0A0" stroke-width="1" stroke-linejoin="round" />
    </g>
    <g id="G:Namespace:System.Windows.Media.Media3D-&gt;G:Namespace:System.Windows.Media.Effects">
      <path d="M 1123.89305402426,365.125 L 1058.37661608583,393.261083906324" fill="none" stroke="#A0A0A0" stroke-width="1.5" />
      <path d="M 1050.10694597574,396.8125 L 1060.87387547302,396.541891055952 C 1058.90275180341,394.486220218929 1057.85048036824,392.035947593719 1057.71706116753,389.191073180324 z" fill="#A0A0A0" stroke="#A0A0A0" stroke-width="1" stroke-linejoin="round" />
    </g>
    <g id="G:Namespace:System.Windows.Media.Media3D.Converters-&gt;G:Namespace:System.Windows.Markup">
      <path d="M 2012.02205071665,478.5 L 2004,480.171875 C 1958.66666666667,489.619791666667 1805.5,499.067708333333 1544.5,508.515625 L 1248.21244249572,519.240912941267" fill="none" stroke="#A0A0A0" stroke-width="3.0849625007211561" />
      <path d="M 1239.21833333333,519.566489929225 L 1249.35648884174,523.202119570332 C 1248.26067612357,520.573373557917 1248.16420886787,517.908452324617 1249.06708707467,515.207355870434 z" fill="#A0A0A0" stroke="#A0A0A0" stroke-width="1" stroke-linejoin="round" />
    </g>
    <g id="G:Namespace:System.Windows.Media.TextFormatting-&gt;G:Namespace:System.Windows.Media">
      <path d="M 770.631753031974,283.4375 L 681.925563629394,254.537890162306" fill="none" stroke="#A0A0A0" stroke-width="2.4036774610288019" />
      <path d="M 673.368246968027,251.75 L 681.63731429741,258.650907585393 C 681.512542864608,255.805640778805 682.33858439418,253.270139545807 684.115438886126,251.044403886399 z" fill="#A0A0A0" stroke="#A0A0A0" stroke-width="1" stroke-linejoin="round" />
    </g>
    <g id="G:Namespace:System.Windows.Media.TextFormatting-&gt;G:Namespace:System.Windows">
      <path d="M 826.934582873943,283.4375 L 870,253.421875 C 910.666666666667,225.078125 973.333333333333,206.182291666667 1058,196.734375 L 1111.56885042578,190.756650180096" fill="none" stroke="#A0A0A0" stroke-width="2.4036774610288019" />
      <path d="M 1120.51333333333,189.758539206038 L 1110.13141411425,186.892225662747 C 1111.42098213333,189.4315416012 1111.71671871823,192.081758758993 1111.01862386897,194.842877136125 z" fill="#A0A0A0" stroke="#A0A0A0" stroke-width="1" stroke-linejoin="round" />
    </g>
    <g id="G:Namespace:System.Windows.Navigation-&gt;G:Namespace:System.Windows">
      <path d="M 1146.02535832415,138.375000000001 L 1168.02127767323,163.312873562023" fill="none" stroke="#A0A0A0" stroke-width="1.5" />
      <path d="M 1173.97464167585,170.0625 L 1170.35962675648,159.916975512192 C 1169.02122233071,162.430893709782 1167.02133301575,164.194853414264 1164.35995881161,165.208854625637 z" fill="#A0A0A0" stroke="#A0A0A0" stroke-width="1" stroke-linejoin="round" />
    </g>
    <g id="G:Namespace:System.Windows.Xps-&gt;G:Namespace:System.Printing">
      <path d="M 1452.75096189552,81.6875000000007 C 1501.83258839681,88.1516048531619 1661.20501290091,92.1385124307589 1930.86823540782,93.6482227327916 L 2284.00998701014,95.6252878123956 C 2338.33948725665,95.9294516707963 2373.14045661118,96.5012039141137 2388.41289507372,97.3405445423481 L 2487.68374508028,102.796258625872 C 2551.58035788305,106.307880117322 2599.76205388537,110.120479173863 2632.22883308723,114.234055795495" fill="none" stroke="#A0A0A0" stroke-width="1.5" />
      <path d="M 2641.14932297355,115.427730871878 L 2631.76818980047,110.136763059752 C 2632.40567383928,112.912501738261 2632.05199233517,115.555609852728 2630.70714528813,118.066087403152 z" fill="#A0A0A0" stroke="#A0A0A0" stroke-width="1" stroke-linejoin="round" />
    </g>
    <g id="G:Namespace:System.Windows.Xps-&gt;G:Namespace:System.Windows.Media">
      <path d="M 1315.60166666667,71.6957998948554 L 752,90.4453125000002 C 610,95.1692708333336 539,106.979166666667 539,125.875 L 539,154.21875 C 539,190.829140846108 554.01539020434,214.139767126457 584.046170613019,224.150628841048" fill="none" stroke="#A0A0A0" stroke-width="1.5" />
      <path d="M 592.662624035281,226.75 L 584.24406297008,220.032274969048 C 584.431262636568,222.874117222935 583.661078589471,225.42714045916 581.933510828789,227.691344677725 z" fill="#A0A0A0" stroke="#A0A0A0" stroke-width="1" stroke-linejoin="round" />
    </g>
    <g id="G:Namespace:System.Windows.Xps-&gt;G:Namespace:System.Windows.Documents">
      <path d="M 1315.60166666667,74.3495084792673 L 1184,83.3593750000002 C 1046,92.807291666667 946.116533955526,99.6700929820677 884.349601866578,103.947778946203 C 841.056449403549,106.94605819322 802.643444723537,110.163580754443 769.11058782654,113.600346629871" fill="none" stroke="#A0A0A0" stroke-width="1" />
      <path d="M 760.159283456491,114.535306562039 L 770.520714948619,117.474819690763 C 769.249100409083,114.926465795804 768.972075243997,112.274227463938 769.689639453359,109.518104695165 z" fill="#A0A0A0" stroke="#A0A0A0" stroke-width="1" stroke-linejoin="round" />
    </g>
    <g id="G:Namespace:System.Windows.Xps.Packaging-&gt;G:Namespace:System.Printing">
      <path d="M 2595.60970231533,170.0625 L 2598.5,168.390625 C 2614.01880306051,159.413868382729 2633.90089071358,150.437111765458 2658.14626295921,141.460355148186" fill="none" stroke="#A0A0A0" stroke-width="2.292481250360578" />
      <path d="M 2666.60088202867,138.375 L 2655.83559188563,138.045563911561 C 2657.68917330763,140.207818989749 2658.6033526108,142.712891306624 2658.57812979513,145.560780862186 z" fill="#A0A0A0" stroke="#A0A0A0" stroke-width="1" stroke-linejoin="round" />
    </g>
    <g id="G:Namespace:System.Windows.Xps.Packaging-&gt;G:Namespace:System.IO.Packaging">
      <path d="M 2574,195.0625 L 2574,217.75" fill="none" stroke="#A0A0A0" stroke-width="1.792481250360578" />
      <path d="M 2574,226.75 L 2578,216.75 C 2575.33333333333,217.75 2572.66666666667,217.75 2570,216.75 z" fill="#A0A0A0" stroke="#A0A0A0" stroke-width="1" stroke-linejoin="round" />
    </g>
    <g id="G:Namespace:System.Windows.Xps.Packaging-&gt;G:Namespace:System.Windows.Xps">
      <path d="M 2489.43925907372,170.0625 C 2425.72792639923,163.894238377994 2257.11018951247,158.075052538148 1983.58604841344,152.604942480463 L 1641.45736934177,145.762835158992 C 1565.42877399251,144.242366865332 1524.81387313797,141.567512605231 1519.61266677815,137.738272378689 L 1496.20723815894,120.506691359251 C 1476.53990440511,106.027176348902 1455.1470218671,94.1700690336136 1432.02859054492,84.9353694133849" fill="none" stroke="#A0A0A0" stroke-width="1" />
      <path d="M 1423.63506063947,81.6875000000007 L 1431.5177074618,89.0267015284034 C 1431.5474247059,86.1788553253027 1432.50975638394,83.6918835014671 1434.40470249591,81.5657860568966 z" fill="#A0A0A0" stroke="#A0A0A0" stroke-width="1" stroke-linejoin="round" />
    </g>
    <g id="G:Namespace:System.Windows.Xps.Serialization-&gt;G:Namespace:System.Printing">
      <path d="M 2550.56229327453,81.6875 L 2560,83.359375 C 2609.52509122698,92.1326675279039 2644.82240522096,100.905960055808 2665.89194198196,109.679252583711" fill="none" stroke="#A0A0A0" stroke-width="1.792481250360578" />
      <path d="M 2674.09812568908,113.375 L 2666.62269819952,105.621421223182 C 2666.43946011771,108.463521664138 2665.34442384622,110.894983503285 2663.33758938505,112.915806740621 z" fill="#A0A0A0" stroke="#A0A0A0" stroke-width="1" stroke-linejoin="round" />
    </g>
    <g id="G:Namespace:System.Windows.Xps.Serialization-&gt;G:Namespace:System.Windows.Media">
      <path d="M 2395.76626240353,81.6875 L 2384.5,83.359375 C 2320.83333333333,92.8072916666669 2283.95274223081,106.394684296505 2273.85822669244,124.121552889515 L 2266.28734003866,137.416704334272 C 2261.24008226947,146.280138630777 2229.11466055177,150.887280302672 2169.91107488555,151.238129349956 L 1992.30031788688,152.29067649181 C 1933.09673222066,152.641525539094 1883.3344670989,153.359386880746 1843.01352252162,154.444260516766 L 1782.53210565569,156.071570970795 C 1701.89021650112,158.241318242834 1656.64105993653,163.198909899045 1646.78463596192,170.944345939427 C 1636.92821198731,178.689781979809 1465.83333333333,192.010416666667 1133.5,210.90625 L 726.338820728853,234.056650551588" fill="none" stroke="#A0A0A0" stroke-width="1" />
      <path d="M 717.353333333333,234.567548060849 L 727.564273776915,237.993434115234 C 726.414509248743,235.387833869443 726.263132208962,232.725467233733 727.110142657571,230.006334208106 z" fill="#A0A0A0" stroke="#A0A0A0" stroke-width="1" stroke-linejoin="round" />
    </g>
    <g id="G:Namespace:System.Windows.Xps.Serialization-&gt;G:Namespace:System.Windows.Xps.Packaging">
      <path d="M 2536.89084895259,81.6875 L 2544.5,83.359375 C 2587.5,92.8072916666667 2603.16666666667,111.703125 2591.5,140.046875 L 2582.57083857978,161.739953771795" fill="none" stroke="#A0A0A0" stroke-width="1.5" />
      <path d="M 2579.14516721793,170.0625 L 2586.65037816586,162.337747018371 C 2583.80380839137,162.247460640217 2581.3378687682,161.232446903373 2579.25255929634,159.292705807839 z" fill="#A0A0A0" stroke="#A0A0A0" stroke-width="1" stroke-linejoin="round" />
    </g>
    <g id="G:Namespace:UIAutomationClientsideProviders-&gt;G:Namespace:System.Windows.Automation">
      <path d="M 1831,25.0000000000001 L 1831,47.6875000000001" fill="none" stroke="#A0A0A0" stroke-width="1" />
      <path d="M 1831,56.6875000000001 L 1835,46.6875000000001 C 1832.33333333333,47.6875000000001 1829.66666666667,47.6875000000001 1827,46.6875000000001 z" fill="#A0A0A0" stroke="#A0A0A0" stroke-width="1" stroke-linejoin="round" />
    </g>
    <g id="G:Namespace:&lt;empty namespace&gt;">
      <rect x="1183.5849999999991" y="453.5" rx="5" ry="5" width="152.83000000000175" height="25" fill="#80C0A0" stroke="#A5A6A9" stroke-width="1" />
      <text x="1203.5849999999991" y="471.45" fill="#000000">&lt;empty namespace&gt;</text>
      <rect x="INF" y="INF" width="-INF" height="-INF" fill="#FFFFFF" stroke="#A5A6A9" stroke-width="1" />
    </g>
    <g id="G:Namespace:Microsoft.Windows.Themes">
      <rect x="792.2966666666689" y="113.375" rx="5" ry="5" width="185.4066666666622" height="25" fill="#80C0A0" stroke="#A5A6A9" stroke-width="1" />
      <text x="811.2966666666689" y="131.325" fill="#000000">Microsoft.Windows.Themes</text>
      <rect x="INF" y="INF" width="-INF" height="-INF" fill="#FFFFFF" stroke="#A5A6A9" stroke-width="1" />
    </g>
    <g id="G:Namespace:System.Collections.ObjectModel">
      <rect x="1663.1333333333314" y="170.0625" rx="5" ry="5" width="209.73333333333721" height="25" fill="#80C0A0" stroke="#A5A6A9" stroke-width="1" />
      <text x="1683.1333333333314" y="188.0125" fill="#000000">System.Collections.ObjectModel</text>
      <rect x="INF" y="INF" width="-INF" height="-INF" fill="#FFFFFF" stroke="#A5A6A9" stroke-width="1" />
    </g>
    <g id="G:Namespace:System.Collections.Specialized">
      <rect x="1483.1866666666683" y="226.75" rx="5" ry="5" width="199.62666666666337" height="25" fill="#80C0A0" stroke="#A5A6A9" stroke-width="1" />
      <text x="1502.1866666666683" y="244.7" fill="#000000">System.Collections.Specialized</text>
      <rect x="INF" y="INF" width="-INF" height="-INF" fill="#FFFFFF" stroke="#A5A6A9" stroke-width="1" />
    </g>
    <g id="G:Namespace:System.ComponentModel">
      <rect x="2080.4683333333378" y="113.37499999999955" rx="5" ry="5" width="177.06333333332441" height="25" fill="#80C0A0" stroke="#A5A6A9" stroke-width="1" />
      <text x="2099.4683333333378" y="131.32499999999953" fill="#000000">System.ComponentModel</text>
      <rect x="INF" y="INF" width="-INF" height="-INF" fill="#FFFFFF" stroke="#A5A6A9" stroke-width="1" />
    </g>
    <g id="G:Namespace:System.Diagnostics">
      <rect x="1260.3899999999994" y="113.37500000000091" rx="5" ry="5" width="141.22000000000116" height="25" fill="#80C0A0" stroke="#A5A6A9" stroke-width="1" />
      <text x="1280.3899999999994" y="131.3250000000009" fill="#000000">System.Diagnostics</text>
      <rect x="INF" y="INF" width="-INF" height="-INF" fill="#FFFFFF" stroke="#A5A6A9" stroke-width="1" />
    </g>
    <g id="G:Namespace:System.IO">
      <rect y="565.1875" rx="5" ry="5" width="92.443333333329065" height="25" fill="#80C0A0" stroke="#A5A6A9" stroke-width="1" />
      <text x="19" y="583.1375" fill="#000000">System.IO</text>
      <rect x="INF" y="INF" width="-INF" height="-INF" fill="#FFFFFF" stroke="#A5A6A9" stroke-width="1" />
    </g>
    <g id="G:Namespace:System.IO.Packaging">
      <rect x="2499.5483333333323" y="226.75" rx="5" ry="5" width="148.90333333333547" height="25" fill="#80C0A0" stroke="#A5A6A9" stroke-width="1" />
      <text x="2519.5483333333323" y="244.7" fill="#000000">System.IO.Packaging</text>
      <rect x="INF" y="INF" width="-INF" height="-INF" fill="#FFFFFF" stroke="#A5A6A9" stroke-width="1" />
    </g>
    <g id="G:Namespace:System.Printing">
      <rect x="2640.1883333333317" y="113.375" rx="5" ry="5" width="121.62333333333663" height="25" fill="#80C0A0" stroke="#A5A6A9" stroke-width="1" />
      <text x="2660.1883333333317" y="131.325" fill="#000000">System.Printing</text>
      <rect x="INF" y="INF" width="-INF" height="-INF" fill="#FFFFFF" stroke="#A5A6A9" stroke-width="1" />
    </g>
    <g id="G:Namespace:System.Printing.IndexedProperties">
      <rect x="2707.9150000000009" y="170.0625" rx="5" ry="5" width="220.16999999999825" height="25" fill="#80C0A0" stroke="#A5A6A9" stroke-width="1" />
      <text x="2726.9150000000009" y="188.0125" fill="#000000">System.Printing.IndexedProperties</text>
      <rect x="INF" y="INF" width="-INF" height="-INF" fill="#FFFFFF" stroke="#A5A6A9" stroke-width="1" />
    </g>
    <g id="G:Namespace:System.Printing.Interop">
      <rect x="2619.5966666666645" y="56.6875" rx="5" ry="5" width="162.80666666667094" height="25" fill="#80C0A0" stroke="#A5A6A9" stroke-width="1" />
      <text x="2639.5966666666645" y="74.6375" fill="#000000">System.Printing.Interop</text>
      <rect x="INF" y="INF" width="-INF" height="-INF" fill="#FFFFFF" stroke="#A5A6A9" stroke-width="1" />
    </g>
    <g id="G:Namespace:System.Security.Permissions">
      <rect x="523.38666666665813" y="565.1875" rx="5" ry="5" width="186.71666666666715" height="25" fill="#80C0A0" stroke="#A5A6A9" stroke-width="1" />
      <text x="543.38666666665813" y="583.1375" fill="#000000">System.Security.Permissions</text>
      <rect x="INF" y="INF" width="-INF" height="-INF" fill="#FFFFFF" stroke="#A5A6A9" stroke-width="1" />
    </g>
    <g id="G:Namespace:System.Security.RightsManagement">
      <rect x="2459.7833333333328" y="283.4375" rx="5" ry="5" width="228.4333333333343" height="25" fill="#80C0A0" stroke="#A5A6A9" stroke-width="1" />
      <text x="2479.7833333333328" y="301.3875" fill="#000000">System.Security.RightsManagement</text>
      <rect x="INF" y="INF" width="-INF" height="-INF" fill="#FFFFFF" stroke="#A5A6A9" stroke-width="1" />
    </g>
    <g id="G:Namespace:System.Windows">
      <rect x="1120.5133333333288" y="170.0625" rx="5" ry="5" width="128.97333333333518" height="25" fill="#80C0A0" stroke="#A5A6A9" stroke-width="1" />
      <text x="1140.5133333333288" y="188.0125" fill="#000000">System.Windows</text>
      <rect x="INF" y="INF" width="-INF" height="-INF" fill="#FFFFFF" stroke="#A5A6A9" stroke-width="1" />
    </g>
    <g id="G:Namespace:System.Windows.Automation">
      <rect x="1733.7816666666658" y="56.6875" rx="5" ry="5" width="194.43666666666832" height="25" fill="#80C0A0" stroke="#A5A6A9" stroke-width="1" />
      <text x="1753.7816666666658" y="74.6375" fill="#000000">System.Windows.Automation</text>
      <rect x="INF" y="INF" width="-INF" height="-INF" fill="#FFFFFF" stroke="#A5A6A9" stroke-width="1" />
    </g>
    <g id="G:Namespace:System.Windows.Automation.Peers">
      <rect x="1384.4333333333343" rx="5" ry="5" width="225.13333333333139" height="25" fill="#80C0A0" stroke="#A5A6A9" stroke-width="1" />
      <text x="1403.4333333333343" y="17.950000000000003" fill="#000000">System.Windows.Automation.Peers</text>
      <rect x="INF" y="INF" width="-INF" height="-INF" fill="#FFFFFF" stroke="#A5A6A9" stroke-width="1" />
    </g>
    <g id="G:Namespace:System.Windows.Automation.Provider">
      <rect x="1528.4349999999977" y="113.37500000000046" rx="5" ry="5" width="241.13000000000102" height="25" fill="#80C0A0" stroke="#A5A6A9" stroke-width="1" />
      <text x="1548.4349999999977" y="131.32500000000044" fill="#000000">System.Windows.Automation.Provider</text>
      <rect x="INF" y="INF" width="-INF" height="-INF" fill="#FFFFFF" stroke="#A5A6A9" stroke-width="1" />
    </g>
    <g id="G:Namespace:System.Windows.Automation.Text">
      <rect x="1799.9983333333366" y="113.37500000000046" rx="5" ry="5" width="218.00333333332674" height="25" fill="#80C0A0" stroke="#A5A6A9" stroke-width="1" />
      <text x="1818.9983333333366" y="131.32500000000044" fill="#000000">System.Windows.Automation.Text</text>
      <rect x="INF" y="INF" width="-INF" height="-INF" fill="#FFFFFF" stroke="#A5A6A9" stroke-width="1" />
    </g>
    <g id="G:Namespace:System.Windows.Converters">
      <rect x="1652.6849999999977" y="453.49999999999909" rx="5" ry="5" width="188.63000000000466" height="25" fill="#80C0A0" stroke="#A5A6A9" stroke-width="1" />
      <text x="1672.6849999999977" y="471.44999999999908" fill="#000000">System.Windows.Converters</text>
      <rect x="INF" y="INF" width="-INF" height="-INF" fill="#FFFFFF" stroke="#A5A6A9" stroke-width="1" />
    </g>
    <g id="G:Namespace:System.Windows.Data">
      <rect x="122.44333333332907" y="565.1875" rx="5" ry="5" width="156.26666666666279" height="25" fill="#80C0A0" stroke="#A5A6A9" stroke-width="1" />
      <text x="141.44333333332907" y="583.1375" fill="#000000">System.Windows.Data</text>
      <rect x="INF" y="INF" width="-INF" height="-INF" fill="#FFFFFF" stroke="#A5A6A9" stroke-width="1" />
    </g>
    <g id="G:Namespace:System.Windows.Documents">
      <rect x="570.04333333333489" y="113.375" rx="5" ry="5" width="191.91333333333023" height="25" fill="#80C0A0" stroke="#A5A6A9" stroke-width="1" />
      <text x="589.04333333333489" y="131.325" fill="#000000">System.Windows.Documents</text>
      <rect x="INF" y="INF" width="-INF" height="-INF" fill="#FFFFFF" stroke="#A5A6A9" stroke-width="1" />
    </g>
    <g id="G:Namespace:System.Windows.Forms.Integration">
      <rect x="394.4333333333343" y="56.6875" rx="5" ry="5" width="225.13333333333139" height="25" fill="#80C0A0" stroke="#A5A6A9" stroke-width="1" />
      <text x="413.4333333333343" y="74.6375" fill="#000000">System.Windows.Forms.Integration</text>
      <rect x="INF" y="INF" width="-INF" height="-INF" fill="#FFFFFF" stroke="#A5A6A9" stroke-width="1" />
    </g>
    <g id="G:Namespace:System.Windows.Ink">
      <rect x="328.23999999999796" y="113.37500000000046" rx="5" ry="5" width="147.52000000000408" height="25" fill="#80C0A0" stroke="#A5A6A9" stroke-width="1" />
      <text x="348.23999999999796" y="131.32500000000044" fill="#000000">System.Windows.Ink</text>
      <rect x="INF" y="INF" width="-INF" height="-INF" fill="#FFFFFF" stroke="#A5A6A9" stroke-width="1" />
    </g>
    <g id="G:Namespace:System.Windows.Input">
      <rect x="194.26666666666642" y="226.75" rx="5" ry="5" width="159.46666666666715" height="25" fill="#80C0A0" stroke="#A5A6A9" stroke-width="1" />
      <text x="214.26666666666642" y="244.7" fill="#000000">System.Windows.Input</text>
      <rect x="INF" y="INF" width="-INF" height="-INF" fill="#FFFFFF" stroke="#A5A6A9" stroke-width="1" />
    </g>
    <g id="G:Namespace:System.Windows.Input.StylusPlugIns">
      <rect x="132.36166666666395" y="56.6875" rx="5" ry="5" width="231.2766666666721" height="25" fill="#80C0A0" stroke="#A5A6A9" stroke-width="1" />
      <text x="152.36166666666395" y="74.6375" fill="#000000">System.Windows.Input.StylusPlugIns</text>
      <rect x="INF" y="INF" width="-INF" height="-INF" fill="#FFFFFF" stroke="#A5A6A9" stroke-width="1" />
    </g>
    <g id="G:Namespace:System.Windows.Interop">
      <rect x="127.9216666666689" y="113.37500000000046" rx="5" ry="5" width="170.1566666666622" height="25" fill="#80C0A0" stroke="#A5A6A9" stroke-width="1" />
      <text x="146.9216666666689" y="131.32500000000044" fill="#000000">System.Windows.Interop</text>
      <rect x="INF" y="INF" width="-INF" height="-INF" fill="#FFFFFF" stroke="#A5A6A9" stroke-width="1" />
    </g>
    <g id="G:Namespace:System.Windows.Markup">
      <rect x="1066.7816666666658" y="510.1875" rx="5" ry="5" width="172.43666666666832" height="25" fill="#80C0A0" stroke="#A5A6A9" stroke-width="1" />
      <text x="1086.7816666666658" y="528.1375" fill="#000000">System.Windows.Markup</text>
      <rect x="INF" y="INF" width="-INF" height="-INF" fill="#FFFFFF" stroke="#A5A6A9" stroke-width="1" />
    </g>
    <g id="G:Namespace:System.Windows.Markup.Primitives">
      <rect x="2319.9150000000009" y="113.37499999999955" rx="5" ry="5" width="226.16999999999825" height="25" fill="#80C0A0" stroke="#A5A6A9" stroke-width="1" />
      <text x="2338.9150000000009" y="131.32499999999953" fill="#000000">System.Windows.Markup.Primitives</text>
      <rect x="INF" y="INF" width="-INF" height="-INF" fill="#FFFFFF" stroke="#A5A6A9" stroke-width="1" />
    </g>
    <g id="G:Namespace:System.Windows.Media">
      <rect x="552.64666666666744" y="226.75" rx="5" ry="5" width="164.70666666666511" height="25" fill="#80C0A0" stroke="#A5A6A9" stroke-width="1" />
      <text x="571.64666666666744" y="244.7" fill="#000000">System.Windows.Media</text>
      <rect x="INF" y="INF" width="-INF" height="-INF" fill="#FFFFFF" stroke="#A5A6A9" stroke-width="1" />
    </g>
    <g id="G:Namespace:System.Windows.Media.Animation">
      <rect x="1026.010000000002" y="283.4375" rx="5" ry="5" width="221.97999999999593" height="25" fill="#80C0A0" stroke="#A5A6A9" stroke-width="1" />
      <text x="1045.010000000002" y="301.3875" fill="#000000">System.Windows.Media.Animation</text>
      <rect x="INF" y="INF" width="-INF" height="-INF" fill="#FFFFFF" stroke="#A5A6A9" stroke-width="1" />
    </g>
    <g id="G:Namespace:System.Windows.Media.Converters">
      <rect x="1397.8183333333291" y="453.49999999999909" rx="5" ry="5" width="224.36333333334187" height="25" fill="#80C0A0" stroke="#A5A6A9" stroke-width="1" />
      <text x="1417.8183333333291" y="471.44999999999908" fill="#000000">System.Windows.Media.Converters</text>
      <rect x="INF" y="INF" width="-INF" height="-INF" fill="#FFFFFF" stroke="#A5A6A9" stroke-width="1" />
    </g>
    <g id="G:Namespace:System.Windows.Media.Effects">
      <rect x="920.06500000000233" y="396.8125" rx="5" ry="5" width="201.86999999999534" height="25" fill="#80C0A0" stroke="#A5A6A9" stroke-width="1" />
      <text x="939.06500000000233" y="414.7625" fill="#000000">System.Windows.Media.Effects</text>
      <rect x="INF" y="INF" width="-INF" height="-INF" fill="#FFFFFF" stroke="#A5A6A9" stroke-width="1" />
    </g>
    <g id="G:Namespace:System.Windows.Media.Imaging">
      <rect x="480.61333333333459" y="453.50000000000091" rx="5" ry="5" width="210.77333333333081" height="25" fill="#80C0A0" stroke="#A5A6A9" stroke-width="1" />
      <text x="499.61333333333459" y="471.4500000000009" fill="#000000">System.Windows.Media.Imaging</text>
      <rect x="INF" y="INF" width="-INF" height="-INF" fill="#FFFFFF" stroke="#A5A6A9" stroke-width="1" />
    </g>
    <g id="G:Namespace:System.Windows.Media.Media3D">
      <rect x="1045.3383333333331" y="340.125" rx="5" ry="5" width="215.32333333333372" height="25" fill="#80C0A0" stroke="#A5A6A9" stroke-width="1" />
      <text x="1065.3383333333331" y="358.075" fill="#000000">System.Windows.Media.Media3D</text>
      <rect x="INF" y="INF" width="-INF" height="-INF" fill="#FFFFFF" stroke="#A5A6A9" stroke-width="1" />
    </g>
    <g id="G:Namespace:System.Windows.Media.Media3D.Converters">
      <rect x="1934.5099999999948" y="453.5" rx="5" ry="5" width="274.98000000001048" height="25" fill="#80C0A0" stroke="#A5A6A9" stroke-width="1" />
      <text x="1954.5099999999948" y="471.45" fill="#000000">System.Windows.Media.Media3D.Converters</text>
      <rect x="INF" y="INF" width="-INF" height="-INF" fill="#FFFFFF" stroke="#A5A6A9" stroke-width="1" />
    </g>
    <g id="G:Namespace:System.Windows.Media.TextFormatting">
      <rect x="685.66166666666686" y="283.4375" rx="5" ry="5" width="246.67666666666628" height="25" fill="#80C0A0" stroke="#A5A6A9" stroke-width="1" />
      <text x="704.66166666666686" y="301.3875" fill="#000000">System.Windows.Media.TextFormatting</text>
      <rect x="INF" y="INF" width="-INF" height="-INF" fill="#FFFFFF" stroke="#A5A6A9" stroke-width="1" />
    </g>
    <g id="G:Namespace:System.Windows.Navigation">
      <rect x="1040.361666666664" y="113.37500000000091" rx="5" ry="5" width="189.2766666666721" height="25" fill="#80C0A0" stroke="#A5A6A9" stroke-width="1" />
      <text x="1060.361666666664" y="131.3250000000009" fill="#000000">System.Windows.Navigation</text>
      <rect x="INF" y="INF" width="-INF" height="-INF" fill="#FFFFFF" stroke="#A5A6A9" stroke-width="1" />
    </g>
    <g id="G:Namespace:System.Windows.Resources">
      <rect x="308.70999999999185" y="565.1875" rx="5" ry="5" width="184.67666666666628" height="25" fill="#80C0A0" stroke="#A5A6A9" stroke-width="1" />
      <text x="327.70999999999185" y="583.1375" fill="#000000">System.Windows.Resources</text>
      <rect x="INF" y="INF" width="-INF" height="-INF" fill="#FFFFFF" stroke="#A5A6A9" stroke-width="1" />
    </g>
    <g id="G:Namespace:System.Windows.Threading">
      <rect x="292.48166666666657" y="510.1875" rx="5" ry="5" width="185.03666666666686" height="25" fill="#80C0A0" stroke="#A5A6A9" stroke-width="1" />
      <text x="312.48166666666657" y="528.1375" fill="#000000">System.Windows.Threading</text>
      <rect x="INF" y="INF" width="-INF" height="-INF" fill="#FFFFFF" stroke="#A5A6A9" stroke-width="1" />
    </g>
    <g id="G:Namespace:System.Windows.Xps">
      <rect x="1315.6016666666692" y="56.687500000000909" rx="5" ry="5" width="150.79666666666162" height="25" fill="#80C0A0" stroke="#A5A6A9" stroke-width="1" />
      <text x="1334.6016666666692" y="74.637500000000912" fill="#000000">System.Windows.Xps</text>
      <rect x="INF" y="INF" width="-INF" height="-INF" fill="#FFFFFF" stroke="#A5A6A9" stroke-width="1" />
    </g>
    <g id="G:Namespace:System.Windows.Xps.Packaging">
      <rect x="2470.371666666666" y="170.0625" rx="5" ry="5" width="207.25666666666803" height="25" fill="#80C0A0" stroke="#A5A6A9" stroke-width="1" />
      <text x="2490.371666666666" y="188.0125" fill="#000000">System.Windows.Xps.Packaging</text>
      <rect x="INF" y="INF" width="-INF" height="-INF" fill="#FFFFFF" stroke="#A5A6A9" stroke-width="1" />
    </g>
    <g id="G:Namespace:System.Windows.Xps.Serialization">
      <rect x="2371.3133333333317" y="56.6875" rx="5" ry="5" width="217.37333333333663" height="25" fill="#80C0A0" stroke="#A5A6A9" stroke-width="1" />
      <text x="2391.3133333333317" y="74.6375" fill="#000000">System.Windows.Xps.Serialization</text>
      <rect x="INF" y="INF" width="-INF" height="-INF" fill="#FFFFFF" stroke="#A5A6A9" stroke-width="1" />
    </g>
    <g id="G:Namespace:UIAutomationClientsideProviders">
      <rect x="1723.3966666666674" rx="5" ry="5" width="215.20666666666511" height="25" fill="#80C0A0" stroke="#A5A6A9" stroke-width="1" />
      <text x="1742.3966666666674" y="17.950000000000003" fill="#000000">UIAutomationClientsideProviders</text>
      <rect x="INF" y="INF" width="-INF" height="-INF" fill="#FFFFFF" stroke="#A5A6A9" stroke-width="1" />
    </g>
    <text x="2958.0849999999991" y="22.950000000000003" fill="#000000">LEGEND</text>
    <text x="2958.0849999999991" y="45.910000000000004" fill="#000000">Class</text>
    <text x="2958.0849999999991" y="68.87" fill="#000000">Group</text>
    <rect x="3021.4983333333325" y="32.96" width="20" height="20" fill="#008080" />
    <rect x="3021.4983333333325" y="55.92" width="20" height="20" fill="#80C0A0" />
    <rect x="2948.0849999999991" width="103.41333333333333" height="85.92" fill="none" stroke="#000000" stroke-width="1" />
  </g>
</svg>