<?xml version="1.0" encoding="utf-8"?>
<svg stroke-linecap="round" font-size="12" font-family="Segoe UI" width="1083.6066666666666" height="521.8125" xmlns:xlink="http://www.w3.org/1999/xlink" xmlns="http://www.w3.org/2000/svg">
  <defs />
  <g transform="translate(20,20)">
    <g id="mathlib">
      <rect rx="5" ry="5" width="863" height="481.8125" fill="#EEEEEE" stroke="#A5A6A9" stroke-width="1" />
      <text x="411" y="17.950000000000003" fill="#000000">mathlib</text>
      <rect x="5" y="27.96" width="853" height="448.8525" fill="#1E1E1E" stroke="#A5A6A9" stroke-width="1" />
      <g id="mathlib.algebra-&gt;mathlib.data">
        <path d="M 425,64.9999269814502 L 425,95.0155644409132 C 425,119.758590823711 420.046592983041,137.301710108248 410.139778949123,147.644922294525" fill="none" stroke="#D02030" stroke-width="8.39231742277876" />
        <path d="M 403.199558985667,153.374963665845 L 417.499055536185,149.604006956158 C 411.454750793033,149.237614781557 408.824807105213,146.052229807492 409.609224472726,140.047852033964 z" fill="#D02030" stroke="#D02030" stroke-width="1" stroke-linejoin="round" />
      </g>
      <g id="mathlib.algebra-&gt;mathlib.linear_algebra">
        <path d="M 464.845,59.2625396822015 L 508.5,66.6718026754443 C 564.166666666667,76.119723263934 594.833333333333,104.463485029403 600.5,151.703087971851 L 606.42863277674,201.126545330339" fill="none" stroke="#D02030" stroke-width="6.6438561897747244" />
        <path d="M 607.500551267916,210.062487196783 L 611.518523448934,198.874130318661 C 608.189981688321,200.915261226665 604.667283865158,201.337829434014 600.950429979446,200.141834940707 z" fill="#D02030" stroke="#D02030" stroke-width="1" stroke-linejoin="round" />
      </g>
      <g id="mathlib.algebra-&gt;mathlib.tactic">
        <path d="M 412.617674497498,64.9999269814502 L 242.5,236.734373268258 C 120.833333333333,359.557340918623 121.5,425.692785038051 244.5,435.140705626541 L 385.909767022554,446.002723913255" fill="none" stroke="#D02030" stroke-width="6.8579809951275728" />
        <path d="M 394.883333333333,446.692004741709 L 384.358580272042,440.43859075189 C 386.048363283987,444.198375538742 385.77117076112,447.807072287769 383.527002703439,451.264680998971 z" fill="#D02030" stroke="#D02030" stroke-width="1" stroke-linejoin="round" />
      </g>
      <g id="mathlib.algebra-&gt;mathlib.ring_theory">
        <path d="M 385.155,57.5416949513934 L 313,66.6718026754444 C 238.333333333333,76.1197232639341 236.5,113.911405617893 307.5,180.04684973732 L 393.994997118045,260.615653237468" fill="none" stroke="#D02030" stroke-width="6.1699250014423122" />
        <path d="M 400.580563868326,266.750010727721 L 396.82290413682,256.300568476035 C 395.150292369474,259.375380885121 392.839701866615,261.855925589814 389.891132628243,263.742202590115 z" fill="#D02030" stroke="#D02030" stroke-width="1" stroke-linejoin="round" />
      </g>
      <g id="mathlib.algebra-&gt;mathlib.category_theory">
        <path d="M 464.845,56.5333403196566 L 600,70.2147728961279 C 658.859377838005,76.1729735500713 692.972853108317,82.1311742040145 702.340425810935,88.0893748579579" fill="none" stroke="#D02030" stroke-width="7.6147098441152083" />
        <path d="M 705,96.6874401349072 L 706.94766592403,83.3318979232437 C 704.189759062398,87.5173346577335 700.491092559473,88.6614150581823 695.851666415254,86.76413912459 z" fill="#D02030" stroke="#D02030" stroke-width="1" stroke-linejoin="round" />
      </g>
      <g id="mathlib.algebra-&gt;mathlib.topology">
        <path d="M 385.155,56.2897110126598 L 276,66.6718026754444 C 176.666666666667,76.1197232639341 177.333333333333,132.807246794872 278,236.734373268258 L 410.630402393044,373.660498470754" fill="none" stroke="#D02030" stroke-width="2" />
        <path d="M 416.892151949484,380.125057789597 L 412.807790792088,370.159216433446 C 411.588114679618,372.732832068472 409.67269010647,374.588164873036 407.061517072645,375.72521484714 z" fill="#D02030" stroke="#D02030" stroke-width="1" stroke-linejoin="round" />
      </g>
      <g id="mathlib.algebraic_geometry-&gt;mathlib.category_theory">
        <path d="M 545.896361631753,323.437534258659 L 599,307.59377768193 C 662.333333333333,288.697936504951 695.833333333333,250.906254150992 699.5,194.218730620054 L 703.610548764439,130.668686126632" fill="none" stroke="#D02030" stroke-width="4.3219280948873617" />
        <path d="M 704.191473722896,121.687450512388 L 699.426962112753,130.884007438673 C 702.22645309612,130.579159946365 704.994644432758,130.758212306899 707.731536122668,131.421164520274 z" fill="#D02030" stroke="#D02030" stroke-width="1" stroke-linejoin="round" />
      </g>
      <g id="mathlib.algebraic_geometry-&gt;mathlib.topology">
        <path d="M 487.461962513782,348.43754463614 L 452.717884020251,374.69828819831" fill="none" stroke="#D02030" stroke-width="5.1699250014423122" />
        <path d="M 445.538037486218,380.125057789597 L 456.178048707751,377.830270493562 C 453.639422217324,375.91752235206 451.796345823179,373.479054044559 450.648819525315,370.51486557106 z" fill="#D02030" stroke="#D02030" stroke-width="1" stroke-linejoin="round" />
      </g>
      <g id="mathlib.algebraic_geometry-&gt;mathlib.algebra">
        <path d="M 505.029033443587,323.437534258659 L 514.5,208.390611502789 C 521.5,123.359326206382 508.333333333333,76.119723263934 475,66.6718026754443 L 472.158566968949,65.8664336663979" fill="none" stroke="#D02030" stroke-width="4.5849625007211561" />
        <path d="M 463.49966303923,63.4121745650576 L 471.049658962375,70.0137004763242 C 471.768386937436,67.2430329856455 472.548747000461,64.4898343471503 473.39073915145,61.7541045608387 z" fill="#D02030" stroke="#D02030" stroke-width="1" stroke-linejoin="round" />
      </g>
      <g id="mathlib.algebraic_geometry-&gt;mathlib.linear_algebra">
        <path d="M 517.818449099596,323.437534258659 L 551,293.421896799196 C 576.462662830272,270.388673953163 592.790057869483,253.59467650312 599.982185117634,243.039904449067" fill="none" stroke="#D02030" stroke-width="2" />
        <path d="M 604.148842337376,235.062497574264 L 595.973711703902,242.074433050695 C 598.80034744754,242.422622099309 601.164022787729,243.657186798826 603.064737724468,245.778127149248 z" fill="#D02030" stroke="#D02030" stroke-width="1" stroke-linejoin="round" />
      </g>
      <g id="mathlib.algebraic_geometry-&gt;mathlib.ring_theory">
        <path d="M 467.395810363837,323.437534258659 L 462.5,321.765658564665 C 441.097194847756,314.456790970111 427.274753724527,307.147923375558 421.032676630312,299.839055781004" fill="none" stroke="#D02030" stroke-width="4.3219280948873617" />
        <path d="M 417.087100330761,291.750021105202 L 417.505463800848,302.099040488143 C 419.786077697783,300.447107470774 422.27927556284,299.231004091234 424.985057396019,298.450730349522 z" fill="#D02030" stroke="#D02030" stroke-width="1" stroke-linejoin="round" />
      </g>
      <g id="mathlib.algebraic_geometry-&gt;mathlib.data">
        <path d="M 510.615214994487,323.437534258659 L 519,307.59377768193 C 529,288.697936504951 509.333333333333,260.354174739482 460,222.562492385523 L 409.462123730342,183.848072787688" fill="none" stroke="#D02030" stroke-width="3.5849625007211561" />
        <path d="M 402.317530319735,178.374974043326 L 407.823478266593,187.631568298585 C 408.651294411203,184.906530908258 410.272953049482,182.789614667117 412.688454181432,181.280819575163 z" fill="#D02030" stroke="#D02030" stroke-width="1" stroke-linejoin="round" />
      </g>
      <g id="mathlib.algebraic_geometry-&gt;mathlib.tactic">
        <path d="M 504,348.43754463614 L 504,378.453182095603 C 504,405.877205207684 492.298073459308,424.456518504663 468.894220377925,434.191121986537" fill="none" stroke="#D02030" stroke-width="2" />
        <path d="M 460.490253336058,437.411889996055 L 471.259446369872,437.568355329103 C 469.371371168785,435.436154074702 468.417069587066,432.946089898373 468.396541624715,430.098162800115 z" fill="#D02030" stroke="#D02030" stroke-width="1" stroke-linejoin="round" />
      </g>
      <g id="mathlib.category_theory-&gt;mathlib.algebra">
        <path d="M 670.600882028666,96.6874401349072 L 666,95.0155644409132 C 640,85.5676438524235 593.333333333333,76.119723263934 526,66.6718026754443 L 473.757689072226,59.3413887397295" fill="none" stroke="#D02030" stroke-width="6.5235619560570131" />
        <path d="M 464.845,58.0907989587748 L 474.450293159612,64.7518986750543 C 473.513973166004,61.0783004970426 474.001404978449,57.6044769824165 475.912588596946,54.3304281311761 z" fill="#D02030" stroke="#D02030" stroke-width="1" stroke-linejoin="round" />
      </g>
      <g id="mathlib.category_theory-&gt;mathlib.tactic">
        <path d="M 764.178172100004,121.430744679257 L 773.5,123.359326206382 C 819.166666666666,132.807246794872 842,184.770810031565 842,279.250015916461 C 842,373.729221801358 773.166666666666,425.692785038051 635.5,435.14070562654 L 472.095546555144,446.354983834428" fill="none" stroke="#D02030" stroke-width="5" />
        <path d="M 463.116666666667,446.971195051086 L 473.401305464402,450.775955858301 C 472.198248424387,447.851463812929 471.992844685901,444.858503855927 472.785094248943,441.797075987296 z" fill="#D02030" stroke="#D02030" stroke-width="1" stroke-linejoin="round" />
      </g>
      <g id="mathlib.category_theory-&gt;mathlib.data">
        <path d="M 656.488423373759,121.687450512388 L 650,123.359326206382 C 613.333333333333,132.807246794872 560.166666666667,142.255167383362 490.5,151.703087971851 L 426.5916950412,160.370082089493" fill="none" stroke="#D02030" stroke-width="5.9068905956085187" />
        <path d="M 417.673333333333,161.579555388948 L 427.704302076996,165.21798363555 C 426.813586144277,162.006253072263 426.369803938122,158.733911106723 426.372955458531,155.400957738932 z" fill="#D02030" stroke="#D02030" stroke-width="1" stroke-linejoin="round" />
      </g>
      <g id="mathlib.category_theory-&gt;mathlib.linear_algebra">
        <path d="M 687.359426681367,121.687450512388 L 685,123.359326206382 C 671.666666666666,132.807246794872 655.666666666667,151.703087971851 637,180.04684973732 L 622.182417644494,202.546101035071" fill="none" stroke="#D02030" stroke-width="2" />
        <path d="M 617.232267548695,210.062487196783 L 626.073047834058,203.911015507346 C 623.295956012722,203.279456392495 621.068879276266,201.812745677647 619.391817624691,199.510883362803 z" fill="#D02030" stroke="#D02030" stroke-width="1" stroke-linejoin="round" />
      </g>
      <g id="mathlib.category_theory-&gt;mathlib.topology">
        <path d="M 732.783902976846,121.687450512388 L 736.5,123.359326206382 C 757.5,132.807246794872 757.333333333333,175.322889443075 736,250.906254150992 C 714.666666666666,326.48961885891 670.50138140609,366.126803539314 603.504144218272,369.817808192206 C 548.42691453535,372.852117061663 507.65265287535,376.584516964274 481.181359238272,381.01500790004" fill="none" stroke="#D02030" stroke-width="2" />
        <path d="M 472.327198633442,382.628650408645 L 482.882329168454,384.770896750423 C 481.420417384505,382.326735379548 480.942301092039,379.703280420532 481.447980291056,376.900531873372 z" fill="#D02030" stroke="#D02030" stroke-width="1" stroke-linejoin="round" />
      </g>
      <g id="mathlib.data-&gt;mathlib.topology">
        <path d="M 381.295847115031,178.374974043326 L 354,250.906254150992 C 332.666666666667,307.59377768193 339.833333333333,345.385460035889 375.5,364.281301212868 L 397.452885232068,375.911718952726" fill="none" stroke="#D02030" stroke-width="3.5849625007211561" />
        <path d="M 405.405733186329,380.125057789597 L 398.441831131519,371.908971849746 C 398.077083521485,374.733519362985 396.828686942651,377.089918542468 394.696641395017,378.978169388194 z" fill="#D02030" stroke="#D02030" stroke-width="1" stroke-linejoin="round" />
      </g>
      <g id="mathlib.data-&gt;mathlib.tactic">
        <path d="M 376.444689452407,178.374974043326 L 288.5,293.421896799196 C 223.5,378.453182095603 230.666666666667,425.692785038051 310,435.140705626541 L 385.946484787904,444.185281558276" fill="none" stroke="#D02030" stroke-width="7.4918530963296748" />
        <path d="M 394.883333333333,445.249583684771 L 383.659967789137,438.126447298919 C 386.172981151178,442.283412113239 385.71998842463,446.087151003314 382.300989609494,449.537663969147 z" fill="#D02030" stroke="#D02030" stroke-width="1" stroke-linejoin="round" />
      </g>
      <g id="mathlib.data-&gt;mathlib.algebra">
        <path d="M 386,153.374963665845 L 386,123.359326206382 C 386,98.6162998235841 390.953407016959,81.073180539047 400.860221050877,70.7299683527705" fill="none" stroke="#D02030" stroke-width="8.3398500028846243" />
        <path d="M 407.800441014333,64.9999269814502 L 393.58238209104,68.7376660776976 C 399.550816622449,69.1440191133995 402.169625479304,72.3159175921415 401.438808661605,78.2533615139239 z" fill="#D02030" stroke="#D02030" stroke-width="1" stroke-linejoin="round" />
      </g>
      <g id="mathlib.data-&gt;mathlib.ring_theory">
        <path d="M 386,178.374974043326 L 386,180.04684973732 C 386,189.49477032581 390.666666666667,208.390611502789 400,236.734373268258 L 407.068937661998,258.201546663968" fill="none" stroke="#D02030" stroke-width="5.8073549220576037" />
        <path d="M 409.883866225652,266.750010727721 L 411.635337480561,256.390698249245 C 408.621489323389,257.690306049794 405.516386000608,258.712787278142 402.320027512219,259.458141934289 z" fill="#D02030" stroke="#D02030" stroke-width="1" stroke-linejoin="round" />
      </g>
      <g id="mathlib.data-&gt;mathlib.linear_algebra">
        <path d="M 417.673333333333,172.066288953332 L 458.5,180.04684973732 C 504.485996513853,189.035926494122 540.363619973014,198.025003250925 566.132870377483,207.014080007727" fill="none" stroke="#D02030" stroke-width="3.5849625007211561" />
        <path d="M 574.600882028666,210.062487196783 L 566.546828217153,202.911807704506 C 566.584486235836,205.759559822851 565.68125451913,208.268600192603 563.837133067035,210.438928813764 z" fill="#D02030" stroke="#D02030" stroke-width="1" stroke-linejoin="round" />
      </g>
      <g id="mathlib.linear_algebra-&gt;mathlib.algebra">
        <path d="M 604.678059536935,210.062487196783 L 584.5,151.703087971851 C 568.166666666667,104.463485029403 537.5,76.119723263934 492.5,66.6718026754443 L 473.580129679044,62.6995041790684" fill="none" stroke="#D02030" stroke-width="7.2854022188622487" />
        <path d="M 464.772166202215,60.8502388573931 L 475.020659574277,68.7676756690603 C 473.193653704993,64.5402710091244 473.966605653095,60.8587373490125 477.339515418582,57.7230746887247 z" fill="#D02030" stroke="#D02030" stroke-width="1" stroke-linejoin="round" />
      </g>
      <g id="mathlib.linear_algebra-&gt;mathlib.data">
        <path d="M 552.875001836616,212.36509766097 L 531,208.390611502789 C 481.572109685989,199.410019530801 445.546423165098,190.429427558814 422.922940437324,181.448835586827" fill="none" stroke="#D02030" stroke-width="7.3219280948873626" />
        <path d="M 414.617693425095,177.981432805602 L 423.247452055341,187.718834778457 C 422.195946316097,183.190157877366 423.64993455855,179.707513296287 427.6094167827,177.27090103522 z" fill="#D02030" stroke="#D02030" stroke-width="1" stroke-linejoin="round" />
      </g>
      <g id="mathlib.linear_algebra-&gt;mathlib.tactic">
        <path d="M 632.373759647188,235.062497574264 L 635.5,236.734373268258 C 653.166666666667,246.182293856747 674.333333333333,274.526055622216 699,321.765658564665 C 723.666666666666,369.005261507113 684.833333333333,402.072983566827 582.5,420.968824743806 L 471.967051848049,441.378724090085" fill="none" stroke="#D02030" stroke-width="5.4594316186372982" />
        <path d="M 463.116666666667,443.012946950761 L 473.086380931057,445.981711288437 C 472.253326277468,442.929087280382 471.680777418631,439.828360899787 471.368734354546,436.679532146651 z" fill="#D02030" stroke="#D02030" stroke-width="1" stroke-linejoin="round" />
      </g>
      <g id="mathlib.linear_algebra-&gt;mathlib.ring_theory">
        <path d="M 574.600882028666,235.062497574264 L 570,236.734373268258 C 544,246.182293856747 511.5,255.630214445237 472.5,265.078135033727 L 470.636683587302,265.529531584968" fill="none" stroke="#D02030" stroke-width="6.08746284125034" />
        <path d="M 461.889692338413,267.648528474909 L 472.543339511682,270.257258488943 C 471.032522511305,267.163512088034 470.240844663299,263.895551081902 470.168305967665,260.453375470547 z" fill="#D02030" stroke="#D02030" stroke-width="1" stroke-linejoin="round" />
      </g>
      <g id="mathlib.ring_theory-&gt;mathlib.algebra">
        <path d="M 365.345952976247,268.30526418815 L 288,250.906254150992 C 204,232.010412974013 162,198.942690914299 162,151.703087971851 C 162,104.463485029403 205.833333333333,76.1197232639341 293.5,66.6718026754444 L 376.206814643908,57.7584100874302" fill="none" stroke="#D02030" stroke-width="7.7279204545632" />
        <path d="M 385.155,56.7940555856569 L 372.233186808262,52.2887361303458 C 375.99737255441,55.8150099843045 376.416256733406,59.7018101905559 373.489839345251,63.9491367491 z" fill="#D02030" stroke="#D02030" stroke-width="1" stroke-linejoin="round" />
      </g>
      <g id="mathlib.ring_theory-&gt;mathlib.linear_algebra">
        <path d="M 431.199558985667,266.750010727721 L 433.5,265.078135033727 C 446.5,255.630214445237 479,246.182293856747 531,236.734373268258 L 544.019974042641,234.368764021737" fill="none" stroke="#D02030" stroke-width="6.7548875021634691" />
        <path d="M 552.875001836616,232.759887110077 L 541.279980387991,229.401113677083 C 543.699542747081,232.605156123785 544.3404053382,236.13237191969 543.202568161348,239.982761064798 z" fill="#D02030" stroke="#D02030" stroke-width="1" stroke-linejoin="round" />
      </g>
      <g id="mathlib.ring_theory-&gt;mathlib.data">
        <path d="M 405.179713340684,266.750010727721 L 384,236.734373268258 C 367.170821969642,212.884262628202 361.198457877755,195.723781288234 366.082907724336,185.252929248352" fill="none" stroke="#D02030" stroke-width="8" />
        <path d="M 371.887541345094,178.374974043326 L 359.046761937743,184.287197744657 C 364.554473604868,183.963010978675 367.611341843805,186.542847518028 368.217366654553,192.026707362716 z" fill="#D02030" stroke="#D02030" stroke-width="1" stroke-linejoin="round" />
      </g>
      <g id="mathlib.ring_theory-&gt;mathlib.tactic">
        <path d="M 387.539140022051,291.750021105202 L 384,293.421896799196 C 364,302.869817387686 354,326.48961885891 354,364.281301212868 C 354,400.849228482843 365.703567136928,424.148231003407 389.110701410785,434.17830877456" fill="none" stroke="#D02030" stroke-width="5" />
        <path d="M 397.509746663942,437.411889996055 L 389.794265184607,429.619499763139 C 389.649631585489,432.778467974043 388.57177123608,435.578149575077 386.56068413638,438.018544566243 z" fill="#D02030" stroke="#D02030" stroke-width="1" stroke-linejoin="round" />
      </g>
      <g id="mathlib.ring_theory-&gt;mathlib.algebraic_geometry">
        <path d="M 451.486218302095,291.750021105202 L 456.5,293.421896799196 C 478.261785792971,300.678495294574 492.157960719797,307.935093789952 498.188524780478,315.19169228533" fill="none" stroke="#D02030" stroke-width="3" />
        <path d="M 501.794928335171,323.437534258659 L 501.452632048486,312.672645348311 C 499.410130573084,314.657410463397 496.966918987872,315.725974107264 494.122997292849,315.878336279914 z" fill="#D02030" stroke="#D02030" stroke-width="1" stroke-linejoin="round" />
      </g>
      <g id="mathlib.tactic-&gt;mathlib.algebra">
        <path d="M 394.883333333333,446.942501528314 L 225,435.140705626541 C 89.0000000000003,425.692785038051 21.0000000000002,364.281301212868 21.0000000000002,250.906254150992 C 21.0000000000002,137.531207089117 88.3333333333335,76.1197232639341 223,66.6718026754444 L 376.177068091225,55.925232561804" fill="none" stroke="#D02030" stroke-width="3.5849625007211561" />
        <path d="M 385.155,55.2953603757423 L 374.899576928407,52.0050264074896 C 376.083753693479,54.5951685780231 376.27038248897,57.255296545585 375.459463314879,59.9854103101752 z" fill="#D02030" stroke="#D02030" stroke-width="1" stroke-linejoin="round" />
      </g>
      <g id="mathlib.tactic-&gt;mathlib.data">
        <path d="M 398.76772042608,436.938629399235 L 290.5,392.625062978337 C 198.166666666667,354.833380624379 164.333333333333,312.317737976175 189,265.078135033727 C 213.666666666667,217.838532091279 252.666666666667,189.49477032581 306,180.04684973732 L 345.46464461525,173.055746705235" fill="none" stroke="#D02030" stroke-width="7.20945336562895" />
        <path d="M 354.326666666667,171.485852694075 L 341.990737326901,167.979154221703 C 345.138762143309,171.216146304201 345.790527087191,174.89534710627 343.946032158548,179.016756627912 z" fill="#D02030" stroke="#D02030" stroke-width="1" stroke-linejoin="round" />
      </g>
      <g id="mathlib.tactic-&gt;mathlib.category_theory">
        <path d="M 463.116666666667,446.727039257318 L 616,435.14070562654 C 740.666666666666,425.692785038051 803,373.729221801358 803,279.250015916461 C 803,187.541503192614 787.610601080716,135.891573225272 756.831803242148,124.300226014435" fill="none" stroke="#D02030" stroke-width="3.5849625007211561" />
        <path d="M 748.21940463065,121.687450512388 L 756.627502570588,128.418266884301 C 756.444725403534,125.576136875206 757.218881080761,123.024315153665 758.949969602269,120.762801719678 z" fill="#D02030" stroke="#D02030" stroke-width="1" stroke-linejoin="round" />
      </g>
      <g id="mathlib.topology-&gt;mathlib.ring_theory">
        <path d="M 410.03638368247,380.125057789597 L 407.5,378.453182095603 C 393.166666666667,369.005261507113 386,354.833380624378 386,335.937539447399 C 386,320.184366384435 389.24347391346,307.714488032029 395.730421740381,298.527904390181" fill="none" stroke="#D02030" stroke-width="4.5849625007211561" />
        <path d="M 401.651598676957,291.750021105202 L 391.839855844268,296.4569413159 C 394.652868774883,297.586551242159 396.807974705879,299.469257538203 398.305173637254,302.105060204034 z" fill="#D02030" stroke="#D02030" stroke-width="1" stroke-linejoin="round" />
      </g>
      <g id="mathlib.topology-&gt;mathlib.algebra">
        <path d="M 403.935685409776,380.125057789597 L 130.625,243.820313709625 C 102.208333333334,229.648432826891 102.041666666667,215.476551944156 130.125,201.304671061422 L 392.19480691481,69.0546264362143" fill="none" stroke="#D02030" stroke-width="6.4594316186372973" />
        <path d="M 400.229694965086,64.9999269814502 L 388.646782374308,64.987205350187 C 391.409439357253,67.4983235650172 392.980174472367,70.6109293074115 393.35898771965,74.3250225773698 z" fill="#D02030" stroke="#D02030" stroke-width="1" stroke-linejoin="round" />
      </g>
      <g id="mathlib.topology-&gt;mathlib.data">
        <path d="M 385.213434426734,383.696458783109 L 359.5,378.453182095603 C 313.166666666667,369.005261507113 290,335.937539447399 290,279.250015916461 C 290,222.562492385524 306,189.49477032581 338,180.04684973732 L 346.014003549829,177.680735076862" fill="none" stroke="#D02030" stroke-width="6.584962500721157" />
        <path d="M 354.645648637445,175.132263285117 L 343.042289535958,173.039788525597 C 345.514457671089,175.988778844807 346.513549428568,179.372691308918 346.039564808394,183.191525917931 z" fill="#D02030" stroke="#D02030" stroke-width="1" stroke-linejoin="round" />
      </g>
      <g id="mathlib.topology-&gt;mathlib.tactic">
        <path d="M 429,405.125068167077 L 429,427.812577584641" fill="none" stroke="#D02030" stroke-width="5.9068905956085187" />
        <path d="M 429,436.812581320534 L 433.953445297804,427.361556311379 C 430.651148432601,427.812577584641 427.348851567399,427.812577584641 424.046554702196,427.361556311379 z" fill="#D02030" stroke="#D02030" stroke-width="1" stroke-linejoin="round" />
      </g>
      <g id="mathlib.topology-&gt;mathlib.linear_algebra">
        <path d="M 470.639436336945,380.881597669056 L 554.625,357.195360771501 C 604.875,343.023479888766 630,325.308628785348 630,304.050807461247 L 630,293.421896799196 C 630,270.1778858496 627.64616937504,253.287819135253 622.938508125121,242.751696656155" fill="none" stroke="#D02030" stroke-width="4.8073549220576037" />
        <path d="M 618.261300992282,235.062497574264 L 619.695891517404,245.894594564505 C 621.68440655361,243.514545003962 624.192609696633,241.988848308349 627.220500946473,241.317504477665 z" fill="#D02030" stroke="#D02030" stroke-width="1" stroke-linejoin="round" />
      </g>
      <g id="mathlib.topology-&gt;mathlib.category_theory">
        <path d="M 472.586049052534,383.144587231228 C 497.632895577359,378.287155541932 535.94780160456,374.013501633926 587.530767134139,370.323625507211 C 643.843589044713,366.295409310983 681.5,326.48961885891 700.5,250.906254150992 C 716.693332025731,186.488016238505 723.080503308276,146.089585579986 719.661513847635,129.710962175435" fill="none" stroke="#D02030" stroke-width="7.6438561897747244" />
        <path d="M 715.584343991179,121.687450512388 L 715.934585376922,135.228101975898 C 717.931428938009,130.590109653356 721.39159875726,128.831814697514 726.315094834676,129.953217108374 z" fill="#D02030" stroke="#D02030" stroke-width="1" stroke-linejoin="round" />
      </g>
      <g id="mathlib.algebra">
        <rect x="385.15499999999975" y="40" rx="5" ry="5" width="79.690000000000509" height="25" fill="#EEEEEE" stroke="#D02030" stroke-width="2" />
        <text x="405.15499999999975" y="57.95" fill="#000000">algebra</text>
        <rect x="INF" y="INF" width="-INF" height="-INF" fill="#1E1E1E" stroke="#D02030" stroke-width="2" />
      </g>
      <g id="mathlib.algebraic_geometry">
        <rect x="431.92333333333363" y="323.4375" rx="5" ry="5" width="144.15333333333274" height="25" fill="none" stroke="#F9EC31" stroke-width="6" />
        <rect x="431.92333333333363" y="323.4375" rx="5" ry="5" width="144.15333333333274" height="25" fill="#EEEEEE" stroke="#D02030" stroke-width="2" />
        <text x="450.92333333333363" y="341.3875" fill="#000000">algebraic_geometry</text>
        <rect x="INF" y="INF" width="-INF" height="-INF" fill="#1E1E1E" stroke="#D02030" stroke-width="2" />
      </g>
      <g id="mathlib.category_theory">
        <rect x="642.40333333333274" y="96.6875" rx="5" ry="5" width="125.19333333333452" height="25" fill="#EEEEEE" stroke="#D02030" stroke-width="2" />
        <text x="662.40333333333274" y="114.6375" fill="#000000">category_theory</text>
        <rect x="INF" y="INF" width="-INF" height="-INF" fill="#1E1E1E" stroke="#D02030" stroke-width="2" />
      </g>
      <g id="mathlib.data">
        <rect x="354.32666666666682" y="153.375" rx="5" ry="5" width="63.346666666666351" height="25" fill="#EEEEEE" stroke="#D02030" stroke-width="2" />
        <text x="373.32666666666682" y="171.325" fill="#000000">data</text>
        <rect x="INF" y="INF" width="-INF" height="-INF" fill="#1E1E1E" stroke="#D02030" stroke-width="2" />
      </g>
      <g id="mathlib.linear_algebra">
        <rect x="552.085" y="210.0625" rx="5" ry="5" width="113.82999999999993" height="25" fill="#EEEEEE" stroke="#D02030" stroke-width="2" />
        <text x="571.085" y="228.0125" fill="#000000">linear_algebra</text>
        <rect x="INF" y="INF" width="-INF" height="-INF" fill="#1E1E1E" stroke="#D02030" stroke-width="2" />
      </g>
      <g id="mathlib.ring_theory">
        <rect x="363.9699999999998" y="266.75" rx="5" ry="5" width="100.0600000000004" height="25" fill="#EEEEEE" stroke="#D02030" stroke-width="2" />
        <text x="383.9699999999998" y="284.7" fill="#000000">ring_theory</text>
        <rect x="INF" y="INF" width="-INF" height="-INF" fill="#1E1E1E" stroke="#D02030" stroke-width="2" />
      </g>
      <g id="mathlib.tactic">
        <rect x="394.88333333333333" y="436.8125" rx="5" ry="5" width="68.233333333333576" height="25" fill="#EEEEEE" stroke="#D02030" stroke-width="2" />
        <text x="414.88333333333333" y="454.7625" fill="#000000">tactic</text>
        <rect x="INF" y="INF" width="-INF" height="-INF" fill="#1E1E1E" stroke="#D02030" stroke-width="2" />
      </g>
      <g id="mathlib.topology">
        <rect x="385.00500000000011" y="380.125" rx="5" ry="5" width="87.989999999999782" height="25" fill="#EEEEEE" stroke="#D02030" stroke-width="2" />
        <text x="404.00500000000011" y="398.075" fill="#000000">topology</text>
        <rect x="INF" y="INF" width="-INF" height="-INF" fill="#1E1E1E" stroke="#D02030" stroke-width="2" />
      </g>
    </g>
    <text x="893" y="22.950000000000003" fill="#000000">LEGEND</text>
    <text x="893" y="45.910000000000004" fill="#000000">Circular References</text>
    <text x="893" y="68.87" fill="#000000">Center</text>
    <rect x="1013.6066666666667" y="32.96" width="20" height="20" fill="none" stroke="#D02030" stroke-width="1" />
    <rect x="1033.6066666666666" y="32.96" width="20" height="20" fill="none" stroke="#D02030" stroke-width="1" />
    <rect x="1013.6066666666667" y="55.92" width="20" height="20" fill="none" stroke="#A0B862" stroke-width="1" />
    <rect x="883" width="180.60666666666668" height="85.92" fill="none" stroke="#000000" stroke-width="1" />
  </g>
</svg>