<?xml version="1.0" encoding="utf-8"?>
<svg stroke-linecap="round" font-size="12" font-family="Segoe UI" width="994.72333333333347" height="235.00000000000006" xmlns:xlink="http://www.w3.org/1999/xlink" xmlns="http://www.w3.org/2000/svg">
  <defs />
  <g transform="translate(20,20)">
    <g id="mathlib">
      <rect rx="5" ry="5" width="774.11666666666679" height="195.00000000000006" fill="#EEEEEE" stroke="#A5A6A9" stroke-width="1" />
      <text x="366" y="17.950000000000003" fill="#000000">mathlib</text>
      <rect x="5" y="27.96" width="764.11666666666679" height="162.04000000000005" fill="#1E1E1E" stroke="#A5A6A9" stroke-width="1" />
      <g id="mathlib.analysis-&gt;mathlib.combinatorics">
        <path d="M 313.208636363637,64.9999333333333 L 368.34915112768,91.1441965488812" fill="none" stroke="#A0A0A0" stroke-width="1" />
        <path d="M 376.481363636364,94.9999948717948 L 369.159262860353,87.1014608162916 C 368.920380293784,89.9394247789718 367.777921961577,92.3489683187906 365.731887863733,94.3300914357481 z" fill="#A0A0A0" stroke="#A0A0A0" stroke-width="1" stroke-linejoin="round" />
      </g>
      <g id="mathlib.category_theory-&gt;mathlib.combinatorics">
        <path d="M 509.481363636364,64.9999333333333 L 442.569098195105,91.667919915546" fill="none" stroke="#A0A0A0" stroke-width="1" />
        <path d="M 434.208636363637,94.9999948717948 L 444.978957573091,95.0134501750542 C 443.062738790567,92.9065065052882 442.075457599642,90.4293333258037 442.017114000317,87.5819306366006 z" fill="#A0A0A0" stroke="#A0A0A0" stroke-width="1" stroke-linejoin="round" />
      </g>
      <g id="mathlib.combinatorics-&gt;mathlib.algebra">
        <path d="M 345.607052542832,115.719631676663 L 266.122263687904,127.133983288704 C 189.513426559535,138.135336077962 136.909796912449,146.365696364239 108.311374746647,151.825064147534" fill="none" stroke="#A0A0A0" stroke-width="2.292481250360578" />
        <path d="M 99.4842235578174,153.58045998073 L 110.072344422805,155.553198318272 C 108.571433368309,153.132790147535 108.051316124986,150.517338147534 108.511992692838,147.706842318269 z" fill="#A0A0A0" stroke="#A0A0A0" stroke-width="1" stroke-linejoin="round" />
      </g>
      <g id="mathlib.combinatorics-&gt;mathlib.data">
        <path d="M 349.066137644567,119.773230043558 L 202.292737280721,153.269302985723" fill="none" stroke="#A0A0A0" stroke-width="3.4534452978042594" />
        <path d="M 193.518333333332,155.271764425719 L 204.157652834482,156.946542187827 C 202.58939820467,154.56921454963 201.996076356773,151.969391421816 202.377687290791,149.147072804384 z" fill="#A0A0A0" stroke="#A0A0A0" stroke-width="1" stroke-linejoin="round" />
      </g>
      <g id="mathlib.combinatorics-&gt;mathlib.order">
        <path d="M 402.845,120.000046153846 L 402.845,141.000089230769" fill="none" stroke="#A0A0A0" stroke-width="1.792481250360578" />
        <path d="M 402.845,150.000107692308 L 406.845,140.000107692308 C 404.178333333334,141.000089230769 401.511666666667,141.000089230769 398.845,140.000107692308 z" fill="#A0A0A0" stroke="#A0A0A0" stroke-width="1" stroke-linejoin="round" />
      </g>
      <g id="mathlib.combinatorics-&gt;mathlib.tactic">
        <path d="M 425.345,120.000046153846 L 471.477584514906,145.629312345984" fill="none" stroke="#A0A0A0" stroke-width="1.792481250360578" />
        <path d="M 479.345,150.000107692308 L 472.54600623757,141.647043355286 C 472.125109438131,144.463769875037 470.830059591682,146.794854816931 468.660856698225,148.640298180968 z" fill="#A0A0A0" stroke="#A0A0A0" stroke-width="1" stroke-linejoin="round" />
      </g>
      <g id="mathlib.combinatorics-&gt;mathlib.topology">
        <path d="M 450.117727272728,120.000046153846 L 559.786386740345,148.999030017276" fill="none" stroke="#A0A0A0" stroke-width="1.792481250360578" />
        <path d="M 568.487342191571,151.299768149313 L 559.84216535224,144.876301996472 C 560.127236788288,147.709999752854 559.445536692401,150.288060281697 557.797065064579,152.610483583001 z" fill="#A0A0A0" stroke="#A0A0A0" stroke-width="1" stroke-linejoin="round" />
      </g>
      <g id="mathlib.combinatorics-&gt;mathlib.linear_algebra">
        <path d="M 375.117727272728,120.000046153846 L 316.777047651982,146.301226163407" fill="none" stroke="#A0A0A0" stroke-width="1.5" />
        <path d="M 308.572272727273,150.000107692308 L 319.332632928198,149.536806120591 C 317.325029910843,147.516747953319 316.229065393122,145.085704373494 316.044739375035,142.243675381117 z" fill="#A0A0A0" stroke="#A0A0A0" stroke-width="1" stroke-linejoin="round" />
      </g>
      <g id="mathlib.dynamics-&gt;mathlib.combinatorics">
        <path d="M 402.845,64.9999333333333 L 402.845,85.9999764102563" fill="none" stroke="#A0A0A0" stroke-width="1" />
        <path d="M 402.845,94.9999948717948 L 406.845,84.9999948717948 C 404.178333333334,85.9999764102563 401.511666666667,85.9999764102563 398.845,84.9999948717948 z" fill="#A0A0A0" stroke="#A0A0A0" stroke-width="1" stroke-linejoin="round" />
      </g>
      <g id="mathlib.group_theory-&gt;mathlib.combinatorics">
        <path d="M 212.712044532837,64.4657242099749 L 340.107556001672,93.3001583812211" fill="none" stroke="#A0A0A0" stroke-width="1.5" />
        <path d="M 348.885522461524,95.2869449887377 L 340.015243551734,89.1780864977814 C 340.401894728918,91.999719035684 339.813217274426,94.6005977267582 338.249211188258,96.980722571004 z" fill="#A0A0A0" stroke="#A0A0A0" stroke-width="1" stroke-linejoin="round" />
      </g>
      <g id="mathlib.number_theory-&gt;mathlib.combinatorics">
        <path d="M 635.105504440845,63.6018969801892 L 467.884548088671,95.2072972046689" fill="none" stroke="#A0A0A0" stroke-width="1" />
        <path d="M 459.041115979259,96.8787396917419 L 469.61001423623,98.9519954969406 C 468.132169180348,96.517435202261 467.636926996994,93.8971592070769 468.124287686168,91.0911675113884 z" fill="#A0A0A0" stroke="#A0A0A0" stroke-width="1" stroke-linejoin="round" />
      </g>
      <g id="mathlib.algebra">
        <rect x="20" y="150.00000000000011" rx="5" ry="5" width="79.690000000000509" height="25" fill="#EEEEEE" stroke="#A5A6A9" stroke-width="1" />
        <text x="40" y="167.9500000000001" fill="#000000">algebra</text>
        <rect x="INF" y="INF" width="-INF" height="-INF" fill="#1E1E1E" stroke="#A5A6A9" stroke-width="1" />
      </g>
      <g id="mathlib.analysis">
        <rect x="246.44000000000051" y="40" rx="5" ry="5" width="80.809999999999491" height="25" fill="#EEEEEE" stroke="#A5A6A9" stroke-width="1" />
        <text x="265.44000000000051" y="57.95" fill="#000000">analysis</text>
        <rect x="INF" y="INF" width="-INF" height="-INF" fill="#1E1E1E" stroke="#A5A6A9" stroke-width="1" />
      </g>
      <g id="mathlib.category_theory">
        <rect x="478.24833333333208" y="40" rx="5" ry="5" width="125.19333333333634" height="25" fill="#EEEEEE" stroke="#A5A6A9" stroke-width="1" />
        <text x="498.24833333333208" y="57.95" fill="#000000">category_theory</text>
        <rect x="INF" y="INF" width="-INF" height="-INF" fill="#1E1E1E" stroke="#A5A6A9" stroke-width="1" />
      </g>
      <g id="mathlib.combinatorics">
        <rect x="345.5550000000004" y="95" rx="5" ry="5" width="114.57999999999993" height="25" fill="none" stroke="#F9EC31" stroke-width="8" />
        <rect x="345.5550000000004" y="95" rx="5" ry="5" width="114.57999999999993" height="25" fill="#EEEEEE" stroke="#A0B862" stroke-width="4" />
        <text x="364.5550000000004" y="112.95" fill="#000000">combinatorics</text>
        <rect x="INF" y="INF" width="-INF" height="-INF" fill="#1E1E1E" stroke="#A0B862" stroke-width="4" />
      </g>
      <g id="mathlib.data">
        <rect x="130.171666666668" y="150.00000000000011" rx="5" ry="5" width="63.346666666664532" height="25" fill="#EEEEEE" stroke="#A5A6A9" stroke-width="1" />
        <text x="149.171666666668" y="167.9500000000001" fill="#000000">data</text>
        <rect x="INF" y="INF" width="-INF" height="-INF" fill="#1E1E1E" stroke="#A5A6A9" stroke-width="1" />
      </g>
      <g id="mathlib.dynamics">
        <rect x="358.01999999999958" y="40" rx="5" ry="5" width="89.650000000001455" height="25" fill="#EEEEEE" stroke="#A5A6A9" stroke-width="1" />
        <text x="378.01999999999958" y="57.95" fill="#000000">dynamics</text>
        <rect x="INF" y="INF" width="-INF" height="-INF" fill="#1E1E1E" stroke="#A5A6A9" stroke-width="1" />
      </g>
      <g id="mathlib.group_theory">
        <rect x="104.22666666666737" y="40.000000000000114" rx="5" ry="5" width="111.23666666666577" height="25" fill="#EEEEEE" stroke="#A5A6A9" stroke-width="1" />
        <text x="123.22666666666737" y="57.950000000000117" fill="#000000">group_theory</text>
        <rect x="INF" y="INF" width="-INF" height="-INF" fill="#1E1E1E" stroke="#A5A6A9" stroke-width="1" />
      </g>
      <g id="mathlib.linear_algebra">
        <rect x="223.93000000000029" y="150" rx="5" ry="5" width="113.82999999999993" height="25" fill="#EEEEEE" stroke="#A5A6A9" stroke-width="1" />
        <text x="242.93000000000029" y="167.95" fill="#000000">linear_algebra</text>
        <rect x="INF" y="INF" width="-INF" height="-INF" fill="#1E1E1E" stroke="#A5A6A9" stroke-width="1" />
      </g>
      <g id="mathlib.number_theory">
        <rect x="633.57333333333372" y="40" rx="5" ry="5" width="120.54333333333307" height="25" fill="#EEEEEE" stroke="#A5A6A9" stroke-width="1" />
        <text x="652.57333333333372" y="57.95" fill="#000000">number_theory</text>
        <rect x="INF" y="INF" width="-INF" height="-INF" fill="#1E1E1E" stroke="#A5A6A9" stroke-width="1" />
      </g>
      <g id="mathlib.order">
        <rect x="368.48500000000058" y="150" rx="5" ry="5" width="68.719999999999345" height="25" fill="#EEEEEE" stroke="#A5A6A9" stroke-width="1" />
        <text x="387.48500000000058" y="167.95" fill="#000000">order</text>
        <rect x="INF" y="INF" width="-INF" height="-INF" fill="#1E1E1E" stroke="#A5A6A9" stroke-width="1" />
      </g>
      <g id="mathlib.tactic">
        <rect x="467.72833333333358" y="150" rx="5" ry="5" width="68.233333333333576" height="25" fill="#EEEEEE" stroke="#A5A6A9" stroke-width="1" />
        <text x="487.72833333333358" y="167.95" fill="#000000">tactic</text>
        <rect x="INF" y="INF" width="-INF" height="-INF" fill="#1E1E1E" stroke="#A5A6A9" stroke-width="1" />
      </g>
      <g id="mathlib.topology">
        <rect x="566.85000000000036" y="150" rx="5" ry="5" width="87.989999999999782" height="25" fill="#EEEEEE" stroke="#A5A6A9" stroke-width="1" />
        <text x="585.85000000000036" y="167.95" fill="#000000">topology</text>
        <rect x="INF" y="INF" width="-INF" height="-INF" fill="#1E1E1E" stroke="#A5A6A9" stroke-width="1" />
      </g>
    </g>
    <text x="804.11666666666679" y="22.950000000000003" fill="#000000">LEGEND</text>
    <text x="804.11666666666679" y="45.910000000000004" fill="#000000">Circular References</text>
    <text x="804.11666666666679" y="68.87" fill="#000000">Center</text>
    <rect x="924.72333333333347" y="32.96" width="20" height="20" fill="none" stroke="#D02030" stroke-width="1" />
    <rect x="944.72333333333347" y="32.96" width="20" height="20" fill="none" stroke="#D02030" stroke-width="1" />
    <rect x="924.72333333333347" y="55.92" width="20" height="20" fill="none" stroke="#A0B862" stroke-width="1" />
    <rect x="794.11666666666679" width="180.60666666666668" height="85.92" fill="none" stroke="#000000" stroke-width="1" />
  </g>
</svg>