<?xml version="1.0" encoding="utf-8"?>
<svg stroke-linecap="round" font-size="12" font-family="Segoe UI" width="1494.9275666666631" height="309.01010822497796" xmlns:xlink="http://www.w3.org/1999/xlink" xmlns="http://www.w3.org/2000/svg">
  <defs />
  <g transform="translate(20,20)">
    <g id="mathlib">
      <rect rx="5" ry="5" width="1274.3208999999965" height="269.01010822497796" fill="#EEEEEE" stroke="#A5A6A9" stroke-width="1" />
      <text x="617" y="17.950000000000003" fill="#000000">mathlib</text>
      <rect x="5" y="27.96" width="1264.3208999999965" height="236.05010822497795" fill="#1E1E1E" stroke="#A5A6A9" stroke-width="1" />
      <g id="mathlib.algebra-&gt;mathlib.data">
        <path d="M 956.686303817445,137.919066087036 L 946.784211729238,140.894946220956 C 906.89686039249,152.88230963672 886.05209804681,163.067514699307 884.2499246922,171.450561408718 L 881.276338657092,185.282588479247 C 878.573078625177,197.857158543364 801.966114207104,213.134966137245 651.455445402874,231.116011260891 L 646.912032205337,231.658798814553" fill="none" stroke="#A0A0A0" stroke-width="4.19615871138938" />
        <path d="M 637.975578094938,232.726409409078 L 648.391099369057,235.609319569651 C 647.074074902271,233.015180188524 646.749989508404,230.302417440581 647.418843187458,227.471031325823 z" fill="#A0A0A0" stroke="#A0A0A0" stroke-width="1" stroke-linejoin="round" />
      </g>
      <g id="mathlib.algebraic_geometry-&gt;mathlib.data">
        <path d="M 603.316539786034,64.9998818539646 L 606.33818456706,66.8846935578874 C 625.555782817388,78.8720569736513 635.164581942551,89.0572620362388 635.164581942551,97.44030874565 L 635.164581942551,107.499964796943 C 635.164581942551,122.589448873884 628.945982406145,134.924490984395 616.508783333333,144.505091128478 L 613.39948356513,146.900241164498 C 603.736648360148,154.343698474711 600.618280677999,177.061997636425 604.044380518682,215.055138649639" fill="none" stroke="#A0A0A0" stroke-width="1.792481250360578" />
        <path d="M 604.941816303084,224.010300402991 L 607.924731558332,213.661280324741 C 605.371068585389,214.922185456989 602.717692451975,215.188091842289 599.964603158092,214.458999480639 z" fill="#A0A0A0" stroke="#A0A0A0" stroke-width="1" stroke-linejoin="round" />
      </g>
      <g id="mathlib.algebraic_topology-&gt;mathlib.data">
        <path d="M 753.298170779153,194.010241855006 L 646.364215516758,224.927438618201" fill="none" stroke="#A0A0A0" stroke-width="1" />
        <path d="M 637.718329291502,227.427173758106 L 648.435861323732,228.492306209076 C 646.734546592841,226.208310458732 645.993884440675,223.64656677767 646.213874867235,220.807075165891 z" fill="#A0A0A0" stroke="#A0A0A0" stroke-width="1" stroke-linejoin="round" />
      </g>
      <g id="mathlib.analysis-&gt;mathlib.data">
        <path d="M 460.314033410679,84.0100271790601 L 463.257158641134,85.8948388829831 C 481.975374175412,97.882202298747 492.235568619857,111.399811251416 494.037741974467,126.447665740989 L 497.822306019149,158.048160169094 C 499.984914044681,176.105585556582 524.452001769483,196.551193038695 571.223569193553,219.384982615432 L 572.610168182392,220.061917584307" fill="none" stroke="#A0A0A0" stroke-width="3.1609640474436813" />
        <path d="M 580.697833727328,224.010300402991 L 573.466378201945,216.02869336027 C 573.195113565445,218.863745361035 572.025222799338,221.26008980758 569.956705903623,223.217726699905 z" fill="#A0A0A0" stroke="#A0A0A0" stroke-width="1" stroke-linejoin="round" />
      </g>
      <g id="mathlib.category_theory-&gt;mathlib.data">
        <path d="M 800.597491718976,136.992572854748 L 788.301310454984,139.084680186156 C 748.88480047542,145.791117553685 727.468012383681,153.218418262484 724.050946179767,161.366582312554 L 713.799747568025,185.811074462765 C 708.920398772911,197.446123966507 686.263699155544,210.061066399396 645.829648715925,223.655901761433" fill="none" stroke="#A0A0A0" stroke-width="2.9534452978042594" />
        <path d="M 637.279316885397,226.465146569432 L 648.028236790136,227.143910800604 C 646.245833052789,224.922617347319 645.41346437906,222.389186175547 645.531130768947,219.543617285289 z" fill="#A0A0A0" stroke="#A0A0A0" stroke-width="1" stroke-linejoin="round" />
      </g>
      <g id="mathlib.combinatorics-&gt;mathlib.data">
        <path d="M 711.32075490779,139.010134517033 L 710.250782869739,152.388221273167 C 707.491160029392,186.89236947467 695.021448181706,207.740652600151 672.841647326681,214.93307064961 L 645.840440606094,223.688963808601" fill="none" stroke="#A0A0A0" stroke-width="3.4534452978042594" />
        <path d="M 637.279316885398,226.465146569432 L 648.025533584354,227.185442799507 C 646.251726864658,224.957278198369 645.42915434753,222.420649418832 645.55781603297,219.575556460895 z" fill="#A0A0A0" stroke="#A0A0A0" stroke-width="1" stroke-linejoin="round" />
      </g>
      <g id="mathlib.computability-&gt;mathlib.data">
        <path d="M 445.525975541092,139.010134517033 L 577.994391856805,219.343481345001" fill="none" stroke="#A0A0A0" stroke-width="2.9036774610288019" />
        <path d="M 585.689902553847,224.010300402991 L 579.213480314694,215.404723433362 C 578.685772095192,218.203406284426 577.303011618418,220.483556405577 575.065198884372,222.245173796814 z" fill="#A0A0A0" stroke="#A0A0A0" stroke-width="1" stroke-linejoin="round" />
      </g>
      <g id="mathlib.control-&gt;mathlib.data">
        <path d="M 335.946996530168,84.01002717906 L 340.577728241372,97.3881139351941 C 352.521099229868,131.892262136698 373.252973303942,150.225631249355 402.773350463594,152.388221273167 L 424.913633333334,154.010163791025 C 469.194199072812,157.254048826743 492.145459952126,161.064183586745 493.767415971276,165.440568071033 L 494.57839398085,167.628760313177 C 495.659697993616,170.546349969368 520.667437724801,186.339629242024 569.601613174403,215.008598131144 L 577.200906686342,219.460781237763" fill="none" stroke="#A0A0A0" stroke-width="3.04373142062517" />
        <path d="M 584.966340103344,224.010300402991 L 578.360092563503,215.503979609466 C 577.874909189513,218.310347231183 576.526904183171,220.611215244344 574.316077544477,222.40658364895 z" fill="#A0A0A0" stroke="#A0A0A0" stroke-width="1" stroke-linejoin="round" />
      </g>
      <g id="mathlib.deprecated-&gt;mathlib.data">
        <path d="M 337.470781830923,137.20767946812 L 444.959160699588,160.771802902297 C 479.119953566529,168.260697499075 496.300470741922,172.275291987852 496.500712225768,172.815586368628 L 497.822306019149,176.381529281751 C 498.362958025532,177.840324109847 522.559719747142,191.445411140359 570.412591183978,217.196790373288 L 575.148576087336,219.745396958972" fill="none" stroke="#A0A0A0" stroke-width="1" />
        <path d="M 583.07389435286,224.010300402991 L 576.163500839216,215.749158745411 C 575.780413357695,218.571276249009 574.516738816978,220.919517668935 572.372477217063,222.793883005187 z" fill="#A0A0A0" stroke="#A0A0A0" stroke-width="1" stroke-linejoin="round" />
      </g>
      <g id="mathlib.dynamics-&gt;mathlib.data">
        <path d="M 707.46048890218,84.0100271790602 L 693.910772685817,91.4653144145827 C 645.553358489126,118.072396588604 618.761132872263,134.431499194392 613.534095835226,140.542622231944 L 607.653679168559,147.417635649191 C 601.562098758867,154.539528437207 600.350234959742,177.086254076948 604.018087771183,215.057812568412" fill="none" stroke="#A0A0A0" stroke-width="2" />
        <path d="M 604.941816303084,224.010300402991 L 607.89432904825,213.652565684934 C 605.34437970407,214.920964161279 602.691795838295,215.194660975545 599.936577450924,214.473656127732 z" fill="#A0A0A0" stroke="#A0A0A0" stroke-width="1" stroke-linejoin="round" />
      </g>
      <g id="mathlib.field_theory-&gt;mathlib.data">
        <path d="M 220.736053223434,189.464881624023 L 248.082669944173,193.730436614711 C 278.805899987639,198.522679420475 313.435090920004,203.115808476112 351.970242741268,207.509823781622 L 565.686855610284,231.879108022249" fill="none" stroke="#A0A0A0" stroke-width="2.1609640474436809" />
        <path d="M 574.628911428273,232.898736290725 L 565.146462209576,227.79156909013 C 565.837911646274,230.55435904536 565.535799574293,233.203856999139 564.240125993634,235.740062951464 z" fill="#A0A0A0" stroke="#A0A0A0" stroke-width="1" stroke-linejoin="round" />
      </g>
      <g id="mathlib.group_theory-&gt;mathlib.data">
        <path d="M 1150.67490009876,194.010241855006 L 646.948274616855,233.337021320643" fill="none" stroke="#A0A0A0" stroke-width="3.5849625007211561" />
        <path d="M 637.975578094938,234.037534733036 L 648.25658006991,237.247051579949 C 647.052054380427,234.666309678544 646.844494853283,232.007732962742 647.633901488478,229.271321432544 z" fill="#A0A0A0" stroke="#A0A0A0" stroke-width="1" stroke-linejoin="round" />
      </g>
      <g id="mathlib.linear_algebra-&gt;mathlib.data">
        <path d="M 571.815385730479,119.999989191937 L 600.047823852129,215.38040170099" fill="none" stroke="#A0A0A0" stroke-width="3.6609640474436813" />
        <path d="M 602.602259031126,224.010300402991 L 603.599506465907,213.286238786522 C 601.326325069414,215.001967538714 598.769322634844,215.758835863267 595.928499162196,215.556843760181 z" fill="#A0A0A0" stroke="#A0A0A0" stroke-width="1" stroke-linejoin="round" />
      </g>
      <g id="mathlib.logic-&gt;mathlib.data">
        <path d="M 1049.93908529721,193.223869629932 C 1049.41411586077,193.278824227185 1048.84693931197,193.336027011144 1048.2375556508,193.39547798181 L 646.933051518923,232.546416582923" fill="none" stroke="#A0A0A0" stroke-width="2.5" />
        <path d="M 637.975578094938,233.420300350568 L 648.316718939156,236.430417630682 C 647.062515778414,233.873449658356 646.803587259432,231.219383507491 647.539933382209,228.468219178086 z" fill="#A0A0A0" stroke="#A0A0A0" stroke-width="1" stroke-linejoin="round" />
      </g>
      <g id="mathlib.measure_theory-&gt;mathlib.data">
        <path d="M 373.174888856579,192.817287513395 L 565.782935120926,228.916142210518" fill="none" stroke="#A0A0A0" stroke-width="2.5849625007211561" />
        <path d="M 574.628911428273,230.574066786186 L 565.536904833653,224.800383725663 C 566.028553560314,227.605627288814 565.537316681538,230.226657132223 564.063194197325,232.66347325589 z" fill="#A0A0A0" stroke="#A0A0A0" stroke-width="1" stroke-linejoin="round" />
      </g>
      <g id="mathlib.meta-&gt;mathlib.data">
        <path d="M 555.016044708809,175.00009652991 L 590.116431794497,217.097830807666" fill="none" stroke="#A0A0A0" stroke-width="1.792481250360578" />
        <path d="M 595.879933386129,224.010300402991 L 592.548255273397,213.768234158666 C 591.140500185214,216.243979703015 589.092363403781,217.951681912317 586.403844929099,218.891340786571 z" fill="#A0A0A0" stroke="#A0A0A0" stroke-width="1" stroke-linejoin="round" />
      </g>
      <g id="mathlib.model_theory-&gt;mathlib.data">
        <path d="M 833.606399716437,84.0100271790601 L 829.419482099607,85.8948388829831 C 802.790772738167,97.882202298747 788.575331380142,108.067407361335 786.773158025532,116.450454070746 L 784.610549999999,126.510110122039 C 781.366637961701,141.599594198979 769.094415739478,150.766278755308 747.793883333333,154.010163791025 C 726.493350927188,157.254048826743 714.221128704965,166.420733383072 710.977216666667,181.510217460012 L 709.355260647517,189.054959498482 C 707.296746474498,198.630409285405 686.121941984327,210.165273481859 645.830847177005,223.659552087843" fill="none" stroke="#A0A0A0" stroke-width="1.792481250360578" />
        <path d="M 637.279316885397,226.465146569432 L 648.027946051628,227.148499367672 C 646.24649072508,224.926445224111 645.41520362893,222.392658951576 645.534084763178,219.547140550068 z" fill="#A0A0A0" stroke="#A0A0A0" stroke-width="1" stroke-linejoin="round" />
      </g>
      <g id="mathlib.number_theory-&gt;mathlib.data">
        <path d="M 897.456281139622,190.895188518109 L 646.867116310289,230.155021718942" fill="none" stroke="#A0A0A0" stroke-width="3.6047266828144751" />
        <path d="M 637.975578094938,231.548060031158 L 648.474192648781,233.952034334231 C 647.073492346894,231.472286578146 646.660740273684,228.837756859738 647.23593642915,226.048445179009 z" fill="#A0A0A0" stroke="#A0A0A0" stroke-width="1" stroke-linejoin="round" />
      </g>
      <g id="mathlib.order-&gt;mathlib.data">
        <path d="M 86.3988189104435,193.232079893348 C 86.9868089341416,193.284515649393 87.6201913300456,193.338981678881 88.2989660981553,193.39547798181 L 565.659924882796,233.127552008689" fill="none" stroke="#A0A0A0" stroke-width="3.7617809780285065" />
        <path d="M 574.628911428273,233.874065586754 L 564.995154764014,229.058389877796 C 565.770519485469,231.798813279052 565.549330280124,234.456290738326 564.331587147977,237.030822255618 z" fill="#A0A0A0" stroke="#A0A0A0" stroke-width="1" stroke-linejoin="round" />
      </g>
      <g id="mathlib.ring_theory-&gt;mathlib.data">
        <path d="M 191.916495201323,139.010134517033 L 196.571251593458,140.761289528038 C 211.426605159521,146.349987334312 235.674047374651,149.745055688508 269.313578238848,150.946494590626 L 355.094381942552,154.010163791025 C 445.921115275885,157.254048826743 492.145459952126,161.064183586745 493.767415971276,165.440568071033 L 494.57839398085,167.628760313177 C 495.659697993616,170.546349969368 520.667437724801,186.339629242024 569.601613174403,215.008598131144 L 577.200906686342,219.460781237763" fill="none" stroke="#A0A0A0" stroke-width="4" />
        <path d="M 584.966340103344,224.010300402991 L 578.360092563503,215.503979609466 C 577.874909189513,218.310347231183 576.526904183171,220.611215244344 574.316077544477,222.40658364895 z" fill="#A0A0A0" stroke="#A0A0A0" stroke-width="1" stroke-linejoin="round" />
      </g>
      <g id="mathlib.set_theory-&gt;mathlib.data">
        <path d="M 261.305538187783,82.6238793312685 L 274.766077159654,85.8948388829831 C 324.096058126031,97.882202298747 349.662135286525,108.067407361335 351.464308641135,116.450454070746 L 353.626916666668,126.510110122039 C 356.870828704966,141.599594198979 380.633067593855,150.766278755308 424.913633333334,154.010163791025 C 469.194199072812,157.254048826743 492.145459952126,161.064183586745 493.767415971276,165.440568071033 L 494.57839398085,167.628760313177 C 495.659697993616,170.546349969368 520.667437724801,186.339629242024 569.601613174403,215.008598131144 L 577.200906686342,219.460781237763" fill="none" stroke="#A0A0A0" stroke-width="2.5" />
        <path d="M 584.966340103344,224.010300402991 L 578.360092563503,215.503979609466 C 577.874909189513,218.310347231183 576.526904183171,220.611215244344 574.316077544477,222.40658364895 z" fill="#A0A0A0" stroke="#A0A0A0" stroke-width="1" stroke-linejoin="round" />
      </g>
      <g id="mathlib.tactic-&gt;mathlib.data">
        <path d="M 947.762159704749,79.4353829756469 L 942.421511574706,80.6766873403952 C 889.835927007645,92.8989334155002 855.31349953893,99.5507039590056 838.854229168559,100.631998970911 L 826.509776390781,101.442970229841 C 801.820870835225,103.0649127477 787.854462038298,111.420626045099 784.610549999999,126.510110122039 C 781.366637961701,141.599594198979 769.094415739478,150.766278755308 747.793883333333,154.010163791025 C 726.493350927188,157.254048826743 714.221128704965,166.420733383072 710.977216666667,181.510217460012 L 709.355260647517,189.054959498482 C 707.296746474498,198.630409285405 686.121941984328,210.165273481859 645.830847177005,223.659552087843" fill="none" stroke="#A0A0A0" stroke-width="3.6047266828144751" />
        <path d="M 637.279316885398,226.465146569432 L 648.027946051628,227.148499367672 C 646.24649072508,224.926445224111 645.41520362893,222.392658951576 645.534084763178,219.547140550068 z" fill="#A0A0A0" stroke="#A0A0A0" stroke-width="1" stroke-linejoin="round" />
      </g>
      <g id="mathlib.testing-&gt;mathlib.data">
        <path d="M 478.501229216281,193.449353818374 L 567.003905966147,223.269235756576" fill="none" stroke="#A0A0A0" stroke-width="2.1609640474436809" />
        <path d="M 575.5327903401,226.142937823403 L 567.333454696831,219.159321639146 C 567.429639520968,222.005697582211 566.578172411325,224.53277393094 564.779053367901,226.740550685334 z" fill="#A0A0A0" stroke="#A0A0A0" stroke-width="1" stroke-linejoin="round" />
      </g>
      <g id="mathlib.topology-&gt;mathlib.data">
        <path d="M 641.600366233698,194.010241855006 L 622.434299922685,217.086807234064" fill="none" stroke="#A0A0A0" stroke-width="3.2924812503605785" />
        <path d="M 616.684045194574,224.010300402991 L 626.150314256923,218.873204916316 C 623.460001429767,217.938695839544 621.408598415603,216.234918628583 619.99610521443,213.761873283434 z" fill="#A0A0A0" stroke="#A0A0A0" stroke-width="1" stroke-linejoin="round" />
      </g>
      <g id="mathlib.algebra">
        <rect x="954.80403333333538" y="114.0101082249779" rx="5" ry="5" width="79.690000000000509" height="25" fill="#EEEEEE" stroke="#A5A6A9" stroke-width="1" />
        <text x="974.80403333333538" y="131.96010822497789" fill="#000000">algebra</text>
        <rect x="INF" y="INF" width="-INF" height="-INF" fill="#1E1E1E" stroke="#A5A6A9" stroke-width="1" />
      </g>
      <g id="mathlib.algebraic_geometry">
        <rect x="511.20039999999904" y="40" rx="5" ry="5" width="144.15333333333376" height="25" fill="#EEEEEE" stroke="#A5A6A9" stroke-width="1" />
        <text x="531.200399999999" y="57.95" fill="#000000">algebraic_geometry</text>
        <rect x="INF" y="INF" width="-INF" height="-INF" fill="#1E1E1E" stroke="#A5A6A9" stroke-width="1" />
      </g>
      <g id="mathlib.algebraic_topology">
        <rect x="725.977266666666" y="169.01010822497784" rx="5" ry="5" width="141.11000000000058" height="25" fill="#EEEEEE" stroke="#A5A6A9" stroke-width="1" />
        <text x="745.977266666666" y="186.96010822497783" fill="#000000">algebraic_topology</text>
        <rect x="INF" y="INF" width="-INF" height="-INF" fill="#1E1E1E" stroke="#A5A6A9" stroke-width="1" />
      </g>
      <g id="mathlib.analysis">
        <rect x="400.39029999999957" y="59.01010822497787" rx="5" ry="5" width="80.809999999999491" height="25" fill="#EEEEEE" stroke="#A5A6A9" stroke-width="1" />
        <text x="419.39029999999957" y="76.960108224977873" fill="#000000">analysis</text>
        <rect x="INF" y="INF" width="-INF" height="-INF" fill="#1E1E1E" stroke="#A5A6A9" stroke-width="1" />
      </g>
      <g id="mathlib.category_theory">
        <rect x="799.610599999999" y="114.01010822497784" rx="5" ry="5" width="125.19333333333634" height="25" fill="#EEEEEE" stroke="#A5A6A9" stroke-width="1" />
        <text x="819.610599999999" y="131.96010822497783" fill="#000000">category_theory</text>
        <rect x="INF" y="INF" width="-INF" height="-INF" fill="#1E1E1E" stroke="#A5A6A9" stroke-width="1" />
      </g>
      <g id="mathlib.combinatorics">
        <rect x="655.03049999999917" y="114.0101082249779" rx="5" ry="5" width="114.57999999999993" height="25" fill="#EEEEEE" stroke="#A5A6A9" stroke-width="1" />
        <text x="674.03049999999917" y="131.96010822497789" fill="#000000">combinatorics</text>
        <rect x="INF" y="INF" width="-INF" height="-INF" fill="#1E1E1E" stroke="#A5A6A9" stroke-width="1" />
      </g>
      <g id="mathlib.computability">
        <rect x="368.62696666666739" y="114.0101082249779" rx="5" ry="5" width="112.5733333333319" height="25" fill="#EEEEEE" stroke="#A5A6A9" stroke-width="1" />
        <text x="387.62696666666739" y="131.96010822497789" fill="#000000">computability</text>
        <rect x="INF" y="INF" width="-INF" height="-INF" fill="#1E1E1E" stroke="#A5A6A9" stroke-width="1" />
      </g>
      <g id="mathlib.control">
        <rect x="292.85020000000043" y="59.010108224977813" rx="5" ry="5" width="77.539999999999054" height="25" fill="#EEEEEE" stroke="#A5A6A9" stroke-width="1" />
        <text x="311.85020000000043" y="76.960108224977816" fill="#000000">control</text>
        <rect x="INF" y="INF" width="-INF" height="-INF" fill="#1E1E1E" stroke="#A5A6A9" stroke-width="1" />
      </g>
      <g id="mathlib.data">
        <rect x="574.62891142827266" y="224.0101082249779" rx="5" ry="5" width="63.346666666664532" height="25" fill="none" stroke="#F9EC31" stroke-width="8" />
        <rect x="574.62891142827266" y="224.0101082249779" rx="5" ry="5" width="63.346666666664532" height="25" fill="#EEEEEE" stroke="#A0B862" stroke-width="4" />
        <text x="593.62891142827266" y="241.96010822497789" fill="#000000">data</text>
        <rect x="INF" y="INF" width="-INF" height="-INF" fill="#1E1E1E" stroke="#A0B862" stroke-width="4" />
      </g>
      <g id="mathlib.deprecated">
        <rect x="238.72019999999935" y="114.01010822497784" rx="5" ry="5" width="99.906666666667661" height="25" fill="#EEEEEE" stroke="#A5A6A9" stroke-width="1" />
        <text x="258.72019999999935" y="131.96010822497783" fill="#000000">deprecated</text>
        <rect x="INF" y="INF" width="-INF" height="-INF" fill="#1E1E1E" stroke="#A5A6A9" stroke-width="1" />
      </g>
      <g id="mathlib.dynamics">
        <rect x="685.35383333333277" y="59.010108224977785" rx="5" ry="5" width="89.650000000001455" height="25" fill="#EEEEEE" stroke="#A5A6A9" stroke-width="1" />
        <text x="705.35383333333277" y="76.960108224977787" fill="#000000">dynamics</text>
        <rect x="INF" y="INF" width="-INF" height="-INF" fill="#1E1E1E" stroke="#A5A6A9" stroke-width="1" />
      </g>
      <g id="mathlib.field_theory">
        <rect x="118.72009999999943" y="169.0101082249779" rx="5" ry="5" width="102.03666666666697" height="25" fill="#EEEEEE" stroke="#A5A6A9" stroke-width="1" />
        <text x="138.72009999999943" y="186.96010822497789" fill="#000000">field_theory</text>
        <rect x="INF" y="INF" width="-INF" height="-INF" fill="#1E1E1E" stroke="#A5A6A9" stroke-width="1" />
      </g>
      <g id="mathlib.group_theory">
        <rect x="1143.0842333333308" y="169.01010822497784" rx="5" ry="5" width="111.23666666666577" height="25" fill="#EEEEEE" stroke="#A5A6A9" stroke-width="1" />
        <text x="1162.0842333333308" y="186.96010822497783" fill="#000000">group_theory</text>
        <rect x="INF" y="INF" width="-INF" height="-INF" fill="#1E1E1E" stroke="#A5A6A9" stroke-width="1" />
      </g>
      <g id="mathlib.linear_algebra">
        <rect x="511.20039999999915" y="94.999999999999829" rx="5" ry="5" width="113.82999999999993" height="25" fill="#EEEEEE" stroke="#A5A6A9" stroke-width="1" />
        <text x="530.20039999999915" y="112.94999999999983" fill="#000000">linear_algebra</text>
        <rect x="INF" y="INF" width="-INF" height="-INF" fill="#1E1E1E" stroke="#A5A6A9" stroke-width="1" />
      </g>
      <g id="mathlib.logic">
        <rect x="1047.6307999999995" y="169.01010822497784" rx="5" ry="5" width="65.4533333333311" height="25" fill="#EEEEEE" stroke="#A5A6A9" stroke-width="1" />
        <text x="1066.6307999999995" y="186.96010822497783" fill="#000000">logic</text>
        <rect x="INF" y="INF" width="-INF" height="-INF" fill="#1E1E1E" stroke="#A5A6A9" stroke-width="1" />
      </g>
      <g id="mathlib.measure_theory">
        <rect x="250.7568666666665" y="169.0101082249779" rx="5" ry="5" width="124.17666666666628" height="25" fill="#EEEEEE" stroke="#A5A6A9" stroke-width="1" />
        <text x="269.7568666666665" y="186.96010822497789" fill="#000000">measure_theory</text>
        <rect x="INF" y="INF" width="-INF" height="-INF" fill="#1E1E1E" stroke="#A5A6A9" stroke-width="1" />
      </g>
      <g id="mathlib.meta">
        <rect x="511.20039999999926" y="149.99999999999989" rx="5" ry="5" width="66.786666666666861" height="25" fill="#EEEEEE" stroke="#A5A6A9" stroke-width="1" />
        <text x="531.20039999999926" y="167.94999999999988" fill="#000000">meta</text>
        <rect x="INF" y="INF" width="-INF" height="-INF" fill="#1E1E1E" stroke="#A5A6A9" stroke-width="1" />
      </g>
      <g id="mathlib.model_theory">
        <rect x="805.00393333333432" y="59.0101082249779" rx="5" ry="5" width="112.73999999999978" height="25" fill="#EEEEEE" stroke="#A5A6A9" stroke-width="1" />
        <text x="824.00393333333432" y="76.9601082249779" fill="#000000">model_theory</text>
        <rect x="INF" y="INF" width="-INF" height="-INF" fill="#1E1E1E" stroke="#A5A6A9" stroke-width="1" />
      </g>
      <g id="mathlib.number_theory">
        <rect x="897.08736666666664" y="169.0101082249779" rx="5" ry="5" width="120.54333333333307" height="25" fill="#EEEEEE" stroke="#A5A6A9" stroke-width="1" />
        <text x="916.08736666666664" y="186.96010822497789" fill="#000000">number_theory</text>
        <rect x="INF" y="INF" width="-INF" height="-INF" fill="#1E1E1E" stroke="#A5A6A9" stroke-width="1" />
      </g>
      <g id="mathlib.order">
        <rect x="20" y="169.0101082249779" rx="5" ry="5" width="68.719999999999345" height="25" fill="#EEEEEE" stroke="#A5A6A9" stroke-width="1" />
        <text x="39" y="186.96010822497789" fill="#000000">order</text>
        <rect x="INF" y="INF" width="-INF" height="-INF" fill="#1E1E1E" stroke="#A5A6A9" stroke-width="1" />
      </g>
      <g id="mathlib.ring_theory">
        <rect x="108.6600999999983" y="114.01010822497787" rx="5" ry="5" width="100.06000000000131" height="25" fill="#EEEEEE" stroke="#A5A6A9" stroke-width="1" />
        <text x="128.6600999999983" y="131.96010822497786" fill="#000000">ring_theory</text>
        <rect x="INF" y="INF" width="-INF" height="-INF" fill="#1E1E1E" stroke="#A5A6A9" stroke-width="1" />
      </g>
      <g id="mathlib.set_theory">
        <rect x="168.29010000000292" y="59.010108224977841" rx="5" ry="5" width="94.559999999997643" height="25" fill="#EEEEEE" stroke="#A5A6A9" stroke-width="1" />
        <text x="187.29010000000292" y="76.960108224977844" fill="#000000">set_theory</text>
        <rect x="INF" y="INF" width="-INF" height="-INF" fill="#1E1E1E" stroke="#A5A6A9" stroke-width="1" />
      </g>
      <g id="mathlib.tactic">
        <rect x="947.74403333333407" y="59.0101082249779" rx="5" ry="5" width="68.233333333333576" height="25" fill="#EEEEEE" stroke="#A5A6A9" stroke-width="1" />
        <text x="967.74403333333407" y="76.9601082249779" fill="#000000">tactic</text>
        <rect x="INF" y="INF" width="-INF" height="-INF" fill="#1E1E1E" stroke="#A5A6A9" stroke-width="1" />
      </g>
      <g id="mathlib.testing">
        <rect x="404.93363333333269" y="169.0101082249779" rx="5" ry="5" width="76.266666666666424" height="25" fill="#EEEEEE" stroke="#A5A6A9" stroke-width="1" />
        <text x="423.93363333333269" y="186.96010822497789" fill="#000000">testing</text>
        <rect x="INF" y="INF" width="-INF" height="-INF" fill="#1E1E1E" stroke="#A5A6A9" stroke-width="1" />
      </g>
      <g id="mathlib.topology">
        <rect x="607.987166666666" y="169.01010822497784" rx="5" ry="5" width="87.989999999999782" height="25" fill="#EEEEEE" stroke="#A5A6A9" stroke-width="1" />
        <text x="626.987166666666" y="186.96010822497783" fill="#000000">topology</text>
        <rect x="INF" y="INF" width="-INF" height="-INF" fill="#1E1E1E" stroke="#A5A6A9" stroke-width="1" />
      </g>
    </g>
    <text x="1304.3208999999965" y="22.950000000000003" fill="#000000">LEGEND</text>
    <text x="1304.3208999999965" y="45.910000000000004" fill="#000000">Circular References</text>
    <text x="1304.3208999999965" y="68.87" fill="#000000">Center</text>
    <rect x="1424.9275666666631" y="32.96" width="20" height="20" fill="none" stroke="#D02030" stroke-width="1" />
    <rect x="1444.9275666666631" y="32.96" width="20" height="20" fill="none" stroke="#D02030" stroke-width="1" />
    <rect x="1424.9275666666631" y="55.92" width="20" height="20" fill="none" stroke="#A0B862" stroke-width="1" />
    <rect x="1294.3208999999965" width="180.60666666666668" height="85.92" fill="none" stroke="#000000" stroke-width="1" />
  </g>
</svg>