<?xml version="1.0" encoding="utf-8"?>
<svg stroke-linecap="round" font-size="12" font-family="Segoe UI" width="1278.0066666666662" height="235.00000000000006" xmlns:xlink="http://www.w3.org/1999/xlink" xmlns="http://www.w3.org/2000/svg">
  <defs />
  <g transform="translate(20,20)">
    <g id="mathlib">
      <rect rx="5" ry="5" width="1057.3999999999996" height="195.00000000000006" fill="#EEEEEE" stroke="#A5A6A9" stroke-width="1" />
      <text x="508" y="17.950000000000003" fill="#000000">mathlib</text>
      <rect x="5" y="27.96" width="1047.3999999999996" height="162.04000000000005" fill="#1E1E1E" stroke="#A5A6A9" stroke-width="1" />
      <g id="mathlib.algebra-&gt;mathlib.number_theory">
        <path d="M 528.586818181818,64.9999333333333 L 576.301437075722,90.728457081887" fill="none" stroke="#A0A0A0" stroke-width="1.5" />
        <path d="M 584.223181818182,94.9999948717948 L 577.319707645294,86.7330701506989 C 576.934257196635,89.5548658104701 575.668616954809,91.9020483533038 573.522786919817,93.7746177792 z" fill="#A0A0A0" stroke="#A0A0A0" stroke-width="1" stroke-linejoin="round" />
      </g>
      <g id="mathlib.data-&gt;mathlib.number_theory">
        <path d="M 607.405,64.9999333333332 L 607.405,85.9999764102563" fill="none" stroke="#A0A0A0" stroke-width="1" />
        <path d="M 607.405,94.9999948717948 L 611.405,84.9999948717948 C 608.738333333333,85.9999764102563 606.071666666666,85.9999764102563 603.405,84.9999948717948 z" fill="#A0A0A0" stroke="#A0A0A0" stroke-width="1" stroke-linejoin="round" />
      </g>
      <g id="mathlib.number_theory-&gt;mathlib.group_theory">
        <path d="M 574.905,120.000046153846 L 505.305110455827,146.769289351222" fill="none" stroke="#A0A0A0" stroke-width="1.5" />
        <path d="M 496.905,150.000107692308 L 507.674372477952,150.143691922403 C 505.783750083538,148.013749830531 504.826470828116,145.524828871913 504.802534711686,142.676929046548 z" fill="#A0A0A0" stroke="#A0A0A0" stroke-width="1" stroke-linejoin="round" />
      </g>
      <g id="mathlib.number_theory-&gt;mathlib.measure_theory">
        <path d="M 641.495909090909,120.000046153846 L 714.864204066111,146.901809494411" fill="none" stroke="#A0A0A0" stroke-width="1" />
        <path d="M 723.314090909091,150.000107692308 L 715.302351119168,142.802050625393 C 715.323211094956,145.649974710884 714.405197037267,148.153644277939 712.548308946102,150.313059326557 z" fill="#A0A0A0" stroke="#A0A0A0" stroke-width="1" stroke-linejoin="round" />
      </g>
      <g id="mathlib.number_theory-&gt;mathlib.tactic">
        <path d="M 665.984791186016,118.749218452535 L 713.722525324621,127.916393849479 C 774.452226956439,139.578443519591 817.040251677083,147.977834609302 841.486599486553,153.114567118612" fill="none" stroke="#A0A0A0" stroke-width="2.8502198590705463" />
        <path d="M 850.288338063676,154.993240187449 L 841.343595141394,148.993942390682 C 841.7649213978,151.810605964475 841.208277575305,154.418528272748 839.673663673909,156.817709315502 z" fill="#A0A0A0" stroke="#A0A0A0" stroke-width="1" stroke-linejoin="round" />
      </g>
      <g id="mathlib.number_theory-&gt;mathlib.topology">
        <path d="M 667.676666666666,114.971503338459 L 763.372175113937,126.83424726769 C 850.258887741607,137.60502261001 909.462872276779,145.776282341057 940.984128719454,151.348026460831" fill="none" stroke="#A0A0A0" stroke-width="2.5" />
        <path d="M 949.833974034674,152.9851730311 L 940.728433889261,147.232857092256 C 941.226668935624,150.036938354974 940.741588503285,152.659114566687 939.273192592242,155.099385727395 z" fill="#A0A0A0" stroke="#A0A0A0" stroke-width="1" stroke-linejoin="round" />
      </g>
      <g id="mathlib.number_theory-&gt;mathlib.combinatorics">
        <path d="M 547.133333333333,114.682763821741 L 441.5593324385,127.264313170911 C 352.76243441882,137.846488185768 290.237286308642,145.842469156035 253.983888107963,151.252256081711" fill="none" stroke="#A0A0A0" stroke-width="1" />
        <path d="M 245.086952223297,152.610394304227 L 255.576053037412,155.055545447065 C 254.185093761159,152.570320595647 253.782682454767,149.934191567774 254.368819118234,147.147158363444 z" fill="#A0A0A0" stroke="#A0A0A0" stroke-width="1" stroke-linejoin="round" />
      </g>
      <g id="mathlib.number_theory-&gt;mathlib.linear_algebra">
        <path d="M 607.405,120.000046153846 L 607.405,141.000089230769" fill="none" stroke="#A0A0A0" stroke-width="1.792481250360578" />
        <path d="M 607.405,150.000107692308 L 611.405,140.000107692308 C 608.738333333333,141.000089230769 606.071666666666,141.000089230769 603.405,140.000107692308 z" fill="#A0A0A0" stroke="#A0A0A0" stroke-width="1" stroke-linejoin="round" />
      </g>
      <g id="mathlib.number_theory-&gt;mathlib.field_theory">
        <path d="M 549.077167424726,118.957296842164 L 386.640461299561,150.86457242458" fill="none" stroke="#A0A0A0" stroke-width="2" />
        <path d="M 377.809221914871,152.599283719233 L 388.392692111174,154.596821855032 C 386.89745554585,152.172904085571 386.383467053271,149.556240763589 386.850726633434,146.746831889086 z" fill="#A0A0A0" stroke="#A0A0A0" stroke-width="1" stroke-linejoin="round" />
      </g>
      <g id="mathlib.number_theory-&gt;mathlib.analysis">
        <path d="M 547.133333333333,111.936018658485 L 368.732772474578,125.066310235316 C 230.935728750754,135.208180607303 144.099479936313,143.441932159392 108.224026031256,149.767564891583" fill="none" stroke="#A0A0A0" stroke-width="2.5849625007211561" />
        <path d="M 99.3953076433965,151.51506143121 L 109.981659051054,153.497273295159 C 108.482914387476,151.075523070116 107.965137675036,148.45960671305 108.428328913734,145.64952422396 z" fill="#A0A0A0" stroke="#A0A0A0" stroke-width="1" stroke-linejoin="round" />
      </g>
      <g id="mathlib.ring_theory-&gt;mathlib.number_theory">
        <path d="M 693.950454545454,64.9999333333332 L 640.938035102372,91.0328712820643" fill="none" stroke="#A0A0A0" stroke-width="2" />
        <path d="M 632.859545454545,94.9999948717948 L 643.598806822915,94.1825199413832 C 641.525756881425,92.2296840862257 640.350313323319,89.8360584779028 640.072476148598,87.0016431164145 z" fill="#A0A0A0" stroke="#A0A0A0" stroke-width="1" stroke-linejoin="round" />
      </g>
      <g id="mathlib.algebra">
        <rect x="465.55999999999949" y="40" rx="5" ry="5" width="79.690000000000509" height="25" fill="#EEEEEE" stroke="#A5A6A9" stroke-width="1" />
        <text x="485.55999999999949" y="57.95" fill="#000000">algebra</text>
        <rect x="INF" y="INF" width="-INF" height="-INF" fill="#1E1E1E" stroke="#A5A6A9" stroke-width="1" />
      </g>
      <g id="mathlib.analysis">
        <rect x="20" y="150.00000000000011" rx="5" ry="5" width="80.809999999999548" height="25" fill="#EEEEEE" stroke="#A5A6A9" stroke-width="1" />
        <text x="39" y="167.9500000000001" fill="#000000">analysis</text>
        <rect x="INF" y="INF" width="-INF" height="-INF" fill="#1E1E1E" stroke="#A5A6A9" stroke-width="1" />
      </g>
      <g id="mathlib.combinatorics">
        <rect x="131.11499999999978" y="150.00000000000011" rx="5" ry="5" width="114.57999999999993" height="25" fill="#EEEEEE" stroke="#A5A6A9" stroke-width="1" />
        <text x="150.11499999999978" y="167.9500000000001" fill="#000000">combinatorics</text>
        <rect x="INF" y="INF" width="-INF" height="-INF" fill="#1E1E1E" stroke="#A5A6A9" stroke-width="1" />
      </g>
      <g id="mathlib.data">
        <rect x="575.73166666666748" y="40" rx="5" ry="5" width="63.346666666664532" height="25" fill="#EEEEEE" stroke="#A5A6A9" stroke-width="1" />
        <text x="594.73166666666748" y="57.95" fill="#000000">data</text>
        <rect x="INF" y="INF" width="-INF" height="-INF" fill="#1E1E1E" stroke="#A5A6A9" stroke-width="1" />
      </g>
      <g id="mathlib.field_theory">
        <rect x="276.38666666666632" y="150.00000000000011" rx="5" ry="5" width="102.03666666666686" height="25" fill="#EEEEEE" stroke="#A5A6A9" stroke-width="1" />
        <text x="296.38666666666632" y="167.9500000000001" fill="#000000">field_theory</text>
        <rect x="INF" y="INF" width="-INF" height="-INF" fill="#1E1E1E" stroke="#A5A6A9" stroke-width="1" />
      </g>
      <g id="mathlib.group_theory">
        <rect x="408.78666666666686" y="150.00000000000011" rx="5" ry="5" width="111.23666666666577" height="25" fill="#EEEEEE" stroke="#A5A6A9" stroke-width="1" />
        <text x="427.78666666666686" y="167.9500000000001" fill="#000000">group_theory</text>
        <rect x="INF" y="INF" width="-INF" height="-INF" fill="#1E1E1E" stroke="#A5A6A9" stroke-width="1" />
      </g>
      <g id="mathlib.linear_algebra">
        <rect x="550.48999999999978" y="150" rx="5" ry="5" width="113.82999999999993" height="25" fill="#EEEEEE" stroke="#A5A6A9" stroke-width="1" />
        <text x="569.48999999999978" y="167.95" fill="#000000">linear_algebra</text>
        <rect x="INF" y="INF" width="-INF" height="-INF" fill="#1E1E1E" stroke="#A5A6A9" stroke-width="1" />
      </g>
      <g id="mathlib.measure_theory">
        <rect x="695.31666666666683" y="150" rx="5" ry="5" width="124.17666666666628" height="25" fill="#EEEEEE" stroke="#A5A6A9" stroke-width="1" />
        <text x="714.31666666666683" y="167.95" fill="#000000">measure_theory</text>
        <rect x="INF" y="INF" width="-INF" height="-INF" fill="#1E1E1E" stroke="#A5A6A9" stroke-width="1" />
      </g>
      <g id="mathlib.number_theory">
        <rect x="547.13333333333321" y="95" rx="5" ry="5" width="120.54333333333307" height="25" fill="none" stroke="#F9EC31" stroke-width="8" />
        <rect x="547.13333333333321" y="95" rx="5" ry="5" width="120.54333333333307" height="25" fill="#EEEEEE" stroke="#A0B862" stroke-width="4" />
        <text x="566.13333333333321" y="112.95" fill="#000000">number_theory</text>
        <rect x="INF" y="INF" width="-INF" height="-INF" fill="#1E1E1E" stroke="#A0B862" stroke-width="4" />
      </g>
      <g id="mathlib.ring_theory">
        <rect x="669.37499999999909" y="40" rx="5" ry="5" width="100.06000000000131" height="25.000000000000114" fill="#EEEEEE" stroke="#A5A6A9" stroke-width="1" />
        <text x="689.37499999999909" y="57.95" fill="#000000">ring_theory</text>
        <rect x="INF" y="INF" width="-INF" height="-INF" fill="#1E1E1E" stroke="#A5A6A9" stroke-width="1" />
      </g>
      <g id="mathlib.tactic">
        <rect x="850.288333333333" y="150" rx="5" ry="5" width="68.233333333333576" height="25" fill="#EEEEEE" stroke="#A5A6A9" stroke-width="1" />
        <text x="870.288333333333" y="167.95" fill="#000000">tactic</text>
        <rect x="INF" y="INF" width="-INF" height="-INF" fill="#1E1E1E" stroke="#A5A6A9" stroke-width="1" />
      </g>
      <g id="mathlib.topology">
        <rect x="949.40999999999985" y="150" rx="5" ry="5" width="87.989999999999782" height="25" fill="#EEEEEE" stroke="#A5A6A9" stroke-width="1" />
        <text x="968.40999999999985" y="167.95" fill="#000000">topology</text>
        <rect x="INF" y="INF" width="-INF" height="-INF" fill="#1E1E1E" stroke="#A5A6A9" stroke-width="1" />
      </g>
    </g>
    <text x="1087.3999999999996" y="22.950000000000003" fill="#000000">LEGEND</text>
    <text x="1087.3999999999996" y="45.910000000000004" fill="#000000">Circular References</text>
    <text x="1087.3999999999996" y="68.87" fill="#000000">Center</text>
    <rect x="1208.0066666666662" y="32.96" width="20" height="20" fill="none" stroke="#D02030" stroke-width="1" />
    <rect x="1228.0066666666662" y="32.96" width="20" height="20" fill="none" stroke="#D02030" stroke-width="1" />
    <rect x="1208.0066666666662" y="55.92" width="20" height="20" fill="none" stroke="#A0B862" stroke-width="1" />
    <rect x="1077.3999999999996" width="180.60666666666668" height="85.92" fill="none" stroke="#000000" stroke-width="1" />
  </g>
</svg>