<?xml version="1.0" encoding="utf-8"?>
<svg stroke-linecap="round" font-size="12" font-family="Segoe UI" width="1711.5916666666633" height="682.43500000000006" xmlns:xlink="http://www.w3.org/1999/xlink" xmlns="http://www.w3.org/2000/svg">
  <defs />
  <rect width="1631.5916666666633" height="602.43500000000006" fill="#FFFFFF" />
  <g transform="translate(19,20)">
    <path d="M 765.961666666667,15.8871050543235 L 376,30.9948437500002 C 190,38.2007812500003 109,103.05421875 133,225.55515625 L 188.726643040772,509.995406925936" fill="none" stroke="#A0A0A0" stroke-width="1" />
    <path d="M 190.456999053579,518.827500000001 L 192.459755961156,508.245016134237 C 190.035101273967,509.739057887001 187.418184807578,510.25175596487 184.609006561987,509.783110367843 z" fill="#A0A0A0" stroke="#A0A0A0" stroke-width="1" stroke-linejoin="round" />
    <path d="M 841,25.96 L 841,48.6475" fill="none" stroke="#D02030" stroke-width="2" />
    <path d="M 841,57.6475 L 845,47.6475 C 842.333333333333,48.6475 839.666666666667,48.6475 837,47.6475 z" fill="#D02030" stroke="#D02030" stroke-width="1" stroke-linejoin="round" />
    <path d="M 916.038333333334,20.8165440594807 L 979,27.391875 C 1071,36.9997916666666 1117,51.4116666666669 1117,70.6275000000001 C 1117,89.8433333333336 1099.16666666667,104.255208333334 1063.5,113.863125 L 1057.99938853542,115.344884343012" fill="none" stroke="#D02030" stroke-width="2" />
    <path d="M 1049.30917418216,117.685861595019 L 1060.00540224223,118.947093249793 C 1058.34619998016,116.632323506458 1057.65257709068,114.057445179566 1057.92453357378,111.222458269118 z" fill="#D02030" stroke="#D02030" stroke-width="1" stroke-linejoin="round" />
    <path d="M 934.118738887203,198.9025 L 937,200.334375 C 956.333333333333,209.942291666667 964.833333333333,257.981875 962.5,344.453125 L 959.593018204937,452.18327480558" fill="none" stroke="#D02030" stroke-width="2" />
    <path d="M 959.35025128776,461.18 L 963.618536837699,451.291535080501 C 960.925866381888,452.219240274791 958.260170027986,452.147309336368 955.621447775992,451.075742265232 z" fill="#D02030" stroke="#D02030" stroke-width="1" stroke-linejoin="round" />
    <path d="M 877.828353354439,172.9425 L 874.5,171.510625 C 852.166666666667,161.902708333334 841,142.686875 841,113.863125 L 841,92.6075000000002" fill="none" stroke="#D02030" stroke-width="2" />
    <path d="M 841,83.6075000000002 L 837,93.6075000000002 C 839.666666666667,92.6075000000002 842.333333333333,92.6075000000002 845,93.6075000000002 z" fill="#D02030" stroke="#D02030" stroke-width="1" stroke-linejoin="round" />
    <path d="M 946.182651870623,198.151024576176 L 953,200.334375 C 983,209.942291666667 1042.16666666667,248.373958333334 1130.5,315.629375 C 1218.83333333333,382.884791666667 1263,435.728333333334 1263,474.16 L 1263,509.8275" fill="none" stroke="#A0A0A0" stroke-width="1" />
    <path d="M 1263,518.8275 L 1267,508.8275 C 1264.33333333333,509.8275 1261.66666666667,509.8275 1259,508.8275 z" fill="#A0A0A0" stroke="#A0A0A0" stroke-width="1" stroke-linejoin="round" />
    <path d="M 868.990658728729,196.945985298704 L 857,200.334375 C 825.466901521,209.24518036553 798.951359340878,218.155985731061 777.453373459635,227.066791096591" fill="none" stroke="#D02030" stroke-width="2" />
    <path d="M 769.171646645562,230.59 L 779.939435951603,230.356090913578 C 777.975330334214,228.293713587565 776.931416585056,225.839868605617 776.807694704128,222.994555967735 z" fill="#D02030" stroke="#D02030" stroke-width="1" stroke-linejoin="round" />
    <path d="M 1457.23869205083,487.14 L 1455.5,488.571875 C 1443.83333333333,498.179791666667 1408.83333333333,507.787708333334 1350.5,517.395625 L 1304.70701766189,524.938056283819" fill="none" stroke="#A0A0A0" stroke-width="1" />
    <path d="M 1295.82666666667,526.40071352381 L 1306.34379321246,528.722361477251 C 1304.92370762337,526.253663838666 1304.49032770041,523.622448728971 1305.04365344358,520.828716148166 z" fill="#A0A0A0" stroke="#A0A0A0" stroke-width="1" stroke-linejoin="round" />
    <path d="M 1306.46333333333,15.78420499 L 214.1875,91.3445703125002 C 136.0625,96.7490234375005 100,112.9623828125 106,139.9846484375 L 188.167091229896,510.041475912141" fill="none" stroke="#A0A0A0" stroke-width="1" />
    <path d="M 190.117932260723,518.8275 L 191.855230709963,508.198210555345 C 189.468724428097,509.752462426093 186.865458031694,510.33048939819 184.045431520755,509.932291471636 z" fill="#A0A0A0" stroke="#A0A0A0" stroke-width="1" stroke-linejoin="round" />
    <path d="M 1343.3974153259,25.96 L 1331,70.6275000000001 C 1320.33333333333,109.059166666667 1258.65118927738,134.763143189006 1145.95356783215,147.739429567018 C 1050.29172846414,158.754173331507 986.955648414814,167.341928656691 955.94532768416,173.502695542568" fill="none" stroke="#A0A0A0" stroke-width="1" />
    <path d="M 947.144745887775,175.386776232226 L 957.760539301384,177.204722930999 C 956.224450749294,174.806485438329 955.666204619025,172.198905646807 956.085800910577,169.381983556435 z" fill="#A0A0A0" stroke="#A0A0A0" stroke-width="1" stroke-linejoin="round" />
    <path d="M 1361.41033869639,25.96 L 1363,27.391875 C 1373.66666666667,36.9997916666666 1331.66666666667,104.255208333333 1237,229.158125 L 1110.2741242637,396.359866161284" fill="none" stroke="#A0A0A0" stroke-width="1" />
    <path d="M 1104.83782737926,403.5325 L 1114.06599451251,397.979038794509 C 1111.33673668425,397.165243477497 1109.21151184315,395.554488845072 1107.69031998921,393.146774897234 z" fill="#A0A0A0" stroke="#A0A0A0" stroke-width="1" stroke-linejoin="round" />
    <path d="M 1347,25.96 L 1347,27.391875 C 1347,36.9997916666666 1297.92300023078,91.1715488504855 1199.76900069235,189.907146551456 L 1162.96125086543,226.93299568932 C 1089.34575121161,300.984693965048 1040.84575121161,355.029225215048 1017.46125086543,389.06658943932 L 973.013940496809,453.761976101866" fill="none" stroke="#A0A0A0" stroke-width="1" />
    <path d="M 967.91757694554,461.18 L 976.877102623899,455.202801691526 C 974.112907000237,454.516992924276 971.914973993382,453.006959279455 970.283303603335,450.672700757064 z" fill="#A0A0A0" stroke="#A0A0A0" stroke-width="1" stroke-linejoin="round" />
    <path d="M 1306.46333333333,17.4396135337149 L 1216,27.391875 C 1128.66666666667,36.9997916666666 1044.33333333333,46.6077083333334 963,56.215625 L 918.324520077714,61.4931449361065" fill="none" stroke="#A0A0A0" stroke-width="1" />
    <path d="M 909.386666666667,62.5489746584699 L 919.786872555548,65.3482098163095 C 918.480939295842,62.8172713673728 918.168100859586,60.1690185048402 918.84835724678,57.4034512287117 z" fill="#A0A0A0" stroke="#A0A0A0" stroke-width="1" stroke-linejoin="round" />
    <path d="M 1375.82067739278,25.96 L 1379,27.391875 C 1400.33333333333,36.9997916666666 1410.33333333333,118.667083333333 1409,272.39375 L 1408.5,330.04125 C 1407.5,445.33625 1389,506.58671875 1353,513.79265625 L 1304.65161273244,523.470307829884" fill="none" stroke="#A0A0A0" stroke-width="1" />
    <path d="M 1295.82666666667,525.236752546297 L 1306.41724883594,527.196234446183 C 1304.91330824599,524.777707247036 1304.3899172189,522.162908412732 1304.84707575468,519.351837943271 z" fill="#A0A0A0" stroke="#A0A0A0" stroke-width="1" stroke-linejoin="round" />
    <path d="M 1387.53666666667,17.5441357259115 L 1475,27.391875 C 1560.33333333333,36.9997916666666 1603,133.078958333334 1603,315.629375 L 1603,567.475" fill="none" stroke="#A0A0A0" stroke-width="1" />
    <path d="M 1603,576.475 L 1607,566.475 C 1604.33333333333,567.475 1601.66666666667,567.475 1599,566.475 z" fill="#A0A0A0" stroke="#A0A0A0" stroke-width="1" stroke-linejoin="round" />
    <path d="M 301.33158419706,256.55 L 298.5,257.981875 C 279.5,267.589791666667 257.166666666667,315.629375 231.5,402.100625 L 199.413737437268,510.199556102377" fill="none" stroke="#A0A0A0" stroke-width="1" />
    <path d="M 196.852764165354,518.827500000001 L 203.532931755313,510.379106012381 C 200.691951348027,510.578959550068 198.135523526509,509.820152654686 195.863648290759,508.102685326235 z" fill="#A0A0A0" stroke="#A0A0A0" stroke-width="1" stroke-linejoin="round" />
    <path d="M 373.383277678997,256.55 L 378.5,257.981875 C 411.570428831168,267.236377650703 444.176964771033,276.490880301406 476.319607819592,285.745382952109" fill="none" stroke="#A0A0A0" stroke-width="1" />
    <path d="M 484.967691573789,288.2375 L 476.466317201522,281.624888278255 C 476.688810345206,284.464185358894 475.950405293978,287.026580545323 474.251102047841,289.312073837542 z" fill="#A0A0A0" stroke="#A0A0A0" stroke-width="1" stroke-linejoin="round" />
    <path d="M 385.265,252.497256793386 L 611.946805108137,287.229028604738 C 611.96419847332,287.231693584357 611.979579332695,287.239610263739 611.992947686262,287.252778642885 L 721.486447577956,395.108388037083 C 794.495482525985,467.025296012361 903,507.787708333334 1047,517.395625 L 1221.19329969337,529.018088245456" fill="none" stroke="#A0A0A0" stroke-width="1" />
    <path d="M 1230.17333333333,529.617250848766 L 1220.46181266818,524.960388560662 C 1221.28206452349,527.687712891388 1221.10453486325,530.348463599524 1219.92922368746,532.94264068507 z" fill="#A0A0A0" stroke="#A0A0A0" stroke-width="1" stroke-linejoin="round" />
    <path d="M 315.741922893448,256.55 L 314.5,257.981875 C 306.166666666667,267.589791666667 311.333333333334,306.021458333334 330,373.276875 L 351.990463321082,452.507827143877" fill="none" stroke="#A0A0A0" stroke-width="1" />
    <path d="M 354.397415325903,461.18 L 355.577323256601,450.474495935498 C 353.275229670137,452.151241661681 350.705696972026,452.864412626073 347.868725162269,452.614008828673 z" fill="#A0A0A0" stroke="#A0A0A0" stroke-width="1" stroke-linejoin="round" />
    <path d="M 330.152261589835,256.55 L 330.5,257.981875 C 332.833333333333,267.589791666667 359,286.805625 409,315.629375 L 453.686663680599,341.390119445273" fill="none" stroke="#A0A0A0" stroke-width="1" />
    <path d="M 461.483845786895,345.885 L 454.818034804222,337.425274003061 C 454.352571910929,340.234981355452 453.020755450269,342.545257535095 450.822585422243,344.356102541991 z" fill="#A0A0A0" stroke="#A0A0A0" stroke-width="1" stroke-linejoin="round" />
    <path d="M 1339.74192289345,487.14 L 1338.5,488.571875 C 1330.84916673501,497.392903212876 1317.85991870204,506.213931425752 1299.53225590112,515.034959638628" fill="none" stroke="#A0A0A0" stroke-width="1" />
    <path d="M 1291.37035430851,518.8275 L 1302.12470734979,518.241078084077 C 1300.09411373243,516.244130244939 1298.9703980698,513.825789032316 1298.75356036191,510.986054446206 z" fill="#A0A0A0" stroke="#A0A0A0" stroke-width="1" stroke-linejoin="round" />
    <path d="M 1105.80775402229,429.4925 L 1107,430.924375 C 1115,440.532291666667 1119,454.944166666667 1119,474.16 C 1119,493.375833333334 964.666666666667,507.787708333334 656,517.395625 L 267.125643115429,529.500179259451" fill="none" stroke="#A0A0A0" stroke-width="1" />
    <path d="M 258.13,529.780188080454 L 268.249607382033,533.467130775086 C 267.167125903726,530.832867128404 267.084160327132,528.167491390499 268.000710652253,525.471003561372 z" fill="#A0A0A0" stroke="#A0A0A0" stroke-width="1" stroke-linejoin="round" />
    <path d="M 1076.98707662952,429.4925 L 1075,430.924375 C 1061.66666666667,440.532291666667 1039,450.140208333334 1007,459.748125 L 999.469849414294,462.009033103591" fill="none" stroke="#D02030" stroke-width="2" />
    <path d="M 990.85,464.597120442709 L 1001.57787149993,465.55251202782 C 999.85326976083,463.286047831635 999.086429067758,460.732018375548 999.277349420719,457.890423659559 z" fill="#D02030" stroke="#D02030" stroke-width="1" stroke-linejoin="round" />
    <path d="M 1113.6133541495,403.5325 L 1157,373.276875 C 1198.33333333333,344.453125 1213.66666666667,291.609583333334 1203,214.74625 C 1192.33333333333,137.882916666667 1129.33333333333,94.647291666667 1014,85.0393750000002 L 918.355599046123,77.0716573641782" fill="none" stroke="#D02030" stroke-width="2" />
    <path d="M 909.386666666667,76.3244947495182 L 919.020074815102,81.1408676011209 C 918.244908288395,78.4003880870606 918.46628980385,75.7429266412959 919.684219361467,73.1684832638267 z" fill="#D02030" stroke="#D02030" stroke-width="1" stroke-linejoin="round" />
    <path d="M 1127.42326206687,429.4925 L 1131,430.924375 C 1155,440.532291666667 1183,459.748125 1215,488.571875 L 1241.90248240933,512.804075854561" fill="none" stroke="#A0A0A0" stroke-width="1" />
    <path d="M 1248.58966130361,518.8275 L 1243.83653993016,509.162726996498 C 1242.79484154199,511.813382685037 1241.01012327667,513.794769024084 1238.48238513421,515.106886013637 z" fill="#A0A0A0" stroke="#A0A0A0" stroke-width="1" stroke-linejoin="round" />
    <path d="M 956.147953799673,461.18 L 930.5,344.453125 C 914.538095008401,271.808605157644 905.986758756661,226.287943183919 904.845991244777,207.891139078825" fill="none" stroke="#D02030" stroke-width="2" />
    <path d="M 905.298061494427,198.9025 L 900.800810515338,208.688956643295 C 903.514341010877,207.824165708507 906.177641478677,207.958112449144 908.790711918739,209.090796865206 z" fill="#D02030" stroke="#D02030" stroke-width="1" stroke-linejoin="round" />
    <path d="M 1017.84127672492,314.1975 L 1016.5,315.629375 C 1007.5,325.237291666667 963.666666666667,354.061041666667 885,402.100625 C 806.333333333333,450.140208333334 671.333333333334,483.767916666667 480,502.98375 L 267.084951595098,524.36706054516" fill="none" stroke="#A0A0A0" stroke-width="1" />
    <path d="M 258.13,525.266416942509 L 268.479660171153,528.247110543276 C 267.21818957989,525.69372004073 266.951713610305,523.04040104959 267.680232262398,520.287153569855 z" fill="#A0A0A0" stroke="#A0A0A0" stroke-width="1" stroke-linejoin="round" />
    <path d="M 1055.82,308.360366462853 L 1058.01848171218,308.968556288226 C 1076.6974695203,314.135927147043 1113.53080285363,328.547802147043 1168.51848171218,352.204181288226 C 1223.50616057073,375.860560429409 1253,411.708541666667 1257,459.748125 L 1261.1724268824,509.858537229851" fill="none" stroke="#A0A0A0" stroke-width="1" />
    <path d="M 1261.91922459777,518.8275 L 1265.07565503409,508.530075715226 C 1262.50116210761,509.747900531278 1259.8436916572,509.969173928424 1257.10324368285,509.193895906665 z" fill="#A0A0A0" stroke="#A0A0A0" stroke-width="1" stroke-linejoin="round" />
    <path d="M 544.410338696388,314.1975 L 546,315.629375 C 556.017621440896,324.652669250219 549.865123750971,333.675963500439 527.542506930227,342.699257750658" fill="none" stroke="#D02030" stroke-width="2" />
    <path d="M 519.125200572445,345.885 L 529.893648636355,346.086311437523 C 528.014468744944,343.946266099959 527.070545115509,341.452249401357 527.06187774805,338.604261341717 z" fill="#D02030" stroke="#D02030" stroke-width="1" stroke-linejoin="round" />
    <path d="M 1090.35096925279,371.845 L 1092.71733606948,394.58085517754" fill="none" stroke="#A0A0A0" stroke-width="1" />
    <path d="M 1093.64903074721,403.5325 L 1096.5923232486,393.172141451607 C 1094.04350567281,394.442826336394 1091.39116646615,394.718884018686 1088.63530562864,394.000314498483 z" fill="#A0A0A0" stroke="#A0A0A0" stroke-width="1" stroke-linejoin="round" />
    <path d="M 782.245431215043,83.6075000000002 C 738.642556603564,92.0997401983979 617.871320142329,110.648528778859 419.931721831339,139.253865741382 C 204.643907277113,170.366288580461 113,243.570000000001 145,358.865 L 186.990463321081,510.155327143877" fill="none" stroke="#A0A0A0" stroke-width="1" />
    <path d="M 189.397415325903,518.827500000001 L 190.5773232566,508.121995935498 C 188.275229670137,509.798741661681 185.705696972026,510.511912626073 182.868725162268,510.261508828673 z" fill="#A0A0A0" stroke="#A0A0A0" stroke-width="1" stroke-linejoin="round" />
    <path d="M 855.410338696388,83.6075000000002 L 857,85.0393750000002 C 867.666666666667,94.647291666667 878.833333333333,113.863125 890.5,142.686875 L 899.369518068416,164.599969693529" fill="none" stroke="#D02030" stroke-width="2" />
    <path d="M 902.746230683609,172.9425 L 902.70211902516,162.17226071939 C 900.605448484189,164.099715972759 898.133587652642,165.100223414298 895.286536530518,165.173783044006 z" fill="#D02030" stroke="#D02030" stroke-width="1" stroke-linejoin="round" />
    <path d="M 909.386666666667,75.8422094797179 L 1030,85.0393750000002 C 1156,94.6472916666669 1224.33333333333,137.882916666667 1235,214.74625 C 1245.66666666667,291.609583333334 1225,344.453125 1173,373.276875 L 1126.28839832914,399.169250551163" fill="none" stroke="#D02030" stroke-width="2" />
    <path d="M 1118.41680038163,403.5325 L 1129.10224230057,402.182933033519 C 1126.93480565489,400.335413210054 1125.64199100339,398.003087892273 1125.22379834605,395.185957080178 z" fill="#D02030" stroke="#D02030" stroke-width="1" stroke-linejoin="round" />
    <path d="M 909.386666666667,75.4352077642277 L 1046,85.0393750000002 C 1182.66666666667,94.6472916666669 1232.0058077906,155.046033723982 1194.01742337179,266.235601171946 L 1140.59625778285,422.595930395646 C 1138.22198375668,429.545278361144 1135.18031709001,433.448494506977 1131.47125778285,434.305578833146 L 999.618925948784,464.773834427147" fill="none" stroke="#D02030" stroke-width="2" />
    <path d="M 990.85,466.800145781493 L 1001.49383387836,468.44598914279 C 999.919120223502,466.072934567708 999.318731674066,463.474734286587 999.69266823005,460.651388299427 z" fill="#D02030" stroke="#D02030" stroke-width="1" stroke-linejoin="round" />
    <path d="M 869.820677392775,83.6075000000002 L 873,85.0393750000002 C 894.333333333333,94.647291666667 925.833333333333,133.078958333334 967.5,200.334375 L 1017.21866371901,280.586761668759" fill="none" stroke="#A0A0A0" stroke-width="1" />
    <path d="M 1021.95851635246,288.2375 L 1020.09234157362,277.63007846153 C 1018.35210643475,279.884561278618 1016.08522100327,281.288962058901 1013.29168527918,281.84328080238 z" fill="#A0A0A0" stroke="#A0A0A0" stroke-width="1" stroke-linejoin="round" />
    <path d="M 909.386666666667,78.7060253415302 L 963,85.0393750000002 C 1044.33333333333,94.647291666667 1093.16666666667,113.863125 1109.5,142.686875 L 1122.20763551284,165.112285762036" fill="none" stroke="#D02030" stroke-width="2" />
    <path d="M 1126.64472295705,172.9425 L 1125.19472101369,162.270223093723 C 1123.3676672518,164.454939474004 1121.04760377388,165.769632050067 1118.23453057994,166.214300821911 z" fill="#D02030" stroke="#D02030" stroke-width="1" stroke-linejoin="round" />
    <path d="M 909.386666666667,75.0871384238312 L 1062,85.0393750000002 C 1209.33333333333,94.6472916666669 1331,166.706666666667 1427,301.2175 L 1463,351.6590625 C 1535,452.5421875 1532.5,506.58671875 1455.5,513.79265625 L 1304.78751314735,527.896873921816" fill="none" stroke="#A0A0A0" stroke-width="1" />
    <path d="M 1295.82666666667,528.735462229438 L 1306.15586867081,531.786295879049 C 1304.91174845218,529.224406733768 1304.66327784251,526.569341109863 1305.41045684181,523.821099007333 z" fill="#A0A0A0" stroke="#A0A0A0" stroke-width="1" stroke-linejoin="round" />
    <path d="M 909.169314245932,81.7286032287922 L 929.5,85.0393750000002 C 974.155196806573,92.3112971974774 1001.14755624174,99.5832193949545 1010.47707830549,106.855141592432" fill="none" stroke="#D02030" stroke-width="2" />
    <path d="M 1013.6025846741,115.295 L 1013.88084800123,104.528265605544 C 1011.72742769921,106.392103611897 1009.22672891178,107.318179572966 1006.37875163895,107.306493488748 z" fill="#D02030" stroke="#D02030" stroke-width="1" stroke-linejoin="round" />
    <path d="M 785.790389869465,83.6075000000002 L 457.875,160.70171875 C 304.625,196.73140625 223.625,225.55515625 214.875,247.17296875 L 210.5,257.981875 C 198.833333333333,286.805625 220.5,330.04125 275.5,387.68875 L 339.403438872784,454.668268043979" fill="none" stroke="#D02030" stroke-width="2" />
    <path d="M 345.616115182792,461.18 L 341.607244596571,451.183552799973 C 340.368139903306,453.747871553608 338.438737842263,455.588664534351 335.819038413441,456.705931742202 z" fill="#D02030" stroke="#D02030" stroke-width="1" stroke-linejoin="round" />
    <path d="M 842.726238489672,83.6075000000001 L 855.375,178.7165625 C 861.125,221.9521875 835.875,265.1878125 779.625,308.4234375 L 663.022791297429,398.047781849087" fill="none" stroke="#D02030" stroke-width="2" />
    <path d="M 655.887115659829,403.5325 L 666.253296657569,400.609780115696 C 663.835342134602,399.104918980583 662.210240460257,396.99064471759 661.377991634534,394.266957326718 z" fill="#D02030" stroke="#D02030" stroke-width="1" stroke-linejoin="round" />
    <path d="M 795.067045405265,83.6075000000002 L 790,85.0393750000002 C 756,94.647291666667 739,123.471041666667 739,171.510625 L 739,221.59" fill="none" stroke="#D02030" stroke-width="2" />
    <path d="M 739,230.59 L 743,220.59 C 740.333333333333,221.59 737.666666666667,221.59 735,220.59 z" fill="#D02030" stroke="#D02030" stroke-width="1" stroke-linejoin="round" />
    <path d="M 815.33158419706,83.6075000000002 L 613,185.9225 C 461,262.785833333334 401.5,310.825416666667 434.5,330.04125 L 453.931494838407,341.35617018886" fill="none" stroke="#D02030" stroke-width="2" />
    <path d="M 461.709007329026,345.885 L 455.08014003329,337.396294658458 C 454.602432588206,340.203946116176 453.260557088609,342.508394261544 451.054513534498,344.309639094563 z" fill="#D02030" stroke="#D02030" stroke-width="1" stroke-linejoin="round" />
    <path d="M 1154.2645387918,198.9025 L 1336.5,315.629375 C 1471.5,402.100625 1539,454.944166666667 1539,474.16 C 1539,493.375833333334 1493,507.787708333334 1401,517.395625 L 1304.77798555393,527.444463003225" fill="none" stroke="#A0A0A0" stroke-width="1" />
    <path d="M 1295.82666666667,528.379283937198 L 1306.18805251205,531.318957960454 C 1304.91647754414,528.770584319856 1304.63949356371,526.118341686594 1305.35710057074,523.362230060668 z" fill="#A0A0A0" stroke="#A0A0A0" stroke-width="1" stroke-linejoin="round" />
    <path d="M 1105.20166666667,194.381945602924 L 1104.56095815061,194.570152287532 C 1084.93493025102,200.335253812552 1032.74754814287,207.639691915321 947.99881182616,216.483466595837 L 916.218035707393,219.79988210103 C 861.316813747362,225.528982708324 822.490481091969,230.072734792546 799.739037741214,233.431138353695" fill="none" stroke="#D02030" stroke-width="2" />
    <path d="M 790.846666666667,234.818847499214 L 801.34383859195,237.229113370658 C 799.944624281291,234.748526661035 799.533451201137,232.113750046355 800.110319351488,229.324783526616 z" fill="#D02030" stroke="#D02030" stroke-width="1" stroke-linejoin="round" />
    <path d="M 1295.82666666667,537.373309607844 L 1564.53497396718,582.93319826992" fill="none" stroke="#A0A0A0" stroke-width="1" />
    <path d="M 1573.40833333333,584.43768939951 L 1564.21770787298,578.822317315007 C 1564.75786154193,581.618626511971 1564.31208639242,584.24777002787 1562.88038242445,586.709747862703 z" fill="#A0A0A0" stroke="#A0A0A0" stroke-width="1" stroke-linejoin="round" />
    <path d="M 971.021316363654,139.739406453706 L 961,142.686875 C 928.333333333333,152.294791666667 799.523525951087,168.604465252889 574.570577853262,191.615895758665 L 258.230494590694,223.975719907414 C 244.17093533458,225.413934314025 236.01468533458,228.716655668191 233.761744590694,233.883883969914 L 183.070577853262,350.146520758665 C 147.023525951087,432.822173586222 139.666666666667,483.767916666667 161,502.983750000001 L 171.902482409331,512.804075854561" fill="none" stroke="#A0A0A0" stroke-width="1" />
    <path d="M 178.589661303613,518.827500000001 L 173.836539930161,509.162726996498 C 172.794841541988,511.813382685038 171.010123276673,513.794769024084 168.482385134215,515.106886013637 z" fill="#A0A0A0" stroke="#A0A0A0" stroke-width="1" stroke-linejoin="round" />
    <path d="M 1029.36389262327,115.295 L 1031.5,113.863125 C 1045.83333333333,104.255208333334 1053,89.8433333333336 1053,70.6275000000001 C 1053,51.4116666666669 1017.66666666667,36.9997916666666 947,27.391875 L 924.948119976453,24.3936774677891" fill="none" stroke="#D02030" stroke-width="2" />
    <path d="M 916.030168560787,23.1811831181792 L 925.400117089478,28.491933024708 C 924.768491183918,25.714855455295 925.127748768987,23.0724994802831 926.477889844686,20.5648650996723 z" fill="#D02030" stroke="#D02030" stroke-width="1" stroke-linejoin="round" />
    <path d="M 995.589661303613,141.255 L 994,142.686875 C 984.083819147935,151.618797432335 968.694155255462,160.550719864669 947.831008322579,169.482642297004" fill="none" stroke="#D02030" stroke-width="2" />
    <path d="M 939.522615898348,172.9425 L 950.291877571047,172.790832518551 C 948.343579834134,170.713515248742 947.318436811024,168.251769345266 947.216448501717,165.405594808124 z" fill="#D02030" stroke="#D02030" stroke-width="1" stroke-linejoin="round" />
    <path d="M 1024.41033869639,141.255 L 1026,142.686875 C 1036.66666666667,152.294791666667 1049.5,181.118541666667 1064.5,229.158125 C 1079.5,277.197708333334 1071,310.825416666667 1039,330.04125 C 1007,349.257083333334 985.666666666667,378.080833333334 975,416.5125 L 965.009536678919,452.507827143877" fill="none" stroke="#D02030" stroke-width="2" />
    <path d="M 962.602584674097,461.18 L 969.131274837732,452.614008828673 C 966.294303027974,452.864412626073 963.724770329864,452.151241661681 961.4226767434,450.474495935498 z" fill="#D02030" stroke="#D02030" stroke-width="1" stroke-linejoin="round" />
    <path d="M 1010,141.255 L 1010,142.686875 C 1010,152.294791666667 1013.33333333333,181.118541666667 1020,229.158125 L 1026.961593212,279.3229305861" fill="none" stroke="#A0A0A0" stroke-width="1" />
    <path d="M 1028.19870766295,288.2375 L 1030.78616690141,277.782594228577 C 1028.28227016221,279.139654371144 1025.64091626179,279.506206801056 1022.86210520016,278.882251518311 z" fill="#A0A0A0" stroke="#A0A0A0" stroke-width="1" stroke-linejoin="round" />
    <path d="M 978.477384101652,115.295 L 975,113.863125 C 952.548686714213,104.618395838269 925.622542026557,95.3736666765376 894.221565937032,86.1289375148061" fill="none" stroke="#D02030" stroke-width="2" />
    <path d="M 885.581985341949,83.6075000000002 L 894.060880441016,90.2489108364879 C 893.848019638542,87.4088753807443 894.595112235522,84.8489996488679 896.302158231955,82.5692836408588 z" fill="#D02030" stroke="#D02030" stroke-width="1" stroke-linejoin="round" />
    <path d="M 1038.82067739278,141.255 L 1042,142.686875 C 1063.33333333333,152.294791666667 1105.5,219.550208333334 1168.5,344.453125 L 1252.39986503702,510.791821048622" fill="none" stroke="#A0A0A0" stroke-width="1" />
    <path d="M 1256.45299515957,518.8275 L 1255.5209301129,508.097576666221 C 1253.59033599278,510.191357326762 1251.20939408126,511.392284770482 1248.37810437834,511.700358997383 z" fill="#A0A0A0" stroke="#A0A0A0" stroke-width="1" stroke-linejoin="round" />
    <path d="M 325.576737933128,487.14 L 322,488.571875 C 299.030786005803,497.767137248129 272.85576164652,506.962399496257 243.474926922152,516.157661744386" fill="none" stroke="#A0A0A0" stroke-width="1" />
    <path d="M 234.880046836377,518.8275 L 245.616508378622,519.680959754106 C 243.870458515576,517.430977312649 243.079395328727,514.884346176123 243.243318818076,512.041066344528 z" fill="#A0A0A0" stroke="#A0A0A0" stroke-width="1" stroke-linejoin="round" />
    <path d="M 363.092455579837,461.18 L 405.975841256487,351.875885834179 C 408.108100867886,346.441036315698 410.003934201219,343.438562357365 411.663341256487,342.868463959179 L 429.087115336793,336.882430778229 C 441.621636327794,332.576127321032 460.274078652269,326.020022911595 485.044442310217,317.214117549919" fill="none" stroke="#D02030" stroke-width="2" />
    <path d="M 493.523830174769,314.1975 L 482.761569191969,313.780680448998 C 484.597536006525,315.957911940356 485.491348613908,318.470323159482 485.443007014119,321.317914106378 z" fill="#D02030" stroke="#D02030" stroke-width="1" stroke-linejoin="round" />
    <path d="M 298.107029793139,461.18 L 291.5,459.748125 C 247.166666666667,450.140208333334 214.833333333334,402.100625 194.5,315.629375 C 174.166666666667,229.158125 260.478900956129,170.331732563121 453.436702868388,139.150197689361 C 618.864429653873,112.417459335543 725.400051184221,94.4796043309497 773.043567459431,85.3366326755821" fill="none" stroke="#D02030" stroke-width="2" />
    <path d="M 781.875900117921,83.6075000000002 L 771.293693752673,81.6032773468733 C 772.787399655641,84.0281389483984 773.299735263221,86.6451264027659 772.830700575413,89.4542397099758 z" fill="#D02030" stroke="#D02030" stroke-width="1" stroke-linejoin="round" />
    <path d="M 390.423262066872,487.14 L 394,488.571875 C 418,498.179791666667 568.833333333333,507.787708333334 846.5,517.395625 L 1221.17871644882,530.360385688165" fill="none" stroke="#A0A0A0" stroke-width="1" />
    <path d="M 1230.17333333333,530.671620488196 L 1220.31764115055,526.328196539488 C 1221.22482530808,529.027849853422 1221.13260758955,531.692921522909 1220.04098799497,534.323411547948 z" fill="#A0A0A0" stroke="#A0A0A0" stroke-width="1" stroke-linejoin="round" />
    <path d="M 362.503230842621,461.18 L 373,430.924375 C 382.595074366014,403.26777252426 402.317348461857,384.456741964054 432.166822287526,374.491283319381" fill="none" stroke="#D02030" stroke-width="2" />
    <path d="M 440.768983910838,371.845 L 430.034900631878,370.962131855619 C 431.774780314285,373.216889004817 432.558864260768,375.765677633946 432.387152471328,378.608497743006 z" fill="#D02030" stroke="#D02030" stroke-width="1" stroke-linejoin="round" />
    <path d="M 634.196553767871,429.4925 L 623,459.748125 C 612.333333333333,488.571875 538,507.787708333334 400,517.395625 L 267.108266111985,526.647890977427" fill="none" stroke="#A0A0A0" stroke-width="1" />
    <path d="M 258.13,527.272981068841 L 268.383669053945,530.568777017041 C 267.200872051454,527.978004475499 267.015660172516,525.317777479356 267.828033417133,522.58809602861 z" fill="#A0A0A0" stroke="#A0A0A0" stroke-width="1" stroke-linejoin="round" />
    <path d="M 653.86066178065,403.5325 L 754.5,315.629375 C 823.212071801888,255.613024103041 866.309359756516,218.549443959992 883.791863863886,204.438634570852" fill="none" stroke="#D02030" stroke-width="2" />
    <path d="M 890.88772279804,198.9025 L 880.542930839712,201.900045552434 C 882.971695779315,203.387396210237 884.612031948456,205.489872931468 885.463939347136,208.207475716127 z" fill="#D02030" stroke="#D02030" stroke-width="1" stroke-linejoin="round" />
    <path d="M 674.046666666667,422.826102239584 L 918.292579407873,466.826621785673" fill="none" stroke="#D02030" stroke-width="2" />
    <path d="M 927.15,468.422272265625 L 918.017599555393,462.712695913622 C 918.52897207157,465.514411327581 918.056186744177,468.138832243766 916.599243573214,470.58595866218 z" fill="#D02030" stroke="#D02030" stroke-width="1" stroke-linejoin="round" />
    <path d="M 639,403.5325 L 639,387.68875 C 639,368.472916666667 633.666666666667,354.061041666667 623,344.453125 C 612.981150462286,335.428724551167 596.345630163824,326.404324102333 573.093439104614,317.379923653499" fill="none" stroke="#D02030" stroke-width="2" />
    <path d="M 564.674877488183,314.1975 L 572.614424327107,321.475109222302 C 572.621968933726,318.627117967044 573.564909275503,316.132729339954 575.443245352439,313.991943341029 z" fill="#D02030" stroke="#D02030" stroke-width="1" stroke-linejoin="round" />
    <path d="M 652.960015612126,403.5325 L 732,330.04125 C 794,272.39375 827.666666666667,214.74625 833,157.09875 L 838.970032461838,92.569228810543" fill="none" stroke="#D02030" stroke-width="2" />
    <path d="M 839.799138441968,83.6075000000002 L 834.894918992693,93.1964849094342 C 837.64236893435,92.4463982949681 840.297695989325,92.6920593261179 842.86090015762,93.9334680028834 z" fill="#D02030" stroke="#D02030" stroke-width="1" stroke-linejoin="round" />
    <path d="M 639,429.4925 L 639,459.748125 C 639,488.571875 743,507.787708333334 951,517.395625 L 1221.18291961068,529.875889309501" fill="none" stroke="#A0A0A0" stroke-width="1" />
    <path d="M 1230.17333333333,530.29117366453 L 1220.36855557707,525.834007171096 C 1221.24444321883,528.543976165404 1221.12139600253,531.207802453598 1219.99941392815,533.825486035677 z" fill="#A0A0A0" stroke="#A0A0A0" stroke-width="1" stroke-linejoin="round" />
    <path d="M 603.953333333333,423.702367319099 L 430.086777656599,459.371307775948" fill="none" stroke="#D02030" stroke-width="2" />
    <path d="M 421.270393338827,461.18 L 431.870239124819,463.088735003396 C 430.354732060162,460.677438785988 429.818823253035,458.065176765908 430.262512703439,455.251948943155 z" fill="#D02030" stroke="#D02030" stroke-width="1" stroke-linejoin="round" />
    <path d="M 648.006461685242,403.5325 L 689,344.453125 C 716.105710119636,305.388714396957 732.190627422926,279.030726871521 737.25475190987,265.37916242369" fill="none" stroke="#D02030" stroke-width="2" />
    <path d="M 739,256.55 L 733.136763267104,265.584514652931 C 735.946727847101,265.120607151078 738.562775972639,265.637717696302 740.984907643718,267.135846288602 z" fill="#D02030" stroke="#D02030" stroke-width="1" stroke-linejoin="round" />
    <path d="M 603.953333333333,407.57288620944 L 582.5,402.100625 C 549.308354685205,393.634185295201 525.305329187302,385.167745590402 510.49092350629,376.701305885603" fill="none" stroke="#D02030" stroke-width="2" />
    <path d="M 502.913569539009,371.845 L 509.174493553498,380.608608302794 C 509.771470782497,377.823876843718 511.210376230082,375.578734927487 513.491209896255,373.8731825541 z" fill="#D02030" stroke="#D02030" stroke-width="1" stroke-linejoin="round" />
    <path d="M 687.610674947864,255.142133265403 L 675,257.981875 C 632.333333333334,267.589791666667 583.611176155635,273.339800558162 528.833528466904,275.231901674486 L 487.750292700356,276.650977511729 C 460.361468855991,277.597028069892 425.528135522658,289.606923903225 383.250292700356,312.680665011729 L 319.833528466904,347.291276674486 C 235.277842822302,393.438758891496 193,435.728333333334 193,474.160000000001 L 193,509.827500000001" fill="none" stroke="#A0A0A0" stroke-width="1" />
    <path d="M 193,518.827500000001 L 197,508.827500000001 C 194.333333333334,509.827500000001 191.666666666667,509.827500000001 189,508.827500000001 z" fill="#A0A0A0" stroke="#A0A0A0" stroke-width="1" stroke-linejoin="round" />
    <path d="M 753.410338696388,256.55 L 755,257.981875 C 765.666666666667,267.589791666667 802.333333333333,306.021458333334 865,373.276875 L 940.770243452778,454.595374377947" fill="none" stroke="#D02030" stroke-width="2" />
    <path d="M 946.905608594103,461.18 L 943.015036491321,451.13692035713 C 941.745743544934,453.686431394047 939.794743360622,455.504317361847 937.162035938384,456.59057826053 z" fill="#D02030" stroke="#D02030" stroke-width="1" stroke-linejoin="round" />
    <path d="M 695.768983910838,256.55 L 691,257.981875 C 659.881651234145,267.325078179582 626.083944117293,276.668281359163 589.606878649443,286.011484538745" fill="none" stroke="#D02030" stroke-width="2" />
    <path d="M 580.886508521619,288.2375 L 591.565148868648,289.639869544305 C 589.936658717777,287.303391224348 589.277098581109,284.719577853141 589.586468458643,281.888429430683 z" fill="#D02030" stroke="#D02030" stroke-width="1" stroke-linejoin="round" />
    <path d="M 710.179322607225,230.59 L 707,229.158125 C 685.666666666667,219.550208333334 675,195.530416666667 675,157.09875 C 675,118.667083333334 702.666666666667,94.647291666667 758,85.0393750000002 L 764.33958379428,83.9385883831908" fill="none" stroke="#D02030" stroke-width="2" />
    <path d="M 773.206902398092,82.3988933554399 L 762.670017270411,80.1686351179131 C 764.111480827205,82.6249115529964 764.567686761354,85.2522652133852 764.038635072856,88.0506960990798 z" fill="#D02030" stroke="#D02030" stroke-width="1" stroke-linejoin="round" />
    <path d="M 768.120892782283,256.55 L 836,286.805625 C 900.666666666667,315.629375 965.038556077398,330.88436985091 1029.11566823219,332.570609552729 L 1101.20241940634,334.467629217276 C 1117.22169744504,334.889189142731 1130.97169744504,343.296116226064 1142.45241940634,359.688410467276 L 1248.7461502772,511.45570509427" fill="none" stroke="#A0A0A0" stroke-width="1" />
    <path d="M 1253.90915714025,518.8275 L 1251.44883613941,508.341947054502 C 1249.83826804101,510.690815188634 1247.65403251339,512.220594999906 1244.89612955654,512.93128648832 z" fill="#A0A0A0" stroke="#A0A0A0" stroke-width="1" stroke-linejoin="round" />
    <path d="M 457.117427709023,371.845 L 358.776471028027,419.328016279204 C 308.687059439238,443.513222790886 272.312059439238,465.131035290886 249.651471028027,484.181453779204 L 215.328807672811,513.036004626925" fill="none" stroke="#A0A0A0" stroke-width="1" />
    <path d="M 208.439788777232,518.827500000001 L 218.668252160353,515.45429131684 C 216.186806987341,514.056600018862 214.470808358281,512.015409234987 213.520256273175,509.330718965214 z" fill="#A0A0A0" stroke="#A0A0A0" stroke-width="1" stroke-linejoin="round" />
    <path d="M 425.683160588057,345.885 L 354.5,330.04125 C 268.166666666667,310.825416666667 232.096488497799,287.26775740019 246.289465493395,259.368272200568 L 256.934198240092,238.443658300852 C 264.030686737891,224.493915701041 304.197353404557,217.287978201041 377.434198240092,216.825845800852 L 487.289465493395,216.132647200568 C 633.763155164465,215.20838240019 728.987240788446,212.597767711397 772.961722365338,208.30080313419 C 809.005865824341,204.778751205316 838.012799464651,200.916078940015 859.982523286266,196.712786338285" fill="none" stroke="#D02030" stroke-width="2" />
    <path d="M 868.803333333333,194.925802814706 L 858.208218381667,192.990980042208 C 859.717784986476,195.405999664646 860.247261586055,198.019573011925 859.796648180404,200.831700084047 z" fill="#D02030" stroke="#D02030" stroke-width="1" stroke-linejoin="round" />
    <path d="M 504.124738549274,371.845 L 580.026282096768,420.799774385481 C 594.799556265502,430.328201214017 624.487056265502,437.534138714017 669.088782096768,442.417586885481 L 918.203466145396,469.693182742568" fill="none" stroke="#D02030" stroke-width="2" />
    <path d="M 927.15,470.672739779408 L 917.644765511257,465.608105803096 C 918.348585706409,468.367770319664 918.058346584383,471.018595165473 916.774048145178,473.560580340521 z" fill="#D02030" stroke="#D02030" stroke-width="1" stroke-linejoin="round" />
    <path d="M 484,345.885 L 484,344.453125 C 484,336.011341028619 489.91856735648,327.569557057237 501.755702069438,319.127773085856" fill="none" stroke="#D02030" stroke-width="2" />
    <path d="M 509.285138123943,314.1975 L 498.727865580779,316.329165182282 C 501.025291241904,318.012301077781 502.486112896972,320.243245093931 503.110330545984,323.021997230731 z" fill="#D02030" stroke="#D02030" stroke-width="1" stroke-linejoin="round" />
    <path d="M 439.418014658051,345.885 L 434.5,344.453125 C 401.5,334.845208333334 390.166666666667,310.825416666667 400.5,272.39375 L 404.375,257.981875 C 412.125,229.158125 469.125,196.73140625 575.375,160.70171875 L 794.199255663764,86.4977700536658" fill="none" stroke="#D02030" stroke-width="2" />
    <path d="M 802.722537837721,83.6075000000002 L 791.967659842807,83.0307857600924 C 793.771067507666,85.23506158345 794.627443819863,87.7604785238816 794.536788779398,90.6070365813871 z" fill="#D02030" stroke="#D02030" stroke-width="1" stroke-linejoin="round" />
    <path d="M 481.523223036559,371.845 L 473,416.5125 C 465.666666666667,454.944166666667 595.5,483.767916666667 862.5,502.98375 L 1221.19655136114,528.798930330326" fill="none" stroke="#A0A0A0" stroke-width="1" />
    <path d="M 1230.17333333333,529.44498406159 L 1220.48626613368,524.737465705877 C 1221.29226302503,527.469036704816 1221.10083969725,530.128823955837 1219.91199615033,532.716827458939 z" fill="#A0A0A0" stroke="#A0A0A0" stroke-width="1" stroke-linejoin="round" />
    <path d="M 458.33158419706,371.845 L 455.5,373.276875 C 436.5,382.884791666667 415.5,402.100625 392.5,430.924375 L 373.970901628882,454.145161920632" fill="none" stroke="#D02030" stroke-width="2" />
    <path d="M 368.357430938029,461.18 L 377.721215296474,455.858389107748 C 375.013099862862,454.976787208166 372.928703394901,453.313536633098 371.468025892591,450.868637382545 z" fill="#D02030" stroke="#D02030" stroke-width="1" stroke-linejoin="round" />
    <path d="M 538.038770111453,371.845 L 544,373.276875 C 578.588885975763,381.5850533512 602.584726346446,389.893231702399 615.987521112049,398.201410053598" fill="none" stroke="#D02030" stroke-width="2" />
    <path d="M 623.238692050826,403.5325 L 617.551208761697,394.386324086763 C 616.77731221522,397.127162507112 615.197730008878,399.275657600083 612.812462142673,400.831809365676 z" fill="#D02030" stroke="#D02030" stroke-width="1" stroke-linejoin="round" />
    <path d="M 553.800078060627,345.885 L 561.5,344.453125 C 613.166666666667,334.845208333334 650.333333333333,320.433333333334 673,301.2175 C 692.320053923248,284.838782227347 707.281050295837,271.950186262355 717.882989117766,262.551712105025" fill="none" stroke="#D02030" stroke-width="2" />
    <path d="M 724.589661303613,256.55 L 714.470375717106,260.237825811873 C 716.993846583689,261.558131040455 718.772131651844,263.545293169594 719.805230921572,266.199312199292 z" fill="#D02030" stroke="#D02030" stroke-width="1" stroke-linejoin="round" />
    <path d="M 39.3134037893935,24.5485004300858 L 33,27.3918750000003 C 11.6666666666665,36.9997916666669 1,118.667083333334 1.00000000000023,272.39375 C 1.00000000000023,426.120416666667 33.0000000000002,507.787708333334 97.0000000000002,517.395625000001 L 118.969734397036,520.693802769931" fill="none" stroke="#A0A0A0" stroke-width="1" />
    <path d="M 127.87,522.029943554688 L 118.574656345488,516.589669081418 C 119.167681179963,519.375244902825 118.771787614109,522.012360637036 117.386975647925,524.501016284053 z" fill="#A0A0A0" stroke="#A0A0A0" stroke-width="1" stroke-linejoin="round" />
    <path d="M 91.1416666666667,14.4852915168372 L 403.959178395469,32.4979742094754 C 588.7568717428,43.1390095984495 708.924398799394,51.5034865476046 764.46175956525,57.5914050569413" fill="none" stroke="#A0A0A0" stroke-width="1" />
    <path d="M 773.402876791044,58.6192293389067 L 763.925112887702,53.5033724808142 C 764.614029829245,56.2667950975643 764.309489301255,58.9160150163183 763.011491303732,61.4510322370761 z" fill="#A0A0A0" stroke="#A0A0A0" stroke-width="1" stroke-linejoin="round" />
    <path d="M 90.9498046523061,24.0156330108562 L 370,142.686875 C 573.333333333334,229.158125 669,296.413541666667 657,344.453125 L 644.423453922253,394.80079444562" fill="none" stroke="#A0A0A0" stroke-width="1" />
    <path d="M 642.242326206687,403.5325 L 648.546559470374,394.799995035385 C 645.717039930309,395.123924477556 643.129867914197,394.477664413685 640.785043422036,392.861214843771 z" fill="#A0A0A0" stroke="#A0A0A0" stroke-width="1" stroke-linejoin="round" />
    <rect x="127.87" y="518.827500000001" rx="3" ry="3" width="130.26" height="25.96" fill="#80C0C0" stroke="#A5A6A9" stroke-width="1" />
    <text x="137.87" y="536.777500000001" fill="#000000">Visual Studio Interop</text>
    <rect x="765.961666666667" rx="3" ry="3" width="150.076666666667" height="25.96" fill="#80C0C0" stroke="#D02030" stroke-width="2" />
    <text x="775.961666666667" y="17.950000000000003" fill="#000000">System Definition Model</text>
    <rect x="868.803333333333" y="172.9425" rx="3" ry="3" width="78.3933333333333" height="25.96" fill="#80C0C0" stroke="#D02030" stroke-width="2" />
    <text x="878.803333333333" y="190.89249999999998" fill="#000000">Visual C++</text>
    <rect x="1438.46833333333" y="461.18" rx="3" ry="3" width="69.0633333333333" height="25.96" fill="#80C0C0" stroke="#A5A6A9" stroke-width="1" />
    <text x="1448.46833333333" y="479.13" fill="#000000">Visual C#</text>
    <rect x="1306.46333333333" rx="3" ry="3" width="81.0733333333333" height="25.96" fill="#80C0C0" stroke="#A5A6A9" stroke-width="1" />
    <text x="1316.46333333333" y="17.950000000000003" fill="#000000">Visual Basic</text>
    <rect x="268.735" y="230.59" rx="3" ry="3" width="116.53" height="25.96" fill="#80C0C0" stroke="#A5A6A9" stroke-width="1" />
    <text x="278.735" y="248.54" fill="#000000">Visual Source Safe</text>
    <rect x="1326" y="461.18" rx="3" ry="3" width="50" height="25.96" fill="#80C0C0" stroke="#A5A6A9" stroke-width="1" />
    <text x="1338" y="479.13" fill="#000000">Help</text>
    <rect x="1054.29" y="403.5325" rx="3" ry="3" width="81.4200000000001" height="25.96" fill="#80C0C0" stroke="#D02030" stroke-width="2" />
    <text x="1064.29" y="421.4825" fill="#000000">VSA / VSTO</text>
    <rect x="927.15" y="461.18" rx="3" ry="3" width="63.7" height="25.96" fill="#80C0C0" stroke="#D02030" stroke-width="2" />
    <text x="937.15" y="479.13" fill="#000000">MSBuild</text>
    <rect x="1004.18" y="288.2375" rx="3" ry="3" width="51.64" height="25.96" fill="#80C0C0" stroke="#A5A6A9" stroke-width="1" />
    <text x="1014.18" y="306.1875" fill="#000000">Venus</text>
    <rect x="448.443333333334" y="288.2375" rx="3" ry="3" width="163.113333333333" height="25.96" fill="#80C0C0" stroke="#D02030" stroke-width="2" />
    <text x="458.443333333334" y="306.1875" fill="#000000">Team Foundation.Common</text>
    <rect x="1054.45333333333" y="345.885" rx="3" ry="3" width="69.0933333333332" height="25.96" fill="#80C0C0" stroke="#A5A6A9" stroke-width="1" />
    <text x="1064.45333333333" y="363.835" fill="#000000">FabriKam</text>
    <rect x="772.613333333333" y="57.6475" rx="3" ry="3" width="136.773333333333" height="25.96" fill="#80C0C0" stroke="#D02030" stroke-width="2" />
    <text x="782.613333333333" y="75.5975" fill="#000000">Visual Studio Platform</text>
    <rect x="1105.20166666667" y="172.9425" rx="3" ry="3" width="57.5966666666666" height="25.96" fill="#80C0C0" stroke="#D02030" stroke-width="2" />
    <text x="1115.20166666667" y="190.89249999999998" fill="#000000">VS Perf</text>
    <rect x="1230.17333333333" y="518.8275" rx="3" ry="3" width="65.6533333333334" height="25.96" fill="#80C0C0" stroke="#A5A6A9" stroke-width="1" />
    <text x="1240.17333333333" y="536.7775" fill="#000000">CRT 10.0</text>
    <rect x="1573.40833333333" y="576.475" rx="3" ry="3" width="59.1833333333334" height="25.96" fill="#80C0C0" stroke="#A5A6A9" stroke-width="1" />
    <text x="1583.40833333333" y="594.42500000000007" fill="#000000">CRT 9.0</text>
    <rect x="970.628333333333" y="115.295" rx="3" ry="3" width="78.7433333333333" height="25.96" fill="#80C0C0" stroke="#D02030" stroke-width="2" />
    <text x="980.628333333333" y="133.245" fill="#000000">DSL Toolkit</text>
    <rect x="285.388333333334" y="461.18" rx="3" ry="3" width="145.223333333333" height="25.96" fill="#80C0C0" stroke="#D02030" stroke-width="2" />
    <text x="295.388333333334" y="479.13" fill="#000000">Team Foundation Client</text>
    <rect x="603.953333333334" y="403.5325" rx="3" ry="3" width="70.0933333333334" height="25.96" fill="#80C0C0" stroke="#D02030" stroke-width="2" />
    <text x="613.953333333334" y="421.4825" fill="#000000">VSTS Test</text>
    <rect x="687.153333333333" y="230.59" rx="3" ry="3" width="103.693333333333" height="25.96" fill="#80C0C0" stroke="#D02030" stroke-width="2" />
    <text x="697.153333333333" y="248.54" fill="#000000">VSTS Developer</text>
    <rect x="410.066666666667" y="345.885" rx="3" ry="3" width="147.866666666667" height="25.96" fill="#80C0C0" stroke="#D02030" stroke-width="2" />
    <text x="420.066666666667" y="363.835" fill="#000000">Team Foundation Server</text>
    <rect x="38.8583333333333" y="2.27373675443232E-13" rx="3" ry="3" width="52.2833333333333" height="25.96" fill="#80C0C0" stroke="#A5A6A9" stroke-width="1" />
    <text x="48.8583333333333" y="17.95000000000023" fill="#000000">CIDER</text>
  </g>
</svg>